<?xml version="1.0" encoding="utf-8" standalone="no"?>
<!DOCTYPE svg PUBLIC "-//W3C//DTD SVG 1.1//EN"
  "http://www.w3.org/Graphics/SVG/1.1/DTD/svg11.dtd">
<svg xmlns:xlink="http://www.w3.org/1999/xlink" width="559.210315pt" height="329.671219pt" viewBox="0 0 559.210315 329.671219" xmlns="http://www.w3.org/2000/svg" version="1.1">
 <metadata>
  <rdf:RDF xmlns:dc="http://purl.org/dc/elements/1.1/" xmlns:cc="http://creativecommons.org/ns#" xmlns:rdf="http://www.w3.org/1999/02/22-rdf-syntax-ns#">
   <cc:Work>
    <dc:type rdf:resource="http://purl.org/dc/dcmitype/StillImage"/>
    <dc:date>2022-12-21T13:13:28.260688</dc:date>
    <dc:format>image/svg+xml</dc:format>
    <dc:creator>
     <cc:Agent>
      <dc:title>Matplotlib v3.6.2, https://matplotlib.org/</dc:title>
     </cc:Agent>
    </dc:creator>
   </cc:Work>
  </rdf:RDF>
 </metadata>
 <defs>
  <style type="text/css">*{stroke-linejoin: round; stroke-linecap: butt}</style>
 </defs>
 <g id="figure_1">
  <g id="patch_1">
   <path d="M 0 329.671219 
L 559.210315 329.671219 
L 559.210315 0 
L 0 0 
z
" style="fill: #ffffff"/>
  </g>
  <g id="axes_1">
   <g id="patch_2">
    <path d="M 59.792969 287.937 
L 416.912969 287.937 
L 416.912969 21.825 
L 59.792969 21.825 
z
" style="fill: #ffffff"/>
   </g>
   <g id="matplotlib.axis_1">
    <g id="xtick_1">
     <g id="line2d_1">
      <path d="M 76.025696 287.937 
L 76.025696 21.825 
" clip-path="url(#p951907f6dc)" style="fill: none; stroke: #cccccc; stroke-linecap: round"/>
     </g>
     <g id="text_1">
      <!-- 0 -->
      <g style="fill: #262626" transform="translate(72.96718 305.310594) scale(0.11 -0.11)">
       <defs>
        <path id="ArialMT-30" d="M 266 2259 
Q 266 3072 433 3567 
Q 600 4063 929 4331 
Q 1259 4600 1759 4600 
Q 2128 4600 2406 4451 
Q 2684 4303 2865 4023 
Q 3047 3744 3150 3342 
Q 3253 2941 3253 2259 
Q 3253 1453 3087 958 
Q 2922 463 2592 192 
Q 2263 -78 1759 -78 
Q 1097 -78 719 397 
Q 266 969 266 2259 
z
M 844 2259 
Q 844 1131 1108 757 
Q 1372 384 1759 384 
Q 2147 384 2411 759 
Q 2675 1134 2675 2259 
Q 2675 3391 2411 3762 
Q 2147 4134 1753 4134 
Q 1366 4134 1134 3806 
Q 844 3388 844 2259 
z
" transform="scale(0.015625)"/>
       </defs>
       <use xlink:href="#ArialMT-30"/>
      </g>
     </g>
    </g>
    <g id="xtick_2">
     <g id="line2d_2">
      <path d="M 141.612473 287.937 
L 141.612473 21.825 
" clip-path="url(#p951907f6dc)" style="fill: none; stroke: #cccccc; stroke-linecap: round"/>
     </g>
     <g id="text_2">
      <!-- 20 -->
      <g style="fill: #262626" transform="translate(135.495442 305.310594) scale(0.11 -0.11)">
       <defs>
        <path id="ArialMT-32" d="M 3222 541 
L 3222 0 
L 194 0 
Q 188 203 259 391 
Q 375 700 629 1000 
Q 884 1300 1366 1694 
Q 2113 2306 2375 2664 
Q 2638 3022 2638 3341 
Q 2638 3675 2398 3904 
Q 2159 4134 1775 4134 
Q 1369 4134 1125 3890 
Q 881 3647 878 3216 
L 300 3275 
Q 359 3922 746 4261 
Q 1134 4600 1788 4600 
Q 2447 4600 2831 4234 
Q 3216 3869 3216 3328 
Q 3216 3053 3103 2787 
Q 2991 2522 2730 2228 
Q 2469 1934 1863 1422 
Q 1356 997 1212 845 
Q 1069 694 975 541 
L 3222 541 
z
" transform="scale(0.015625)"/>
       </defs>
       <use xlink:href="#ArialMT-32"/>
       <use xlink:href="#ArialMT-30" x="55.615234"/>
      </g>
     </g>
    </g>
    <g id="xtick_3">
     <g id="line2d_3">
      <path d="M 207.19925 287.937 
L 207.19925 21.825 
" clip-path="url(#p951907f6dc)" style="fill: none; stroke: #cccccc; stroke-linecap: round"/>
     </g>
     <g id="text_3">
      <!-- 40 -->
      <g style="fill: #262626" transform="translate(201.082218 305.310594) scale(0.11 -0.11)">
       <defs>
        <path id="ArialMT-34" d="M 2069 0 
L 2069 1097 
L 81 1097 
L 81 1613 
L 2172 4581 
L 2631 4581 
L 2631 1613 
L 3250 1613 
L 3250 1097 
L 2631 1097 
L 2631 0 
L 2069 0 
z
M 2069 1613 
L 2069 3678 
L 634 1613 
L 2069 1613 
z
" transform="scale(0.015625)"/>
       </defs>
       <use xlink:href="#ArialMT-34"/>
       <use xlink:href="#ArialMT-30" x="55.615234"/>
      </g>
     </g>
    </g>
    <g id="xtick_4">
     <g id="line2d_4">
      <path d="M 272.786027 287.937 
L 272.786027 21.825 
" clip-path="url(#p951907f6dc)" style="fill: none; stroke: #cccccc; stroke-linecap: round"/>
     </g>
     <g id="text_4">
      <!-- 60 -->
      <g style="fill: #262626" transform="translate(266.668995 305.310594) scale(0.11 -0.11)">
       <defs>
        <path id="ArialMT-36" d="M 3184 3459 
L 2625 3416 
Q 2550 3747 2413 3897 
Q 2184 4138 1850 4138 
Q 1581 4138 1378 3988 
Q 1113 3794 959 3422 
Q 806 3050 800 2363 
Q 1003 2672 1297 2822 
Q 1591 2972 1913 2972 
Q 2475 2972 2870 2558 
Q 3266 2144 3266 1488 
Q 3266 1056 3080 686 
Q 2894 316 2569 119 
Q 2244 -78 1831 -78 
Q 1128 -78 684 439 
Q 241 956 241 2144 
Q 241 3472 731 4075 
Q 1159 4600 1884 4600 
Q 2425 4600 2770 4297 
Q 3116 3994 3184 3459 
z
M 888 1484 
Q 888 1194 1011 928 
Q 1134 663 1356 523 
Q 1578 384 1822 384 
Q 2178 384 2434 671 
Q 2691 959 2691 1453 
Q 2691 1928 2437 2201 
Q 2184 2475 1800 2475 
Q 1419 2475 1153 2201 
Q 888 1928 888 1484 
z
" transform="scale(0.015625)"/>
       </defs>
       <use xlink:href="#ArialMT-36"/>
       <use xlink:href="#ArialMT-30" x="55.615234"/>
      </g>
     </g>
    </g>
    <g id="xtick_5">
     <g id="line2d_5">
      <path d="M 338.372803 287.937 
L 338.372803 21.825 
" clip-path="url(#p951907f6dc)" style="fill: none; stroke: #cccccc; stroke-linecap: round"/>
     </g>
     <g id="text_5">
      <!-- 80 -->
      <g style="fill: #262626" transform="translate(332.255772 305.310594) scale(0.11 -0.11)">
       <defs>
        <path id="ArialMT-38" d="M 1131 2484 
Q 781 2613 612 2850 
Q 444 3088 444 3419 
Q 444 3919 803 4259 
Q 1163 4600 1759 4600 
Q 2359 4600 2725 4251 
Q 3091 3903 3091 3403 
Q 3091 3084 2923 2848 
Q 2756 2613 2416 2484 
Q 2838 2347 3058 2040 
Q 3278 1734 3278 1309 
Q 3278 722 2862 322 
Q 2447 -78 1769 -78 
Q 1091 -78 675 323 
Q 259 725 259 1325 
Q 259 1772 486 2073 
Q 713 2375 1131 2484 
z
M 1019 3438 
Q 1019 3113 1228 2906 
Q 1438 2700 1772 2700 
Q 2097 2700 2305 2904 
Q 2513 3109 2513 3406 
Q 2513 3716 2298 3927 
Q 2084 4138 1766 4138 
Q 1444 4138 1231 3931 
Q 1019 3725 1019 3438 
z
M 838 1322 
Q 838 1081 952 856 
Q 1066 631 1291 507 
Q 1516 384 1775 384 
Q 2178 384 2440 643 
Q 2703 903 2703 1303 
Q 2703 1709 2433 1975 
Q 2163 2241 1756 2241 
Q 1359 2241 1098 1978 
Q 838 1716 838 1322 
z
" transform="scale(0.015625)"/>
       </defs>
       <use xlink:href="#ArialMT-38"/>
       <use xlink:href="#ArialMT-30" x="55.615234"/>
      </g>
     </g>
    </g>
    <g id="xtick_6">
     <g id="line2d_6">
      <path d="M 403.95958 287.937 
L 403.95958 21.825 
" clip-path="url(#p951907f6dc)" style="fill: none; stroke: #cccccc; stroke-linecap: round"/>
     </g>
     <g id="text_6">
      <!-- 100 -->
      <g style="fill: #262626" transform="translate(394.784033 305.310594) scale(0.11 -0.11)">
       <defs>
        <path id="ArialMT-31" d="M 2384 0 
L 1822 0 
L 1822 3584 
Q 1619 3391 1289 3197 
Q 959 3003 697 2906 
L 697 3450 
Q 1169 3672 1522 3987 
Q 1875 4303 2022 4600 
L 2384 4600 
L 2384 0 
z
" transform="scale(0.015625)"/>
       </defs>
       <use xlink:href="#ArialMT-31"/>
       <use xlink:href="#ArialMT-30" x="55.615234"/>
       <use xlink:href="#ArialMT-30" x="111.230469"/>
      </g>
     </g>
    </g>
    <g id="text_7">
     <!-- Window No. -->
     <g style="fill: #262626" transform="translate(206.010156 320.086219) scale(0.12 -0.12)">
      <defs>
       <path id="ArialMT-57" d="M 1294 0 
L 78 4581 
L 700 4581 
L 1397 1578 
Q 1509 1106 1591 641 
Q 1766 1375 1797 1488 
L 2669 4581 
L 3400 4581 
L 4056 2263 
Q 4303 1400 4413 641 
Q 4500 1075 4641 1638 
L 5359 4581 
L 5969 4581 
L 4713 0 
L 4128 0 
L 3163 3491 
Q 3041 3928 3019 4028 
Q 2947 3713 2884 3491 
L 1913 0 
L 1294 0 
z
" transform="scale(0.015625)"/>
       <path id="ArialMT-69" d="M 425 3934 
L 425 4581 
L 988 4581 
L 988 3934 
L 425 3934 
z
M 425 0 
L 425 3319 
L 988 3319 
L 988 0 
L 425 0 
z
" transform="scale(0.015625)"/>
       <path id="ArialMT-6e" d="M 422 0 
L 422 3319 
L 928 3319 
L 928 2847 
Q 1294 3394 1984 3394 
Q 2284 3394 2536 3286 
Q 2788 3178 2913 3003 
Q 3038 2828 3088 2588 
Q 3119 2431 3119 2041 
L 3119 0 
L 2556 0 
L 2556 2019 
Q 2556 2363 2490 2533 
Q 2425 2703 2258 2804 
Q 2091 2906 1866 2906 
Q 1506 2906 1245 2678 
Q 984 2450 984 1813 
L 984 0 
L 422 0 
z
" transform="scale(0.015625)"/>
       <path id="ArialMT-64" d="M 2575 0 
L 2575 419 
Q 2259 -75 1647 -75 
Q 1250 -75 917 144 
Q 584 363 401 755 
Q 219 1147 219 1656 
Q 219 2153 384 2558 
Q 550 2963 881 3178 
Q 1213 3394 1622 3394 
Q 1922 3394 2156 3267 
Q 2391 3141 2538 2938 
L 2538 4581 
L 3097 4581 
L 3097 0 
L 2575 0 
z
M 797 1656 
Q 797 1019 1065 703 
Q 1334 388 1700 388 
Q 2069 388 2326 689 
Q 2584 991 2584 1609 
Q 2584 2291 2321 2609 
Q 2059 2928 1675 2928 
Q 1300 2928 1048 2622 
Q 797 2316 797 1656 
z
" transform="scale(0.015625)"/>
       <path id="ArialMT-6f" d="M 213 1659 
Q 213 2581 725 3025 
Q 1153 3394 1769 3394 
Q 2453 3394 2887 2945 
Q 3322 2497 3322 1706 
Q 3322 1066 3130 698 
Q 2938 331 2570 128 
Q 2203 -75 1769 -75 
Q 1072 -75 642 372 
Q 213 819 213 1659 
z
M 791 1659 
Q 791 1022 1069 705 
Q 1347 388 1769 388 
Q 2188 388 2466 706 
Q 2744 1025 2744 1678 
Q 2744 2294 2464 2611 
Q 2184 2928 1769 2928 
Q 1347 2928 1069 2612 
Q 791 2297 791 1659 
z
" transform="scale(0.015625)"/>
       <path id="ArialMT-77" d="M 1034 0 
L 19 3319 
L 600 3319 
L 1128 1403 
L 1325 691 
Q 1338 744 1497 1375 
L 2025 3319 
L 2603 3319 
L 3100 1394 
L 3266 759 
L 3456 1400 
L 4025 3319 
L 4572 3319 
L 3534 0 
L 2950 0 
L 2422 1988 
L 2294 2553 
L 1622 0 
L 1034 0 
z
" transform="scale(0.015625)"/>
       <path id="ArialMT-20" transform="scale(0.015625)"/>
       <path id="ArialMT-4e" d="M 488 0 
L 488 4581 
L 1109 4581 
L 3516 984 
L 3516 4581 
L 4097 4581 
L 4097 0 
L 3475 0 
L 1069 3600 
L 1069 0 
L 488 0 
z
" transform="scale(0.015625)"/>
       <path id="ArialMT-2e" d="M 581 0 
L 581 641 
L 1222 641 
L 1222 0 
L 581 0 
z
" transform="scale(0.015625)"/>
      </defs>
      <use xlink:href="#ArialMT-57"/>
      <use xlink:href="#ArialMT-69" x="94.384766"/>
      <use xlink:href="#ArialMT-6e" x="116.601562"/>
      <use xlink:href="#ArialMT-64" x="172.216797"/>
      <use xlink:href="#ArialMT-6f" x="227.832031"/>
      <use xlink:href="#ArialMT-77" x="283.447266"/>
      <use xlink:href="#ArialMT-20" x="355.664062"/>
      <use xlink:href="#ArialMT-4e" x="383.447266"/>
      <use xlink:href="#ArialMT-6f" x="455.664062"/>
      <use xlink:href="#ArialMT-2e" x="511.279297"/>
     </g>
    </g>
   </g>
   <g id="matplotlib.axis_2">
    <g id="ytick_1">
     <g id="line2d_7">
      <path d="M 59.792969 280.540444 
L 416.912969 280.540444 
" clip-path="url(#p951907f6dc)" style="fill: none; stroke: #cccccc; stroke-linecap: round"/>
     </g>
     <g id="text_8">
      <!-- −0.20 -->
      <g style="fill: #262626" transform="translate(22.46125 284.477241) scale(0.11 -0.11)">
       <defs>
        <path id="ArialMT-2212" d="M 3381 1997 
L 356 1997 
L 356 2522 
L 3381 2522 
L 3381 1997 
z
" transform="scale(0.015625)"/>
       </defs>
       <use xlink:href="#ArialMT-2212"/>
       <use xlink:href="#ArialMT-30" x="58.398438"/>
       <use xlink:href="#ArialMT-2e" x="114.013672"/>
       <use xlink:href="#ArialMT-32" x="141.796875"/>
       <use xlink:href="#ArialMT-30" x="197.412109"/>
      </g>
     </g>
    </g>
    <g id="ytick_2">
     <g id="line2d_8">
      <path d="M 59.792969 236.589803 
L 416.912969 236.589803 
" clip-path="url(#p951907f6dc)" style="fill: none; stroke: #cccccc; stroke-linecap: round"/>
     </g>
     <g id="text_9">
      <!-- −0.15 -->
      <g style="fill: #262626" transform="translate(22.46125 240.526599) scale(0.11 -0.11)">
       <defs>
        <path id="ArialMT-35" d="M 266 1200 
L 856 1250 
Q 922 819 1161 601 
Q 1400 384 1738 384 
Q 2144 384 2425 690 
Q 2706 997 2706 1503 
Q 2706 1984 2436 2262 
Q 2166 2541 1728 2541 
Q 1456 2541 1237 2417 
Q 1019 2294 894 2097 
L 366 2166 
L 809 4519 
L 3088 4519 
L 3088 3981 
L 1259 3981 
L 1013 2750 
Q 1425 3038 1878 3038 
Q 2478 3038 2890 2622 
Q 3303 2206 3303 1553 
Q 3303 931 2941 478 
Q 2500 -78 1738 -78 
Q 1113 -78 717 272 
Q 322 622 266 1200 
z
" transform="scale(0.015625)"/>
       </defs>
       <use xlink:href="#ArialMT-2212"/>
       <use xlink:href="#ArialMT-30" x="58.398438"/>
       <use xlink:href="#ArialMT-2e" x="114.013672"/>
       <use xlink:href="#ArialMT-31" x="141.796875"/>
       <use xlink:href="#ArialMT-35" x="197.412109"/>
      </g>
     </g>
    </g>
    <g id="ytick_3">
     <g id="line2d_9">
      <path d="M 59.792969 192.639161 
L 416.912969 192.639161 
" clip-path="url(#p951907f6dc)" style="fill: none; stroke: #cccccc; stroke-linecap: round"/>
     </g>
     <g id="text_10">
      <!-- −0.10 -->
      <g style="fill: #262626" transform="translate(22.46125 196.575958) scale(0.11 -0.11)">
       <use xlink:href="#ArialMT-2212"/>
       <use xlink:href="#ArialMT-30" x="58.398438"/>
       <use xlink:href="#ArialMT-2e" x="114.013672"/>
       <use xlink:href="#ArialMT-31" x="141.796875"/>
       <use xlink:href="#ArialMT-30" x="197.412109"/>
      </g>
     </g>
    </g>
    <g id="ytick_4">
     <g id="line2d_10">
      <path d="M 59.792969 148.68852 
L 416.912969 148.68852 
" clip-path="url(#p951907f6dc)" style="fill: none; stroke: #cccccc; stroke-linecap: round"/>
     </g>
     <g id="text_11">
      <!-- −0.05 -->
      <g style="fill: #262626" transform="translate(22.46125 152.625316) scale(0.11 -0.11)">
       <use xlink:href="#ArialMT-2212"/>
       <use xlink:href="#ArialMT-30" x="58.398438"/>
       <use xlink:href="#ArialMT-2e" x="114.013672"/>
       <use xlink:href="#ArialMT-30" x="141.796875"/>
       <use xlink:href="#ArialMT-35" x="197.412109"/>
      </g>
     </g>
    </g>
    <g id="ytick_5">
     <g id="line2d_11">
      <path d="M 59.792969 104.737878 
L 416.912969 104.737878 
" clip-path="url(#p951907f6dc)" style="fill: none; stroke: #cccccc; stroke-linecap: round"/>
     </g>
     <g id="text_12">
      <!-- 0.00 -->
      <g style="fill: #262626" transform="translate(28.885938 108.674675) scale(0.11 -0.11)">
       <use xlink:href="#ArialMT-30"/>
       <use xlink:href="#ArialMT-2e" x="55.615234"/>
       <use xlink:href="#ArialMT-30" x="83.398438"/>
       <use xlink:href="#ArialMT-30" x="139.013672"/>
      </g>
     </g>
    </g>
    <g id="ytick_6">
     <g id="line2d_12">
      <path d="M 59.792969 60.787237 
L 416.912969 60.787237 
" clip-path="url(#p951907f6dc)" style="fill: none; stroke: #cccccc; stroke-linecap: round"/>
     </g>
     <g id="text_13">
      <!-- 0.05 -->
      <g style="fill: #262626" transform="translate(28.885938 64.724034) scale(0.11 -0.11)">
       <use xlink:href="#ArialMT-30"/>
       <use xlink:href="#ArialMT-2e" x="55.615234"/>
       <use xlink:href="#ArialMT-30" x="83.398438"/>
       <use xlink:href="#ArialMT-35" x="139.013672"/>
      </g>
     </g>
    </g>
    <g id="text_14">
     <!-- Hurst (Mean) -->
     <g style="fill: #262626" transform="translate(15.935625 189.885375) rotate(-90) scale(0.12 -0.12)">
      <defs>
       <path id="ArialMT-48" d="M 513 0 
L 513 4581 
L 1119 4581 
L 1119 2700 
L 3500 2700 
L 3500 4581 
L 4106 4581 
L 4106 0 
L 3500 0 
L 3500 2159 
L 1119 2159 
L 1119 0 
L 513 0 
z
" transform="scale(0.015625)"/>
       <path id="ArialMT-75" d="M 2597 0 
L 2597 488 
Q 2209 -75 1544 -75 
Q 1250 -75 995 37 
Q 741 150 617 320 
Q 494 491 444 738 
Q 409 903 409 1263 
L 409 3319 
L 972 3319 
L 972 1478 
Q 972 1038 1006 884 
Q 1059 663 1231 536 
Q 1403 409 1656 409 
Q 1909 409 2131 539 
Q 2353 669 2445 892 
Q 2538 1116 2538 1541 
L 2538 3319 
L 3100 3319 
L 3100 0 
L 2597 0 
z
" transform="scale(0.015625)"/>
       <path id="ArialMT-72" d="M 416 0 
L 416 3319 
L 922 3319 
L 922 2816 
Q 1116 3169 1280 3281 
Q 1444 3394 1641 3394 
Q 1925 3394 2219 3213 
L 2025 2691 
Q 1819 2813 1613 2813 
Q 1428 2813 1281 2702 
Q 1134 2591 1072 2394 
Q 978 2094 978 1738 
L 978 0 
L 416 0 
z
" transform="scale(0.015625)"/>
       <path id="ArialMT-73" d="M 197 991 
L 753 1078 
Q 800 744 1014 566 
Q 1228 388 1613 388 
Q 2000 388 2187 545 
Q 2375 703 2375 916 
Q 2375 1106 2209 1216 
Q 2094 1291 1634 1406 
Q 1016 1563 777 1677 
Q 538 1791 414 1992 
Q 291 2194 291 2438 
Q 291 2659 392 2848 
Q 494 3038 669 3163 
Q 800 3259 1026 3326 
Q 1253 3394 1513 3394 
Q 1903 3394 2198 3281 
Q 2494 3169 2634 2976 
Q 2775 2784 2828 2463 
L 2278 2388 
Q 2241 2644 2061 2787 
Q 1881 2931 1553 2931 
Q 1166 2931 1000 2803 
Q 834 2675 834 2503 
Q 834 2394 903 2306 
Q 972 2216 1119 2156 
Q 1203 2125 1616 2013 
Q 2213 1853 2448 1751 
Q 2684 1650 2818 1456 
Q 2953 1263 2953 975 
Q 2953 694 2789 445 
Q 2625 197 2315 61 
Q 2006 -75 1616 -75 
Q 969 -75 630 194 
Q 291 463 197 991 
z
" transform="scale(0.015625)"/>
       <path id="ArialMT-74" d="M 1650 503 
L 1731 6 
Q 1494 -44 1306 -44 
Q 1000 -44 831 53 
Q 663 150 594 308 
Q 525 466 525 972 
L 525 2881 
L 113 2881 
L 113 3319 
L 525 3319 
L 525 4141 
L 1084 4478 
L 1084 3319 
L 1650 3319 
L 1650 2881 
L 1084 2881 
L 1084 941 
Q 1084 700 1114 631 
Q 1144 563 1211 522 
Q 1278 481 1403 481 
Q 1497 481 1650 503 
z
" transform="scale(0.015625)"/>
       <path id="ArialMT-28" d="M 1497 -1347 
Q 1031 -759 709 28 
Q 388 816 388 1659 
Q 388 2403 628 3084 
Q 909 3875 1497 4659 
L 1900 4659 
Q 1522 4009 1400 3731 
Q 1209 3300 1100 2831 
Q 966 2247 966 1656 
Q 966 153 1900 -1347 
L 1497 -1347 
z
" transform="scale(0.015625)"/>
       <path id="ArialMT-4d" d="M 475 0 
L 475 4581 
L 1388 4581 
L 2472 1338 
Q 2622 884 2691 659 
Q 2769 909 2934 1394 
L 4031 4581 
L 4847 4581 
L 4847 0 
L 4263 0 
L 4263 3834 
L 2931 0 
L 2384 0 
L 1059 3900 
L 1059 0 
L 475 0 
z
" transform="scale(0.015625)"/>
       <path id="ArialMT-65" d="M 2694 1069 
L 3275 997 
Q 3138 488 2766 206 
Q 2394 -75 1816 -75 
Q 1088 -75 661 373 
Q 234 822 234 1631 
Q 234 2469 665 2931 
Q 1097 3394 1784 3394 
Q 2450 3394 2872 2941 
Q 3294 2488 3294 1666 
Q 3294 1616 3291 1516 
L 816 1516 
Q 847 969 1125 678 
Q 1403 388 1819 388 
Q 2128 388 2347 550 
Q 2566 713 2694 1069 
z
M 847 1978 
L 2700 1978 
Q 2663 2397 2488 2606 
Q 2219 2931 1791 2931 
Q 1403 2931 1139 2672 
Q 875 2413 847 1978 
z
" transform="scale(0.015625)"/>
       <path id="ArialMT-61" d="M 2588 409 
Q 2275 144 1986 34 
Q 1697 -75 1366 -75 
Q 819 -75 525 192 
Q 231 459 231 875 
Q 231 1119 342 1320 
Q 453 1522 633 1644 
Q 813 1766 1038 1828 
Q 1203 1872 1538 1913 
Q 2219 1994 2541 2106 
Q 2544 2222 2544 2253 
Q 2544 2597 2384 2738 
Q 2169 2928 1744 2928 
Q 1347 2928 1158 2789 
Q 969 2650 878 2297 
L 328 2372 
Q 403 2725 575 2942 
Q 747 3159 1072 3276 
Q 1397 3394 1825 3394 
Q 2250 3394 2515 3294 
Q 2781 3194 2906 3042 
Q 3031 2891 3081 2659 
Q 3109 2516 3109 2141 
L 3109 1391 
Q 3109 606 3145 398 
Q 3181 191 3288 0 
L 2700 0 
Q 2613 175 2588 409 
z
M 2541 1666 
Q 2234 1541 1622 1453 
Q 1275 1403 1131 1340 
Q 988 1278 909 1158 
Q 831 1038 831 891 
Q 831 666 1001 516 
Q 1172 366 1500 366 
Q 1825 366 2078 508 
Q 2331 650 2450 897 
Q 2541 1088 2541 1459 
L 2541 1666 
z
" transform="scale(0.015625)"/>
       <path id="ArialMT-29" d="M 791 -1347 
L 388 -1347 
Q 1322 153 1322 1656 
Q 1322 2244 1188 2822 
Q 1081 3291 891 3722 
Q 769 4003 388 4659 
L 791 4659 
Q 1378 3875 1659 3084 
Q 1900 2403 1900 1659 
Q 1900 816 1576 28 
Q 1253 -759 791 -1347 
z
" transform="scale(0.015625)"/>
      </defs>
      <use xlink:href="#ArialMT-48"/>
      <use xlink:href="#ArialMT-75" x="72.216797"/>
      <use xlink:href="#ArialMT-72" x="127.832031"/>
      <use xlink:href="#ArialMT-73" x="161.132812"/>
      <use xlink:href="#ArialMT-74" x="211.132812"/>
      <use xlink:href="#ArialMT-20" x="238.916016"/>
      <use xlink:href="#ArialMT-28" x="266.699219"/>
      <use xlink:href="#ArialMT-4d" x="300"/>
      <use xlink:href="#ArialMT-65" x="383.300781"/>
      <use xlink:href="#ArialMT-61" x="438.916016"/>
      <use xlink:href="#ArialMT-6e" x="494.53125"/>
      <use xlink:href="#ArialMT-29" x="550.146484"/>
     </g>
    </g>
   </g>
   <g id="PolyCollection_1"/>
   <g id="PolyCollection_2"/>
   <g id="PolyCollection_3"/>
   <g id="PolyCollection_4"/>
   <g id="PolyCollection_5"/>
   <g id="PolyCollection_6"/>
   <g id="PolyCollection_7"/>
   <g id="PolyCollection_8"/>
   <g id="PolyCollection_9"/>
   <g id="PolyCollection_10"/>
   <g id="PolyCollection_11"/>
   <g id="PolyCollection_12"/>
   <g id="PolyCollection_13"/>
   <g id="PolyCollection_14"/>
   <g id="PolyCollection_15"/>
   <g id="line2d_13">
    <path d="M 76.025696 274.222664 
L 79.305035 275.841 
L 82.584374 274.513157 
L 85.863713 259.589108 
L 89.143051 249.251713 
L 92.42239 255.734482 
L 95.701729 260.796777 
L 98.981068 261.766708 
L 102.260407 257.481048 
L 105.539746 239.563004 
L 108.819084 252.624928 
L 112.098423 252.353629 
L 115.377762 243.909767 
L 118.657101 240.720285 
L 121.93644 245.56163 
L 125.215779 244.238355 
L 128.495118 259.710301 
L 131.774456 250.431964 
L 135.053795 243.638636 
L 138.333134 236.222868 
L 141.612473 247.602159 
L 144.891812 241.787715 
L 148.171151 225.386955 
L 151.450489 219.246626 
L 154.729828 224.417728 
L 158.009167 233.425111 
L 161.288506 233.814466 
L 164.567845 82.150615 
L 167.847184 72.360334 
L 171.126522 73.892314 
L 174.405861 78.115993 
L 177.6852 66.501287 
L 180.964539 77.472916 
L 184.243878 78.802715 
L 187.523217 81.517974 
L 190.802556 80.031614 
L 194.081894 68.733575 
L 197.361233 67.463562 
L 200.640572 61.032419 
L 203.919911 58.188306 
L 207.19925 65.154511 
L 210.478589 66.544846 
L 213.757927 70.357873 
L 217.037266 56.766963 
L 220.316605 67.292228 
L 223.595944 72.833695 
L 226.875283 73.35791 
L 230.154622 79.030594 
L 233.43396 70.923063 
L 236.713299 68.267146 
L 239.992638 70.307844 
L 243.271977 59.617895 
L 246.551316 55.374724 
L 249.830655 57.909897 
L 253.109994 69.211495 
L 256.389332 71.109475 
L 259.668671 64.746748 
L 262.94801 56.696854 
L 266.227349 43.114445 
L 269.506688 58.056324 
L 272.786027 71.098194 
L 276.065365 69.943543 
L 279.344704 82.152353 
L 282.624043 79.05473 
L 285.903382 81.434089 
L 289.182721 83.171755 
L 292.46206 77.556908 
L 295.741399 75.857228 
L 299.020737 81.115191 
L 302.300076 89.708464 
L 305.579415 94.115122 
L 308.858754 87.344313 
L 312.138093 85.212926 
L 315.417432 89.767278 
L 318.69677 104.477192 
L 321.976109 94.738418 
L 325.255448 84.369813 
L 328.534787 87.827909 
L 331.814126 89.497952 
L 335.093465 88.071678 
L 338.372803 87.205751 
L 341.652142 83.046781 
L 344.931481 79.717677 
L 348.21082 75.155422 
L 351.490159 71.043672 
L 354.769498 62.24769 
L 358.048837 61.931374 
L 361.328175 66.318838 
L 364.607514 64.200962 
L 367.886853 64.159801 
L 371.166192 55.320799 
L 374.445531 51.203269 
L 377.72487 59.290118 
L 381.004208 61.883314 
L 384.283547 63.453548 
L 387.562886 63.466812 
L 390.842225 60.903563 
L 394.121564 63.657007 
L 397.400903 76.054985 
L 400.680241 82.092811 
" clip-path="url(#p951907f6dc)" style="fill: none; stroke: #f77189; stroke-width: 1.5; stroke-linecap: round"/>
   </g>
   <g id="line2d_14">
    <path d="M 76.025696 91.297674 
L 79.305035 93.486232 
L 82.584374 84.20304 
L 85.863713 104.868836 
L 89.143051 99.01245 
L 92.42239 89.592167 
L 95.701729 113.801303 
L 98.981068 92.652798 
L 102.260407 83.206834 
L 105.539746 75.150971 
L 108.819084 72.423866 
L 112.098423 78.120427 
L 115.377762 79.871721 
L 118.657101 81.514579 
L 121.93644 86.118531 
L 125.215779 102.186872 
L 128.495118 109.417277 
L 131.774456 102.616012 
L 135.053795 111.789332 
L 138.333134 82.941045 
L 141.612473 63.207297 
L 144.891812 79.211663 
L 148.171151 88.559812 
L 151.450489 94.248476 
L 154.729828 103.320576 
L 158.009167 93.533913 
L 161.288506 104.02591 
L 164.567845 101.951552 
L 167.847184 98.83103 
L 171.126522 92.613738 
L 174.405861 82.093384 
L 177.6852 97.136685 
L 180.964539 105.209044 
L 184.243878 102.909768 
L 187.523217 83.647674 
L 190.802556 64.332536 
L 194.081894 93.166498 
L 197.361233 94.788289 
L 200.640572 92.199306 
L 203.919911 92.495695 
L 207.19925 74.928391 
L 210.478589 81.406685 
L 213.757927 95.420197 
L 217.037266 99.088553 
L 220.316605 107.459447 
L 223.595944 101.942307 
L 226.875283 118.813038 
L 230.154622 108.414327 
L 233.43396 95.803826 
L 236.713299 98.228553 
L 239.992638 92.730326 
L 243.271977 105.848186 
L 246.551316 109.893135 
L 249.830655 108.192378 
L 253.109994 96.824873 
L 256.389332 81.174253 
L 259.668671 101.160812 
L 262.94801 107.61053 
L 266.227349 98.632893 
L 269.506688 97.108398 
L 272.786027 80.229464 
L 276.065365 95.533595 
L 279.344704 106.702404 
L 282.624043 103.776713 
L 285.903382 111.754923 
L 289.182721 113.41855 
L 292.46206 128.581694 
L 295.741399 127.660495 
L 299.020737 125.415081 
L 302.300076 125.896868 
L 305.579415 112.62418 
L 308.858754 122.759922 
L 312.138093 127.79113 
L 315.417432 132.645865 
L 318.69677 143.208656 
L 321.976109 129.012995 
L 325.255448 127.992405 
L 328.534787 124.911862 
L 331.814126 127.356088 
L 335.093465 125.286731 
L 338.372803 121.999765 
L 341.652142 136.203763 
L 344.931481 135.400552 
L 348.21082 130.676535 
L 351.490159 124.152045 
L 354.769498 120.030405 
L 358.048837 129.886581 
L 361.328175 135.361741 
L 364.607514 131.192235 
L 367.886853 132.668918 
L 371.166192 130.517522 
L 374.445531 130.106594 
L 377.72487 147.43047 
" clip-path="url(#p951907f6dc)" style="fill: none; stroke: #f37a32; stroke-width: 1.5; stroke-linecap: round"/>
   </g>
   <g id="line2d_15">
    <path d="M 76.025696 181.781601 
L 79.305035 172.540967 
L 82.584374 174.092863 
L 85.863713 173.528748 
L 89.143051 166.34457 
L 92.42239 163.642975 
L 95.701729 164.45451 
L 98.981068 173.371333 
L 102.260407 171.223829 
L 105.539746 166.481406 
L 108.819084 157.21025 
L 112.098423 133.687225 
L 115.377762 136.454938 
L 118.657101 134.366149 
L 121.93644 138.504608 
L 125.215779 144.533463 
L 128.495118 138.476408 
L 131.774456 139.025099 
L 135.053795 132.688272 
L 138.333134 117.163955 
L 141.612473 116.642439 
L 144.891812 106.597402 
L 148.171151 107.117101 
L 151.450489 94.014639 
L 154.729828 88.262341 
L 158.009167 88.648497 
L 161.288506 80.421773 
L 164.567845 82.483023 
L 167.847184 83.716698 
L 171.126522 70.469818 
L 174.405861 60.082557 
L 177.6852 53.244494 
L 180.964539 57.526361 
L 184.243878 56.921227 
L 187.523217 60.086802 
L 190.802556 60.027976 
L 194.081894 55.338513 
L 197.361233 64.546844 
L 200.640572 72.226347 
L 203.919911 74.443371 
L 207.19925 68.68903 
L 210.478589 69.249901 
L 213.757927 78.134758 
L 217.037266 80.234641 
L 220.316605 81.3342 
L 223.595944 79.589182 
L 226.875283 75.437116 
L 230.154622 81.65825 
L 233.43396 87.533914 
L 236.713299 91.308202 
L 239.992638 85.674412 
L 243.271977 71.454698 
L 246.551316 74.825548 
L 249.830655 81.083177 
L 253.109994 77.888671 
L 256.389332 75.413906 
L 259.668671 72.139052 
L 262.94801 72.78157 
L 266.227349 74.284078 
L 269.506688 72.611423 
L 272.786027 69.116309 
L 276.065365 58.23071 
L 279.344704 66.026033 
L 282.624043 72.407635 
L 285.903382 71.373901 
L 289.182721 77.574624 
L 292.46206 85.619554 
L 295.741399 98.195746 
L 299.020737 101.921806 
L 302.300076 98.276479 
L 305.579415 104.646808 
L 308.858754 108.298611 
L 312.138093 115.652911 
L 315.417432 118.051025 
L 318.69677 110.088633 
L 321.976109 109.09224 
L 325.255448 102.366921 
L 328.534787 113.512097 
L 331.814126 117.629059 
L 335.093465 116.215736 
L 338.372803 114.879569 
L 341.652142 110.112071 
L 344.931481 119.633838 
L 348.21082 123.933707 
L 351.490159 124.222415 
L 354.769498 127.469229 
L 358.048837 124.252565 
L 361.328175 128.379513 
L 364.607514 126.099717 
L 367.886853 131.006607 
L 371.166192 139.901259 
L 374.445531 142.964236 
L 377.72487 149.753987 
" clip-path="url(#p951907f6dc)" style="fill: none; stroke: #ca9232; stroke-width: 1.5; stroke-linecap: round"/>
   </g>
   <g id="line2d_16">
    <path d="M 76.025696 124.962034 
L 79.305035 113.747503 
L 82.584374 125.027513 
L 85.863713 104.876746 
L 89.143051 106.125451 
L 92.42239 105.942045 
L 95.701729 106.269173 
L 98.981068 118.740264 
L 102.260407 116.563522 
L 105.539746 112.044985 
L 108.819084 105.182315 
L 112.098423 108.740514 
L 115.377762 117.608151 
L 118.657101 106.663725 
L 121.93644 107.47545 
L 125.215779 102.124421 
L 128.495118 98.880649 
L 131.774456 101.615655 
L 135.053795 92.469785 
L 138.333134 94.674917 
L 141.612473 101.887618 
L 144.891812 100.481686 
L 148.171151 99.867207 
L 151.450489 84.301425 
L 154.729828 80.343592 
L 158.009167 91.411665 
L 161.288506 102.586165 
L 164.567845 102.046413 
" clip-path="url(#p951907f6dc)" style="fill: none; stroke: #ae9d31; stroke-width: 1.5; stroke-linecap: round"/>
   </g>
   <g id="line2d_17">
    <path d="M 76.025696 87.439599 
L 79.305035 81.846549 
L 82.584374 77.212881 
L 85.863713 81.684077 
L 89.143051 89.038701 
L 92.42239 84.790032 
L 95.701729 90.932053 
L 98.981068 94.714467 
L 102.260407 93.812866 
L 105.539746 106.12807 
L 108.819084 101.065048 
L 112.098423 93.067135 
L 115.377762 89.593742 
L 118.657101 89.717484 
L 121.93644 89.98499 
L 125.215779 93.681646 
L 128.495118 94.750689 
L 131.774456 96.388149 
L 135.053795 110.401498 
L 138.333134 117.728317 
L 141.612473 103.8847 
L 144.891812 107.204588 
L 148.171151 109.241231 
L 151.450489 113.751932 
L 154.729828 139.886685 
L 158.009167 155.07503 
L 161.288506 167.19909 
L 164.567845 172.439338 
" clip-path="url(#p951907f6dc)" style="fill: none; stroke: #8ea631; stroke-width: 1.5; stroke-linecap: round"/>
   </g>
   <g id="line2d_18">
    <path d="M 76.025696 166.344366 
L 79.305035 164.112621 
L 82.584374 147.351186 
L 85.863713 146.801642 
L 89.143051 145.442984 
L 92.42239 150.477526 
L 95.701729 155.348914 
L 98.981068 143.334645 
L 102.260407 145.108393 
L 105.539746 137.642897 
L 108.819084 139.10023 
L 112.098423 141.831224 
L 115.377762 136.728398 
L 118.657101 133.083981 
L 121.93644 127.676421 
L 125.215779 121.61417 
L 128.495118 125.479309 
L 131.774456 122.548388 
L 135.053795 132.553573 
L 138.333134 128.728688 
L 141.612473 133.321616 
L 144.891812 132.65549 
L 148.171151 118.636686 
L 151.450489 117.456693 
L 154.729828 111.234816 
L 158.009167 112.76301 
L 161.288506 118.390071 
L 164.567845 114.430931 
L 167.847184 113.931116 
L 171.126522 107.96911 
L 174.405861 116.494486 
L 177.6852 113.181363 
L 180.964539 104.2516 
L 184.243878 111.222217 
L 187.523217 105.970865 
L 190.802556 113.84151 
L 194.081894 126.08686 
L 197.361233 113.427261 
L 200.640572 125.433378 
L 203.919911 127.512195 
L 207.19925 131.610557 
L 210.478589 137.133884 
L 213.757927 132.586274 
L 217.037266 123.251516 
L 220.316605 109.959159 
L 223.595944 112.388932 
L 226.875283 107.493163 
L 230.154622 102.143663 
L 233.43396 110.129782 
L 236.713299 102.827267 
L 239.992638 96.336886 
L 243.271977 90.240085 
L 246.551316 76.99953 
L 249.830655 64.768984 
L 253.109994 64.408607 
L 256.389332 63.152757 
L 259.668671 67.518102 
L 262.94801 67.419024 
L 266.227349 71.373998 
L 269.506688 59.976915 
L 272.786027 58.447505 
L 276.065365 59.901733 
L 279.344704 66.070742 
L 282.624043 79.759527 
L 285.903382 82.336605 
L 289.182721 83.138541 
L 292.46206 94.901872 
L 295.741399 86.735009 
L 299.020737 86.680681 
L 302.300076 93.87347 
L 305.579415 101.088888 
L 308.858754 97.5103 
L 312.138093 92.790362 
L 315.417432 89.231552 
L 318.69677 86.411949 
L 321.976109 81.167094 
L 325.255448 81.431356 
L 328.534787 81.122157 
L 331.814126 90.584991 
L 335.093465 86.619472 
L 338.372803 83.463414 
L 341.652142 79.764594 
L 344.931481 84.486368 
L 348.21082 75.132434 
L 351.490159 72.986139 
L 354.769498 72.019001 
L 358.048837 74.380433 
L 361.328175 73.741764 
L 364.607514 73.00606 
L 367.886853 70.957233 
L 371.166192 80.325218 
L 374.445531 88.232827 
L 377.72487 91.083464 
" clip-path="url(#p951907f6dc)" style="fill: none; stroke: #50b131; stroke-width: 1.5; stroke-linecap: round"/>
   </g>
   <g id="line2d_19">
    <path d="M 76.025696 118.83899 
L 79.305035 117.019216 
L 82.584374 116.517535 
L 85.863713 98.091134 
L 89.143051 101.564205 
L 92.42239 92.175508 
L 95.701729 83.493458 
L 98.981068 95.521792 
L 102.260407 69.980992 
L 105.539746 74.078347 
L 108.819084 76.916054 
L 112.098423 76.435378 
L 115.377762 89.871204 
L 118.657101 103.129313 
L 121.93644 113.196761 
L 125.215779 103.75899 
L 128.495118 103.124035 
L 131.774456 137.028386 
L 135.053795 120.773361 
L 138.333134 134.129237 
L 141.612473 136.983334 
L 144.891812 122.587493 
L 148.171151 116.617396 
L 151.450489 111.876956 
" clip-path="url(#p951907f6dc)" style="fill: none; stroke: #33b07a; stroke-width: 1.5; stroke-linecap: round"/>
   </g>
   <g id="line2d_20">
    <path d="M 76.025696 68.761338 
L 79.305035 76.228514 
L 82.584374 70.400777 
L 85.863713 70.608501 
L 89.143051 78.136736 
L 92.42239 82.400024 
L 95.701729 87.526826 
L 98.981068 83.197075 
L 102.260407 96.081876 
L 105.539746 88.24506 
L 108.819084 91.092951 
L 112.098423 113.18473 
L 115.377762 115.210697 
L 118.657101 113.446256 
L 121.93644 108.461799 
L 125.215779 98.859509 
L 128.495118 99.165406 
L 131.774456 95.79778 
L 135.053795 110.743195 
L 138.333134 116.931467 
L 141.612473 113.257026 
L 144.891812 119.211229 
L 148.171151 121.183935 
L 151.450489 123.568511 
L 154.729828 132.163719 
L 158.009167 132.59883 
L 161.288506 144.080499 
L 164.567845 132.768884 
L 167.847184 120.856314 
L 171.126522 113.598033 
L 174.405861 118.440282 
L 177.6852 130.439606 
L 180.964539 141.026743 
L 184.243878 153.264983 
L 187.523217 149.436741 
L 190.802556 138.50978 
L 194.081894 152.592736 
L 197.361233 159.660611 
L 200.640572 165.373019 
L 203.919911 158.427163 
L 207.19925 154.045809 
L 210.478589 159.221696 
L 213.757927 156.64327 
L 217.037266 158.3921 
L 220.316605 163.818159 
L 223.595944 150.661202 
L 226.875283 147.886272 
L 230.154622 145.824255 
L 233.43396 145.917284 
L 236.713299 130.413177 
L 239.992638 122.32062 
L 243.271977 122.655057 
L 246.551316 110.575236 
L 249.830655 116.837216 
L 253.109994 119.904093 
L 256.389332 105.174351 
L 259.668671 96.745996 
L 262.94801 92.090929 
L 266.227349 85.209398 
L 269.506688 81.196305 
L 272.786027 76.631564 
L 276.065365 79.335426 
L 279.344704 85.073871 
L 282.624043 83.216217 
L 285.903382 77.550116 
L 289.182721 74.018583 
L 292.46206 76.771247 
L 295.741399 87.714548 
L 299.020737 94.304034 
L 302.300076 87.558259 
L 305.579415 70.966312 
L 308.858754 73.382947 
L 312.138093 83.259197 
L 315.417432 81.599507 
L 318.69677 73.806756 
L 321.976109 65.706529 
L 325.255448 73.973864 
L 328.534787 83.828664 
L 331.814126 88.082287 
L 335.093465 87.784383 
L 338.372803 81.4906 
L 341.652142 77.405737 
L 344.931481 78.246364 
L 348.21082 79.666152 
L 351.490159 73.037777 
L 354.769498 74.598407 
L 358.048837 83.401813 
L 361.328175 83.086872 
L 364.607514 77.28309 
L 367.886853 80.206043 
L 371.166192 67.604075 
L 374.445531 64.158249 
L 377.72487 65.40159 
" clip-path="url(#p951907f6dc)" style="fill: none; stroke: #35ae99; stroke-width: 1.5; stroke-linecap: round"/>
   </g>
   <g id="line2d_21">
    <path d="M 76.025696 155.912457 
L 79.305035 145.46176 
L 82.584374 145.922731 
L 85.863713 140.38274 
L 89.143051 140.131634 
L 92.42239 146.814403 
L 95.701729 138.106228 
L 98.981068 134.942365 
L 102.260407 135.680808 
L 105.539746 144.224176 
L 108.819084 142.95293 
L 112.098423 134.977927 
L 115.377762 139.852064 
L 118.657101 132.240022 
L 121.93644 137.432736 
L 125.215779 138.781225 
L 128.495118 140.247824 
L 131.774456 138.37868 
L 135.053795 139.204107 
L 138.333134 144.482405 
L 141.612473 144.787872 
L 144.891812 145.366036 
L 148.171151 144.743647 
L 151.450489 140.269592 
L 154.729828 122.562335 
L 158.009167 111.266741 
L 161.288506 122.592962 
L 164.567845 127.693948 
L 167.847184 131.455327 
L 171.126522 133.133716 
L 174.405861 134.114339 
L 177.6852 118.050436 
L 180.964539 113.563915 
L 184.243878 109.639262 
L 187.523217 113.9365 
L 190.802556 117.115713 
L 194.081894 113.258572 
L 197.361233 116.609404 
L 200.640572 125.043366 
L 203.919911 125.330643 
L 207.19925 124.168179 
L 210.478589 123.81935 
L 213.757927 120.195638 
L 217.037266 104.845877 
L 220.316605 108.496787 
L 223.595944 100.819178 
L 226.875283 95.118541 
L 230.154622 93.992214 
L 233.43396 98.182957 
L 236.713299 94.3227 
L 239.992638 91.462549 
L 243.271977 88.879693 
L 246.551316 85.124111 
L 249.830655 78.167533 
L 253.109994 81.373216 
L 256.389332 78.954619 
L 259.668671 80.888115 
L 262.94801 76.993948 
L 266.227349 86.553376 
L 269.506688 91.288036 
L 272.786027 95.574055 
L 276.065365 95.673352 
L 279.344704 102.282957 
L 282.624043 100.680283 
L 285.903382 99.219735 
L 289.182721 95.381433 
L 292.46206 93.884579 
L 295.741399 92.058154 
L 299.020737 89.536496 
L 302.300076 87.17894 
L 305.579415 86.304065 
L 308.858754 80.380298 
L 312.138093 80.564075 
L 315.417432 76.881868 
L 318.69677 66.634046 
L 321.976109 63.999971 
L 325.255448 62.330622 
L 328.534787 60.804394 
L 331.814126 60.933526 
L 335.093465 64.092916 
L 338.372803 69.282919 
L 341.652142 58.569023 
L 344.931481 51.532513 
L 348.21082 46.985734 
L 351.490159 45.561955 
L 354.769498 50.911399 
L 358.048837 50.605032 
L 361.328175 60.371293 
L 364.607514 65.393771 
L 367.886853 69.984413 
L 371.166192 86.231595 
L 374.445531 100.276436 
L 377.72487 100.210655 
" clip-path="url(#p951907f6dc)" style="fill: none; stroke: #36acae; stroke-width: 1.5; stroke-linecap: round"/>
   </g>
   <g id="line2d_22">
    <path d="M 76.025696 61.837837 
L 79.305035 56.338898 
L 82.584374 67.004204 
L 85.863713 62.073537 
L 89.143051 52.885154 
L 92.42239 50.42923 
L 95.701729 33.921 
L 98.981068 41.040792 
L 102.260407 52.316655 
L 105.539746 57.838453 
L 108.819084 66.198222 
L 112.098423 59.798845 
L 115.377762 60.166941 
L 118.657101 57.07095 
L 121.93644 59.094504 
L 125.215779 70.332786 
L 128.495118 71.766834 
L 131.774456 78.025999 
L 135.053795 76.050469 
L 138.333134 75.74742 
L 141.612473 77.437063 
L 144.891812 74.409878 
L 148.171151 82.873748 
L 151.450489 86.968616 
L 154.729828 87.033193 
L 158.009167 80.565574 
L 161.288506 78.55764 
L 164.567845 75.918026 
L 167.847184 71.57056 
L 171.126522 79.218272 
L 174.405861 77.799531 
L 177.6852 74.418497 
L 180.964539 73.779567 
L 184.243878 74.512747 
L 187.523217 75.840043 
L 190.802556 78.871079 
L 194.081894 92.227942 
L 197.361233 97.453793 
L 200.640572 92.575482 
L 203.919911 93.512773 
L 207.19925 95.220335 
L 210.478589 100.867906 
L 213.757927 107.109653 
L 217.037266 112.885317 
L 220.316605 120.982144 
L 223.595944 115.717783 
L 226.875283 106.798488 
L 230.154622 104.417529 
L 233.43396 104.954445 
L 236.713299 117.08129 
L 239.992638 126.889942 
L 243.271977 133.790781 
L 246.551316 134.5349 
L 249.830655 123.996821 
L 253.109994 125.187955 
L 256.389332 118.708863 
L 259.668671 116.691609 
L 262.94801 111.746687 
L 266.227349 100.794767 
L 269.506688 114.291599 
L 272.786027 119.257659 
L 276.065365 123.432319 
L 279.344704 118.6922 
L 282.624043 117.316211 
L 285.903382 136.65893 
L 289.182721 147.705123 
L 292.46206 153.463236 
L 295.741399 150.091573 
L 299.020737 150.351157 
L 302.300076 159.622052 
L 305.579415 154.933284 
L 308.858754 150.098702 
L 312.138093 165.952474 
L 315.417432 158.559255 
L 318.69677 155.194983 
L 321.976109 143.94999 
L 325.255448 138.129264 
L 328.534787 139.725709 
L 331.814126 136.073803 
L 335.093465 139.079113 
L 338.372803 139.875754 
L 341.652142 135.231548 
L 344.931481 137.078791 
L 348.21082 138.748941 
L 351.490159 149.962943 
L 354.769498 137.732452 
L 358.048837 129.266715 
L 361.328175 133.151421 
L 364.607514 131.259237 
L 367.886853 128.728881 
L 371.166192 140.701654 
L 374.445531 121.9986 
L 377.72487 130.447127 
" clip-path="url(#p951907f6dc)" style="fill: none; stroke: #38a9c5; stroke-width: 1.5; stroke-linecap: round"/>
   </g>
   <g id="line2d_23">
    <path d="M 76.025696 113.427015 
L 79.305035 102.942273 
L 82.584374 103.988305 
L 85.863713 112.157191 
L 89.143051 108.220658 
L 92.42239 111.847363 
L 95.701729 119.082994 
L 98.981068 109.971335 
L 102.260407 111.61452 
L 105.539746 101.646822 
L 108.819084 101.268059 
L 112.098423 103.241926 
L 115.377762 100.568359 
L 118.657101 96.356924 
L 121.93644 86.542125 
L 125.215779 94.204244 
L 128.495118 102.258923 
L 131.774456 102.661622 
L 135.053795 108.019025 
" clip-path="url(#p951907f6dc)" style="fill: none; stroke: #3ba3ec; stroke-width: 1.5; stroke-linecap: round"/>
   </g>
   <g id="line2d_24">
    <path d="M 76.025696 163.865942 
L 79.305035 159.066408 
L 82.584374 149.360649 
L 85.863713 136.596024 
L 89.143051 142.416185 
L 92.42239 163.060257 
L 95.701729 160.984272 
L 98.981068 153.70803 
L 102.260407 142.340963 
L 105.539746 138.572506 
L 108.819084 144.533155 
L 112.098423 146.308625 
L 115.377762 134.24524 
L 118.657101 123.743651 
L 121.93644 125.768278 
L 125.215779 127.697081 
L 128.495118 126.49252 
L 131.774456 124.45583 
L 135.053795 121.735962 
L 138.333134 124.672091 
L 141.612473 129.074582 
L 144.891812 127.117575 
L 148.171151 127.793053 
L 151.450489 140.037174 
L 154.729828 147.246488 
L 158.009167 147.8768 
L 161.288506 138.892226 
L 164.567845 127.245393 
L 167.847184 131.069306 
L 171.126522 144.573194 
L 174.405861 147.600947 
L 177.6852 147.238174 
L 180.964539 151.205686 
L 184.243878 155.059395 
L 187.523217 151.016062 
L 190.802556 142.12293 
L 194.081894 134.468304 
L 197.361233 134.700726 
L 200.640572 142.984226 
L 203.919911 146.678215 
L 207.19925 146.250075 
L 210.478589 140.631643 
L 213.757927 125.392873 
L 217.037266 111.977023 
L 220.316605 106.271273 
L 223.595944 95.225264 
L 226.875283 82.933364 
L 230.154622 82.669136 
L 233.43396 89.722616 
L 236.713299 77.686222 
L 239.992638 75.835497 
L 243.271977 69.957677 
L 246.551316 62.487859 
L 249.830655 58.718417 
L 253.109994 63.316177 
L 256.389332 71.916807 
L 259.668671 72.729742 
L 262.94801 71.451382 
L 266.227349 86.851482 
L 269.506688 81.388419 
L 272.786027 78.18129 
L 276.065365 70.40305 
L 279.344704 72.64433 
L 282.624043 76.392148 
L 285.903382 67.141616 
L 289.182721 55.868614 
L 292.46206 59.222697 
L 295.741399 58.808853 
L 299.020737 70.164536 
L 302.300076 74.466105 
L 305.579415 76.904419 
L 308.858754 69.371022 
L 312.138093 73.518863 
L 315.417432 81.464964 
L 318.69677 70.362275 
L 321.976109 63.379675 
L 325.255448 57.293568 
L 328.534787 41.340793 
L 331.814126 49.300781 
L 335.093465 50.032363 
L 338.372803 56.55722 
L 341.652142 58.18278 
L 344.931481 60.493299 
L 348.21082 61.506297 
L 351.490159 54.498175 
L 354.769498 57.161965 
L 358.048837 60.10885 
L 361.328175 77.84214 
L 364.607514 106.581095 
L 367.886853 103.238231 
L 371.166192 115.014203 
L 374.445531 113.047349 
L 377.72487 103.092023 
" clip-path="url(#p951907f6dc)" style="fill: none; stroke: #9591f4; stroke-width: 1.5; stroke-linecap: round"/>
   </g>
   <g id="line2d_25">
    <path d="M 76.025696 119.454052 
L 79.305035 120.744472 
L 82.584374 99.846066 
L 85.863713 101.657682 
L 89.143051 107.728644 
L 92.42239 108.844406 
L 95.701729 104.504242 
L 98.981068 107.715523 
L 102.260407 105.645367 
L 105.539746 102.359969 
L 108.819084 107.457471 
L 112.098423 119.227344 
L 115.377762 110.293164 
L 118.657101 114.841527 
L 121.93644 118.142048 
L 125.215779 117.343058 
L 128.495118 121.735036 
L 131.774456 111.064975 
L 135.053795 101.420875 
L 138.333134 104.18422 
L 141.612473 82.271415 
L 144.891812 87.509853 
L 148.171151 90.294338 
L 151.450489 80.597401 
L 154.729828 80.159594 
L 158.009167 98.142091 
" clip-path="url(#p951907f6dc)" style="fill: none; stroke: #cc7af4; stroke-width: 1.5; stroke-linecap: round"/>
   </g>
   <g id="line2d_26">
    <path d="M 76.025696 174.526476 
L 79.305035 178.837682 
L 82.584374 186.679994 
L 85.863713 174.748677 
L 89.143051 154.389367 
L 92.42239 146.39872 
L 95.701729 138.096276 
L 98.981068 126.213667 
L 102.260407 111.793492 
L 105.539746 109.15089 
L 108.819084 106.135045 
L 112.098423 106.72651 
L 115.377762 107.748005 
L 118.657101 100.587577 
L 121.93644 101.33357 
L 125.215779 98.677777 
L 128.495118 99.357845 
L 131.774456 105.208258 
L 135.053795 96.282556 
L 138.333134 97.33599 
L 141.612473 99.636748 
L 144.891812 95.838252 
L 148.171151 90.674307 
L 151.450489 78.459891 
L 154.729828 86.182498 
L 158.009167 89.229545 
L 161.288506 80.682411 
L 164.567845 81.009633 
L 167.847184 67.824691 
L 171.126522 67.424122 
L 174.405861 73.577314 
L 177.6852 79.649644 
L 180.964539 74.656172 
L 184.243878 67.938266 
L 187.523217 72.195117 
L 190.802556 68.061992 
L 194.081894 66.125746 
L 197.361233 72.098075 
L 200.640572 69.202337 
L 203.919911 68.811372 
L 207.19925 71.749687 
L 210.478589 70.229227 
L 213.757927 65.988073 
L 217.037266 59.976435 
L 220.316605 63.202624 
L 223.595944 67.10835 
L 226.875283 71.866871 
L 230.154622 74.186714 
L 233.43396 81.658424 
L 236.713299 98.556407 
L 239.992638 95.653629 
L 243.271977 95.072019 
L 246.551316 107.658486 
L 249.830655 109.119736 
L 253.109994 119.330738 
L 256.389332 134.437507 
L 259.668671 135.341699 
L 262.94801 132.9065 
L 266.227349 132.735918 
L 269.506688 131.313866 
L 272.786027 124.348195 
L 276.065365 124.411229 
L 279.344704 129.027341 
L 282.624043 125.755212 
L 285.903382 130.384684 
L 289.182721 135.587763 
L 292.46206 134.673707 
L 295.741399 136.566501 
L 299.020737 130.129872 
L 302.300076 135.16163 
L 305.579415 146.34902 
L 308.858754 131.334246 
L 312.138093 112.904372 
L 315.417432 105.501767 
L 318.69677 98.499474 
L 321.976109 86.317973 
L 325.255448 92.251346 
L 328.534787 89.178461 
L 331.814126 79.608421 
L 335.093465 88.667054 
L 338.372803 95.575 
L 341.652142 92.468012 
L 344.931481 105.74878 
L 348.21082 111.851075 
L 351.490159 117.493565 
L 354.769498 122.600141 
L 358.048837 122.265574 
L 361.328175 111.690022 
L 364.607514 115.479475 
L 367.886853 112.194483 
L 371.166192 108.489208 
L 374.445531 102.053982 
L 377.72487 98.455659 
" clip-path="url(#p951907f6dc)" style="fill: none; stroke: #f560e4; stroke-width: 1.5; stroke-linecap: round"/>
   </g>
   <g id="line2d_27">
    <path d="M 76.025696 143.574066 
L 79.305035 151.820194 
L 82.584374 151.733638 
L 85.863713 143.817645 
L 89.143051 132.527344 
L 92.42239 141.831466 
L 95.701729 148.278971 
L 98.981068 147.506588 
L 102.260407 136.793995 
L 105.539746 128.136546 
L 108.819084 139.213989 
L 112.098423 149.194812 
L 115.377762 152.185489 
L 118.657101 148.339006 
L 121.93644 132.336605 
L 125.215779 136.019255 
L 128.495118 136.837726 
L 131.774456 138.97381 
L 135.053795 138.979075 
L 138.333134 129.194598 
L 141.612473 133.475122 
L 144.891812 128.001002 
L 148.171151 124.777564 
L 151.450489 121.377063 
L 154.729828 115.636677 
L 158.009167 123.039736 
L 161.288506 121.934803 
L 164.567845 125.937651 
L 167.847184 131.564103 
L 171.126522 129.229456 
L 174.405861 134.753109 
L 177.6852 125.463528 
L 180.964539 116.370339 
L 184.243878 115.664701 
L 187.523217 106.391965 
L 190.802556 109.226387 
L 194.081894 108.538724 
L 197.361233 106.845404 
L 200.640572 111.498507 
L 203.919911 105.722252 
L 207.19925 109.128989 
L 210.478589 96.550079 
L 213.757927 89.554541 
L 217.037266 81.325323 
L 220.316605 66.582502 
L 223.595944 69.998517 
L 226.875283 67.709981 
L 230.154622 72.519514 
L 233.43396 78.5237 
L 236.713299 76.572233 
L 239.992638 84.134204 
L 243.271977 71.870846 
L 246.551316 75.062479 
L 249.830655 77.898683 
L 253.109994 80.350291 
L 256.389332 84.650204 
L 259.668671 73.359948 
L 262.94801 75.579566 
L 266.227349 79.654454 
L 269.506688 74.042529 
L 272.786027 74.717122 
L 276.065365 60.618354 
L 279.344704 66.039169 
L 282.624043 64.468145 
L 285.903382 63.834748 
L 289.182721 66.191198 
L 292.46206 55.290179 
L 295.741399 58.988242 
L 299.020737 73.563013 
L 302.300076 83.364335 
L 305.579415 92.159705 
L 308.858754 82.825669 
L 312.138093 84.301672 
L 315.417432 87.657128 
L 318.69677 92.354115 
L 321.976109 97.186405 
L 325.255448 83.957522 
L 328.534787 85.847106 
L 331.814126 89.033203 
L 335.093465 96.410392 
L 338.372803 108.2143 
L 341.652142 97.663786 
L 344.931481 100.82593 
L 348.21082 98.384279 
L 351.490159 94.350862 
L 354.769498 94.038859 
L 358.048837 87.667646 
L 361.328175 98.883943 
L 364.607514 110.105435 
L 367.886853 124.964749 
L 371.166192 127.212602 
L 374.445531 114.007238 
L 377.72487 117.684117 
" clip-path="url(#p951907f6dc)" style="fill: none; stroke: #f66ab7; stroke-width: 1.5; stroke-linecap: round"/>
   </g>
   <g id="line2d_28"/>
   <g id="line2d_29"/>
   <g id="line2d_30"/>
   <g id="line2d_31"/>
   <g id="line2d_32"/>
   <g id="line2d_33"/>
   <g id="line2d_34"/>
   <g id="line2d_35"/>
   <g id="line2d_36"/>
   <g id="line2d_37"/>
   <g id="line2d_38"/>
   <g id="line2d_39"/>
   <g id="line2d_40"/>
   <g id="line2d_41"/>
   <g id="line2d_42"/>
   <g id="patch_3">
    <path d="M 59.792969 287.937 
L 59.792969 21.825 
" style="fill: none; stroke: #cccccc; stroke-width: 1.25; stroke-linejoin: miter; stroke-linecap: square"/>
   </g>
   <g id="patch_4">
    <path d="M 416.912969 287.937 
L 416.912969 21.825 
" style="fill: none; stroke: #cccccc; stroke-width: 1.25; stroke-linejoin: miter; stroke-linecap: square"/>
   </g>
   <g id="patch_5">
    <path d="M 59.792969 287.937 
L 416.912969 287.937 
" style="fill: none; stroke: #cccccc; stroke-width: 1.25; stroke-linejoin: miter; stroke-linecap: square"/>
   </g>
   <g id="patch_6">
    <path d="M 59.792969 21.825 
L 416.912969 21.825 
" style="fill: none; stroke: #cccccc; stroke-width: 1.25; stroke-linejoin: miter; stroke-linecap: square"/>
   </g>
   <g id="text_15">
    <!-- movie_100 -->
    <g style="fill: #262626" transform="translate(209.002656 15.825) scale(0.12 -0.12)">
     <defs>
      <path id="ArialMT-6d" d="M 422 0 
L 422 3319 
L 925 3319 
L 925 2853 
Q 1081 3097 1340 3245 
Q 1600 3394 1931 3394 
Q 2300 3394 2536 3241 
Q 2772 3088 2869 2813 
Q 3263 3394 3894 3394 
Q 4388 3394 4653 3120 
Q 4919 2847 4919 2278 
L 4919 0 
L 4359 0 
L 4359 2091 
Q 4359 2428 4304 2576 
Q 4250 2725 4106 2815 
Q 3963 2906 3769 2906 
Q 3419 2906 3187 2673 
Q 2956 2441 2956 1928 
L 2956 0 
L 2394 0 
L 2394 2156 
Q 2394 2531 2256 2718 
Q 2119 2906 1806 2906 
Q 1569 2906 1367 2781 
Q 1166 2656 1075 2415 
Q 984 2175 984 1722 
L 984 0 
L 422 0 
z
" transform="scale(0.015625)"/>
      <path id="ArialMT-76" d="M 1344 0 
L 81 3319 
L 675 3319 
L 1388 1331 
Q 1503 1009 1600 663 
Q 1675 925 1809 1294 
L 2547 3319 
L 3125 3319 
L 1869 0 
L 1344 0 
z
" transform="scale(0.015625)"/>
      <path id="ArialMT-5f" d="M -97 -1272 
L -97 -866 
L 3631 -866 
L 3631 -1272 
L -97 -1272 
z
" transform="scale(0.015625)"/>
     </defs>
     <use xlink:href="#ArialMT-6d"/>
     <use xlink:href="#ArialMT-6f" x="83.300781"/>
     <use xlink:href="#ArialMT-76" x="138.916016"/>
     <use xlink:href="#ArialMT-69" x="188.916016"/>
     <use xlink:href="#ArialMT-65" x="211.132812"/>
     <use xlink:href="#ArialMT-5f" x="266.748047"/>
     <use xlink:href="#ArialMT-31" x="322.363281"/>
     <use xlink:href="#ArialMT-30" x="377.978516"/>
     <use xlink:href="#ArialMT-30" x="433.59375"/>
    </g>
   </g>
   <g id="legend_1">
    <g id="patch_7">
     <path d="M 418.302569 172.029904 
L 550.620715 172.029904 
Q 552.010315 172.029904 552.010315 170.640304 
L 552.010315 23.2146 
Q 552.010315 21.825 550.620715 21.825 
L 418.302569 21.825 
Q 416.912969 21.825 416.912969 23.2146 
L 416.912969 170.640304 
Q 416.912969 172.029904 418.302569 172.029904 
z
" style="fill: #ffffff; opacity: 0.8; stroke: #cccccc; stroke-linejoin: miter"/>
    </g>
    <g id="line2d_43">
     <path d="M 419.692169 27.230327 
L 426.640169 27.230327 
L 433.588169 27.230327 
" style="fill: none; stroke: #f77189; stroke-width: 1.5; stroke-linecap: round"/>
    </g>
    <g id="text_16">
     <!-- 02CB_01_movie_04_LPI_000.netts -->
     <g style="fill: #262626" transform="translate(439.146569 29.662127) scale(0.06948 -0.06948)">
      <defs>
       <path id="ArialMT-43" d="M 3763 1606 
L 4369 1453 
Q 4178 706 3683 314 
Q 3188 -78 2472 -78 
Q 1731 -78 1267 223 
Q 803 525 561 1097 
Q 319 1669 319 2325 
Q 319 3041 592 3573 
Q 866 4106 1370 4382 
Q 1875 4659 2481 4659 
Q 3169 4659 3637 4309 
Q 4106 3959 4291 3325 
L 3694 3184 
Q 3534 3684 3231 3912 
Q 2928 4141 2469 4141 
Q 1941 4141 1586 3887 
Q 1231 3634 1087 3207 
Q 944 2781 944 2328 
Q 944 1744 1114 1308 
Q 1284 872 1643 656 
Q 2003 441 2422 441 
Q 2931 441 3284 734 
Q 3638 1028 3763 1606 
z
" transform="scale(0.015625)"/>
       <path id="ArialMT-42" d="M 469 0 
L 469 4581 
L 2188 4581 
Q 2713 4581 3030 4442 
Q 3347 4303 3526 4014 
Q 3706 3725 3706 3409 
Q 3706 3116 3547 2856 
Q 3388 2597 3066 2438 
Q 3481 2316 3704 2022 
Q 3928 1728 3928 1328 
Q 3928 1006 3792 729 
Q 3656 453 3456 303 
Q 3256 153 2954 76 
Q 2653 0 2216 0 
L 469 0 
z
M 1075 2656 
L 2066 2656 
Q 2469 2656 2644 2709 
Q 2875 2778 2992 2937 
Q 3109 3097 3109 3338 
Q 3109 3566 3000 3739 
Q 2891 3913 2687 3977 
Q 2484 4041 1991 4041 
L 1075 4041 
L 1075 2656 
z
M 1075 541 
L 2216 541 
Q 2509 541 2628 563 
Q 2838 600 2978 687 
Q 3119 775 3209 942 
Q 3300 1109 3300 1328 
Q 3300 1584 3169 1773 
Q 3038 1963 2805 2039 
Q 2572 2116 2134 2116 
L 1075 2116 
L 1075 541 
z
" transform="scale(0.015625)"/>
       <path id="ArialMT-4c" d="M 469 0 
L 469 4581 
L 1075 4581 
L 1075 541 
L 3331 541 
L 3331 0 
L 469 0 
z
" transform="scale(0.015625)"/>
       <path id="ArialMT-50" d="M 494 0 
L 494 4581 
L 2222 4581 
Q 2678 4581 2919 4538 
Q 3256 4481 3484 4323 
Q 3713 4166 3852 3881 
Q 3991 3597 3991 3256 
Q 3991 2672 3619 2267 
Q 3247 1863 2275 1863 
L 1100 1863 
L 1100 0 
L 494 0 
z
M 1100 2403 
L 2284 2403 
Q 2872 2403 3119 2622 
Q 3366 2841 3366 3238 
Q 3366 3525 3220 3729 
Q 3075 3934 2838 4000 
Q 2684 4041 2272 4041 
L 1100 4041 
L 1100 2403 
z
" transform="scale(0.015625)"/>
       <path id="ArialMT-49" d="M 597 0 
L 597 4581 
L 1203 4581 
L 1203 0 
L 597 0 
z
" transform="scale(0.015625)"/>
      </defs>
      <use xlink:href="#ArialMT-30"/>
      <use xlink:href="#ArialMT-32" x="55.615234"/>
      <use xlink:href="#ArialMT-43" x="111.230469"/>
      <use xlink:href="#ArialMT-42" x="183.447266"/>
      <use xlink:href="#ArialMT-5f" x="250.146484"/>
      <use xlink:href="#ArialMT-30" x="305.761719"/>
      <use xlink:href="#ArialMT-31" x="361.376953"/>
      <use xlink:href="#ArialMT-5f" x="416.992188"/>
      <use xlink:href="#ArialMT-6d" x="472.607422"/>
      <use xlink:href="#ArialMT-6f" x="555.908203"/>
      <use xlink:href="#ArialMT-76" x="611.523438"/>
      <use xlink:href="#ArialMT-69" x="661.523438"/>
      <use xlink:href="#ArialMT-65" x="683.740234"/>
      <use xlink:href="#ArialMT-5f" x="739.355469"/>
      <use xlink:href="#ArialMT-30" x="794.970703"/>
      <use xlink:href="#ArialMT-34" x="850.585938"/>
      <use xlink:href="#ArialMT-5f" x="906.201172"/>
      <use xlink:href="#ArialMT-4c" x="961.816406"/>
      <use xlink:href="#ArialMT-50" x="1017.431641"/>
      <use xlink:href="#ArialMT-49" x="1084.130859"/>
      <use xlink:href="#ArialMT-5f" x="1111.914062"/>
      <use xlink:href="#ArialMT-30" x="1167.529297"/>
      <use xlink:href="#ArialMT-30" x="1223.144531"/>
      <use xlink:href="#ArialMT-30" x="1278.759766"/>
      <use xlink:href="#ArialMT-2e" x="1334.375"/>
      <use xlink:href="#ArialMT-6e" x="1362.158203"/>
      <use xlink:href="#ArialMT-65" x="1417.773438"/>
      <use xlink:href="#ArialMT-74" x="1473.388672"/>
      <use xlink:href="#ArialMT-74" x="1501.171875"/>
      <use xlink:href="#ArialMT-73" x="1528.955078"/>
     </g>
    </g>
    <g id="line2d_44">
     <path d="M 419.692169 37.079117 
L 426.640169 37.079117 
L 433.588169 37.079117 
" style="fill: none; stroke: #f37a32; stroke-width: 1.5; stroke-linecap: round"/>
    </g>
    <g id="text_17">
     <!-- 04HD_01_movie_04_LPI_000.netts -->
     <g style="fill: #262626" transform="translate(439.146569 39.510917) scale(0.06948 -0.06948)">
      <defs>
       <path id="ArialMT-44" d="M 494 0 
L 494 4581 
L 2072 4581 
Q 2606 4581 2888 4516 
Q 3281 4425 3559 4188 
Q 3922 3881 4101 3404 
Q 4281 2928 4281 2316 
Q 4281 1794 4159 1391 
Q 4038 988 3847 723 
Q 3656 459 3429 307 
Q 3203 156 2883 78 
Q 2563 0 2147 0 
L 494 0 
z
M 1100 541 
L 2078 541 
Q 2531 541 2789 625 
Q 3047 709 3200 863 
Q 3416 1078 3536 1442 
Q 3656 1806 3656 2325 
Q 3656 3044 3420 3430 
Q 3184 3816 2847 3947 
Q 2603 4041 2063 4041 
L 1100 4041 
L 1100 541 
z
" transform="scale(0.015625)"/>
      </defs>
      <use xlink:href="#ArialMT-30"/>
      <use xlink:href="#ArialMT-34" x="55.615234"/>
      <use xlink:href="#ArialMT-48" x="111.230469"/>
      <use xlink:href="#ArialMT-44" x="183.447266"/>
      <use xlink:href="#ArialMT-5f" x="255.664062"/>
      <use xlink:href="#ArialMT-30" x="311.279297"/>
      <use xlink:href="#ArialMT-31" x="366.894531"/>
      <use xlink:href="#ArialMT-5f" x="422.509766"/>
      <use xlink:href="#ArialMT-6d" x="478.125"/>
      <use xlink:href="#ArialMT-6f" x="561.425781"/>
      <use xlink:href="#ArialMT-76" x="617.041016"/>
      <use xlink:href="#ArialMT-69" x="667.041016"/>
      <use xlink:href="#ArialMT-65" x="689.257812"/>
      <use xlink:href="#ArialMT-5f" x="744.873047"/>
      <use xlink:href="#ArialMT-30" x="800.488281"/>
      <use xlink:href="#ArialMT-34" x="856.103516"/>
      <use xlink:href="#ArialMT-5f" x="911.71875"/>
      <use xlink:href="#ArialMT-4c" x="967.333984"/>
      <use xlink:href="#ArialMT-50" x="1022.949219"/>
      <use xlink:href="#ArialMT-49" x="1089.648438"/>
      <use xlink:href="#ArialMT-5f" x="1117.431641"/>
      <use xlink:href="#ArialMT-30" x="1173.046875"/>
      <use xlink:href="#ArialMT-30" x="1228.662109"/>
      <use xlink:href="#ArialMT-30" x="1284.277344"/>
      <use xlink:href="#ArialMT-2e" x="1339.892578"/>
      <use xlink:href="#ArialMT-6e" x="1367.675781"/>
      <use xlink:href="#ArialMT-65" x="1423.291016"/>
      <use xlink:href="#ArialMT-74" x="1478.90625"/>
      <use xlink:href="#ArialMT-74" x="1506.689453"/>
      <use xlink:href="#ArialMT-73" x="1534.472656"/>
     </g>
    </g>
    <g id="line2d_45">
     <path d="M 419.692169 46.991959 
L 426.640169 46.991959 
L 433.588169 46.991959 
" style="fill: none; stroke: #ca9232; stroke-width: 1.5; stroke-linecap: round"/>
    </g>
    <g id="text_18">
     <!-- 04SG_01_movie_04_LPI_000.netts -->
     <g style="fill: #262626" transform="translate(439.146569 49.423759) scale(0.06948 -0.06948)">
      <defs>
       <path id="ArialMT-53" d="M 288 1472 
L 859 1522 
Q 900 1178 1048 958 
Q 1197 738 1509 602 
Q 1822 466 2213 466 
Q 2559 466 2825 569 
Q 3091 672 3220 851 
Q 3350 1031 3350 1244 
Q 3350 1459 3225 1620 
Q 3100 1781 2813 1891 
Q 2628 1963 1997 2114 
Q 1366 2266 1113 2400 
Q 784 2572 623 2826 
Q 463 3081 463 3397 
Q 463 3744 659 4045 
Q 856 4347 1234 4503 
Q 1613 4659 2075 4659 
Q 2584 4659 2973 4495 
Q 3363 4331 3572 4012 
Q 3781 3694 3797 3291 
L 3216 3247 
Q 3169 3681 2898 3903 
Q 2628 4125 2100 4125 
Q 1550 4125 1298 3923 
Q 1047 3722 1047 3438 
Q 1047 3191 1225 3031 
Q 1400 2872 2139 2705 
Q 2878 2538 3153 2413 
Q 3553 2228 3743 1945 
Q 3934 1663 3934 1294 
Q 3934 928 3725 604 
Q 3516 281 3123 101 
Q 2731 -78 2241 -78 
Q 1619 -78 1198 103 
Q 778 284 539 648 
Q 300 1013 288 1472 
z
" transform="scale(0.015625)"/>
       <path id="ArialMT-47" d="M 2638 1797 
L 2638 2334 
L 4578 2338 
L 4578 638 
Q 4131 281 3656 101 
Q 3181 -78 2681 -78 
Q 2006 -78 1454 211 
Q 903 500 622 1047 
Q 341 1594 341 2269 
Q 341 2938 620 3517 
Q 900 4097 1425 4378 
Q 1950 4659 2634 4659 
Q 3131 4659 3532 4498 
Q 3934 4338 4162 4050 
Q 4391 3763 4509 3300 
L 3963 3150 
Q 3859 3500 3706 3700 
Q 3553 3900 3268 4020 
Q 2984 4141 2638 4141 
Q 2222 4141 1919 4014 
Q 1616 3888 1430 3681 
Q 1244 3475 1141 3228 
Q 966 2803 966 2306 
Q 966 1694 1177 1281 
Q 1388 869 1791 669 
Q 2194 469 2647 469 
Q 3041 469 3416 620 
Q 3791 772 3984 944 
L 3984 1797 
L 2638 1797 
z
" transform="scale(0.015625)"/>
      </defs>
      <use xlink:href="#ArialMT-30"/>
      <use xlink:href="#ArialMT-34" x="55.615234"/>
      <use xlink:href="#ArialMT-53" x="111.230469"/>
      <use xlink:href="#ArialMT-47" x="177.929688"/>
      <use xlink:href="#ArialMT-5f" x="255.712891"/>
      <use xlink:href="#ArialMT-30" x="311.328125"/>
      <use xlink:href="#ArialMT-31" x="366.943359"/>
      <use xlink:href="#ArialMT-5f" x="422.558594"/>
      <use xlink:href="#ArialMT-6d" x="478.173828"/>
      <use xlink:href="#ArialMT-6f" x="561.474609"/>
      <use xlink:href="#ArialMT-76" x="617.089844"/>
      <use xlink:href="#ArialMT-69" x="667.089844"/>
      <use xlink:href="#ArialMT-65" x="689.306641"/>
      <use xlink:href="#ArialMT-5f" x="744.921875"/>
      <use xlink:href="#ArialMT-30" x="800.537109"/>
      <use xlink:href="#ArialMT-34" x="856.152344"/>
      <use xlink:href="#ArialMT-5f" x="911.767578"/>
      <use xlink:href="#ArialMT-4c" x="967.382812"/>
      <use xlink:href="#ArialMT-50" x="1022.998047"/>
      <use xlink:href="#ArialMT-49" x="1089.697266"/>
      <use xlink:href="#ArialMT-5f" x="1117.480469"/>
      <use xlink:href="#ArialMT-30" x="1173.095703"/>
      <use xlink:href="#ArialMT-30" x="1228.710938"/>
      <use xlink:href="#ArialMT-30" x="1284.326172"/>
      <use xlink:href="#ArialMT-2e" x="1339.941406"/>
      <use xlink:href="#ArialMT-6e" x="1367.724609"/>
      <use xlink:href="#ArialMT-65" x="1423.339844"/>
      <use xlink:href="#ArialMT-74" x="1478.955078"/>
      <use xlink:href="#ArialMT-74" x="1506.738281"/>
      <use xlink:href="#ArialMT-73" x="1534.521484"/>
     </g>
    </g>
    <g id="line2d_46">
     <path d="M 419.692169 56.904801 
L 426.640169 56.904801 
L 433.588169 56.904801 
" style="fill: none; stroke: #ae9d31; stroke-width: 1.5; stroke-linecap: round"/>
    </g>
    <g id="text_19">
     <!-- 08BC_01_movie_04_LPI_000.netts -->
     <g style="fill: #262626" transform="translate(439.146569 59.336601) scale(0.06948 -0.06948)">
      <use xlink:href="#ArialMT-30"/>
      <use xlink:href="#ArialMT-38" x="55.615234"/>
      <use xlink:href="#ArialMT-42" x="111.230469"/>
      <use xlink:href="#ArialMT-43" x="177.929688"/>
      <use xlink:href="#ArialMT-5f" x="250.146484"/>
      <use xlink:href="#ArialMT-30" x="305.761719"/>
      <use xlink:href="#ArialMT-31" x="361.376953"/>
      <use xlink:href="#ArialMT-5f" x="416.992188"/>
      <use xlink:href="#ArialMT-6d" x="472.607422"/>
      <use xlink:href="#ArialMT-6f" x="555.908203"/>
      <use xlink:href="#ArialMT-76" x="611.523438"/>
      <use xlink:href="#ArialMT-69" x="661.523438"/>
      <use xlink:href="#ArialMT-65" x="683.740234"/>
      <use xlink:href="#ArialMT-5f" x="739.355469"/>
      <use xlink:href="#ArialMT-30" x="794.970703"/>
      <use xlink:href="#ArialMT-34" x="850.585938"/>
      <use xlink:href="#ArialMT-5f" x="906.201172"/>
      <use xlink:href="#ArialMT-4c" x="961.816406"/>
      <use xlink:href="#ArialMT-50" x="1017.431641"/>
      <use xlink:href="#ArialMT-49" x="1084.130859"/>
      <use xlink:href="#ArialMT-5f" x="1111.914062"/>
      <use xlink:href="#ArialMT-30" x="1167.529297"/>
      <use xlink:href="#ArialMT-30" x="1223.144531"/>
      <use xlink:href="#ArialMT-30" x="1278.759766"/>
      <use xlink:href="#ArialMT-2e" x="1334.375"/>
      <use xlink:href="#ArialMT-6e" x="1362.158203"/>
      <use xlink:href="#ArialMT-65" x="1417.773438"/>
      <use xlink:href="#ArialMT-74" x="1473.388672"/>
      <use xlink:href="#ArialMT-74" x="1501.171875"/>
      <use xlink:href="#ArialMT-73" x="1528.955078"/>
     </g>
    </g>
    <g id="line2d_47">
     <path d="M 419.692169 66.753591 
L 426.640169 66.753591 
L 433.588169 66.753591 
" style="fill: none; stroke: #8ea631; stroke-width: 1.5; stroke-linecap: round"/>
    </g>
    <g id="text_20">
     <!-- 08VR_01_movie_04_LPI_000.netts -->
     <g style="fill: #262626" transform="translate(439.146569 69.185391) scale(0.06948 -0.06948)">
      <defs>
       <path id="ArialMT-56" d="M 1803 0 
L 28 4581 
L 684 4581 
L 1875 1253 
Q 2019 853 2116 503 
Q 2222 878 2363 1253 
L 3600 4581 
L 4219 4581 
L 2425 0 
L 1803 0 
z
" transform="scale(0.015625)"/>
       <path id="ArialMT-52" d="M 503 0 
L 503 4581 
L 2534 4581 
Q 3147 4581 3465 4457 
Q 3784 4334 3975 4021 
Q 4166 3709 4166 3331 
Q 4166 2844 3850 2509 
Q 3534 2175 2875 2084 
Q 3116 1969 3241 1856 
Q 3506 1613 3744 1247 
L 4541 0 
L 3778 0 
L 3172 953 
Q 2906 1366 2734 1584 
Q 2563 1803 2427 1890 
Q 2291 1978 2150 2013 
Q 2047 2034 1813 2034 
L 1109 2034 
L 1109 0 
L 503 0 
z
M 1109 2559 
L 2413 2559 
Q 2828 2559 3062 2645 
Q 3297 2731 3419 2920 
Q 3541 3109 3541 3331 
Q 3541 3656 3305 3865 
Q 3069 4075 2559 4075 
L 1109 4075 
L 1109 2559 
z
" transform="scale(0.015625)"/>
      </defs>
      <use xlink:href="#ArialMT-30"/>
      <use xlink:href="#ArialMT-38" x="55.615234"/>
      <use xlink:href="#ArialMT-56" x="111.230469"/>
      <use xlink:href="#ArialMT-52" x="177.929688"/>
      <use xlink:href="#ArialMT-5f" x="250.146484"/>
      <use xlink:href="#ArialMT-30" x="305.761719"/>
      <use xlink:href="#ArialMT-31" x="361.376953"/>
      <use xlink:href="#ArialMT-5f" x="416.992188"/>
      <use xlink:href="#ArialMT-6d" x="472.607422"/>
      <use xlink:href="#ArialMT-6f" x="555.908203"/>
      <use xlink:href="#ArialMT-76" x="611.523438"/>
      <use xlink:href="#ArialMT-69" x="661.523438"/>
      <use xlink:href="#ArialMT-65" x="683.740234"/>
      <use xlink:href="#ArialMT-5f" x="739.355469"/>
      <use xlink:href="#ArialMT-30" x="794.970703"/>
      <use xlink:href="#ArialMT-34" x="850.585938"/>
      <use xlink:href="#ArialMT-5f" x="906.201172"/>
      <use xlink:href="#ArialMT-4c" x="961.816406"/>
      <use xlink:href="#ArialMT-50" x="1017.431641"/>
      <use xlink:href="#ArialMT-49" x="1084.130859"/>
      <use xlink:href="#ArialMT-5f" x="1111.914062"/>
      <use xlink:href="#ArialMT-30" x="1167.529297"/>
      <use xlink:href="#ArialMT-30" x="1223.144531"/>
      <use xlink:href="#ArialMT-30" x="1278.759766"/>
      <use xlink:href="#ArialMT-2e" x="1334.375"/>
      <use xlink:href="#ArialMT-6e" x="1362.158203"/>
      <use xlink:href="#ArialMT-65" x="1417.773438"/>
      <use xlink:href="#ArialMT-74" x="1473.388672"/>
      <use xlink:href="#ArialMT-74" x="1501.171875"/>
      <use xlink:href="#ArialMT-73" x="1528.955078"/>
     </g>
    </g>
    <g id="line2d_48">
     <path d="M 419.692169 76.602381 
L 426.640169 76.602381 
L 433.588169 76.602381 
" style="fill: none; stroke: #50b131; stroke-width: 1.5; stroke-linecap: round"/>
    </g>
    <g id="text_21">
     <!-- 10JR_01_movie_04_LPI_000.netts -->
     <g style="fill: #262626" transform="translate(439.146569 79.034181) scale(0.06948 -0.06948)">
      <defs>
       <path id="ArialMT-4a" d="M 184 1300 
L 731 1375 
Q 753 850 928 656 
Q 1103 463 1413 463 
Q 1641 463 1806 567 
Q 1972 672 2034 851 
Q 2097 1031 2097 1425 
L 2097 4581 
L 2703 4581 
L 2703 1459 
Q 2703 884 2564 568 
Q 2425 253 2123 87 
Q 1822 -78 1416 -78 
Q 813 -78 492 269 
Q 172 616 184 1300 
z
" transform="scale(0.015625)"/>
      </defs>
      <use xlink:href="#ArialMT-31"/>
      <use xlink:href="#ArialMT-30" x="55.615234"/>
      <use xlink:href="#ArialMT-4a" x="111.230469"/>
      <use xlink:href="#ArialMT-52" x="161.230469"/>
      <use xlink:href="#ArialMT-5f" x="233.447266"/>
      <use xlink:href="#ArialMT-30" x="289.0625"/>
      <use xlink:href="#ArialMT-31" x="344.677734"/>
      <use xlink:href="#ArialMT-5f" x="400.292969"/>
      <use xlink:href="#ArialMT-6d" x="455.908203"/>
      <use xlink:href="#ArialMT-6f" x="539.208984"/>
      <use xlink:href="#ArialMT-76" x="594.824219"/>
      <use xlink:href="#ArialMT-69" x="644.824219"/>
      <use xlink:href="#ArialMT-65" x="667.041016"/>
      <use xlink:href="#ArialMT-5f" x="722.65625"/>
      <use xlink:href="#ArialMT-30" x="778.271484"/>
      <use xlink:href="#ArialMT-34" x="833.886719"/>
      <use xlink:href="#ArialMT-5f" x="889.501953"/>
      <use xlink:href="#ArialMT-4c" x="945.117188"/>
      <use xlink:href="#ArialMT-50" x="1000.732422"/>
      <use xlink:href="#ArialMT-49" x="1067.431641"/>
      <use xlink:href="#ArialMT-5f" x="1095.214844"/>
      <use xlink:href="#ArialMT-30" x="1150.830078"/>
      <use xlink:href="#ArialMT-30" x="1206.445312"/>
      <use xlink:href="#ArialMT-30" x="1262.060547"/>
      <use xlink:href="#ArialMT-2e" x="1317.675781"/>
      <use xlink:href="#ArialMT-6e" x="1345.458984"/>
      <use xlink:href="#ArialMT-65" x="1401.074219"/>
      <use xlink:href="#ArialMT-74" x="1456.689453"/>
      <use xlink:href="#ArialMT-74" x="1484.472656"/>
      <use xlink:href="#ArialMT-73" x="1512.255859"/>
     </g>
    </g>
    <g id="line2d_49">
     <path d="M 419.692169 86.515222 
L 426.640169 86.515222 
L 433.588169 86.515222 
" style="fill: none; stroke: #33b07a; stroke-width: 1.5; stroke-linecap: round"/>
    </g>
    <g id="text_22">
     <!-- 13CA_01_movie_04_LPI_000.netts -->
     <g style="fill: #262626" transform="translate(439.146569 88.947022) scale(0.06948 -0.06948)">
      <defs>
       <path id="ArialMT-33" d="M 269 1209 
L 831 1284 
Q 928 806 1161 595 
Q 1394 384 1728 384 
Q 2125 384 2398 659 
Q 2672 934 2672 1341 
Q 2672 1728 2419 1979 
Q 2166 2231 1775 2231 
Q 1616 2231 1378 2169 
L 1441 2663 
Q 1497 2656 1531 2656 
Q 1891 2656 2178 2843 
Q 2466 3031 2466 3422 
Q 2466 3731 2256 3934 
Q 2047 4138 1716 4138 
Q 1388 4138 1169 3931 
Q 950 3725 888 3313 
L 325 3413 
Q 428 3978 793 4289 
Q 1159 4600 1703 4600 
Q 2078 4600 2393 4439 
Q 2709 4278 2876 4000 
Q 3044 3722 3044 3409 
Q 3044 3113 2884 2869 
Q 2725 2625 2413 2481 
Q 2819 2388 3044 2092 
Q 3269 1797 3269 1353 
Q 3269 753 2831 336 
Q 2394 -81 1725 -81 
Q 1122 -81 723 278 
Q 325 638 269 1209 
z
" transform="scale(0.015625)"/>
       <path id="ArialMT-41" d="M -9 0 
L 1750 4581 
L 2403 4581 
L 4278 0 
L 3588 0 
L 3053 1388 
L 1138 1388 
L 634 0 
L -9 0 
z
M 1313 1881 
L 2866 1881 
L 2388 3150 
Q 2169 3728 2063 4100 
Q 1975 3659 1816 3225 
L 1313 1881 
z
" transform="scale(0.015625)"/>
      </defs>
      <use xlink:href="#ArialMT-31"/>
      <use xlink:href="#ArialMT-33" x="55.615234"/>
      <use xlink:href="#ArialMT-43" x="111.230469"/>
      <use xlink:href="#ArialMT-41" x="183.447266"/>
      <use xlink:href="#ArialMT-5f" x="250.146484"/>
      <use xlink:href="#ArialMT-30" x="305.761719"/>
      <use xlink:href="#ArialMT-31" x="361.376953"/>
      <use xlink:href="#ArialMT-5f" x="416.992188"/>
      <use xlink:href="#ArialMT-6d" x="472.607422"/>
      <use xlink:href="#ArialMT-6f" x="555.908203"/>
      <use xlink:href="#ArialMT-76" x="611.523438"/>
      <use xlink:href="#ArialMT-69" x="661.523438"/>
      <use xlink:href="#ArialMT-65" x="683.740234"/>
      <use xlink:href="#ArialMT-5f" x="739.355469"/>
      <use xlink:href="#ArialMT-30" x="794.970703"/>
      <use xlink:href="#ArialMT-34" x="850.585938"/>
      <use xlink:href="#ArialMT-5f" x="906.201172"/>
      <use xlink:href="#ArialMT-4c" x="961.816406"/>
      <use xlink:href="#ArialMT-50" x="1017.431641"/>
      <use xlink:href="#ArialMT-49" x="1084.130859"/>
      <use xlink:href="#ArialMT-5f" x="1111.914062"/>
      <use xlink:href="#ArialMT-30" x="1167.529297"/>
      <use xlink:href="#ArialMT-30" x="1223.144531"/>
      <use xlink:href="#ArialMT-30" x="1278.759766"/>
      <use xlink:href="#ArialMT-2e" x="1334.375"/>
      <use xlink:href="#ArialMT-6e" x="1362.158203"/>
      <use xlink:href="#ArialMT-65" x="1417.773438"/>
      <use xlink:href="#ArialMT-74" x="1473.388672"/>
      <use xlink:href="#ArialMT-74" x="1501.171875"/>
      <use xlink:href="#ArialMT-73" x="1528.955078"/>
     </g>
    </g>
    <g id="line2d_50">
     <path d="M 419.692169 96.364012 
L 426.640169 96.364012 
L 433.588169 96.364012 
" style="fill: none; stroke: #35ae99; stroke-width: 1.5; stroke-linecap: round"/>
    </g>
    <g id="text_23">
     <!-- 16RA_01_movie_04_LPI_000.netts -->
     <g style="fill: #262626" transform="translate(439.146569 98.795812) scale(0.06948 -0.06948)">
      <use xlink:href="#ArialMT-31"/>
      <use xlink:href="#ArialMT-36" x="55.615234"/>
      <use xlink:href="#ArialMT-52" x="111.230469"/>
      <use xlink:href="#ArialMT-41" x="183.447266"/>
      <use xlink:href="#ArialMT-5f" x="250.146484"/>
      <use xlink:href="#ArialMT-30" x="305.761719"/>
      <use xlink:href="#ArialMT-31" x="361.376953"/>
      <use xlink:href="#ArialMT-5f" x="416.992188"/>
      <use xlink:href="#ArialMT-6d" x="472.607422"/>
      <use xlink:href="#ArialMT-6f" x="555.908203"/>
      <use xlink:href="#ArialMT-76" x="611.523438"/>
      <use xlink:href="#ArialMT-69" x="661.523438"/>
      <use xlink:href="#ArialMT-65" x="683.740234"/>
      <use xlink:href="#ArialMT-5f" x="739.355469"/>
      <use xlink:href="#ArialMT-30" x="794.970703"/>
      <use xlink:href="#ArialMT-34" x="850.585938"/>
      <use xlink:href="#ArialMT-5f" x="906.201172"/>
      <use xlink:href="#ArialMT-4c" x="961.816406"/>
      <use xlink:href="#ArialMT-50" x="1017.431641"/>
      <use xlink:href="#ArialMT-49" x="1084.130859"/>
      <use xlink:href="#ArialMT-5f" x="1111.914062"/>
      <use xlink:href="#ArialMT-30" x="1167.529297"/>
      <use xlink:href="#ArialMT-30" x="1223.144531"/>
      <use xlink:href="#ArialMT-30" x="1278.759766"/>
      <use xlink:href="#ArialMT-2e" x="1334.375"/>
      <use xlink:href="#ArialMT-6e" x="1362.158203"/>
      <use xlink:href="#ArialMT-65" x="1417.773438"/>
      <use xlink:href="#ArialMT-74" x="1473.388672"/>
      <use xlink:href="#ArialMT-74" x="1501.171875"/>
      <use xlink:href="#ArialMT-73" x="1528.955078"/>
     </g>
    </g>
    <g id="line2d_51">
     <path d="M 419.692169 106.212802 
L 426.640169 106.212802 
L 433.588169 106.212802 
" style="fill: none; stroke: #36acae; stroke-width: 1.5; stroke-linecap: round"/>
    </g>
    <g id="text_24">
     <!-- 17EK_01_movie_04_LPI_000.netts -->
     <g style="fill: #262626" transform="translate(439.146569 108.644602) scale(0.06948 -0.06948)">
      <defs>
       <path id="ArialMT-37" d="M 303 3981 
L 303 4522 
L 3269 4522 
L 3269 4084 
Q 2831 3619 2401 2847 
Q 1972 2075 1738 1259 
Q 1569 684 1522 0 
L 944 0 
Q 953 541 1156 1306 
Q 1359 2072 1739 2783 
Q 2119 3494 2547 3981 
L 303 3981 
z
" transform="scale(0.015625)"/>
       <path id="ArialMT-45" d="M 506 0 
L 506 4581 
L 3819 4581 
L 3819 4041 
L 1113 4041 
L 1113 2638 
L 3647 2638 
L 3647 2100 
L 1113 2100 
L 1113 541 
L 3925 541 
L 3925 0 
L 506 0 
z
" transform="scale(0.015625)"/>
       <path id="ArialMT-4b" d="M 469 0 
L 469 4581 
L 1075 4581 
L 1075 2309 
L 3350 4581 
L 4172 4581 
L 2250 2725 
L 4256 0 
L 3456 0 
L 1825 2319 
L 1075 1588 
L 1075 0 
L 469 0 
z
" transform="scale(0.015625)"/>
      </defs>
      <use xlink:href="#ArialMT-31"/>
      <use xlink:href="#ArialMT-37" x="55.615234"/>
      <use xlink:href="#ArialMT-45" x="111.230469"/>
      <use xlink:href="#ArialMT-4b" x="177.929688"/>
      <use xlink:href="#ArialMT-5f" x="244.628906"/>
      <use xlink:href="#ArialMT-30" x="300.244141"/>
      <use xlink:href="#ArialMT-31" x="355.859375"/>
      <use xlink:href="#ArialMT-5f" x="411.474609"/>
      <use xlink:href="#ArialMT-6d" x="467.089844"/>
      <use xlink:href="#ArialMT-6f" x="550.390625"/>
      <use xlink:href="#ArialMT-76" x="606.005859"/>
      <use xlink:href="#ArialMT-69" x="656.005859"/>
      <use xlink:href="#ArialMT-65" x="678.222656"/>
      <use xlink:href="#ArialMT-5f" x="733.837891"/>
      <use xlink:href="#ArialMT-30" x="789.453125"/>
      <use xlink:href="#ArialMT-34" x="845.068359"/>
      <use xlink:href="#ArialMT-5f" x="900.683594"/>
      <use xlink:href="#ArialMT-4c" x="956.298828"/>
      <use xlink:href="#ArialMT-50" x="1011.914062"/>
      <use xlink:href="#ArialMT-49" x="1078.613281"/>
      <use xlink:href="#ArialMT-5f" x="1106.396484"/>
      <use xlink:href="#ArialMT-30" x="1162.011719"/>
      <use xlink:href="#ArialMT-30" x="1217.626953"/>
      <use xlink:href="#ArialMT-30" x="1273.242188"/>
      <use xlink:href="#ArialMT-2e" x="1328.857422"/>
      <use xlink:href="#ArialMT-6e" x="1356.640625"/>
      <use xlink:href="#ArialMT-65" x="1412.255859"/>
      <use xlink:href="#ArialMT-74" x="1467.871094"/>
      <use xlink:href="#ArialMT-74" x="1495.654297"/>
      <use xlink:href="#ArialMT-73" x="1523.4375"/>
     </g>
    </g>
    <g id="line2d_52">
     <path d="M 419.692169 116.061592 
L 426.640169 116.061592 
L 433.588169 116.061592 
" style="fill: none; stroke: #38a9c5; stroke-width: 1.5; stroke-linecap: round"/>
    </g>
    <g id="text_25">
     <!-- 19AK_01_movie_04_LPI_000.netts -->
     <g style="fill: #262626" transform="translate(439.146569 118.493392) scale(0.06948 -0.06948)">
      <defs>
       <path id="ArialMT-39" d="M 350 1059 
L 891 1109 
Q 959 728 1153 556 
Q 1347 384 1650 384 
Q 1909 384 2104 503 
Q 2300 622 2425 820 
Q 2550 1019 2634 1356 
Q 2719 1694 2719 2044 
Q 2719 2081 2716 2156 
Q 2547 1888 2255 1720 
Q 1963 1553 1622 1553 
Q 1053 1553 659 1965 
Q 266 2378 266 3053 
Q 266 3750 677 4175 
Q 1088 4600 1706 4600 
Q 2153 4600 2523 4359 
Q 2894 4119 3086 3673 
Q 3278 3228 3278 2384 
Q 3278 1506 3087 986 
Q 2897 466 2520 194 
Q 2144 -78 1638 -78 
Q 1100 -78 759 220 
Q 419 519 350 1059 
z
M 2653 3081 
Q 2653 3566 2395 3850 
Q 2138 4134 1775 4134 
Q 1400 4134 1122 3828 
Q 844 3522 844 3034 
Q 844 2597 1108 2323 
Q 1372 2050 1759 2050 
Q 2150 2050 2401 2323 
Q 2653 2597 2653 3081 
z
" transform="scale(0.015625)"/>
      </defs>
      <use xlink:href="#ArialMT-31"/>
      <use xlink:href="#ArialMT-39" x="55.615234"/>
      <use xlink:href="#ArialMT-41" x="111.230469"/>
      <use xlink:href="#ArialMT-4b" x="177.929688"/>
      <use xlink:href="#ArialMT-5f" x="244.628906"/>
      <use xlink:href="#ArialMT-30" x="300.244141"/>
      <use xlink:href="#ArialMT-31" x="355.859375"/>
      <use xlink:href="#ArialMT-5f" x="411.474609"/>
      <use xlink:href="#ArialMT-6d" x="467.089844"/>
      <use xlink:href="#ArialMT-6f" x="550.390625"/>
      <use xlink:href="#ArialMT-76" x="606.005859"/>
      <use xlink:href="#ArialMT-69" x="656.005859"/>
      <use xlink:href="#ArialMT-65" x="678.222656"/>
      <use xlink:href="#ArialMT-5f" x="733.837891"/>
      <use xlink:href="#ArialMT-30" x="789.453125"/>
      <use xlink:href="#ArialMT-34" x="845.068359"/>
      <use xlink:href="#ArialMT-5f" x="900.683594"/>
      <use xlink:href="#ArialMT-4c" x="956.298828"/>
      <use xlink:href="#ArialMT-50" x="1011.914062"/>
      <use xlink:href="#ArialMT-49" x="1078.613281"/>
      <use xlink:href="#ArialMT-5f" x="1106.396484"/>
      <use xlink:href="#ArialMT-30" x="1162.011719"/>
      <use xlink:href="#ArialMT-30" x="1217.626953"/>
      <use xlink:href="#ArialMT-30" x="1273.242188"/>
      <use xlink:href="#ArialMT-2e" x="1328.857422"/>
      <use xlink:href="#ArialMT-6e" x="1356.640625"/>
      <use xlink:href="#ArialMT-65" x="1412.255859"/>
      <use xlink:href="#ArialMT-74" x="1467.871094"/>
      <use xlink:href="#ArialMT-74" x="1495.654297"/>
      <use xlink:href="#ArialMT-73" x="1523.4375"/>
     </g>
    </g>
    <g id="line2d_53">
     <path d="M 419.692169 125.974434 
L 426.640169 125.974434 
L 433.588169 125.974434 
" style="fill: none; stroke: #3ba3ec; stroke-width: 1.5; stroke-linecap: round"/>
    </g>
    <g id="text_26">
     <!-- 22CY_01_movie_04_LPI_000.netts -->
     <g style="fill: #262626" transform="translate(439.146569 128.406234) scale(0.06948 -0.06948)">
      <defs>
       <path id="ArialMT-59" d="M 1784 0 
L 1784 1941 
L 19 4581 
L 756 4581 
L 1659 3200 
Q 1909 2813 2125 2425 
Q 2331 2784 2625 3234 
L 3513 4581 
L 4219 4581 
L 2391 1941 
L 2391 0 
L 1784 0 
z
" transform="scale(0.015625)"/>
      </defs>
      <use xlink:href="#ArialMT-32"/>
      <use xlink:href="#ArialMT-32" x="55.615234"/>
      <use xlink:href="#ArialMT-43" x="111.230469"/>
      <use xlink:href="#ArialMT-59" x="183.447266"/>
      <use xlink:href="#ArialMT-5f" x="250.146484"/>
      <use xlink:href="#ArialMT-30" x="305.761719"/>
      <use xlink:href="#ArialMT-31" x="361.376953"/>
      <use xlink:href="#ArialMT-5f" x="416.992188"/>
      <use xlink:href="#ArialMT-6d" x="472.607422"/>
      <use xlink:href="#ArialMT-6f" x="555.908203"/>
      <use xlink:href="#ArialMT-76" x="611.523438"/>
      <use xlink:href="#ArialMT-69" x="661.523438"/>
      <use xlink:href="#ArialMT-65" x="683.740234"/>
      <use xlink:href="#ArialMT-5f" x="739.355469"/>
      <use xlink:href="#ArialMT-30" x="794.970703"/>
      <use xlink:href="#ArialMT-34" x="850.585938"/>
      <use xlink:href="#ArialMT-5f" x="906.201172"/>
      <use xlink:href="#ArialMT-4c" x="961.816406"/>
      <use xlink:href="#ArialMT-50" x="1017.431641"/>
      <use xlink:href="#ArialMT-49" x="1084.130859"/>
      <use xlink:href="#ArialMT-5f" x="1111.914062"/>
      <use xlink:href="#ArialMT-30" x="1167.529297"/>
      <use xlink:href="#ArialMT-30" x="1223.144531"/>
      <use xlink:href="#ArialMT-30" x="1278.759766"/>
      <use xlink:href="#ArialMT-2e" x="1334.375"/>
      <use xlink:href="#ArialMT-6e" x="1362.158203"/>
      <use xlink:href="#ArialMT-65" x="1417.773438"/>
      <use xlink:href="#ArialMT-74" x="1473.388672"/>
      <use xlink:href="#ArialMT-74" x="1501.171875"/>
      <use xlink:href="#ArialMT-73" x="1528.955078"/>
     </g>
    </g>
    <g id="line2d_54">
     <path d="M 419.692169 135.823224 
L 426.640169 135.823224 
L 433.588169 135.823224 
" style="fill: none; stroke: #9591f4; stroke-width: 1.5; stroke-linecap: round"/>
    </g>
    <g id="text_27">
     <!-- 22TK_01_movie_04_LPI_000.netts -->
     <g style="fill: #262626" transform="translate(439.146569 138.255024) scale(0.06948 -0.06948)">
      <defs>
       <path id="ArialMT-54" d="M 1659 0 
L 1659 4041 
L 150 4041 
L 150 4581 
L 3781 4581 
L 3781 4041 
L 2266 4041 
L 2266 0 
L 1659 0 
z
" transform="scale(0.015625)"/>
      </defs>
      <use xlink:href="#ArialMT-32"/>
      <use xlink:href="#ArialMT-32" x="55.615234"/>
      <use xlink:href="#ArialMT-54" x="111.230469"/>
      <use xlink:href="#ArialMT-4b" x="172.314453"/>
      <use xlink:href="#ArialMT-5f" x="239.013672"/>
      <use xlink:href="#ArialMT-30" x="294.628906"/>
      <use xlink:href="#ArialMT-31" x="350.244141"/>
      <use xlink:href="#ArialMT-5f" x="405.859375"/>
      <use xlink:href="#ArialMT-6d" x="461.474609"/>
      <use xlink:href="#ArialMT-6f" x="544.775391"/>
      <use xlink:href="#ArialMT-76" x="600.390625"/>
      <use xlink:href="#ArialMT-69" x="650.390625"/>
      <use xlink:href="#ArialMT-65" x="672.607422"/>
      <use xlink:href="#ArialMT-5f" x="728.222656"/>
      <use xlink:href="#ArialMT-30" x="783.837891"/>
      <use xlink:href="#ArialMT-34" x="839.453125"/>
      <use xlink:href="#ArialMT-5f" x="895.068359"/>
      <use xlink:href="#ArialMT-4c" x="950.683594"/>
      <use xlink:href="#ArialMT-50" x="1006.298828"/>
      <use xlink:href="#ArialMT-49" x="1072.998047"/>
      <use xlink:href="#ArialMT-5f" x="1100.78125"/>
      <use xlink:href="#ArialMT-30" x="1156.396484"/>
      <use xlink:href="#ArialMT-30" x="1212.011719"/>
      <use xlink:href="#ArialMT-30" x="1267.626953"/>
      <use xlink:href="#ArialMT-2e" x="1323.242188"/>
      <use xlink:href="#ArialMT-6e" x="1351.025391"/>
      <use xlink:href="#ArialMT-65" x="1406.640625"/>
      <use xlink:href="#ArialMT-74" x="1462.255859"/>
      <use xlink:href="#ArialMT-74" x="1490.039062"/>
      <use xlink:href="#ArialMT-73" x="1517.822266"/>
     </g>
    </g>
    <g id="line2d_55">
     <path d="M 419.692169 145.672014 
L 426.640169 145.672014 
L 433.588169 145.672014 
" style="fill: none; stroke: #cc7af4; stroke-width: 1.5; stroke-linecap: round"/>
    </g>
    <g id="text_28">
     <!-- 25JK_01_movie_04_LPI_000.netts -->
     <g style="fill: #262626" transform="translate(439.146569 148.103814) scale(0.06948 -0.06948)">
      <use xlink:href="#ArialMT-32"/>
      <use xlink:href="#ArialMT-35" x="55.615234"/>
      <use xlink:href="#ArialMT-4a" x="111.230469"/>
      <use xlink:href="#ArialMT-4b" x="161.230469"/>
      <use xlink:href="#ArialMT-5f" x="227.929688"/>
      <use xlink:href="#ArialMT-30" x="283.544922"/>
      <use xlink:href="#ArialMT-31" x="339.160156"/>
      <use xlink:href="#ArialMT-5f" x="394.775391"/>
      <use xlink:href="#ArialMT-6d" x="450.390625"/>
      <use xlink:href="#ArialMT-6f" x="533.691406"/>
      <use xlink:href="#ArialMT-76" x="589.306641"/>
      <use xlink:href="#ArialMT-69" x="639.306641"/>
      <use xlink:href="#ArialMT-65" x="661.523438"/>
      <use xlink:href="#ArialMT-5f" x="717.138672"/>
      <use xlink:href="#ArialMT-30" x="772.753906"/>
      <use xlink:href="#ArialMT-34" x="828.369141"/>
      <use xlink:href="#ArialMT-5f" x="883.984375"/>
      <use xlink:href="#ArialMT-4c" x="939.599609"/>
      <use xlink:href="#ArialMT-50" x="995.214844"/>
      <use xlink:href="#ArialMT-49" x="1061.914062"/>
      <use xlink:href="#ArialMT-5f" x="1089.697266"/>
      <use xlink:href="#ArialMT-30" x="1145.3125"/>
      <use xlink:href="#ArialMT-30" x="1200.927734"/>
      <use xlink:href="#ArialMT-30" x="1256.542969"/>
      <use xlink:href="#ArialMT-2e" x="1312.158203"/>
      <use xlink:href="#ArialMT-6e" x="1339.941406"/>
      <use xlink:href="#ArialMT-65" x="1395.556641"/>
      <use xlink:href="#ArialMT-74" x="1451.171875"/>
      <use xlink:href="#ArialMT-74" x="1478.955078"/>
      <use xlink:href="#ArialMT-73" x="1506.738281"/>
     </g>
    </g>
    <g id="line2d_56">
     <path d="M 419.692169 155.520804 
L 426.640169 155.520804 
L 433.588169 155.520804 
" style="fill: none; stroke: #f560e4; stroke-width: 1.5; stroke-linecap: round"/>
    </g>
    <g id="text_29">
     <!-- 27HF_01_movie_04_LPI_000.netts -->
     <g style="fill: #262626" transform="translate(439.146569 157.952604) scale(0.06948 -0.06948)">
      <defs>
       <path id="ArialMT-46" d="M 525 0 
L 525 4581 
L 3616 4581 
L 3616 4041 
L 1131 4041 
L 1131 2622 
L 3281 2622 
L 3281 2081 
L 1131 2081 
L 1131 0 
L 525 0 
z
" transform="scale(0.015625)"/>
      </defs>
      <use xlink:href="#ArialMT-32"/>
      <use xlink:href="#ArialMT-37" x="55.615234"/>
      <use xlink:href="#ArialMT-48" x="111.230469"/>
      <use xlink:href="#ArialMT-46" x="183.447266"/>
      <use xlink:href="#ArialMT-5f" x="244.53125"/>
      <use xlink:href="#ArialMT-30" x="300.146484"/>
      <use xlink:href="#ArialMT-31" x="355.761719"/>
      <use xlink:href="#ArialMT-5f" x="411.376953"/>
      <use xlink:href="#ArialMT-6d" x="466.992188"/>
      <use xlink:href="#ArialMT-6f" x="550.292969"/>
      <use xlink:href="#ArialMT-76" x="605.908203"/>
      <use xlink:href="#ArialMT-69" x="655.908203"/>
      <use xlink:href="#ArialMT-65" x="678.125"/>
      <use xlink:href="#ArialMT-5f" x="733.740234"/>
      <use xlink:href="#ArialMT-30" x="789.355469"/>
      <use xlink:href="#ArialMT-34" x="844.970703"/>
      <use xlink:href="#ArialMT-5f" x="900.585938"/>
      <use xlink:href="#ArialMT-4c" x="956.201172"/>
      <use xlink:href="#ArialMT-50" x="1011.816406"/>
      <use xlink:href="#ArialMT-49" x="1078.515625"/>
      <use xlink:href="#ArialMT-5f" x="1106.298828"/>
      <use xlink:href="#ArialMT-30" x="1161.914062"/>
      <use xlink:href="#ArialMT-30" x="1217.529297"/>
      <use xlink:href="#ArialMT-30" x="1273.144531"/>
      <use xlink:href="#ArialMT-2e" x="1328.759766"/>
      <use xlink:href="#ArialMT-6e" x="1356.542969"/>
      <use xlink:href="#ArialMT-65" x="1412.158203"/>
      <use xlink:href="#ArialMT-74" x="1467.773438"/>
      <use xlink:href="#ArialMT-74" x="1495.556641"/>
      <use xlink:href="#ArialMT-73" x="1523.339844"/>
     </g>
    </g>
    <g id="line2d_57">
     <path d="M 419.692169 165.437989 
L 426.640169 165.437989 
L 433.588169 165.437989 
" style="fill: none; stroke: #f66ab7; stroke-width: 1.5; stroke-linecap: round"/>
    </g>
    <g id="text_30">
     <!-- 30AQ_01_movie_04_LPI_000.netts -->
     <g style="fill: #262626" transform="translate(439.146569 167.869789) scale(0.06948 -0.06948)">
      <defs>
       <path id="ArialMT-51" d="M 3966 491 
Q 4388 200 4744 66 
L 4566 -356 
Q 4072 -178 3581 206 
Q 3072 -78 2456 -78 
Q 1834 -78 1328 222 
Q 822 522 548 1065 
Q 275 1609 275 2291 
Q 275 2969 550 3525 
Q 825 4081 1333 4372 
Q 1841 4663 2469 4663 
Q 3103 4663 3612 4361 
Q 4122 4059 4389 3517 
Q 4656 2975 4656 2294 
Q 4656 1728 4484 1276 
Q 4313 825 3966 491 
z
M 2631 1266 
Q 3156 1119 3497 828 
Q 4031 1316 4031 2294 
Q 4031 2850 3842 3265 
Q 3653 3681 3289 3911 
Q 2925 4141 2472 4141 
Q 1794 4141 1347 3677 
Q 900 3213 900 2291 
Q 900 1397 1342 919 
Q 1784 441 2472 441 
Q 2797 441 3084 563 
Q 2800 747 2484 825 
L 2631 1266 
z
" transform="scale(0.015625)"/>
      </defs>
      <use xlink:href="#ArialMT-33"/>
      <use xlink:href="#ArialMT-30" x="55.615234"/>
      <use xlink:href="#ArialMT-41" x="111.230469"/>
      <use xlink:href="#ArialMT-51" x="177.929688"/>
      <use xlink:href="#ArialMT-5f" x="255.712891"/>
      <use xlink:href="#ArialMT-30" x="311.328125"/>
      <use xlink:href="#ArialMT-31" x="366.943359"/>
      <use xlink:href="#ArialMT-5f" x="422.558594"/>
      <use xlink:href="#ArialMT-6d" x="478.173828"/>
      <use xlink:href="#ArialMT-6f" x="561.474609"/>
      <use xlink:href="#ArialMT-76" x="617.089844"/>
      <use xlink:href="#ArialMT-69" x="667.089844"/>
      <use xlink:href="#ArialMT-65" x="689.306641"/>
      <use xlink:href="#ArialMT-5f" x="744.921875"/>
      <use xlink:href="#ArialMT-30" x="800.537109"/>
      <use xlink:href="#ArialMT-34" x="856.152344"/>
      <use xlink:href="#ArialMT-5f" x="911.767578"/>
      <use xlink:href="#ArialMT-4c" x="967.382812"/>
      <use xlink:href="#ArialMT-50" x="1022.998047"/>
      <use xlink:href="#ArialMT-49" x="1089.697266"/>
      <use xlink:href="#ArialMT-5f" x="1117.480469"/>
      <use xlink:href="#ArialMT-30" x="1173.095703"/>
      <use xlink:href="#ArialMT-30" x="1228.710938"/>
      <use xlink:href="#ArialMT-30" x="1284.326172"/>
      <use xlink:href="#ArialMT-2e" x="1339.941406"/>
      <use xlink:href="#ArialMT-6e" x="1367.724609"/>
      <use xlink:href="#ArialMT-65" x="1423.339844"/>
      <use xlink:href="#ArialMT-74" x="1478.955078"/>
      <use xlink:href="#ArialMT-74" x="1506.738281"/>
      <use xlink:href="#ArialMT-73" x="1534.521484"/>
     </g>
    </g>
   </g>
  </g>
 </g>
 <defs>
  <clipPath id="p951907f6dc">
   <rect x="59.792969" y="21.825" width="357.12" height="266.112"/>
  </clipPath>
 </defs>
</svg>
