<?xml version="1.0" encoding="utf-8" standalone="no"?>
<!DOCTYPE svg PUBLIC "-//W3C//DTD SVG 1.1//EN"
  "http://www.w3.org/Graphics/SVG/1.1/DTD/svg11.dtd">
<svg xmlns:xlink="http://www.w3.org/1999/xlink" width="565.327346pt" height="329.671219pt" viewBox="0 0 565.327346 329.671219" xmlns="http://www.w3.org/2000/svg" version="1.1">
 <metadata>
  <rdf:RDF xmlns:dc="http://purl.org/dc/elements/1.1/" xmlns:cc="http://creativecommons.org/ns#" xmlns:rdf="http://www.w3.org/1999/02/22-rdf-syntax-ns#">
   <cc:Work>
    <dc:type rdf:resource="http://purl.org/dc/dcmitype/StillImage"/>
    <dc:date>2023-01-10T02:13:20.988062</dc:date>
    <dc:format>image/svg+xml</dc:format>
    <dc:creator>
     <cc:Agent>
      <dc:title>Matplotlib v3.6.2, https://matplotlib.org/</dc:title>
     </cc:Agent>
    </dc:creator>
   </cc:Work>
  </rdf:RDF>
 </metadata>
 <defs>
  <style type="text/css">*{stroke-linejoin: round; stroke-linecap: butt}</style>
 </defs>
 <g id="figure_1">
  <g id="patch_1">
   <path d="M 0 329.671219 
L 565.327346 329.671219 
L 565.327346 0 
L 0 0 
z
" style="fill: #ffffff"/>
  </g>
  <g id="axes_1">
   <g id="patch_2">
    <path d="M 65.91 287.937 
L 423.03 287.937 
L 423.03 21.825 
L 65.91 21.825 
z
" style="fill: #ffffff"/>
   </g>
   <g id="matplotlib.axis_1">
    <g id="xtick_1">
     <g id="line2d_1">
      <path d="M 82.142727 287.937 
L 82.142727 21.825 
" clip-path="url(#p266267190a)" style="fill: none; stroke: #cccccc; stroke-linecap: round"/>
     </g>
     <g id="text_1">
      <!-- 0 -->
      <g style="fill: #262626" transform="translate(79.084212 305.310594) scale(0.11 -0.11)">
       <defs>
        <path id="ArialMT-30" d="M 266 2259 
Q 266 3072 433 3567 
Q 600 4063 929 4331 
Q 1259 4600 1759 4600 
Q 2128 4600 2406 4451 
Q 2684 4303 2865 4023 
Q 3047 3744 3150 3342 
Q 3253 2941 3253 2259 
Q 3253 1453 3087 958 
Q 2922 463 2592 192 
Q 2263 -78 1759 -78 
Q 1097 -78 719 397 
Q 266 969 266 2259 
z
M 844 2259 
Q 844 1131 1108 757 
Q 1372 384 1759 384 
Q 2147 384 2411 759 
Q 2675 1134 2675 2259 
Q 2675 3391 2411 3762 
Q 2147 4134 1753 4134 
Q 1366 4134 1134 3806 
Q 844 3388 844 2259 
z
" transform="scale(0.015625)"/>
       </defs>
       <use xlink:href="#ArialMT-30"/>
      </g>
     </g>
    </g>
    <g id="xtick_2">
     <g id="line2d_2">
      <path d="M 152.719802 287.937 
L 152.719802 21.825 
" clip-path="url(#p266267190a)" style="fill: none; stroke: #cccccc; stroke-linecap: round"/>
     </g>
     <g id="text_2">
      <!-- 20 -->
      <g style="fill: #262626" transform="translate(146.602771 305.310594) scale(0.11 -0.11)">
       <defs>
        <path id="ArialMT-32" d="M 3222 541 
L 3222 0 
L 194 0 
Q 188 203 259 391 
Q 375 700 629 1000 
Q 884 1300 1366 1694 
Q 2113 2306 2375 2664 
Q 2638 3022 2638 3341 
Q 2638 3675 2398 3904 
Q 2159 4134 1775 4134 
Q 1369 4134 1125 3890 
Q 881 3647 878 3216 
L 300 3275 
Q 359 3922 746 4261 
Q 1134 4600 1788 4600 
Q 2447 4600 2831 4234 
Q 3216 3869 3216 3328 
Q 3216 3053 3103 2787 
Q 2991 2522 2730 2228 
Q 2469 1934 1863 1422 
Q 1356 997 1212 845 
Q 1069 694 975 541 
L 3222 541 
z
" transform="scale(0.015625)"/>
       </defs>
       <use xlink:href="#ArialMT-32"/>
       <use xlink:href="#ArialMT-30" x="55.615234"/>
      </g>
     </g>
    </g>
    <g id="xtick_3">
     <g id="line2d_3">
      <path d="M 223.296877 287.937 
L 223.296877 21.825 
" clip-path="url(#p266267190a)" style="fill: none; stroke: #cccccc; stroke-linecap: round"/>
     </g>
     <g id="text_3">
      <!-- 40 -->
      <g style="fill: #262626" transform="translate(217.179846 305.310594) scale(0.11 -0.11)">
       <defs>
        <path id="ArialMT-34" d="M 2069 0 
L 2069 1097 
L 81 1097 
L 81 1613 
L 2172 4581 
L 2631 4581 
L 2631 1613 
L 3250 1613 
L 3250 1097 
L 2631 1097 
L 2631 0 
L 2069 0 
z
M 2069 1613 
L 2069 3678 
L 634 1613 
L 2069 1613 
z
" transform="scale(0.015625)"/>
       </defs>
       <use xlink:href="#ArialMT-34"/>
       <use xlink:href="#ArialMT-30" x="55.615234"/>
      </g>
     </g>
    </g>
    <g id="xtick_4">
     <g id="line2d_4">
      <path d="M 293.873953 287.937 
L 293.873953 21.825 
" clip-path="url(#p266267190a)" style="fill: none; stroke: #cccccc; stroke-linecap: round"/>
     </g>
     <g id="text_4">
      <!-- 60 -->
      <g style="fill: #262626" transform="translate(287.756921 305.310594) scale(0.11 -0.11)">
       <defs>
        <path id="ArialMT-36" d="M 3184 3459 
L 2625 3416 
Q 2550 3747 2413 3897 
Q 2184 4138 1850 4138 
Q 1581 4138 1378 3988 
Q 1113 3794 959 3422 
Q 806 3050 800 2363 
Q 1003 2672 1297 2822 
Q 1591 2972 1913 2972 
Q 2475 2972 2870 2558 
Q 3266 2144 3266 1488 
Q 3266 1056 3080 686 
Q 2894 316 2569 119 
Q 2244 -78 1831 -78 
Q 1128 -78 684 439 
Q 241 956 241 2144 
Q 241 3472 731 4075 
Q 1159 4600 1884 4600 
Q 2425 4600 2770 4297 
Q 3116 3994 3184 3459 
z
M 888 1484 
Q 888 1194 1011 928 
Q 1134 663 1356 523 
Q 1578 384 1822 384 
Q 2178 384 2434 671 
Q 2691 959 2691 1453 
Q 2691 1928 2437 2201 
Q 2184 2475 1800 2475 
Q 1419 2475 1153 2201 
Q 888 1928 888 1484 
z
" transform="scale(0.015625)"/>
       </defs>
       <use xlink:href="#ArialMT-36"/>
       <use xlink:href="#ArialMT-30" x="55.615234"/>
      </g>
     </g>
    </g>
    <g id="xtick_5">
     <g id="line2d_5">
      <path d="M 364.451028 287.937 
L 364.451028 21.825 
" clip-path="url(#p266267190a)" style="fill: none; stroke: #cccccc; stroke-linecap: round"/>
     </g>
     <g id="text_5">
      <!-- 80 -->
      <g style="fill: #262626" transform="translate(358.333996 305.310594) scale(0.11 -0.11)">
       <defs>
        <path id="ArialMT-38" d="M 1131 2484 
Q 781 2613 612 2850 
Q 444 3088 444 3419 
Q 444 3919 803 4259 
Q 1163 4600 1759 4600 
Q 2359 4600 2725 4251 
Q 3091 3903 3091 3403 
Q 3091 3084 2923 2848 
Q 2756 2613 2416 2484 
Q 2838 2347 3058 2040 
Q 3278 1734 3278 1309 
Q 3278 722 2862 322 
Q 2447 -78 1769 -78 
Q 1091 -78 675 323 
Q 259 725 259 1325 
Q 259 1772 486 2073 
Q 713 2375 1131 2484 
z
M 1019 3438 
Q 1019 3113 1228 2906 
Q 1438 2700 1772 2700 
Q 2097 2700 2305 2904 
Q 2513 3109 2513 3406 
Q 2513 3716 2298 3927 
Q 2084 4138 1766 4138 
Q 1444 4138 1231 3931 
Q 1019 3725 1019 3438 
z
M 838 1322 
Q 838 1081 952 856 
Q 1066 631 1291 507 
Q 1516 384 1775 384 
Q 2178 384 2440 643 
Q 2703 903 2703 1303 
Q 2703 1709 2433 1975 
Q 2163 2241 1756 2241 
Q 1359 2241 1098 1978 
Q 838 1716 838 1322 
z
" transform="scale(0.015625)"/>
       </defs>
       <use xlink:href="#ArialMT-38"/>
       <use xlink:href="#ArialMT-30" x="55.615234"/>
      </g>
     </g>
    </g>
    <g id="text_6">
     <!-- Window No. -->
     <g style="fill: #262626" transform="translate(212.127187 320.086219) scale(0.12 -0.12)">
      <defs>
       <path id="ArialMT-57" d="M 1294 0 
L 78 4581 
L 700 4581 
L 1397 1578 
Q 1509 1106 1591 641 
Q 1766 1375 1797 1488 
L 2669 4581 
L 3400 4581 
L 4056 2263 
Q 4303 1400 4413 641 
Q 4500 1075 4641 1638 
L 5359 4581 
L 5969 4581 
L 4713 0 
L 4128 0 
L 3163 3491 
Q 3041 3928 3019 4028 
Q 2947 3713 2884 3491 
L 1913 0 
L 1294 0 
z
" transform="scale(0.015625)"/>
       <path id="ArialMT-69" d="M 425 3934 
L 425 4581 
L 988 4581 
L 988 3934 
L 425 3934 
z
M 425 0 
L 425 3319 
L 988 3319 
L 988 0 
L 425 0 
z
" transform="scale(0.015625)"/>
       <path id="ArialMT-6e" d="M 422 0 
L 422 3319 
L 928 3319 
L 928 2847 
Q 1294 3394 1984 3394 
Q 2284 3394 2536 3286 
Q 2788 3178 2913 3003 
Q 3038 2828 3088 2588 
Q 3119 2431 3119 2041 
L 3119 0 
L 2556 0 
L 2556 2019 
Q 2556 2363 2490 2533 
Q 2425 2703 2258 2804 
Q 2091 2906 1866 2906 
Q 1506 2906 1245 2678 
Q 984 2450 984 1813 
L 984 0 
L 422 0 
z
" transform="scale(0.015625)"/>
       <path id="ArialMT-64" d="M 2575 0 
L 2575 419 
Q 2259 -75 1647 -75 
Q 1250 -75 917 144 
Q 584 363 401 755 
Q 219 1147 219 1656 
Q 219 2153 384 2558 
Q 550 2963 881 3178 
Q 1213 3394 1622 3394 
Q 1922 3394 2156 3267 
Q 2391 3141 2538 2938 
L 2538 4581 
L 3097 4581 
L 3097 0 
L 2575 0 
z
M 797 1656 
Q 797 1019 1065 703 
Q 1334 388 1700 388 
Q 2069 388 2326 689 
Q 2584 991 2584 1609 
Q 2584 2291 2321 2609 
Q 2059 2928 1675 2928 
Q 1300 2928 1048 2622 
Q 797 2316 797 1656 
z
" transform="scale(0.015625)"/>
       <path id="ArialMT-6f" d="M 213 1659 
Q 213 2581 725 3025 
Q 1153 3394 1769 3394 
Q 2453 3394 2887 2945 
Q 3322 2497 3322 1706 
Q 3322 1066 3130 698 
Q 2938 331 2570 128 
Q 2203 -75 1769 -75 
Q 1072 -75 642 372 
Q 213 819 213 1659 
z
M 791 1659 
Q 791 1022 1069 705 
Q 1347 388 1769 388 
Q 2188 388 2466 706 
Q 2744 1025 2744 1678 
Q 2744 2294 2464 2611 
Q 2184 2928 1769 2928 
Q 1347 2928 1069 2612 
Q 791 2297 791 1659 
z
" transform="scale(0.015625)"/>
       <path id="ArialMT-77" d="M 1034 0 
L 19 3319 
L 600 3319 
L 1128 1403 
L 1325 691 
Q 1338 744 1497 1375 
L 2025 3319 
L 2603 3319 
L 3100 1394 
L 3266 759 
L 3456 1400 
L 4025 3319 
L 4572 3319 
L 3534 0 
L 2950 0 
L 2422 1988 
L 2294 2553 
L 1622 0 
L 1034 0 
z
" transform="scale(0.015625)"/>
       <path id="ArialMT-20" transform="scale(0.015625)"/>
       <path id="ArialMT-4e" d="M 488 0 
L 488 4581 
L 1109 4581 
L 3516 984 
L 3516 4581 
L 4097 4581 
L 4097 0 
L 3475 0 
L 1069 3600 
L 1069 0 
L 488 0 
z
" transform="scale(0.015625)"/>
       <path id="ArialMT-2e" d="M 581 0 
L 581 641 
L 1222 641 
L 1222 0 
L 581 0 
z
" transform="scale(0.015625)"/>
      </defs>
      <use xlink:href="#ArialMT-57"/>
      <use xlink:href="#ArialMT-69" x="94.384766"/>
      <use xlink:href="#ArialMT-6e" x="116.601562"/>
      <use xlink:href="#ArialMT-64" x="172.216797"/>
      <use xlink:href="#ArialMT-6f" x="227.832031"/>
      <use xlink:href="#ArialMT-77" x="283.447266"/>
      <use xlink:href="#ArialMT-20" x="355.664062"/>
      <use xlink:href="#ArialMT-4e" x="383.447266"/>
      <use xlink:href="#ArialMT-6f" x="455.664062"/>
      <use xlink:href="#ArialMT-2e" x="511.279297"/>
     </g>
    </g>
   </g>
   <g id="matplotlib.axis_2">
    <g id="ytick_1">
     <g id="line2d_6">
      <path d="M 65.91 285.278361 
L 423.03 285.278361 
" clip-path="url(#p266267190a)" style="fill: none; stroke: #cccccc; stroke-linecap: round"/>
     </g>
     <g id="text_7">
      <!-- −0.100 -->
      <g style="fill: #262626" transform="translate(22.46125 289.215158) scale(0.11 -0.11)">
       <defs>
        <path id="ArialMT-2212" d="M 3381 1997 
L 356 1997 
L 356 2522 
L 3381 2522 
L 3381 1997 
z
" transform="scale(0.015625)"/>
        <path id="ArialMT-31" d="M 2384 0 
L 1822 0 
L 1822 3584 
Q 1619 3391 1289 3197 
Q 959 3003 697 2906 
L 697 3450 
Q 1169 3672 1522 3987 
Q 1875 4303 2022 4600 
L 2384 4600 
L 2384 0 
z
" transform="scale(0.015625)"/>
       </defs>
       <use xlink:href="#ArialMT-2212"/>
       <use xlink:href="#ArialMT-30" x="58.398438"/>
       <use xlink:href="#ArialMT-2e" x="114.013672"/>
       <use xlink:href="#ArialMT-31" x="141.796875"/>
       <use xlink:href="#ArialMT-30" x="197.412109"/>
       <use xlink:href="#ArialMT-30" x="253.027344"/>
      </g>
     </g>
    </g>
    <g id="ytick_2">
     <g id="line2d_7">
      <path d="M 65.91 250.476681 
L 423.03 250.476681 
" clip-path="url(#p266267190a)" style="fill: none; stroke: #cccccc; stroke-linecap: round"/>
     </g>
     <g id="text_8">
      <!-- −0.075 -->
      <g style="fill: #262626" transform="translate(22.46125 254.413478) scale(0.11 -0.11)">
       <defs>
        <path id="ArialMT-37" d="M 303 3981 
L 303 4522 
L 3269 4522 
L 3269 4084 
Q 2831 3619 2401 2847 
Q 1972 2075 1738 1259 
Q 1569 684 1522 0 
L 944 0 
Q 953 541 1156 1306 
Q 1359 2072 1739 2783 
Q 2119 3494 2547 3981 
L 303 3981 
z
" transform="scale(0.015625)"/>
        <path id="ArialMT-35" d="M 266 1200 
L 856 1250 
Q 922 819 1161 601 
Q 1400 384 1738 384 
Q 2144 384 2425 690 
Q 2706 997 2706 1503 
Q 2706 1984 2436 2262 
Q 2166 2541 1728 2541 
Q 1456 2541 1237 2417 
Q 1019 2294 894 2097 
L 366 2166 
L 809 4519 
L 3088 4519 
L 3088 3981 
L 1259 3981 
L 1013 2750 
Q 1425 3038 1878 3038 
Q 2478 3038 2890 2622 
Q 3303 2206 3303 1553 
Q 3303 931 2941 478 
Q 2500 -78 1738 -78 
Q 1113 -78 717 272 
Q 322 622 266 1200 
z
" transform="scale(0.015625)"/>
       </defs>
       <use xlink:href="#ArialMT-2212"/>
       <use xlink:href="#ArialMT-30" x="58.398438"/>
       <use xlink:href="#ArialMT-2e" x="114.013672"/>
       <use xlink:href="#ArialMT-30" x="141.796875"/>
       <use xlink:href="#ArialMT-37" x="197.412109"/>
       <use xlink:href="#ArialMT-35" x="253.027344"/>
      </g>
     </g>
    </g>
    <g id="ytick_3">
     <g id="line2d_8">
      <path d="M 65.91 215.675001 
L 423.03 215.675001 
" clip-path="url(#p266267190a)" style="fill: none; stroke: #cccccc; stroke-linecap: round"/>
     </g>
     <g id="text_9">
      <!-- −0.050 -->
      <g style="fill: #262626" transform="translate(22.46125 219.611798) scale(0.11 -0.11)">
       <use xlink:href="#ArialMT-2212"/>
       <use xlink:href="#ArialMT-30" x="58.398438"/>
       <use xlink:href="#ArialMT-2e" x="114.013672"/>
       <use xlink:href="#ArialMT-30" x="141.796875"/>
       <use xlink:href="#ArialMT-35" x="197.412109"/>
       <use xlink:href="#ArialMT-30" x="253.027344"/>
      </g>
     </g>
    </g>
    <g id="ytick_4">
     <g id="line2d_9">
      <path d="M 65.91 180.873321 
L 423.03 180.873321 
" clip-path="url(#p266267190a)" style="fill: none; stroke: #cccccc; stroke-linecap: round"/>
     </g>
     <g id="text_10">
      <!-- −0.025 -->
      <g style="fill: #262626" transform="translate(22.46125 184.810118) scale(0.11 -0.11)">
       <use xlink:href="#ArialMT-2212"/>
       <use xlink:href="#ArialMT-30" x="58.398438"/>
       <use xlink:href="#ArialMT-2e" x="114.013672"/>
       <use xlink:href="#ArialMT-30" x="141.796875"/>
       <use xlink:href="#ArialMT-32" x="197.412109"/>
       <use xlink:href="#ArialMT-35" x="253.027344"/>
      </g>
     </g>
    </g>
    <g id="ytick_5">
     <g id="line2d_10">
      <path d="M 65.91 146.071641 
L 423.03 146.071641 
" clip-path="url(#p266267190a)" style="fill: none; stroke: #cccccc; stroke-linecap: round"/>
     </g>
     <g id="text_11">
      <!-- 0.000 -->
      <g style="fill: #262626" transform="translate(28.885937 150.008438) scale(0.11 -0.11)">
       <use xlink:href="#ArialMT-30"/>
       <use xlink:href="#ArialMT-2e" x="55.615234"/>
       <use xlink:href="#ArialMT-30" x="83.398438"/>
       <use xlink:href="#ArialMT-30" x="139.013672"/>
       <use xlink:href="#ArialMT-30" x="194.628906"/>
      </g>
     </g>
    </g>
    <g id="ytick_6">
     <g id="line2d_11">
      <path d="M 65.91 111.269962 
L 423.03 111.269962 
" clip-path="url(#p266267190a)" style="fill: none; stroke: #cccccc; stroke-linecap: round"/>
     </g>
     <g id="text_12">
      <!-- 0.025 -->
      <g style="fill: #262626" transform="translate(28.885937 115.206759) scale(0.11 -0.11)">
       <use xlink:href="#ArialMT-30"/>
       <use xlink:href="#ArialMT-2e" x="55.615234"/>
       <use xlink:href="#ArialMT-30" x="83.398438"/>
       <use xlink:href="#ArialMT-32" x="139.013672"/>
       <use xlink:href="#ArialMT-35" x="194.628906"/>
      </g>
     </g>
    </g>
    <g id="ytick_7">
     <g id="line2d_12">
      <path d="M 65.91 76.468282 
L 423.03 76.468282 
" clip-path="url(#p266267190a)" style="fill: none; stroke: #cccccc; stroke-linecap: round"/>
     </g>
     <g id="text_13">
      <!-- 0.050 -->
      <g style="fill: #262626" transform="translate(28.885937 80.405079) scale(0.11 -0.11)">
       <use xlink:href="#ArialMT-30"/>
       <use xlink:href="#ArialMT-2e" x="55.615234"/>
       <use xlink:href="#ArialMT-30" x="83.398438"/>
       <use xlink:href="#ArialMT-35" x="139.013672"/>
       <use xlink:href="#ArialMT-30" x="194.628906"/>
      </g>
     </g>
    </g>
    <g id="ytick_8">
     <g id="line2d_13">
      <path d="M 65.91 41.666602 
L 423.03 41.666602 
" clip-path="url(#p266267190a)" style="fill: none; stroke: #cccccc; stroke-linecap: round"/>
     </g>
     <g id="text_14">
      <!-- 0.075 -->
      <g style="fill: #262626" transform="translate(28.885937 45.603399) scale(0.11 -0.11)">
       <use xlink:href="#ArialMT-30"/>
       <use xlink:href="#ArialMT-2e" x="55.615234"/>
       <use xlink:href="#ArialMT-30" x="83.398438"/>
       <use xlink:href="#ArialMT-37" x="139.013672"/>
       <use xlink:href="#ArialMT-35" x="194.628906"/>
      </g>
     </g>
    </g>
    <g id="text_15">
     <!-- Hurst (Mean) -->
     <g style="fill: #262626" transform="translate(15.935625 189.885375) rotate(-90) scale(0.12 -0.12)">
      <defs>
       <path id="ArialMT-48" d="M 513 0 
L 513 4581 
L 1119 4581 
L 1119 2700 
L 3500 2700 
L 3500 4581 
L 4106 4581 
L 4106 0 
L 3500 0 
L 3500 2159 
L 1119 2159 
L 1119 0 
L 513 0 
z
" transform="scale(0.015625)"/>
       <path id="ArialMT-75" d="M 2597 0 
L 2597 488 
Q 2209 -75 1544 -75 
Q 1250 -75 995 37 
Q 741 150 617 320 
Q 494 491 444 738 
Q 409 903 409 1263 
L 409 3319 
L 972 3319 
L 972 1478 
Q 972 1038 1006 884 
Q 1059 663 1231 536 
Q 1403 409 1656 409 
Q 1909 409 2131 539 
Q 2353 669 2445 892 
Q 2538 1116 2538 1541 
L 2538 3319 
L 3100 3319 
L 3100 0 
L 2597 0 
z
" transform="scale(0.015625)"/>
       <path id="ArialMT-72" d="M 416 0 
L 416 3319 
L 922 3319 
L 922 2816 
Q 1116 3169 1280 3281 
Q 1444 3394 1641 3394 
Q 1925 3394 2219 3213 
L 2025 2691 
Q 1819 2813 1613 2813 
Q 1428 2813 1281 2702 
Q 1134 2591 1072 2394 
Q 978 2094 978 1738 
L 978 0 
L 416 0 
z
" transform="scale(0.015625)"/>
       <path id="ArialMT-73" d="M 197 991 
L 753 1078 
Q 800 744 1014 566 
Q 1228 388 1613 388 
Q 2000 388 2187 545 
Q 2375 703 2375 916 
Q 2375 1106 2209 1216 
Q 2094 1291 1634 1406 
Q 1016 1563 777 1677 
Q 538 1791 414 1992 
Q 291 2194 291 2438 
Q 291 2659 392 2848 
Q 494 3038 669 3163 
Q 800 3259 1026 3326 
Q 1253 3394 1513 3394 
Q 1903 3394 2198 3281 
Q 2494 3169 2634 2976 
Q 2775 2784 2828 2463 
L 2278 2388 
Q 2241 2644 2061 2787 
Q 1881 2931 1553 2931 
Q 1166 2931 1000 2803 
Q 834 2675 834 2503 
Q 834 2394 903 2306 
Q 972 2216 1119 2156 
Q 1203 2125 1616 2013 
Q 2213 1853 2448 1751 
Q 2684 1650 2818 1456 
Q 2953 1263 2953 975 
Q 2953 694 2789 445 
Q 2625 197 2315 61 
Q 2006 -75 1616 -75 
Q 969 -75 630 194 
Q 291 463 197 991 
z
" transform="scale(0.015625)"/>
       <path id="ArialMT-74" d="M 1650 503 
L 1731 6 
Q 1494 -44 1306 -44 
Q 1000 -44 831 53 
Q 663 150 594 308 
Q 525 466 525 972 
L 525 2881 
L 113 2881 
L 113 3319 
L 525 3319 
L 525 4141 
L 1084 4478 
L 1084 3319 
L 1650 3319 
L 1650 2881 
L 1084 2881 
L 1084 941 
Q 1084 700 1114 631 
Q 1144 563 1211 522 
Q 1278 481 1403 481 
Q 1497 481 1650 503 
z
" transform="scale(0.015625)"/>
       <path id="ArialMT-28" d="M 1497 -1347 
Q 1031 -759 709 28 
Q 388 816 388 1659 
Q 388 2403 628 3084 
Q 909 3875 1497 4659 
L 1900 4659 
Q 1522 4009 1400 3731 
Q 1209 3300 1100 2831 
Q 966 2247 966 1656 
Q 966 153 1900 -1347 
L 1497 -1347 
z
" transform="scale(0.015625)"/>
       <path id="ArialMT-4d" d="M 475 0 
L 475 4581 
L 1388 4581 
L 2472 1338 
Q 2622 884 2691 659 
Q 2769 909 2934 1394 
L 4031 4581 
L 4847 4581 
L 4847 0 
L 4263 0 
L 4263 3834 
L 2931 0 
L 2384 0 
L 1059 3900 
L 1059 0 
L 475 0 
z
" transform="scale(0.015625)"/>
       <path id="ArialMT-65" d="M 2694 1069 
L 3275 997 
Q 3138 488 2766 206 
Q 2394 -75 1816 -75 
Q 1088 -75 661 373 
Q 234 822 234 1631 
Q 234 2469 665 2931 
Q 1097 3394 1784 3394 
Q 2450 3394 2872 2941 
Q 3294 2488 3294 1666 
Q 3294 1616 3291 1516 
L 816 1516 
Q 847 969 1125 678 
Q 1403 388 1819 388 
Q 2128 388 2347 550 
Q 2566 713 2694 1069 
z
M 847 1978 
L 2700 1978 
Q 2663 2397 2488 2606 
Q 2219 2931 1791 2931 
Q 1403 2931 1139 2672 
Q 875 2413 847 1978 
z
" transform="scale(0.015625)"/>
       <path id="ArialMT-61" d="M 2588 409 
Q 2275 144 1986 34 
Q 1697 -75 1366 -75 
Q 819 -75 525 192 
Q 231 459 231 875 
Q 231 1119 342 1320 
Q 453 1522 633 1644 
Q 813 1766 1038 1828 
Q 1203 1872 1538 1913 
Q 2219 1994 2541 2106 
Q 2544 2222 2544 2253 
Q 2544 2597 2384 2738 
Q 2169 2928 1744 2928 
Q 1347 2928 1158 2789 
Q 969 2650 878 2297 
L 328 2372 
Q 403 2725 575 2942 
Q 747 3159 1072 3276 
Q 1397 3394 1825 3394 
Q 2250 3394 2515 3294 
Q 2781 3194 2906 3042 
Q 3031 2891 3081 2659 
Q 3109 2516 3109 2141 
L 3109 1391 
Q 3109 606 3145 398 
Q 3181 191 3288 0 
L 2700 0 
Q 2613 175 2588 409 
z
M 2541 1666 
Q 2234 1541 1622 1453 
Q 1275 1403 1131 1340 
Q 988 1278 909 1158 
Q 831 1038 831 891 
Q 831 666 1001 516 
Q 1172 366 1500 366 
Q 1825 366 2078 508 
Q 2331 650 2450 897 
Q 2541 1088 2541 1459 
L 2541 1666 
z
" transform="scale(0.015625)"/>
       <path id="ArialMT-29" d="M 791 -1347 
L 388 -1347 
Q 1322 153 1322 1656 
Q 1322 2244 1188 2822 
Q 1081 3291 891 3722 
Q 769 4003 388 4659 
L 791 4659 
Q 1378 3875 1659 3084 
Q 1900 2403 1900 1659 
Q 1900 816 1576 28 
Q 1253 -759 791 -1347 
z
" transform="scale(0.015625)"/>
      </defs>
      <use xlink:href="#ArialMT-48"/>
      <use xlink:href="#ArialMT-75" x="72.216797"/>
      <use xlink:href="#ArialMT-72" x="127.832031"/>
      <use xlink:href="#ArialMT-73" x="161.132812"/>
      <use xlink:href="#ArialMT-74" x="211.132812"/>
      <use xlink:href="#ArialMT-20" x="238.916016"/>
      <use xlink:href="#ArialMT-28" x="266.699219"/>
      <use xlink:href="#ArialMT-4d" x="300"/>
      <use xlink:href="#ArialMT-65" x="383.300781"/>
      <use xlink:href="#ArialMT-61" x="438.916016"/>
      <use xlink:href="#ArialMT-6e" x="494.53125"/>
      <use xlink:href="#ArialMT-29" x="550.146484"/>
     </g>
    </g>
   </g>
   <g id="PolyCollection_1"/>
   <g id="PolyCollection_2"/>
   <g id="PolyCollection_3"/>
   <g id="PolyCollection_4"/>
   <g id="PolyCollection_5"/>
   <g id="PolyCollection_6"/>
   <g id="PolyCollection_7"/>
   <g id="PolyCollection_8"/>
   <g id="PolyCollection_9"/>
   <g id="PolyCollection_10"/>
   <g id="PolyCollection_11"/>
   <g id="PolyCollection_12"/>
   <g id="line2d_14">
    <path d="M 82.142727 124.786779 
L 85.671581 128.252735 
L 89.200435 113.551212 
L 92.729289 146.279036 
L 96.258142 137.004446 
L 99.786996 122.085816 
L 103.31585 160.425125 
L 106.844704 126.93285 
L 110.373557 111.973549 
L 113.902411 99.215713 
L 117.431265 94.896875 
L 120.960119 103.918354 
L 124.488972 106.691827 
L 128.017826 109.293575 
L 131.54668 116.58472 
L 135.075534 142.031687 
L 138.604387 153.48227 
L 142.133241 142.711303 
L 145.662095 157.238824 
L 149.190949 111.552627 
L 152.719802 80.300861 
L 156.248656 105.646512 
L 159.77751 120.450906 
L 163.306364 129.459879 
L 166.835217 143.827102 
L 170.364071 128.328246 
L 173.892925 144.944118 
L 177.421779 141.659017 
L 180.950632 136.717137 
L 184.479486 126.870992 
L 188.00834 110.210212 
L 191.537194 134.033851 
L 195.066047 146.817814 
L 198.594901 143.176516 
L 202.123755 112.671695 
L 205.652609 82.082871 
L 209.181462 127.746382 
L 212.710316 130.314765 
L 216.23917 126.214667 
L 219.768024 126.684051 
L 223.296877 98.863219 
L 226.825731 109.122706 
L 230.354585 131.315499 
L 233.883439 137.124968 
L 237.412292 150.381712 
L 240.941146 141.644377 
L 244.47 168.362065 
L 247.998854 151.893928 
L 251.527708 131.923042 
L 255.056561 135.763011 
L 258.585415 127.055628 
L 262.114269 147.830003 
L 265.643123 154.235873 
L 269.171976 151.542434 
L 272.70083 133.540044 
L 276.229684 108.75461 
L 279.758538 140.406745 
L 283.287391 150.620978 
L 286.816245 136.403353 
L 290.345099 133.989054 
L 293.873953 107.258374 
L 297.402806 131.495085 
L 300.93166 149.182803 
L 304.460514 144.549472 
L 307.989368 157.184332 
L 311.518221 159.81897 
L 315.047075 183.832403 
L 318.575929 182.373526 
L 322.104783 178.817529 
L 325.633636 179.580522 
L 329.16249 158.56095 
L 332.691344 174.612631 
L 336.220198 182.58041 
L 339.749051 190.268714 
L 343.277905 206.996699 
L 346.806759 184.515442 
L 350.335613 182.899163 
L 353.864466 178.020596 
L 357.39332 181.891445 
L 360.922174 178.614265 
L 364.451028 173.408792 
L 367.979881 195.903253 
L 371.508735 194.631231 
L 375.037589 187.149942 
L 378.566443 176.817295 
L 382.095296 170.289974 
L 385.62415 185.898914 
L 389.153004 194.569767 
L 392.681858 187.966642 
L 396.210711 190.305222 
L 399.739565 186.898118 
L 403.268419 186.247343 
L 406.797273 213.682665 
" clip-path="url(#p266267190a)" style="fill: none; stroke: #f77189; stroke-width: 1.5; stroke-linecap: round"/>
   </g>
   <g id="line2d_15">
    <path d="M 82.142727 268.083556 
L 85.671581 253.449432 
L 89.200435 255.907125 
L 92.729289 255.013753 
L 96.258142 243.636377 
L 99.786996 239.35794 
L 103.31585 240.643144 
L 106.844704 254.764459 
L 110.373557 251.363518 
L 113.902411 243.85308 
L 117.431265 229.170619 
L 120.960119 191.917884 
L 124.488972 196.301032 
L 128.017826 192.993077 
L 131.54668 199.547034 
L 135.075534 209.094759 
L 138.604387 199.502376 
L 142.133241 200.371321 
L 145.662095 190.335872 
L 149.190949 165.750461 
L 152.719802 164.92455 
L 156.248656 149.016515 
L 159.77751 149.839547 
L 163.306364 129.089558 
L 166.835217 119.97981 
L 170.364071 120.591353 
L 173.892925 107.562929 
L 177.421779 110.827271 
L 180.950632 112.781006 
L 184.479486 91.802306 
L 188.00834 75.352301 
L 191.537194 64.523058 
L 195.066047 71.304128 
L 198.594901 70.345794 
L 202.123755 75.359024 
L 205.652609 75.265862 
L 209.181462 67.839296 
L 212.710316 82.422263 
L 216.23917 94.584071 
L 219.768024 98.095107 
L 223.296877 88.982124 
L 226.825731 89.870358 
L 230.354585 103.941049 
L 233.883439 107.266574 
L 237.412292 109.007913 
L 240.941146 106.244379 
L 244.47 99.668872 
L 247.998854 109.521102 
L 251.527708 118.826221 
L 255.056561 124.803451 
L 258.585415 115.881381 
L 262.114269 93.362032 
L 265.643123 98.70035 
L 269.171976 108.610375 
L 272.70083 103.551328 
L 276.229684 99.632115 
L 279.758538 94.445824 
L 283.287391 95.463361 
L 286.816245 97.842839 
L 290.345099 95.193903 
L 293.873953 89.658792 
L 297.402806 72.419585 
L 300.93166 84.764811 
L 304.460514 94.87117 
L 307.989368 93.234076 
L 311.518221 103.053982 
L 315.047075 115.794504 
L 318.575929 135.711056 
L 322.104783 141.611909 
L 325.633636 135.838911 
L 329.16249 145.927416 
L 332.691344 151.710671 
L 336.220198 163.357463 
L 339.749051 167.155288 
L 343.277905 154.545477 
L 346.806759 152.967518 
L 350.335613 142.316825 
L 353.864466 159.967118 
L 357.39332 166.487031 
L 360.922174 164.248793 
L 364.451028 162.132743 
L 367.979881 154.582595 
L 371.508735 169.661942 
L 375.037589 176.471521 
L 378.566443 176.928739 
L 382.095296 182.070625 
L 385.62415 176.976487 
L 389.153004 183.512214 
L 392.681858 179.901767 
L 396.210711 187.672668 
L 399.739565 201.75887 
L 403.268419 206.609618 
L 406.797273 217.362352 
" clip-path="url(#p266267190a)" style="fill: none; stroke: #e68332; stroke-width: 1.5; stroke-linecap: round"/>
   </g>
   <g id="line2d_16">
    <path d="M 82.142727 118.676858 
L 85.671581 109.819306 
L 89.200435 102.4811 
L 92.729289 109.562003 
L 96.258142 121.209308 
L 99.786996 114.480815 
L 103.31585 124.207755 
L 106.844704 130.197854 
L 110.373557 128.770016 
L 113.902411 148.273249 
L 117.431265 140.255087 
L 120.960119 127.589023 
L 124.488972 122.088311 
L 128.017826 122.284277 
L 131.54668 122.707919 
L 135.075534 128.562207 
L 138.604387 130.25522 
L 142.133241 132.848417 
L 145.662095 155.040952 
L 149.190949 166.644223 
L 152.719802 144.720489 
L 156.248656 149.978098 
L 159.77751 153.203472 
L 163.306364 160.346938 
L 166.835217 201.735791 
L 170.364071 225.789133 
L 173.892925 244.989656 
L 177.421779 253.288485 
" clip-path="url(#p266267190a)" style="fill: none; stroke: #bb9832; stroke-width: 1.5; stroke-linecap: round"/>
   </g>
   <g id="line2d_17">
    <path d="M 82.142727 243.636054 
L 85.671581 240.101704 
L 89.200435 213.557104 
L 92.729289 212.686808 
L 96.258142 210.535141 
L 99.786996 218.508199 
L 103.31585 226.222875 
L 106.844704 207.196224 
L 110.373557 210.005257 
L 113.902411 198.182368 
L 117.431265 200.490304 
L 120.960119 204.8153 
L 124.488972 196.734103 
L 128.017826 190.962544 
L 131.54668 182.398748 
L 135.075534 172.798136 
L 138.604387 178.919245 
L 142.133241 174.277631 
L 145.662095 190.122552 
L 149.190949 184.065193 
L 152.719802 191.33888 
L 156.248656 190.283956 
L 159.77751 168.082781 
L 163.306364 166.21406 
L 166.835217 156.360654 
L 170.364071 158.780811 
L 173.892925 167.692225 
L 177.421779 161.422249 
L 180.950632 160.630707 
L 184.479486 151.18885 
L 188.00834 164.690241 
L 191.537194 159.443345 
L 195.066047 145.301536 
L 198.594901 156.340701 
L 202.123755 148.024287 
L 205.652609 160.4888 
L 209.181462 179.881407 
L 212.710316 159.832765 
L 216.23917 178.846506 
L 219.768024 182.138668 
L 223.296877 188.629125 
L 226.825731 197.376259 
L 230.354585 190.17434 
L 233.883439 175.391154 
L 237.412292 154.340433 
L 240.941146 158.188395 
L 244.47 150.435106 
L 247.998854 141.963258 
L 251.527708 154.610644 
L 255.056561 143.045861 
L 258.585415 132.767233 
L 262.114269 123.111906 
L 265.643123 102.143222 
L 269.171976 82.77406 
L 272.70083 82.203341 
L 276.229684 80.214488 
L 279.758538 87.127759 
L 283.287391 86.970851 
L 286.816245 93.234229 
L 290.345099 75.184999 
L 293.873953 72.762917 
L 297.402806 75.065936 
L 300.93166 84.835616 
L 304.460514 106.51415 
L 307.989368 110.595393 
L 311.518221 111.865396 
L 315.047075 130.494644 
L 318.575929 117.561018 
L 322.104783 117.474981 
L 325.633636 128.865993 
L 329.16249 140.292841 
L 332.691344 134.625535 
L 336.220198 127.150706 
L 339.749051 121.514722 
L 343.277905 117.049398 
L 346.806759 108.743273 
L 350.335613 109.161777 
L 353.864466 108.672108 
L 357.39332 123.658123 
L 360.922174 117.378046 
L 364.451028 112.379888 
L 367.979881 106.522174 
L 371.508735 113.999911 
L 375.037589 99.186355 
L 378.566443 95.78733 
L 382.095296 94.255702 
L 385.62415 97.995434 
L 389.153004 96.983992 
L 392.681858 95.818879 
L 396.210711 92.574211 
L 399.739565 107.410018 
L 403.268419 119.933069 
L 406.797273 124.447541 
" clip-path="url(#p266267190a)" style="fill: none; stroke: #97a431; stroke-width: 1.5; stroke-linecap: round"/>
   </g>
   <g id="line2d_18">
    <path d="M 82.142727 168.403164 
L 85.671581 165.521241 
L 89.200435 164.726743 
L 92.729289 135.545385 
L 96.258142 141.045587 
L 99.786996 126.17698 
L 103.31585 112.427469 
L 106.844704 131.476392 
L 110.373557 91.028166 
L 113.902411 97.51703 
L 117.431265 102.011023 
L 120.960119 101.249791 
L 124.488972 122.52772 
L 128.017826 143.524203 
L 131.54668 159.467729 
L 135.075534 144.521404 
L 138.604387 143.515844 
L 142.133241 197.209184 
L 145.662095 171.466572 
L 149.190949 192.617887 
L 152.719802 197.137837 
L 156.248656 174.339561 
L 159.77751 164.88489 
L 163.306364 157.377592 
" clip-path="url(#p266267190a)" style="fill: none; stroke: #50b131; stroke-width: 1.5; stroke-linecap: round"/>
   </g>
   <g id="line2d_19">
    <path d="M 82.142727 89.096635 
L 85.671581 100.922186 
L 89.200435 91.692967 
L 92.729289 92.021934 
L 96.258142 103.944183 
L 99.786996 110.695829 
L 103.31585 118.814996 
L 106.844704 111.958094 
L 110.373557 132.363382 
L 113.902411 119.952443 
L 117.431265 124.462565 
L 120.960119 159.448676 
L 124.488972 162.657142 
L 128.017826 159.862848 
L 131.54668 151.969107 
L 135.075534 136.762238 
L 138.604387 137.246678 
L 142.133241 131.913466 
L 145.662095 155.582089 
L 149.190949 165.382276 
L 152.719802 159.56317 
L 156.248656 168.992668 
L 159.77751 172.116786 
L 163.306364 175.893171 
L 166.835217 189.505153 
L 170.364071 190.194225 
L 173.892925 208.377412 
L 177.421779 190.463534 
L 180.950632 171.597942 
L 184.479486 160.103213 
L 188.00834 167.771742 
L 191.537194 186.774725 
L 195.066047 203.541268 
L 198.594901 222.922613 
L 202.123755 216.859938 
L 205.652609 199.555225 
L 209.181462 221.857996 
L 212.710316 233.051185 
L 216.23917 242.097759 
L 219.768024 231.097809 
L 223.296877 224.159185 
L 226.825731 232.356088 
L 230.354585 228.272709 
L 233.883439 231.04228 
L 237.412292 239.635374 
L 240.941146 218.79908 
L 244.47 214.404505 
L 247.998854 211.138948 
L 251.527708 211.286275 
L 255.056561 186.73287 
L 258.585415 173.916922 
L 262.114269 174.446559 
L 265.643123 155.316097 
L 269.171976 165.233013 
L 272.70083 170.089937 
L 276.229684 146.762871 
L 279.758538 133.415129 
L 283.287391 126.043034 
L 286.816245 115.144952 
L 290.345099 108.789533 
L 293.873953 101.560484 
L 297.402806 105.842513 
L 300.93166 114.930322 
L 304.460514 111.988409 
L 307.989368 103.01517 
L 311.518221 97.422382 
L 315.047075 101.781696 
L 318.575929 119.112286 
L 322.104783 129.547864 
L 325.633636 118.864775 
L 329.16249 92.58859 
L 332.691344 96.415745 
L 336.220198 112.056475 
L 339.749051 109.428073 
L 343.277905 97.086919 
L 346.806759 84.258823 
L 350.335613 97.351562 
L 353.864466 112.958323 
L 357.39332 119.694664 
L 360.922174 119.222881 
L 364.451028 109.2556 
L 367.979881 102.786521 
L 371.508735 104.117798 
L 375.037589 106.366274 
L 378.566443 95.869107 
L 382.095296 98.340632 
L 385.62415 112.282331 
L 389.153004 111.783569 
L 392.681858 102.592288 
L 396.210711 107.221284 
L 399.739565 87.263911 
L 403.268419 81.806856 
L 406.797273 83.7759 
" clip-path="url(#p266267190a)" style="fill: none; stroke: #34af84; stroke-width: 1.5; stroke-linecap: round"/>
   </g>
   <g id="line2d_20">
    <path d="M 82.142727 227.115342 
L 85.671581 210.564876 
L 89.200435 211.294901 
L 92.729289 202.521379 
L 96.258142 202.123708 
L 99.786996 212.707016 
L 103.31585 198.916131 
L 106.844704 193.905613 
L 110.373557 195.075064 
L 113.902411 208.604949 
L 117.431265 206.591713 
L 120.960119 193.961932 
L 124.488972 201.680961 
L 128.017826 189.625992 
L 131.54668 197.849542 
L 135.075534 199.985105 
L 138.604387 202.307715 
L 142.133241 199.347607 
L 145.662095 200.654812 
L 149.190949 209.0139 
L 152.719802 209.497658 
L 156.248656 210.413279 
L 159.77751 209.42762 
L 163.306364 202.342188 
L 166.835217 174.299719 
L 170.364071 156.411212 
L 173.892925 174.348221 
L 177.421779 182.426506 
L 180.950632 188.383293 
L 184.479486 191.041308 
L 188.00834 192.594292 
L 191.537194 167.154354 
L 195.066047 160.04918 
L 198.594901 153.833822 
L 202.123755 160.639233 
L 205.652609 165.67406 
L 209.181462 159.565618 
L 212.710316 164.872234 
L 216.23917 178.228855 
L 219.768024 178.683808 
L 223.296877 176.842847 
L 226.825731 176.290416 
L 230.354585 170.551648 
L 233.883439 146.242676 
L 237.412292 152.024517 
L 240.941146 139.865709 
L 244.47 130.837775 
L 247.998854 129.054044 
L 251.527708 135.690803 
L 255.056561 129.577426 
L 258.585415 125.047887 
L 262.114269 120.957492 
L 265.643123 115.009885 
L 269.171976 103.992955 
L 272.70083 109.069701 
L 276.229684 105.23944 
L 279.758538 108.301461 
L 283.287391 102.134382 
L 286.816245 117.273372 
L 290.345099 124.771516 
L 293.873953 131.559159 
L 297.402806 131.716414 
L 300.93166 142.183854 
L 304.460514 139.645746 
L 307.989368 137.332718 
L 311.518221 131.25411 
L 315.047075 128.883586 
L 318.575929 125.991129 
L 322.104783 121.997652 
L 325.633636 118.264059 
L 329.16249 116.878545 
L 332.691344 107.497246 
L 336.220198 107.788289 
L 339.749051 101.956884 
L 343.277905 85.727705 
L 346.806759 81.556197 
L 350.335613 78.912497 
L 353.864466 76.495454 
L 357.39332 76.699956 
L 360.922174 81.70339 
L 364.451028 89.922648 
L 367.979881 72.955362 
L 371.508735 61.811844 
L 375.037589 54.611241 
L 378.566443 52.356443 
L 382.095296 60.828203 
L 385.62415 60.343018 
L 389.153004 75.809564 
L 392.681858 83.763518 
L 396.210711 91.033584 
L 399.739565 116.763775 
L 403.268419 139.006185 
L 406.797273 138.90201 
" clip-path="url(#p266267190a)" style="fill: none; stroke: #36ada4; stroke-width: 1.5; stroke-linecap: round"/>
   </g>
   <g id="line2d_21">
    <path d="M 82.142727 78.132087 
L 85.671581 69.423577 
L 89.200435 86.313914 
L 92.729289 78.505358 
L 96.258142 63.953982 
L 99.786996 60.064607 
L 103.31585 33.921 
L 106.844704 45.196408 
L 110.373557 63.053667 
L 113.902411 71.798379 
L 117.431265 85.037503 
L 120.960119 74.902995 
L 124.488972 75.485937 
L 128.017826 70.582906 
L 131.54668 73.787549 
L 135.075534 91.585293 
L 138.604387 93.856352 
L 142.133241 103.768811 
L 145.662095 100.640221 
L 149.190949 100.160292 
L 152.719802 102.83613 
L 156.248656 98.042065 
L 159.77751 111.446051 
L 163.306364 117.930974 
L 166.835217 118.033243 
L 170.364071 107.790663 
L 173.892925 104.610755 
L 177.421779 100.430475 
L 180.950632 93.545519 
L 184.479486 105.656979 
L 188.00834 103.410161 
L 191.537194 98.055715 
L 195.066047 97.04386 
L 198.594901 98.204976 
L 202.123755 100.306976 
L 205.652609 105.10714 
L 209.181462 126.260018 
L 212.710316 134.536046 
L 216.23917 126.810406 
L 219.768024 128.294767 
L 223.296877 130.998984 
L 226.825731 139.942878 
L 230.354585 149.827752 
L 233.883439 158.974505 
L 237.412292 171.797215 
L 240.941146 163.460199 
L 244.47 149.334969 
L 247.998854 145.564314 
L 251.527708 146.414612 
L 255.056561 165.619545 
L 258.585415 181.153224 
L 262.114269 192.081884 
L 265.643123 193.260323 
L 269.171976 176.571472 
L 272.70083 178.457836 
L 276.229684 168.197086 
L 279.758538 165.002419 
L 283.287391 157.17129 
L 286.816245 139.827051 
L 290.345099 161.201593 
L 293.873953 169.066199 
L 297.402806 175.677487 
L 300.93166 168.170698 
L 304.460514 165.991583 
L 307.989368 196.624088 
L 311.518221 214.117624 
L 315.047075 223.236581 
L 318.575929 217.896976 
L 322.104783 218.308072 
L 325.633636 232.99012 
L 329.16249 225.564653 
L 332.691344 217.908267 
L 336.220198 243.015426 
L 339.749051 231.306999 
L 343.277905 225.979098 
L 346.806759 208.170729 
L 350.335613 198.952614 
L 353.864466 201.480857 
L 357.39332 195.69744 
L 360.922174 200.456862 
L 364.451028 201.718479 
L 367.979881 194.363584 
L 371.508735 197.28901 
L 375.037589 199.933977 
L 378.566443 217.693269 
L 382.095296 198.324193 
L 385.62415 184.917251 
L 389.153004 191.069347 
L 392.681858 188.07275 
L 396.210711 184.065499 
L 399.739565 203.026434 
L 403.268419 173.406947 
L 406.797273 186.786634 
" clip-path="url(#p266267190a)" style="fill: none; stroke: #38aabf; stroke-width: 1.5; stroke-linecap: round"/>
   </g>
   <g id="line2d_22">
    <path d="M 82.142727 239.711046 
L 85.671581 232.110163 
L 89.200435 216.739432 
L 92.729289 196.524465 
L 96.258142 205.741686 
L 99.786996 238.435107 
L 103.31585 235.147428 
L 106.844704 223.624254 
L 110.373557 205.62256 
L 113.902411 199.654563 
L 117.431265 209.09427 
L 120.960119 211.906032 
L 124.488972 192.801598 
L 128.017826 176.170534 
L 131.54668 179.376877 
L 135.075534 182.431467 
L 138.604387 180.523838 
L 142.133241 177.298392 
L 145.662095 172.991016 
L 149.190949 177.640877 
L 152.719802 184.612975 
L 156.248656 181.51372 
L 159.77751 182.583454 
L 163.306364 201.974116 
L 166.835217 213.391298 
L 170.364071 214.389504 
L 173.892925 200.160895 
L 177.421779 181.716142 
L 180.950632 187.771962 
L 184.479486 209.157679 
L 188.00834 213.952644 
L 191.537194 213.378131 
L 195.066047 219.661365 
L 198.594901 225.764371 
L 202.123755 219.361062 
L 205.652609 205.277266 
L 209.181462 193.154858 
L 212.710316 193.522936 
L 216.23917 206.641277 
L 219.768024 212.49134 
L 223.296877 211.813307 
L 226.825731 202.915558 
L 230.354585 178.78236 
L 233.883439 157.536065 
L 237.412292 148.500034 
L 240.941146 131.00679 
L 244.47 111.540462 
L 247.998854 111.122013 
L 251.527708 122.292405 
L 255.056561 103.230716 
L 258.585415 100.299777 
L 262.114269 90.991243 
L 265.643123 79.161509 
L 269.171976 73.191952 
L 272.70083 80.473291 
L 276.229684 94.093861 
L 279.758538 95.381283 
L 283.287391 93.356781 
L 286.816245 117.745474 
L 290.345099 109.093779 
L 293.873953 104.014741 
L 297.402806 91.696567 
L 300.93166 95.246017 
L 304.460514 101.181329 
L 307.989368 86.531529 
L 311.518221 68.678802 
L 315.047075 73.990566 
L 318.575929 73.335173 
L 322.104783 91.318839 
L 325.633636 98.131109 
L 329.16249 101.992598 
L 332.691344 90.062175 
L 336.220198 96.63099 
L 339.749051 109.215001 
L 343.277905 91.631993 
L 346.806759 80.573851 
L 350.335613 70.935459 
L 353.864466 45.671512 
L 357.39332 58.277514 
L 360.922174 59.4361 
L 364.451028 69.769327 
L 367.979881 72.34368 
L 371.508735 76.002781 
L 375.037589 77.607038 
L 378.566443 66.508476 
L 382.095296 70.727044 
L 385.62415 75.393941 
L 389.153004 103.477639 
L 392.681858 148.990691 
L 396.210711 143.696693 
L 399.739565 162.34596 
L 403.268419 159.23111 
L 406.797273 143.465148 
" clip-path="url(#p266267190a)" style="fill: none; stroke: #3ba3ec; stroke-width: 1.5; stroke-linecap: round"/>
   </g>
   <g id="line2d_23">
    <path d="M 82.142727 169.37722 
L 85.671581 171.420821 
L 89.200435 138.32462 
L 92.729289 141.193625 
L 96.258142 150.808031 
L 99.786996 152.57503 
L 103.31585 145.701639 
L 106.844704 150.787252 
L 110.373557 147.508805 
L 113.902411 142.305815 
L 117.431265 150.378582 
L 120.960119 169.018189 
L 124.488972 154.869386 
L 128.017826 162.072498 
L 131.54668 167.299438 
L 135.075534 166.0341 
L 138.604387 172.989548 
L 142.133241 156.091681 
L 145.662095 140.8186 
L 149.190949 145.194829 
L 152.719802 110.492154 
L 156.248656 118.788117 
L 159.77751 123.197825 
L 163.306364 107.841066 
L 166.835217 107.147724 
L 170.364071 135.626085 
" clip-path="url(#p266267190a)" style="fill: none; stroke: #a48cf4; stroke-width: 1.5; stroke-linecap: round"/>
   </g>
   <g id="line2d_24">
    <path d="M 82.142727 256.593825 
L 85.671581 263.421358 
L 89.200435 275.841 
L 92.729289 256.945719 
L 96.258142 224.703269 
L 99.786996 212.048712 
L 103.31585 198.900371 
L 106.844704 180.082227 
L 110.373557 157.245413 
L 113.902411 153.0604 
L 117.431265 148.284295 
L 120.960119 149.22098 
L 124.488972 150.838692 
L 128.017826 139.49893 
L 131.54668 140.680337 
L 135.075534 136.474435 
L 138.604387 137.551438 
L 142.133241 146.816568 
L 145.662095 132.681192 
L 149.190949 134.349485 
L 152.719802 137.993129 
L 156.248656 131.977562 
L 159.77751 123.799571 
L 163.306364 104.455953 
L 166.835217 116.686023 
L 170.364071 121.511543 
L 173.892925 107.975695 
L 177.421779 108.493906 
L 180.950632 87.613295 
L 184.479486 86.978925 
L 188.00834 96.723558 
L 191.537194 106.34013 
L 195.066047 98.432113 
L 198.594901 87.793159 
L 202.123755 94.534613 
L 205.652609 87.989101 
L 209.181462 84.922724 
L 212.710316 94.38093 
L 216.23917 89.795033 
L 219.768024 89.175873 
L 223.296877 93.829197 
L 226.825731 91.42129 
L 230.354585 84.704696 
L 233.883439 75.184239 
L 237.412292 80.293461 
L 240.941146 86.478847 
L 244.47 94.014779 
L 247.998854 97.688647 
L 251.527708 109.521378 
L 255.056561 136.282224 
L 258.585415 131.685179 
L 262.114269 130.764099 
L 265.643123 150.696923 
L 269.171976 153.011063 
L 272.70083 169.181931 
L 276.229684 193.106085 
L 279.758538 194.538027 
L 283.287391 190.681473 
L 286.816245 190.411327 
L 290.345099 188.159265 
L 293.873953 177.127933 
L 297.402806 177.227757 
L 300.93166 184.538162 
L 304.460514 179.356186 
L 307.989368 186.687746 
L 311.518221 194.927712 
L 315.047075 193.480148 
L 318.575929 196.477711 
L 322.104783 186.284208 
L 325.633636 194.252857 
L 329.16249 211.970004 
L 332.691344 188.19154 
L 336.220198 159.004682 
L 339.749051 147.28139 
L 343.277905 136.192061 
L 346.806759 116.90057 
L 350.335613 126.297082 
L 353.864466 121.430643 
L 357.39332 106.274848 
L 360.922174 120.620742 
L 364.451028 131.560657 
L 367.979881 126.640209 
L 371.508735 147.672578 
L 375.037589 157.336606 
L 378.566443 166.272454 
L 382.095296 174.35959 
L 385.62415 173.829746 
L 389.153004 157.08155 
L 392.681858 163.082797 
L 396.210711 157.880451 
L 399.739565 152.012514 
L 403.268419 141.821232 
L 406.797273 136.122673 
" clip-path="url(#p266267190a)" style="fill: none; stroke: #e866f4; stroke-width: 1.5; stroke-linecap: round"/>
   </g>
   <g id="line2d_25">
    <path d="M 82.142727 207.575388 
L 85.671581 220.634543 
L 89.200435 220.497467 
L 92.729289 207.961137 
L 96.258142 190.081015 
L 99.786996 204.815683 
L 103.31585 215.026411 
L 106.844704 213.80321 
L 110.373557 196.837986 
L 113.902411 183.127436 
L 117.431265 200.670461 
L 120.960119 216.476802 
L 124.488972 221.21305 
L 128.017826 215.121487 
L 131.54668 189.778947 
L 135.075534 195.611052 
L 138.604387 196.907242 
L 142.133241 200.290097 
L 145.662095 200.298434 
L 149.190949 184.803041 
L 152.719802 191.581983 
L 156.248656 182.912779 
L 159.77751 177.807912 
L 163.306364 172.422638 
L 166.835217 163.331754 
L 170.364071 175.055764 
L 173.892925 173.305914 
L 177.421779 179.645109 
L 180.950632 188.555558 
L 184.479486 184.858246 
L 188.00834 193.605894 
L 191.537194 178.894254 
L 195.066047 164.493634 
L 198.594901 163.376134 
L 202.123755 148.691171 
L 205.652609 153.179963 
L 209.181462 152.090931 
L 212.710316 149.40927 
L 216.23917 156.778255 
L 219.768024 147.630566 
L 223.296877 153.025717 
L 226.825731 133.104861 
L 230.354585 122.026229 
L 233.883439 108.993855 
L 237.412292 85.646075 
L 240.941146 91.05592 
L 244.47 87.431632 
L 247.998854 95.04835 
L 251.527708 104.557006 
L 255.056561 101.466524 
L 258.585415 113.442198 
L 262.114269 94.021074 
L 265.643123 99.075571 
L 269.171976 103.567185 
L 272.70083 107.449726 
L 276.229684 114.259373 
L 279.758538 96.379322 
L 283.287391 99.894466 
L 286.816245 106.347748 
L 290.345099 97.460305 
L 293.873953 98.528638 
L 297.402806 76.200827 
L 300.93166 84.785615 
L 304.460514 82.297631 
L 307.989368 81.294537 
L 311.518221 85.02638 
L 315.047075 67.762751 
L 318.575929 73.619266 
L 322.104783 96.70091 
L 325.633636 112.222979 
L 329.16249 126.151952 
L 332.691344 111.36991 
L 336.220198 113.707413 
L 339.749051 119.021352 
L 343.277905 126.459834 
L 346.806759 134.112592 
L 350.335613 113.162393 
L 353.864466 116.154871 
L 357.39332 121.200602 
L 360.922174 132.883642 
L 364.451028 151.57715 
L 367.979881 134.868607 
L 371.508735 139.876403 
L 375.037589 136.009631 
L 378.566443 129.622024 
L 382.095296 129.127915 
L 385.62415 119.038009 
L 389.153004 136.800934 
L 392.681858 154.572086 
L 396.210711 178.104351 
L 399.739565 181.664212 
L 403.268419 160.751259 
L 406.797273 166.574225 
" clip-path="url(#p266267190a)" style="fill: none; stroke: #f668c2; stroke-width: 1.5; stroke-linecap: round"/>
   </g>
   <g id="line2d_26"/>
   <g id="line2d_27"/>
   <g id="line2d_28"/>
   <g id="line2d_29"/>
   <g id="line2d_30"/>
   <g id="line2d_31"/>
   <g id="line2d_32"/>
   <g id="line2d_33"/>
   <g id="line2d_34"/>
   <g id="line2d_35"/>
   <g id="line2d_36"/>
   <g id="line2d_37"/>
   <g id="patch_3">
    <path d="M 65.91 287.937 
L 65.91 21.825 
" style="fill: none; stroke: #cccccc; stroke-width: 1.25; stroke-linejoin: miter; stroke-linecap: square"/>
   </g>
   <g id="patch_4">
    <path d="M 423.03 287.937 
L 423.03 21.825 
" style="fill: none; stroke: #cccccc; stroke-width: 1.25; stroke-linejoin: miter; stroke-linecap: square"/>
   </g>
   <g id="patch_5">
    <path d="M 65.91 287.937 
L 423.03 287.937 
" style="fill: none; stroke: #cccccc; stroke-width: 1.25; stroke-linejoin: miter; stroke-linecap: square"/>
   </g>
   <g id="patch_6">
    <path d="M 65.91 21.825 
L 423.03 21.825 
" style="fill: none; stroke: #cccccc; stroke-width: 1.25; stroke-linejoin: miter; stroke-linecap: square"/>
   </g>
   <g id="text_16">
    <!-- movie_100 -->
    <g style="fill: #262626" transform="translate(215.119687 15.825) scale(0.12 -0.12)">
     <defs>
      <path id="ArialMT-6d" d="M 422 0 
L 422 3319 
L 925 3319 
L 925 2853 
Q 1081 3097 1340 3245 
Q 1600 3394 1931 3394 
Q 2300 3394 2536 3241 
Q 2772 3088 2869 2813 
Q 3263 3394 3894 3394 
Q 4388 3394 4653 3120 
Q 4919 2847 4919 2278 
L 4919 0 
L 4359 0 
L 4359 2091 
Q 4359 2428 4304 2576 
Q 4250 2725 4106 2815 
Q 3963 2906 3769 2906 
Q 3419 2906 3187 2673 
Q 2956 2441 2956 1928 
L 2956 0 
L 2394 0 
L 2394 2156 
Q 2394 2531 2256 2718 
Q 2119 2906 1806 2906 
Q 1569 2906 1367 2781 
Q 1166 2656 1075 2415 
Q 984 2175 984 1722 
L 984 0 
L 422 0 
z
" transform="scale(0.015625)"/>
      <path id="ArialMT-76" d="M 1344 0 
L 81 3319 
L 675 3319 
L 1388 1331 
Q 1503 1009 1600 663 
Q 1675 925 1809 1294 
L 2547 3319 
L 3125 3319 
L 1869 0 
L 1344 0 
z
" transform="scale(0.015625)"/>
      <path id="ArialMT-5f" d="M -97 -1272 
L -97 -866 
L 3631 -866 
L 3631 -1272 
L -97 -1272 
z
" transform="scale(0.015625)"/>
     </defs>
     <use xlink:href="#ArialMT-6d"/>
     <use xlink:href="#ArialMT-6f" x="83.300781"/>
     <use xlink:href="#ArialMT-76" x="138.916016"/>
     <use xlink:href="#ArialMT-69" x="188.916016"/>
     <use xlink:href="#ArialMT-65" x="211.132812"/>
     <use xlink:href="#ArialMT-5f" x="266.748047"/>
     <use xlink:href="#ArialMT-31" x="322.363281"/>
     <use xlink:href="#ArialMT-30" x="377.978516"/>
     <use xlink:href="#ArialMT-30" x="433.59375"/>
    </g>
   </g>
   <g id="legend_1">
    <g id="patch_7">
     <path d="M 424.4196 142.291378 
L 556.737746 142.291378 
Q 558.127346 142.291378 558.127346 140.901778 
L 558.127346 23.2146 
Q 558.127346 21.825 556.737746 21.825 
L 424.4196 21.825 
Q 423.03 21.825 423.03 23.2146 
L 423.03 140.901778 
Q 423.03 142.291378 424.4196 142.291378 
z
" style="fill: #ffffff; opacity: 0.8; stroke: #cccccc; stroke-linejoin: miter"/>
    </g>
    <g id="line2d_38">
     <path d="M 425.8092 27.166275 
L 432.7572 27.166275 
L 439.7052 27.166275 
" style="fill: none; stroke: #f77189; stroke-width: 1.5; stroke-linecap: round"/>
    </g>
    <g id="text_17">
     <!-- 04HD_01_movie_04_LPI_000.netts -->
     <g style="fill: #262626" transform="translate(445.2636 29.598075) scale(0.06948 -0.06948)">
      <defs>
       <path id="ArialMT-44" d="M 494 0 
L 494 4581 
L 2072 4581 
Q 2606 4581 2888 4516 
Q 3281 4425 3559 4188 
Q 3922 3881 4101 3404 
Q 4281 2928 4281 2316 
Q 4281 1794 4159 1391 
Q 4038 988 3847 723 
Q 3656 459 3429 307 
Q 3203 156 2883 78 
Q 2563 0 2147 0 
L 494 0 
z
M 1100 541 
L 2078 541 
Q 2531 541 2789 625 
Q 3047 709 3200 863 
Q 3416 1078 3536 1442 
Q 3656 1806 3656 2325 
Q 3656 3044 3420 3430 
Q 3184 3816 2847 3947 
Q 2603 4041 2063 4041 
L 1100 4041 
L 1100 541 
z
" transform="scale(0.015625)"/>
       <path id="ArialMT-4c" d="M 469 0 
L 469 4581 
L 1075 4581 
L 1075 541 
L 3331 541 
L 3331 0 
L 469 0 
z
" transform="scale(0.015625)"/>
       <path id="ArialMT-50" d="M 494 0 
L 494 4581 
L 2222 4581 
Q 2678 4581 2919 4538 
Q 3256 4481 3484 4323 
Q 3713 4166 3852 3881 
Q 3991 3597 3991 3256 
Q 3991 2672 3619 2267 
Q 3247 1863 2275 1863 
L 1100 1863 
L 1100 0 
L 494 0 
z
M 1100 2403 
L 2284 2403 
Q 2872 2403 3119 2622 
Q 3366 2841 3366 3238 
Q 3366 3525 3220 3729 
Q 3075 3934 2838 4000 
Q 2684 4041 2272 4041 
L 1100 4041 
L 1100 2403 
z
" transform="scale(0.015625)"/>
       <path id="ArialMT-49" d="M 597 0 
L 597 4581 
L 1203 4581 
L 1203 0 
L 597 0 
z
" transform="scale(0.015625)"/>
      </defs>
      <use xlink:href="#ArialMT-30"/>
      <use xlink:href="#ArialMT-34" x="55.615234"/>
      <use xlink:href="#ArialMT-48" x="111.230469"/>
      <use xlink:href="#ArialMT-44" x="183.447266"/>
      <use xlink:href="#ArialMT-5f" x="255.664062"/>
      <use xlink:href="#ArialMT-30" x="311.279297"/>
      <use xlink:href="#ArialMT-31" x="366.894531"/>
      <use xlink:href="#ArialMT-5f" x="422.509766"/>
      <use xlink:href="#ArialMT-6d" x="478.125"/>
      <use xlink:href="#ArialMT-6f" x="561.425781"/>
      <use xlink:href="#ArialMT-76" x="617.041016"/>
      <use xlink:href="#ArialMT-69" x="667.041016"/>
      <use xlink:href="#ArialMT-65" x="689.257812"/>
      <use xlink:href="#ArialMT-5f" x="744.873047"/>
      <use xlink:href="#ArialMT-30" x="800.488281"/>
      <use xlink:href="#ArialMT-34" x="856.103516"/>
      <use xlink:href="#ArialMT-5f" x="911.71875"/>
      <use xlink:href="#ArialMT-4c" x="967.333984"/>
      <use xlink:href="#ArialMT-50" x="1022.949219"/>
      <use xlink:href="#ArialMT-49" x="1089.648438"/>
      <use xlink:href="#ArialMT-5f" x="1117.431641"/>
      <use xlink:href="#ArialMT-30" x="1173.046875"/>
      <use xlink:href="#ArialMT-30" x="1228.662109"/>
      <use xlink:href="#ArialMT-30" x="1284.277344"/>
      <use xlink:href="#ArialMT-2e" x="1339.892578"/>
      <use xlink:href="#ArialMT-6e" x="1367.675781"/>
      <use xlink:href="#ArialMT-65" x="1423.291016"/>
      <use xlink:href="#ArialMT-74" x="1478.90625"/>
      <use xlink:href="#ArialMT-74" x="1506.689453"/>
      <use xlink:href="#ArialMT-73" x="1534.472656"/>
     </g>
    </g>
    <g id="line2d_39">
     <path d="M 425.8092 37.079117 
L 432.7572 37.079117 
L 439.7052 37.079117 
" style="fill: none; stroke: #e68332; stroke-width: 1.5; stroke-linecap: round"/>
    </g>
    <g id="text_18">
     <!-- 04SG_01_movie_04_LPI_000.netts -->
     <g style="fill: #262626" transform="translate(445.2636 39.510917) scale(0.06948 -0.06948)">
      <defs>
       <path id="ArialMT-53" d="M 288 1472 
L 859 1522 
Q 900 1178 1048 958 
Q 1197 738 1509 602 
Q 1822 466 2213 466 
Q 2559 466 2825 569 
Q 3091 672 3220 851 
Q 3350 1031 3350 1244 
Q 3350 1459 3225 1620 
Q 3100 1781 2813 1891 
Q 2628 1963 1997 2114 
Q 1366 2266 1113 2400 
Q 784 2572 623 2826 
Q 463 3081 463 3397 
Q 463 3744 659 4045 
Q 856 4347 1234 4503 
Q 1613 4659 2075 4659 
Q 2584 4659 2973 4495 
Q 3363 4331 3572 4012 
Q 3781 3694 3797 3291 
L 3216 3247 
Q 3169 3681 2898 3903 
Q 2628 4125 2100 4125 
Q 1550 4125 1298 3923 
Q 1047 3722 1047 3438 
Q 1047 3191 1225 3031 
Q 1400 2872 2139 2705 
Q 2878 2538 3153 2413 
Q 3553 2228 3743 1945 
Q 3934 1663 3934 1294 
Q 3934 928 3725 604 
Q 3516 281 3123 101 
Q 2731 -78 2241 -78 
Q 1619 -78 1198 103 
Q 778 284 539 648 
Q 300 1013 288 1472 
z
" transform="scale(0.015625)"/>
       <path id="ArialMT-47" d="M 2638 1797 
L 2638 2334 
L 4578 2338 
L 4578 638 
Q 4131 281 3656 101 
Q 3181 -78 2681 -78 
Q 2006 -78 1454 211 
Q 903 500 622 1047 
Q 341 1594 341 2269 
Q 341 2938 620 3517 
Q 900 4097 1425 4378 
Q 1950 4659 2634 4659 
Q 3131 4659 3532 4498 
Q 3934 4338 4162 4050 
Q 4391 3763 4509 3300 
L 3963 3150 
Q 3859 3500 3706 3700 
Q 3553 3900 3268 4020 
Q 2984 4141 2638 4141 
Q 2222 4141 1919 4014 
Q 1616 3888 1430 3681 
Q 1244 3475 1141 3228 
Q 966 2803 966 2306 
Q 966 1694 1177 1281 
Q 1388 869 1791 669 
Q 2194 469 2647 469 
Q 3041 469 3416 620 
Q 3791 772 3984 944 
L 3984 1797 
L 2638 1797 
z
" transform="scale(0.015625)"/>
      </defs>
      <use xlink:href="#ArialMT-30"/>
      <use xlink:href="#ArialMT-34" x="55.615234"/>
      <use xlink:href="#ArialMT-53" x="111.230469"/>
      <use xlink:href="#ArialMT-47" x="177.929688"/>
      <use xlink:href="#ArialMT-5f" x="255.712891"/>
      <use xlink:href="#ArialMT-30" x="311.328125"/>
      <use xlink:href="#ArialMT-31" x="366.943359"/>
      <use xlink:href="#ArialMT-5f" x="422.558594"/>
      <use xlink:href="#ArialMT-6d" x="478.173828"/>
      <use xlink:href="#ArialMT-6f" x="561.474609"/>
      <use xlink:href="#ArialMT-76" x="617.089844"/>
      <use xlink:href="#ArialMT-69" x="667.089844"/>
      <use xlink:href="#ArialMT-65" x="689.306641"/>
      <use xlink:href="#ArialMT-5f" x="744.921875"/>
      <use xlink:href="#ArialMT-30" x="800.537109"/>
      <use xlink:href="#ArialMT-34" x="856.152344"/>
      <use xlink:href="#ArialMT-5f" x="911.767578"/>
      <use xlink:href="#ArialMT-4c" x="967.382812"/>
      <use xlink:href="#ArialMT-50" x="1022.998047"/>
      <use xlink:href="#ArialMT-49" x="1089.697266"/>
      <use xlink:href="#ArialMT-5f" x="1117.480469"/>
      <use xlink:href="#ArialMT-30" x="1173.095703"/>
      <use xlink:href="#ArialMT-30" x="1228.710938"/>
      <use xlink:href="#ArialMT-30" x="1284.326172"/>
      <use xlink:href="#ArialMT-2e" x="1339.941406"/>
      <use xlink:href="#ArialMT-6e" x="1367.724609"/>
      <use xlink:href="#ArialMT-65" x="1423.339844"/>
      <use xlink:href="#ArialMT-74" x="1478.955078"/>
      <use xlink:href="#ArialMT-74" x="1506.738281"/>
      <use xlink:href="#ArialMT-73" x="1534.521484"/>
     </g>
    </g>
    <g id="line2d_40">
     <path d="M 425.8092 46.927907 
L 432.7572 46.927907 
L 439.7052 46.927907 
" style="fill: none; stroke: #bb9832; stroke-width: 1.5; stroke-linecap: round"/>
    </g>
    <g id="text_19">
     <!-- 08VR_01_movie_04_LPI_000.netts -->
     <g style="fill: #262626" transform="translate(445.2636 49.359707) scale(0.06948 -0.06948)">
      <defs>
       <path id="ArialMT-56" d="M 1803 0 
L 28 4581 
L 684 4581 
L 1875 1253 
Q 2019 853 2116 503 
Q 2222 878 2363 1253 
L 3600 4581 
L 4219 4581 
L 2425 0 
L 1803 0 
z
" transform="scale(0.015625)"/>
       <path id="ArialMT-52" d="M 503 0 
L 503 4581 
L 2534 4581 
Q 3147 4581 3465 4457 
Q 3784 4334 3975 4021 
Q 4166 3709 4166 3331 
Q 4166 2844 3850 2509 
Q 3534 2175 2875 2084 
Q 3116 1969 3241 1856 
Q 3506 1613 3744 1247 
L 4541 0 
L 3778 0 
L 3172 953 
Q 2906 1366 2734 1584 
Q 2563 1803 2427 1890 
Q 2291 1978 2150 2013 
Q 2047 2034 1813 2034 
L 1109 2034 
L 1109 0 
L 503 0 
z
M 1109 2559 
L 2413 2559 
Q 2828 2559 3062 2645 
Q 3297 2731 3419 2920 
Q 3541 3109 3541 3331 
Q 3541 3656 3305 3865 
Q 3069 4075 2559 4075 
L 1109 4075 
L 1109 2559 
z
" transform="scale(0.015625)"/>
      </defs>
      <use xlink:href="#ArialMT-30"/>
      <use xlink:href="#ArialMT-38" x="55.615234"/>
      <use xlink:href="#ArialMT-56" x="111.230469"/>
      <use xlink:href="#ArialMT-52" x="177.929688"/>
      <use xlink:href="#ArialMT-5f" x="250.146484"/>
      <use xlink:href="#ArialMT-30" x="305.761719"/>
      <use xlink:href="#ArialMT-31" x="361.376953"/>
      <use xlink:href="#ArialMT-5f" x="416.992188"/>
      <use xlink:href="#ArialMT-6d" x="472.607422"/>
      <use xlink:href="#ArialMT-6f" x="555.908203"/>
      <use xlink:href="#ArialMT-76" x="611.523438"/>
      <use xlink:href="#ArialMT-69" x="661.523438"/>
      <use xlink:href="#ArialMT-65" x="683.740234"/>
      <use xlink:href="#ArialMT-5f" x="739.355469"/>
      <use xlink:href="#ArialMT-30" x="794.970703"/>
      <use xlink:href="#ArialMT-34" x="850.585938"/>
      <use xlink:href="#ArialMT-5f" x="906.201172"/>
      <use xlink:href="#ArialMT-4c" x="961.816406"/>
      <use xlink:href="#ArialMT-50" x="1017.431641"/>
      <use xlink:href="#ArialMT-49" x="1084.130859"/>
      <use xlink:href="#ArialMT-5f" x="1111.914062"/>
      <use xlink:href="#ArialMT-30" x="1167.529297"/>
      <use xlink:href="#ArialMT-30" x="1223.144531"/>
      <use xlink:href="#ArialMT-30" x="1278.759766"/>
      <use xlink:href="#ArialMT-2e" x="1334.375"/>
      <use xlink:href="#ArialMT-6e" x="1362.158203"/>
      <use xlink:href="#ArialMT-65" x="1417.773438"/>
      <use xlink:href="#ArialMT-74" x="1473.388672"/>
      <use xlink:href="#ArialMT-74" x="1501.171875"/>
      <use xlink:href="#ArialMT-73" x="1528.955078"/>
     </g>
    </g>
    <g id="line2d_41">
     <path d="M 425.8092 56.776697 
L 432.7572 56.776697 
L 439.7052 56.776697 
" style="fill: none; stroke: #97a431; stroke-width: 1.5; stroke-linecap: round"/>
    </g>
    <g id="text_20">
     <!-- 10JR_01_movie_04_LPI_000.netts -->
     <g style="fill: #262626" transform="translate(445.2636 59.208497) scale(0.06948 -0.06948)">
      <defs>
       <path id="ArialMT-4a" d="M 184 1300 
L 731 1375 
Q 753 850 928 656 
Q 1103 463 1413 463 
Q 1641 463 1806 567 
Q 1972 672 2034 851 
Q 2097 1031 2097 1425 
L 2097 4581 
L 2703 4581 
L 2703 1459 
Q 2703 884 2564 568 
Q 2425 253 2123 87 
Q 1822 -78 1416 -78 
Q 813 -78 492 269 
Q 172 616 184 1300 
z
" transform="scale(0.015625)"/>
      </defs>
      <use xlink:href="#ArialMT-31"/>
      <use xlink:href="#ArialMT-30" x="55.615234"/>
      <use xlink:href="#ArialMT-4a" x="111.230469"/>
      <use xlink:href="#ArialMT-52" x="161.230469"/>
      <use xlink:href="#ArialMT-5f" x="233.447266"/>
      <use xlink:href="#ArialMT-30" x="289.0625"/>
      <use xlink:href="#ArialMT-31" x="344.677734"/>
      <use xlink:href="#ArialMT-5f" x="400.292969"/>
      <use xlink:href="#ArialMT-6d" x="455.908203"/>
      <use xlink:href="#ArialMT-6f" x="539.208984"/>
      <use xlink:href="#ArialMT-76" x="594.824219"/>
      <use xlink:href="#ArialMT-69" x="644.824219"/>
      <use xlink:href="#ArialMT-65" x="667.041016"/>
      <use xlink:href="#ArialMT-5f" x="722.65625"/>
      <use xlink:href="#ArialMT-30" x="778.271484"/>
      <use xlink:href="#ArialMT-34" x="833.886719"/>
      <use xlink:href="#ArialMT-5f" x="889.501953"/>
      <use xlink:href="#ArialMT-4c" x="945.117188"/>
      <use xlink:href="#ArialMT-50" x="1000.732422"/>
      <use xlink:href="#ArialMT-49" x="1067.431641"/>
      <use xlink:href="#ArialMT-5f" x="1095.214844"/>
      <use xlink:href="#ArialMT-30" x="1150.830078"/>
      <use xlink:href="#ArialMT-30" x="1206.445312"/>
      <use xlink:href="#ArialMT-30" x="1262.060547"/>
      <use xlink:href="#ArialMT-2e" x="1317.675781"/>
      <use xlink:href="#ArialMT-6e" x="1345.458984"/>
      <use xlink:href="#ArialMT-65" x="1401.074219"/>
      <use xlink:href="#ArialMT-74" x="1456.689453"/>
      <use xlink:href="#ArialMT-74" x="1484.472656"/>
      <use xlink:href="#ArialMT-73" x="1512.255859"/>
     </g>
    </g>
    <g id="line2d_42">
     <path d="M 425.8092 66.689539 
L 432.7572 66.689539 
L 439.7052 66.689539 
" style="fill: none; stroke: #50b131; stroke-width: 1.5; stroke-linecap: round"/>
    </g>
    <g id="text_21">
     <!-- 13CA_01_movie_04_LPI_000.netts -->
     <g style="fill: #262626" transform="translate(445.2636 69.121339) scale(0.06948 -0.06948)">
      <defs>
       <path id="ArialMT-33" d="M 269 1209 
L 831 1284 
Q 928 806 1161 595 
Q 1394 384 1728 384 
Q 2125 384 2398 659 
Q 2672 934 2672 1341 
Q 2672 1728 2419 1979 
Q 2166 2231 1775 2231 
Q 1616 2231 1378 2169 
L 1441 2663 
Q 1497 2656 1531 2656 
Q 1891 2656 2178 2843 
Q 2466 3031 2466 3422 
Q 2466 3731 2256 3934 
Q 2047 4138 1716 4138 
Q 1388 4138 1169 3931 
Q 950 3725 888 3313 
L 325 3413 
Q 428 3978 793 4289 
Q 1159 4600 1703 4600 
Q 2078 4600 2393 4439 
Q 2709 4278 2876 4000 
Q 3044 3722 3044 3409 
Q 3044 3113 2884 2869 
Q 2725 2625 2413 2481 
Q 2819 2388 3044 2092 
Q 3269 1797 3269 1353 
Q 3269 753 2831 336 
Q 2394 -81 1725 -81 
Q 1122 -81 723 278 
Q 325 638 269 1209 
z
" transform="scale(0.015625)"/>
       <path id="ArialMT-43" d="M 3763 1606 
L 4369 1453 
Q 4178 706 3683 314 
Q 3188 -78 2472 -78 
Q 1731 -78 1267 223 
Q 803 525 561 1097 
Q 319 1669 319 2325 
Q 319 3041 592 3573 
Q 866 4106 1370 4382 
Q 1875 4659 2481 4659 
Q 3169 4659 3637 4309 
Q 4106 3959 4291 3325 
L 3694 3184 
Q 3534 3684 3231 3912 
Q 2928 4141 2469 4141 
Q 1941 4141 1586 3887 
Q 1231 3634 1087 3207 
Q 944 2781 944 2328 
Q 944 1744 1114 1308 
Q 1284 872 1643 656 
Q 2003 441 2422 441 
Q 2931 441 3284 734 
Q 3638 1028 3763 1606 
z
" transform="scale(0.015625)"/>
       <path id="ArialMT-41" d="M -9 0 
L 1750 4581 
L 2403 4581 
L 4278 0 
L 3588 0 
L 3053 1388 
L 1138 1388 
L 634 0 
L -9 0 
z
M 1313 1881 
L 2866 1881 
L 2388 3150 
Q 2169 3728 2063 4100 
Q 1975 3659 1816 3225 
L 1313 1881 
z
" transform="scale(0.015625)"/>
      </defs>
      <use xlink:href="#ArialMT-31"/>
      <use xlink:href="#ArialMT-33" x="55.615234"/>
      <use xlink:href="#ArialMT-43" x="111.230469"/>
      <use xlink:href="#ArialMT-41" x="183.447266"/>
      <use xlink:href="#ArialMT-5f" x="250.146484"/>
      <use xlink:href="#ArialMT-30" x="305.761719"/>
      <use xlink:href="#ArialMT-31" x="361.376953"/>
      <use xlink:href="#ArialMT-5f" x="416.992188"/>
      <use xlink:href="#ArialMT-6d" x="472.607422"/>
      <use xlink:href="#ArialMT-6f" x="555.908203"/>
      <use xlink:href="#ArialMT-76" x="611.523438"/>
      <use xlink:href="#ArialMT-69" x="661.523438"/>
      <use xlink:href="#ArialMT-65" x="683.740234"/>
      <use xlink:href="#ArialMT-5f" x="739.355469"/>
      <use xlink:href="#ArialMT-30" x="794.970703"/>
      <use xlink:href="#ArialMT-34" x="850.585938"/>
      <use xlink:href="#ArialMT-5f" x="906.201172"/>
      <use xlink:href="#ArialMT-4c" x="961.816406"/>
      <use xlink:href="#ArialMT-50" x="1017.431641"/>
      <use xlink:href="#ArialMT-49" x="1084.130859"/>
      <use xlink:href="#ArialMT-5f" x="1111.914062"/>
      <use xlink:href="#ArialMT-30" x="1167.529297"/>
      <use xlink:href="#ArialMT-30" x="1223.144531"/>
      <use xlink:href="#ArialMT-30" x="1278.759766"/>
      <use xlink:href="#ArialMT-2e" x="1334.375"/>
      <use xlink:href="#ArialMT-6e" x="1362.158203"/>
      <use xlink:href="#ArialMT-65" x="1417.773438"/>
      <use xlink:href="#ArialMT-74" x="1473.388672"/>
      <use xlink:href="#ArialMT-74" x="1501.171875"/>
      <use xlink:href="#ArialMT-73" x="1528.955078"/>
     </g>
    </g>
    <g id="line2d_43">
     <path d="M 425.8092 76.538329 
L 432.7572 76.538329 
L 439.7052 76.538329 
" style="fill: none; stroke: #34af84; stroke-width: 1.5; stroke-linecap: round"/>
    </g>
    <g id="text_22">
     <!-- 16RA_01_movie_04_LPI_000.netts -->
     <g style="fill: #262626" transform="translate(445.2636 78.970129) scale(0.06948 -0.06948)">
      <use xlink:href="#ArialMT-31"/>
      <use xlink:href="#ArialMT-36" x="55.615234"/>
      <use xlink:href="#ArialMT-52" x="111.230469"/>
      <use xlink:href="#ArialMT-41" x="183.447266"/>
      <use xlink:href="#ArialMT-5f" x="250.146484"/>
      <use xlink:href="#ArialMT-30" x="305.761719"/>
      <use xlink:href="#ArialMT-31" x="361.376953"/>
      <use xlink:href="#ArialMT-5f" x="416.992188"/>
      <use xlink:href="#ArialMT-6d" x="472.607422"/>
      <use xlink:href="#ArialMT-6f" x="555.908203"/>
      <use xlink:href="#ArialMT-76" x="611.523438"/>
      <use xlink:href="#ArialMT-69" x="661.523438"/>
      <use xlink:href="#ArialMT-65" x="683.740234"/>
      <use xlink:href="#ArialMT-5f" x="739.355469"/>
      <use xlink:href="#ArialMT-30" x="794.970703"/>
      <use xlink:href="#ArialMT-34" x="850.585938"/>
      <use xlink:href="#ArialMT-5f" x="906.201172"/>
      <use xlink:href="#ArialMT-4c" x="961.816406"/>
      <use xlink:href="#ArialMT-50" x="1017.431641"/>
      <use xlink:href="#ArialMT-49" x="1084.130859"/>
      <use xlink:href="#ArialMT-5f" x="1111.914062"/>
      <use xlink:href="#ArialMT-30" x="1167.529297"/>
      <use xlink:href="#ArialMT-30" x="1223.144531"/>
      <use xlink:href="#ArialMT-30" x="1278.759766"/>
      <use xlink:href="#ArialMT-2e" x="1334.375"/>
      <use xlink:href="#ArialMT-6e" x="1362.158203"/>
      <use xlink:href="#ArialMT-65" x="1417.773438"/>
      <use xlink:href="#ArialMT-74" x="1473.388672"/>
      <use xlink:href="#ArialMT-74" x="1501.171875"/>
      <use xlink:href="#ArialMT-73" x="1528.955078"/>
     </g>
    </g>
    <g id="line2d_44">
     <path d="M 425.8092 86.387119 
L 432.7572 86.387119 
L 439.7052 86.387119 
" style="fill: none; stroke: #36ada4; stroke-width: 1.5; stroke-linecap: round"/>
    </g>
    <g id="text_23">
     <!-- 17EK_01_movie_04_LPI_000.netts -->
     <g style="fill: #262626" transform="translate(445.2636 88.818919) scale(0.06948 -0.06948)">
      <defs>
       <path id="ArialMT-45" d="M 506 0 
L 506 4581 
L 3819 4581 
L 3819 4041 
L 1113 4041 
L 1113 2638 
L 3647 2638 
L 3647 2100 
L 1113 2100 
L 1113 541 
L 3925 541 
L 3925 0 
L 506 0 
z
" transform="scale(0.015625)"/>
       <path id="ArialMT-4b" d="M 469 0 
L 469 4581 
L 1075 4581 
L 1075 2309 
L 3350 4581 
L 4172 4581 
L 2250 2725 
L 4256 0 
L 3456 0 
L 1825 2319 
L 1075 1588 
L 1075 0 
L 469 0 
z
" transform="scale(0.015625)"/>
      </defs>
      <use xlink:href="#ArialMT-31"/>
      <use xlink:href="#ArialMT-37" x="55.615234"/>
      <use xlink:href="#ArialMT-45" x="111.230469"/>
      <use xlink:href="#ArialMT-4b" x="177.929688"/>
      <use xlink:href="#ArialMT-5f" x="244.628906"/>
      <use xlink:href="#ArialMT-30" x="300.244141"/>
      <use xlink:href="#ArialMT-31" x="355.859375"/>
      <use xlink:href="#ArialMT-5f" x="411.474609"/>
      <use xlink:href="#ArialMT-6d" x="467.089844"/>
      <use xlink:href="#ArialMT-6f" x="550.390625"/>
      <use xlink:href="#ArialMT-76" x="606.005859"/>
      <use xlink:href="#ArialMT-69" x="656.005859"/>
      <use xlink:href="#ArialMT-65" x="678.222656"/>
      <use xlink:href="#ArialMT-5f" x="733.837891"/>
      <use xlink:href="#ArialMT-30" x="789.453125"/>
      <use xlink:href="#ArialMT-34" x="845.068359"/>
      <use xlink:href="#ArialMT-5f" x="900.683594"/>
      <use xlink:href="#ArialMT-4c" x="956.298828"/>
      <use xlink:href="#ArialMT-50" x="1011.914062"/>
      <use xlink:href="#ArialMT-49" x="1078.613281"/>
      <use xlink:href="#ArialMT-5f" x="1106.396484"/>
      <use xlink:href="#ArialMT-30" x="1162.011719"/>
      <use xlink:href="#ArialMT-30" x="1217.626953"/>
      <use xlink:href="#ArialMT-30" x="1273.242188"/>
      <use xlink:href="#ArialMT-2e" x="1328.857422"/>
      <use xlink:href="#ArialMT-6e" x="1356.640625"/>
      <use xlink:href="#ArialMT-65" x="1412.255859"/>
      <use xlink:href="#ArialMT-74" x="1467.871094"/>
      <use xlink:href="#ArialMT-74" x="1495.654297"/>
      <use xlink:href="#ArialMT-73" x="1523.4375"/>
     </g>
    </g>
    <g id="line2d_45">
     <path d="M 425.8092 96.235909 
L 432.7572 96.235909 
L 439.7052 96.235909 
" style="fill: none; stroke: #38aabf; stroke-width: 1.5; stroke-linecap: round"/>
    </g>
    <g id="text_24">
     <!-- 19AK_01_movie_04_LPI_000.netts -->
     <g style="fill: #262626" transform="translate(445.2636 98.667709) scale(0.06948 -0.06948)">
      <defs>
       <path id="ArialMT-39" d="M 350 1059 
L 891 1109 
Q 959 728 1153 556 
Q 1347 384 1650 384 
Q 1909 384 2104 503 
Q 2300 622 2425 820 
Q 2550 1019 2634 1356 
Q 2719 1694 2719 2044 
Q 2719 2081 2716 2156 
Q 2547 1888 2255 1720 
Q 1963 1553 1622 1553 
Q 1053 1553 659 1965 
Q 266 2378 266 3053 
Q 266 3750 677 4175 
Q 1088 4600 1706 4600 
Q 2153 4600 2523 4359 
Q 2894 4119 3086 3673 
Q 3278 3228 3278 2384 
Q 3278 1506 3087 986 
Q 2897 466 2520 194 
Q 2144 -78 1638 -78 
Q 1100 -78 759 220 
Q 419 519 350 1059 
z
M 2653 3081 
Q 2653 3566 2395 3850 
Q 2138 4134 1775 4134 
Q 1400 4134 1122 3828 
Q 844 3522 844 3034 
Q 844 2597 1108 2323 
Q 1372 2050 1759 2050 
Q 2150 2050 2401 2323 
Q 2653 2597 2653 3081 
z
" transform="scale(0.015625)"/>
      </defs>
      <use xlink:href="#ArialMT-31"/>
      <use xlink:href="#ArialMT-39" x="55.615234"/>
      <use xlink:href="#ArialMT-41" x="111.230469"/>
      <use xlink:href="#ArialMT-4b" x="177.929688"/>
      <use xlink:href="#ArialMT-5f" x="244.628906"/>
      <use xlink:href="#ArialMT-30" x="300.244141"/>
      <use xlink:href="#ArialMT-31" x="355.859375"/>
      <use xlink:href="#ArialMT-5f" x="411.474609"/>
      <use xlink:href="#ArialMT-6d" x="467.089844"/>
      <use xlink:href="#ArialMT-6f" x="550.390625"/>
      <use xlink:href="#ArialMT-76" x="606.005859"/>
      <use xlink:href="#ArialMT-69" x="656.005859"/>
      <use xlink:href="#ArialMT-65" x="678.222656"/>
      <use xlink:href="#ArialMT-5f" x="733.837891"/>
      <use xlink:href="#ArialMT-30" x="789.453125"/>
      <use xlink:href="#ArialMT-34" x="845.068359"/>
      <use xlink:href="#ArialMT-5f" x="900.683594"/>
      <use xlink:href="#ArialMT-4c" x="956.298828"/>
      <use xlink:href="#ArialMT-50" x="1011.914062"/>
      <use xlink:href="#ArialMT-49" x="1078.613281"/>
      <use xlink:href="#ArialMT-5f" x="1106.396484"/>
      <use xlink:href="#ArialMT-30" x="1162.011719"/>
      <use xlink:href="#ArialMT-30" x="1217.626953"/>
      <use xlink:href="#ArialMT-30" x="1273.242188"/>
      <use xlink:href="#ArialMT-2e" x="1328.857422"/>
      <use xlink:href="#ArialMT-6e" x="1356.640625"/>
      <use xlink:href="#ArialMT-65" x="1412.255859"/>
      <use xlink:href="#ArialMT-74" x="1467.871094"/>
      <use xlink:href="#ArialMT-74" x="1495.654297"/>
      <use xlink:href="#ArialMT-73" x="1523.4375"/>
     </g>
    </g>
    <g id="line2d_46">
     <path d="M 425.8092 106.084699 
L 432.7572 106.084699 
L 439.7052 106.084699 
" style="fill: none; stroke: #3ba3ec; stroke-width: 1.5; stroke-linecap: round"/>
    </g>
    <g id="text_25">
     <!-- 22TK_01_movie_04_LPI_000.netts -->
     <g style="fill: #262626" transform="translate(445.2636 108.516499) scale(0.06948 -0.06948)">
      <defs>
       <path id="ArialMT-54" d="M 1659 0 
L 1659 4041 
L 150 4041 
L 150 4581 
L 3781 4581 
L 3781 4041 
L 2266 4041 
L 2266 0 
L 1659 0 
z
" transform="scale(0.015625)"/>
      </defs>
      <use xlink:href="#ArialMT-32"/>
      <use xlink:href="#ArialMT-32" x="55.615234"/>
      <use xlink:href="#ArialMT-54" x="111.230469"/>
      <use xlink:href="#ArialMT-4b" x="172.314453"/>
      <use xlink:href="#ArialMT-5f" x="239.013672"/>
      <use xlink:href="#ArialMT-30" x="294.628906"/>
      <use xlink:href="#ArialMT-31" x="350.244141"/>
      <use xlink:href="#ArialMT-5f" x="405.859375"/>
      <use xlink:href="#ArialMT-6d" x="461.474609"/>
      <use xlink:href="#ArialMT-6f" x="544.775391"/>
      <use xlink:href="#ArialMT-76" x="600.390625"/>
      <use xlink:href="#ArialMT-69" x="650.390625"/>
      <use xlink:href="#ArialMT-65" x="672.607422"/>
      <use xlink:href="#ArialMT-5f" x="728.222656"/>
      <use xlink:href="#ArialMT-30" x="783.837891"/>
      <use xlink:href="#ArialMT-34" x="839.453125"/>
      <use xlink:href="#ArialMT-5f" x="895.068359"/>
      <use xlink:href="#ArialMT-4c" x="950.683594"/>
      <use xlink:href="#ArialMT-50" x="1006.298828"/>
      <use xlink:href="#ArialMT-49" x="1072.998047"/>
      <use xlink:href="#ArialMT-5f" x="1100.78125"/>
      <use xlink:href="#ArialMT-30" x="1156.396484"/>
      <use xlink:href="#ArialMT-30" x="1212.011719"/>
      <use xlink:href="#ArialMT-30" x="1267.626953"/>
      <use xlink:href="#ArialMT-2e" x="1323.242188"/>
      <use xlink:href="#ArialMT-6e" x="1351.025391"/>
      <use xlink:href="#ArialMT-65" x="1406.640625"/>
      <use xlink:href="#ArialMT-74" x="1462.255859"/>
      <use xlink:href="#ArialMT-74" x="1490.039062"/>
      <use xlink:href="#ArialMT-73" x="1517.822266"/>
     </g>
    </g>
    <g id="line2d_47">
     <path d="M 425.8092 115.933489 
L 432.7572 115.933489 
L 439.7052 115.933489 
" style="fill: none; stroke: #a48cf4; stroke-width: 1.5; stroke-linecap: round"/>
    </g>
    <g id="text_26">
     <!-- 25JK_01_movie_04_LPI_000.netts -->
     <g style="fill: #262626" transform="translate(445.2636 118.365289) scale(0.06948 -0.06948)">
      <use xlink:href="#ArialMT-32"/>
      <use xlink:href="#ArialMT-35" x="55.615234"/>
      <use xlink:href="#ArialMT-4a" x="111.230469"/>
      <use xlink:href="#ArialMT-4b" x="161.230469"/>
      <use xlink:href="#ArialMT-5f" x="227.929688"/>
      <use xlink:href="#ArialMT-30" x="283.544922"/>
      <use xlink:href="#ArialMT-31" x="339.160156"/>
      <use xlink:href="#ArialMT-5f" x="394.775391"/>
      <use xlink:href="#ArialMT-6d" x="450.390625"/>
      <use xlink:href="#ArialMT-6f" x="533.691406"/>
      <use xlink:href="#ArialMT-76" x="589.306641"/>
      <use xlink:href="#ArialMT-69" x="639.306641"/>
      <use xlink:href="#ArialMT-65" x="661.523438"/>
      <use xlink:href="#ArialMT-5f" x="717.138672"/>
      <use xlink:href="#ArialMT-30" x="772.753906"/>
      <use xlink:href="#ArialMT-34" x="828.369141"/>
      <use xlink:href="#ArialMT-5f" x="883.984375"/>
      <use xlink:href="#ArialMT-4c" x="939.599609"/>
      <use xlink:href="#ArialMT-50" x="995.214844"/>
      <use xlink:href="#ArialMT-49" x="1061.914062"/>
      <use xlink:href="#ArialMT-5f" x="1089.697266"/>
      <use xlink:href="#ArialMT-30" x="1145.3125"/>
      <use xlink:href="#ArialMT-30" x="1200.927734"/>
      <use xlink:href="#ArialMT-30" x="1256.542969"/>
      <use xlink:href="#ArialMT-2e" x="1312.158203"/>
      <use xlink:href="#ArialMT-6e" x="1339.941406"/>
      <use xlink:href="#ArialMT-65" x="1395.556641"/>
      <use xlink:href="#ArialMT-74" x="1451.171875"/>
      <use xlink:href="#ArialMT-74" x="1478.955078"/>
      <use xlink:href="#ArialMT-73" x="1506.738281"/>
     </g>
    </g>
    <g id="line2d_48">
     <path d="M 425.8092 125.782279 
L 432.7572 125.782279 
L 439.7052 125.782279 
" style="fill: none; stroke: #e866f4; stroke-width: 1.5; stroke-linecap: round"/>
    </g>
    <g id="text_27">
     <!-- 27HF_01_movie_04_LPI_000.netts -->
     <g style="fill: #262626" transform="translate(445.2636 128.214079) scale(0.06948 -0.06948)">
      <defs>
       <path id="ArialMT-46" d="M 525 0 
L 525 4581 
L 3616 4581 
L 3616 4041 
L 1131 4041 
L 1131 2622 
L 3281 2622 
L 3281 2081 
L 1131 2081 
L 1131 0 
L 525 0 
z
" transform="scale(0.015625)"/>
      </defs>
      <use xlink:href="#ArialMT-32"/>
      <use xlink:href="#ArialMT-37" x="55.615234"/>
      <use xlink:href="#ArialMT-48" x="111.230469"/>
      <use xlink:href="#ArialMT-46" x="183.447266"/>
      <use xlink:href="#ArialMT-5f" x="244.53125"/>
      <use xlink:href="#ArialMT-30" x="300.146484"/>
      <use xlink:href="#ArialMT-31" x="355.761719"/>
      <use xlink:href="#ArialMT-5f" x="411.376953"/>
      <use xlink:href="#ArialMT-6d" x="466.992188"/>
      <use xlink:href="#ArialMT-6f" x="550.292969"/>
      <use xlink:href="#ArialMT-76" x="605.908203"/>
      <use xlink:href="#ArialMT-69" x="655.908203"/>
      <use xlink:href="#ArialMT-65" x="678.125"/>
      <use xlink:href="#ArialMT-5f" x="733.740234"/>
      <use xlink:href="#ArialMT-30" x="789.355469"/>
      <use xlink:href="#ArialMT-34" x="844.970703"/>
      <use xlink:href="#ArialMT-5f" x="900.585938"/>
      <use xlink:href="#ArialMT-4c" x="956.201172"/>
      <use xlink:href="#ArialMT-50" x="1011.816406"/>
      <use xlink:href="#ArialMT-49" x="1078.515625"/>
      <use xlink:href="#ArialMT-5f" x="1106.298828"/>
      <use xlink:href="#ArialMT-30" x="1161.914062"/>
      <use xlink:href="#ArialMT-30" x="1217.529297"/>
      <use xlink:href="#ArialMT-30" x="1273.144531"/>
      <use xlink:href="#ArialMT-2e" x="1328.759766"/>
      <use xlink:href="#ArialMT-6e" x="1356.542969"/>
      <use xlink:href="#ArialMT-65" x="1412.158203"/>
      <use xlink:href="#ArialMT-74" x="1467.773438"/>
      <use xlink:href="#ArialMT-74" x="1495.556641"/>
      <use xlink:href="#ArialMT-73" x="1523.339844"/>
     </g>
    </g>
    <g id="line2d_49">
     <path d="M 425.8092 135.699463 
L 432.7572 135.699463 
L 439.7052 135.699463 
" style="fill: none; stroke: #f668c2; stroke-width: 1.5; stroke-linecap: round"/>
    </g>
    <g id="text_28">
     <!-- 30AQ_01_movie_04_LPI_000.netts -->
     <g style="fill: #262626" transform="translate(445.2636 138.131263) scale(0.06948 -0.06948)">
      <defs>
       <path id="ArialMT-51" d="M 3966 491 
Q 4388 200 4744 66 
L 4566 -356 
Q 4072 -178 3581 206 
Q 3072 -78 2456 -78 
Q 1834 -78 1328 222 
Q 822 522 548 1065 
Q 275 1609 275 2291 
Q 275 2969 550 3525 
Q 825 4081 1333 4372 
Q 1841 4663 2469 4663 
Q 3103 4663 3612 4361 
Q 4122 4059 4389 3517 
Q 4656 2975 4656 2294 
Q 4656 1728 4484 1276 
Q 4313 825 3966 491 
z
M 2631 1266 
Q 3156 1119 3497 828 
Q 4031 1316 4031 2294 
Q 4031 2850 3842 3265 
Q 3653 3681 3289 3911 
Q 2925 4141 2472 4141 
Q 1794 4141 1347 3677 
Q 900 3213 900 2291 
Q 900 1397 1342 919 
Q 1784 441 2472 441 
Q 2797 441 3084 563 
Q 2800 747 2484 825 
L 2631 1266 
z
" transform="scale(0.015625)"/>
      </defs>
      <use xlink:href="#ArialMT-33"/>
      <use xlink:href="#ArialMT-30" x="55.615234"/>
      <use xlink:href="#ArialMT-41" x="111.230469"/>
      <use xlink:href="#ArialMT-51" x="177.929688"/>
      <use xlink:href="#ArialMT-5f" x="255.712891"/>
      <use xlink:href="#ArialMT-30" x="311.328125"/>
      <use xlink:href="#ArialMT-31" x="366.943359"/>
      <use xlink:href="#ArialMT-5f" x="422.558594"/>
      <use xlink:href="#ArialMT-6d" x="478.173828"/>
      <use xlink:href="#ArialMT-6f" x="561.474609"/>
      <use xlink:href="#ArialMT-76" x="617.089844"/>
      <use xlink:href="#ArialMT-69" x="667.089844"/>
      <use xlink:href="#ArialMT-65" x="689.306641"/>
      <use xlink:href="#ArialMT-5f" x="744.921875"/>
      <use xlink:href="#ArialMT-30" x="800.537109"/>
      <use xlink:href="#ArialMT-34" x="856.152344"/>
      <use xlink:href="#ArialMT-5f" x="911.767578"/>
      <use xlink:href="#ArialMT-4c" x="967.382812"/>
      <use xlink:href="#ArialMT-50" x="1022.998047"/>
      <use xlink:href="#ArialMT-49" x="1089.697266"/>
      <use xlink:href="#ArialMT-5f" x="1117.480469"/>
      <use xlink:href="#ArialMT-30" x="1173.095703"/>
      <use xlink:href="#ArialMT-30" x="1228.710938"/>
      <use xlink:href="#ArialMT-30" x="1284.326172"/>
      <use xlink:href="#ArialMT-2e" x="1339.941406"/>
      <use xlink:href="#ArialMT-6e" x="1367.724609"/>
      <use xlink:href="#ArialMT-65" x="1423.339844"/>
      <use xlink:href="#ArialMT-74" x="1478.955078"/>
      <use xlink:href="#ArialMT-74" x="1506.738281"/>
      <use xlink:href="#ArialMT-73" x="1534.521484"/>
     </g>
    </g>
   </g>
  </g>
 </g>
 <defs>
  <clipPath id="p266267190a">
   <rect x="65.91" y="21.825" width="357.12" height="266.112"/>
  </clipPath>
 </defs>
</svg>
