<?xml version="1.0" encoding="utf-8" standalone="no"?>
<!DOCTYPE svg PUBLIC "-//W3C//DTD SVG 1.1//EN"
  "http://www.w3.org/Graphics/SVG/1.1/DTD/svg11.dtd">
<svg xmlns:xlink="http://www.w3.org/1999/xlink" width="559.210315pt" height="329.635594pt" viewBox="0 0 559.210315 329.635594" xmlns="http://www.w3.org/2000/svg" version="1.1">
 <metadata>
  <rdf:RDF xmlns:dc="http://purl.org/dc/elements/1.1/" xmlns:cc="http://creativecommons.org/ns#" xmlns:rdf="http://www.w3.org/1999/02/22-rdf-syntax-ns#">
   <cc:Work>
    <dc:type rdf:resource="http://purl.org/dc/dcmitype/StillImage"/>
    <dc:date>2022-12-21T13:13:18.873887</dc:date>
    <dc:format>image/svg+xml</dc:format>
    <dc:creator>
     <cc:Agent>
      <dc:title>Matplotlib v3.6.2, https://matplotlib.org/</dc:title>
     </cc:Agent>
    </dc:creator>
   </cc:Work>
  </rdf:RDF>
 </metadata>
 <defs>
  <style type="text/css">*{stroke-linejoin: round; stroke-linecap: butt}</style>
 </defs>
 <g id="figure_1">
  <g id="patch_1">
   <path d="M 0 329.635594 
L 559.210315 329.635594 
L 559.210315 0 
L 0 0 
z
" style="fill: #ffffff"/>
  </g>
  <g id="axes_1">
   <g id="patch_2">
    <path d="M 59.792969 287.901375 
L 416.912969 287.901375 
L 416.912969 21.789375 
L 59.792969 21.789375 
z
" style="fill: #ffffff"/>
   </g>
   <g id="matplotlib.axis_1">
    <g id="xtick_1">
     <g id="line2d_1">
      <path d="M 76.025696 287.901375 
L 76.025696 21.789375 
" clip-path="url(#p5599280555)" style="fill: none; stroke: #cccccc; stroke-linecap: round"/>
     </g>
     <g id="text_1">
      <!-- 0 -->
      <g style="fill: #262626" transform="translate(72.96718 305.274969) scale(0.11 -0.11)">
       <defs>
        <path id="ArialMT-30" d="M 266 2259 
Q 266 3072 433 3567 
Q 600 4063 929 4331 
Q 1259 4600 1759 4600 
Q 2128 4600 2406 4451 
Q 2684 4303 2865 4023 
Q 3047 3744 3150 3342 
Q 3253 2941 3253 2259 
Q 3253 1453 3087 958 
Q 2922 463 2592 192 
Q 2263 -78 1759 -78 
Q 1097 -78 719 397 
Q 266 969 266 2259 
z
M 844 2259 
Q 844 1131 1108 757 
Q 1372 384 1759 384 
Q 2147 384 2411 759 
Q 2675 1134 2675 2259 
Q 2675 3391 2411 3762 
Q 2147 4134 1753 4134 
Q 1366 4134 1134 3806 
Q 844 3388 844 2259 
z
" transform="scale(0.015625)"/>
       </defs>
       <use xlink:href="#ArialMT-30"/>
      </g>
     </g>
    </g>
    <g id="xtick_2">
     <g id="line2d_2">
      <path d="M 118.079394 287.901375 
L 118.079394 21.789375 
" clip-path="url(#p5599280555)" style="fill: none; stroke: #cccccc; stroke-linecap: round"/>
     </g>
     <g id="text_2">
      <!-- 25 -->
      <g style="fill: #262626" transform="translate(111.962362 305.274969) scale(0.11 -0.11)">
       <defs>
        <path id="ArialMT-32" d="M 3222 541 
L 3222 0 
L 194 0 
Q 188 203 259 391 
Q 375 700 629 1000 
Q 884 1300 1366 1694 
Q 2113 2306 2375 2664 
Q 2638 3022 2638 3341 
Q 2638 3675 2398 3904 
Q 2159 4134 1775 4134 
Q 1369 4134 1125 3890 
Q 881 3647 878 3216 
L 300 3275 
Q 359 3922 746 4261 
Q 1134 4600 1788 4600 
Q 2447 4600 2831 4234 
Q 3216 3869 3216 3328 
Q 3216 3053 3103 2787 
Q 2991 2522 2730 2228 
Q 2469 1934 1863 1422 
Q 1356 997 1212 845 
Q 1069 694 975 541 
L 3222 541 
z
" transform="scale(0.015625)"/>
        <path id="ArialMT-35" d="M 266 1200 
L 856 1250 
Q 922 819 1161 601 
Q 1400 384 1738 384 
Q 2144 384 2425 690 
Q 2706 997 2706 1503 
Q 2706 1984 2436 2262 
Q 2166 2541 1728 2541 
Q 1456 2541 1237 2417 
Q 1019 2294 894 2097 
L 366 2166 
L 809 4519 
L 3088 4519 
L 3088 3981 
L 1259 3981 
L 1013 2750 
Q 1425 3038 1878 3038 
Q 2478 3038 2890 2622 
Q 3303 2206 3303 1553 
Q 3303 931 2941 478 
Q 2500 -78 1738 -78 
Q 1113 -78 717 272 
Q 322 622 266 1200 
z
" transform="scale(0.015625)"/>
       </defs>
       <use xlink:href="#ArialMT-32"/>
       <use xlink:href="#ArialMT-35" x="55.615234"/>
      </g>
     </g>
    </g>
    <g id="xtick_3">
     <g id="line2d_3">
      <path d="M 160.133091 287.901375 
L 160.133091 21.789375 
" clip-path="url(#p5599280555)" style="fill: none; stroke: #cccccc; stroke-linecap: round"/>
     </g>
     <g id="text_3">
      <!-- 50 -->
      <g style="fill: #262626" transform="translate(154.01606 305.274969) scale(0.11 -0.11)">
       <use xlink:href="#ArialMT-35"/>
       <use xlink:href="#ArialMT-30" x="55.615234"/>
      </g>
     </g>
    </g>
    <g id="xtick_4">
     <g id="line2d_4">
      <path d="M 202.186789 287.901375 
L 202.186789 21.789375 
" clip-path="url(#p5599280555)" style="fill: none; stroke: #cccccc; stroke-linecap: round"/>
     </g>
     <g id="text_4">
      <!-- 75 -->
      <g style="fill: #262626" transform="translate(196.069758 305.274969) scale(0.11 -0.11)">
       <defs>
        <path id="ArialMT-37" d="M 303 3981 
L 303 4522 
L 3269 4522 
L 3269 4084 
Q 2831 3619 2401 2847 
Q 1972 2075 1738 1259 
Q 1569 684 1522 0 
L 944 0 
Q 953 541 1156 1306 
Q 1359 2072 1739 2783 
Q 2119 3494 2547 3981 
L 303 3981 
z
" transform="scale(0.015625)"/>
       </defs>
       <use xlink:href="#ArialMT-37"/>
       <use xlink:href="#ArialMT-35" x="55.615234"/>
      </g>
     </g>
    </g>
    <g id="xtick_5">
     <g id="line2d_5">
      <path d="M 244.240486 287.901375 
L 244.240486 21.789375 
" clip-path="url(#p5599280555)" style="fill: none; stroke: #cccccc; stroke-linecap: round"/>
     </g>
     <g id="text_5">
      <!-- 100 -->
      <g style="fill: #262626" transform="translate(235.06494 305.274969) scale(0.11 -0.11)">
       <defs>
        <path id="ArialMT-31" d="M 2384 0 
L 1822 0 
L 1822 3584 
Q 1619 3391 1289 3197 
Q 959 3003 697 2906 
L 697 3450 
Q 1169 3672 1522 3987 
Q 1875 4303 2022 4600 
L 2384 4600 
L 2384 0 
z
" transform="scale(0.015625)"/>
       </defs>
       <use xlink:href="#ArialMT-31"/>
       <use xlink:href="#ArialMT-30" x="55.615234"/>
       <use xlink:href="#ArialMT-30" x="111.230469"/>
      </g>
     </g>
    </g>
    <g id="xtick_6">
     <g id="line2d_6">
      <path d="M 286.294184 287.901375 
L 286.294184 21.789375 
" clip-path="url(#p5599280555)" style="fill: none; stroke: #cccccc; stroke-linecap: round"/>
     </g>
     <g id="text_6">
      <!-- 125 -->
      <g style="fill: #262626" transform="translate(277.118637 305.274969) scale(0.11 -0.11)">
       <use xlink:href="#ArialMT-31"/>
       <use xlink:href="#ArialMT-32" x="55.615234"/>
       <use xlink:href="#ArialMT-35" x="111.230469"/>
      </g>
     </g>
    </g>
    <g id="xtick_7">
     <g id="line2d_7">
      <path d="M 328.347882 287.901375 
L 328.347882 21.789375 
" clip-path="url(#p5599280555)" style="fill: none; stroke: #cccccc; stroke-linecap: round"/>
     </g>
     <g id="text_7">
      <!-- 150 -->
      <g style="fill: #262626" transform="translate(319.172335 305.274969) scale(0.11 -0.11)">
       <use xlink:href="#ArialMT-31"/>
       <use xlink:href="#ArialMT-35" x="55.615234"/>
       <use xlink:href="#ArialMT-30" x="111.230469"/>
      </g>
     </g>
    </g>
    <g id="xtick_8">
     <g id="line2d_8">
      <path d="M 370.401579 287.901375 
L 370.401579 21.789375 
" clip-path="url(#p5599280555)" style="fill: none; stroke: #cccccc; stroke-linecap: round"/>
     </g>
     <g id="text_8">
      <!-- 175 -->
      <g style="fill: #262626" transform="translate(361.226032 305.274969) scale(0.11 -0.11)">
       <use xlink:href="#ArialMT-31"/>
       <use xlink:href="#ArialMT-37" x="55.615234"/>
       <use xlink:href="#ArialMT-35" x="111.230469"/>
      </g>
     </g>
    </g>
    <g id="xtick_9">
     <g id="line2d_9">
      <path d="M 412.455277 287.901375 
L 412.455277 21.789375 
" clip-path="url(#p5599280555)" style="fill: none; stroke: #cccccc; stroke-linecap: round"/>
     </g>
     <g id="text_9">
      <!-- 200 -->
      <g style="fill: #262626" transform="translate(403.27973 305.274969) scale(0.11 -0.11)">
       <use xlink:href="#ArialMT-32"/>
       <use xlink:href="#ArialMT-30" x="55.615234"/>
       <use xlink:href="#ArialMT-30" x="111.230469"/>
      </g>
     </g>
    </g>
    <g id="text_10">
     <!-- Window No. -->
     <g style="fill: #262626" transform="translate(206.010156 320.050594) scale(0.12 -0.12)">
      <defs>
       <path id="ArialMT-57" d="M 1294 0 
L 78 4581 
L 700 4581 
L 1397 1578 
Q 1509 1106 1591 641 
Q 1766 1375 1797 1488 
L 2669 4581 
L 3400 4581 
L 4056 2263 
Q 4303 1400 4413 641 
Q 4500 1075 4641 1638 
L 5359 4581 
L 5969 4581 
L 4713 0 
L 4128 0 
L 3163 3491 
Q 3041 3928 3019 4028 
Q 2947 3713 2884 3491 
L 1913 0 
L 1294 0 
z
" transform="scale(0.015625)"/>
       <path id="ArialMT-69" d="M 425 3934 
L 425 4581 
L 988 4581 
L 988 3934 
L 425 3934 
z
M 425 0 
L 425 3319 
L 988 3319 
L 988 0 
L 425 0 
z
" transform="scale(0.015625)"/>
       <path id="ArialMT-6e" d="M 422 0 
L 422 3319 
L 928 3319 
L 928 2847 
Q 1294 3394 1984 3394 
Q 2284 3394 2536 3286 
Q 2788 3178 2913 3003 
Q 3038 2828 3088 2588 
Q 3119 2431 3119 2041 
L 3119 0 
L 2556 0 
L 2556 2019 
Q 2556 2363 2490 2533 
Q 2425 2703 2258 2804 
Q 2091 2906 1866 2906 
Q 1506 2906 1245 2678 
Q 984 2450 984 1813 
L 984 0 
L 422 0 
z
" transform="scale(0.015625)"/>
       <path id="ArialMT-64" d="M 2575 0 
L 2575 419 
Q 2259 -75 1647 -75 
Q 1250 -75 917 144 
Q 584 363 401 755 
Q 219 1147 219 1656 
Q 219 2153 384 2558 
Q 550 2963 881 3178 
Q 1213 3394 1622 3394 
Q 1922 3394 2156 3267 
Q 2391 3141 2538 2938 
L 2538 4581 
L 3097 4581 
L 3097 0 
L 2575 0 
z
M 797 1656 
Q 797 1019 1065 703 
Q 1334 388 1700 388 
Q 2069 388 2326 689 
Q 2584 991 2584 1609 
Q 2584 2291 2321 2609 
Q 2059 2928 1675 2928 
Q 1300 2928 1048 2622 
Q 797 2316 797 1656 
z
" transform="scale(0.015625)"/>
       <path id="ArialMT-6f" d="M 213 1659 
Q 213 2581 725 3025 
Q 1153 3394 1769 3394 
Q 2453 3394 2887 2945 
Q 3322 2497 3322 1706 
Q 3322 1066 3130 698 
Q 2938 331 2570 128 
Q 2203 -75 1769 -75 
Q 1072 -75 642 372 
Q 213 819 213 1659 
z
M 791 1659 
Q 791 1022 1069 705 
Q 1347 388 1769 388 
Q 2188 388 2466 706 
Q 2744 1025 2744 1678 
Q 2744 2294 2464 2611 
Q 2184 2928 1769 2928 
Q 1347 2928 1069 2612 
Q 791 2297 791 1659 
z
" transform="scale(0.015625)"/>
       <path id="ArialMT-77" d="M 1034 0 
L 19 3319 
L 600 3319 
L 1128 1403 
L 1325 691 
Q 1338 744 1497 1375 
L 2025 3319 
L 2603 3319 
L 3100 1394 
L 3266 759 
L 3456 1400 
L 4025 3319 
L 4572 3319 
L 3534 0 
L 2950 0 
L 2422 1988 
L 2294 2553 
L 1622 0 
L 1034 0 
z
" transform="scale(0.015625)"/>
       <path id="ArialMT-20" transform="scale(0.015625)"/>
       <path id="ArialMT-4e" d="M 488 0 
L 488 4581 
L 1109 4581 
L 3516 984 
L 3516 4581 
L 4097 4581 
L 4097 0 
L 3475 0 
L 1069 3600 
L 1069 0 
L 488 0 
z
" transform="scale(0.015625)"/>
       <path id="ArialMT-2e" d="M 581 0 
L 581 641 
L 1222 641 
L 1222 0 
L 581 0 
z
" transform="scale(0.015625)"/>
      </defs>
      <use xlink:href="#ArialMT-57"/>
      <use xlink:href="#ArialMT-69" x="94.384766"/>
      <use xlink:href="#ArialMT-6e" x="116.601562"/>
      <use xlink:href="#ArialMT-64" x="172.216797"/>
      <use xlink:href="#ArialMT-6f" x="227.832031"/>
      <use xlink:href="#ArialMT-77" x="283.447266"/>
      <use xlink:href="#ArialMT-20" x="355.664062"/>
      <use xlink:href="#ArialMT-4e" x="383.447266"/>
      <use xlink:href="#ArialMT-6f" x="455.664062"/>
      <use xlink:href="#ArialMT-2e" x="511.279297"/>
     </g>
    </g>
   </g>
   <g id="matplotlib.axis_2">
    <g id="ytick_1">
     <g id="line2d_10">
      <path d="M 59.792969 280.504819 
L 416.912969 280.504819 
" clip-path="url(#p5599280555)" style="fill: none; stroke: #cccccc; stroke-linecap: round"/>
     </g>
     <g id="text_11">
      <!-- −0.20 -->
      <g style="fill: #262626" transform="translate(22.46125 284.441616) scale(0.11 -0.11)">
       <defs>
        <path id="ArialMT-2212" d="M 3381 1997 
L 356 1997 
L 356 2522 
L 3381 2522 
L 3381 1997 
z
" transform="scale(0.015625)"/>
       </defs>
       <use xlink:href="#ArialMT-2212"/>
       <use xlink:href="#ArialMT-30" x="58.398438"/>
       <use xlink:href="#ArialMT-2e" x="114.013672"/>
       <use xlink:href="#ArialMT-32" x="141.796875"/>
       <use xlink:href="#ArialMT-30" x="197.412109"/>
      </g>
     </g>
    </g>
    <g id="ytick_2">
     <g id="line2d_11">
      <path d="M 59.792969 236.554178 
L 416.912969 236.554178 
" clip-path="url(#p5599280555)" style="fill: none; stroke: #cccccc; stroke-linecap: round"/>
     </g>
     <g id="text_12">
      <!-- −0.15 -->
      <g style="fill: #262626" transform="translate(22.46125 240.490974) scale(0.11 -0.11)">
       <use xlink:href="#ArialMT-2212"/>
       <use xlink:href="#ArialMT-30" x="58.398438"/>
       <use xlink:href="#ArialMT-2e" x="114.013672"/>
       <use xlink:href="#ArialMT-31" x="141.796875"/>
       <use xlink:href="#ArialMT-35" x="197.412109"/>
      </g>
     </g>
    </g>
    <g id="ytick_3">
     <g id="line2d_12">
      <path d="M 59.792969 192.603536 
L 416.912969 192.603536 
" clip-path="url(#p5599280555)" style="fill: none; stroke: #cccccc; stroke-linecap: round"/>
     </g>
     <g id="text_13">
      <!-- −0.10 -->
      <g style="fill: #262626" transform="translate(22.46125 196.540333) scale(0.11 -0.11)">
       <use xlink:href="#ArialMT-2212"/>
       <use xlink:href="#ArialMT-30" x="58.398438"/>
       <use xlink:href="#ArialMT-2e" x="114.013672"/>
       <use xlink:href="#ArialMT-31" x="141.796875"/>
       <use xlink:href="#ArialMT-30" x="197.412109"/>
      </g>
     </g>
    </g>
    <g id="ytick_4">
     <g id="line2d_13">
      <path d="M 59.792969 148.652895 
L 416.912969 148.652895 
" clip-path="url(#p5599280555)" style="fill: none; stroke: #cccccc; stroke-linecap: round"/>
     </g>
     <g id="text_14">
      <!-- −0.05 -->
      <g style="fill: #262626" transform="translate(22.46125 152.589691) scale(0.11 -0.11)">
       <use xlink:href="#ArialMT-2212"/>
       <use xlink:href="#ArialMT-30" x="58.398438"/>
       <use xlink:href="#ArialMT-2e" x="114.013672"/>
       <use xlink:href="#ArialMT-30" x="141.796875"/>
       <use xlink:href="#ArialMT-35" x="197.412109"/>
      </g>
     </g>
    </g>
    <g id="ytick_5">
     <g id="line2d_14">
      <path d="M 59.792969 104.702253 
L 416.912969 104.702253 
" clip-path="url(#p5599280555)" style="fill: none; stroke: #cccccc; stroke-linecap: round"/>
     </g>
     <g id="text_15">
      <!-- 0.00 -->
      <g style="fill: #262626" transform="translate(28.885938 108.63905) scale(0.11 -0.11)">
       <use xlink:href="#ArialMT-30"/>
       <use xlink:href="#ArialMT-2e" x="55.615234"/>
       <use xlink:href="#ArialMT-30" x="83.398438"/>
       <use xlink:href="#ArialMT-30" x="139.013672"/>
      </g>
     </g>
    </g>
    <g id="ytick_6">
     <g id="line2d_15">
      <path d="M 59.792969 60.751612 
L 416.912969 60.751612 
" clip-path="url(#p5599280555)" style="fill: none; stroke: #cccccc; stroke-linecap: round"/>
     </g>
     <g id="text_16">
      <!-- 0.05 -->
      <g style="fill: #262626" transform="translate(28.885938 64.688409) scale(0.11 -0.11)">
       <use xlink:href="#ArialMT-30"/>
       <use xlink:href="#ArialMT-2e" x="55.615234"/>
       <use xlink:href="#ArialMT-30" x="83.398438"/>
       <use xlink:href="#ArialMT-35" x="139.013672"/>
      </g>
     </g>
    </g>
    <g id="text_17">
     <!-- Hurst (Mean) -->
     <g style="fill: #262626" transform="translate(15.935625 189.84975) rotate(-90) scale(0.12 -0.12)">
      <defs>
       <path id="ArialMT-48" d="M 513 0 
L 513 4581 
L 1119 4581 
L 1119 2700 
L 3500 2700 
L 3500 4581 
L 4106 4581 
L 4106 0 
L 3500 0 
L 3500 2159 
L 1119 2159 
L 1119 0 
L 513 0 
z
" transform="scale(0.015625)"/>
       <path id="ArialMT-75" d="M 2597 0 
L 2597 488 
Q 2209 -75 1544 -75 
Q 1250 -75 995 37 
Q 741 150 617 320 
Q 494 491 444 738 
Q 409 903 409 1263 
L 409 3319 
L 972 3319 
L 972 1478 
Q 972 1038 1006 884 
Q 1059 663 1231 536 
Q 1403 409 1656 409 
Q 1909 409 2131 539 
Q 2353 669 2445 892 
Q 2538 1116 2538 1541 
L 2538 3319 
L 3100 3319 
L 3100 0 
L 2597 0 
z
" transform="scale(0.015625)"/>
       <path id="ArialMT-72" d="M 416 0 
L 416 3319 
L 922 3319 
L 922 2816 
Q 1116 3169 1280 3281 
Q 1444 3394 1641 3394 
Q 1925 3394 2219 3213 
L 2025 2691 
Q 1819 2813 1613 2813 
Q 1428 2813 1281 2702 
Q 1134 2591 1072 2394 
Q 978 2094 978 1738 
L 978 0 
L 416 0 
z
" transform="scale(0.015625)"/>
       <path id="ArialMT-73" d="M 197 991 
L 753 1078 
Q 800 744 1014 566 
Q 1228 388 1613 388 
Q 2000 388 2187 545 
Q 2375 703 2375 916 
Q 2375 1106 2209 1216 
Q 2094 1291 1634 1406 
Q 1016 1563 777 1677 
Q 538 1791 414 1992 
Q 291 2194 291 2438 
Q 291 2659 392 2848 
Q 494 3038 669 3163 
Q 800 3259 1026 3326 
Q 1253 3394 1513 3394 
Q 1903 3394 2198 3281 
Q 2494 3169 2634 2976 
Q 2775 2784 2828 2463 
L 2278 2388 
Q 2241 2644 2061 2787 
Q 1881 2931 1553 2931 
Q 1166 2931 1000 2803 
Q 834 2675 834 2503 
Q 834 2394 903 2306 
Q 972 2216 1119 2156 
Q 1203 2125 1616 2013 
Q 2213 1853 2448 1751 
Q 2684 1650 2818 1456 
Q 2953 1263 2953 975 
Q 2953 694 2789 445 
Q 2625 197 2315 61 
Q 2006 -75 1616 -75 
Q 969 -75 630 194 
Q 291 463 197 991 
z
" transform="scale(0.015625)"/>
       <path id="ArialMT-74" d="M 1650 503 
L 1731 6 
Q 1494 -44 1306 -44 
Q 1000 -44 831 53 
Q 663 150 594 308 
Q 525 466 525 972 
L 525 2881 
L 113 2881 
L 113 3319 
L 525 3319 
L 525 4141 
L 1084 4478 
L 1084 3319 
L 1650 3319 
L 1650 2881 
L 1084 2881 
L 1084 941 
Q 1084 700 1114 631 
Q 1144 563 1211 522 
Q 1278 481 1403 481 
Q 1497 481 1650 503 
z
" transform="scale(0.015625)"/>
       <path id="ArialMT-28" d="M 1497 -1347 
Q 1031 -759 709 28 
Q 388 816 388 1659 
Q 388 2403 628 3084 
Q 909 3875 1497 4659 
L 1900 4659 
Q 1522 4009 1400 3731 
Q 1209 3300 1100 2831 
Q 966 2247 966 1656 
Q 966 153 1900 -1347 
L 1497 -1347 
z
" transform="scale(0.015625)"/>
       <path id="ArialMT-4d" d="M 475 0 
L 475 4581 
L 1388 4581 
L 2472 1338 
Q 2622 884 2691 659 
Q 2769 909 2934 1394 
L 4031 4581 
L 4847 4581 
L 4847 0 
L 4263 0 
L 4263 3834 
L 2931 0 
L 2384 0 
L 1059 3900 
L 1059 0 
L 475 0 
z
" transform="scale(0.015625)"/>
       <path id="ArialMT-65" d="M 2694 1069 
L 3275 997 
Q 3138 488 2766 206 
Q 2394 -75 1816 -75 
Q 1088 -75 661 373 
Q 234 822 234 1631 
Q 234 2469 665 2931 
Q 1097 3394 1784 3394 
Q 2450 3394 2872 2941 
Q 3294 2488 3294 1666 
Q 3294 1616 3291 1516 
L 816 1516 
Q 847 969 1125 678 
Q 1403 388 1819 388 
Q 2128 388 2347 550 
Q 2566 713 2694 1069 
z
M 847 1978 
L 2700 1978 
Q 2663 2397 2488 2606 
Q 2219 2931 1791 2931 
Q 1403 2931 1139 2672 
Q 875 2413 847 1978 
z
" transform="scale(0.015625)"/>
       <path id="ArialMT-61" d="M 2588 409 
Q 2275 144 1986 34 
Q 1697 -75 1366 -75 
Q 819 -75 525 192 
Q 231 459 231 875 
Q 231 1119 342 1320 
Q 453 1522 633 1644 
Q 813 1766 1038 1828 
Q 1203 1872 1538 1913 
Q 2219 1994 2541 2106 
Q 2544 2222 2544 2253 
Q 2544 2597 2384 2738 
Q 2169 2928 1744 2928 
Q 1347 2928 1158 2789 
Q 969 2650 878 2297 
L 328 2372 
Q 403 2725 575 2942 
Q 747 3159 1072 3276 
Q 1397 3394 1825 3394 
Q 2250 3394 2515 3294 
Q 2781 3194 2906 3042 
Q 3031 2891 3081 2659 
Q 3109 2516 3109 2141 
L 3109 1391 
Q 3109 606 3145 398 
Q 3181 191 3288 0 
L 2700 0 
Q 2613 175 2588 409 
z
M 2541 1666 
Q 2234 1541 1622 1453 
Q 1275 1403 1131 1340 
Q 988 1278 909 1158 
Q 831 1038 831 891 
Q 831 666 1001 516 
Q 1172 366 1500 366 
Q 1825 366 2078 508 
Q 2331 650 2450 897 
Q 2541 1088 2541 1459 
L 2541 1666 
z
" transform="scale(0.015625)"/>
       <path id="ArialMT-29" d="M 791 -1347 
L 388 -1347 
Q 1322 153 1322 1656 
Q 1322 2244 1188 2822 
Q 1081 3291 891 3722 
Q 769 4003 388 4659 
L 791 4659 
Q 1378 3875 1659 3084 
Q 1900 2403 1900 1659 
Q 1900 816 1576 28 
Q 1253 -759 791 -1347 
z
" transform="scale(0.015625)"/>
      </defs>
      <use xlink:href="#ArialMT-48"/>
      <use xlink:href="#ArialMT-75" x="72.216797"/>
      <use xlink:href="#ArialMT-72" x="127.832031"/>
      <use xlink:href="#ArialMT-73" x="161.132812"/>
      <use xlink:href="#ArialMT-74" x="211.132812"/>
      <use xlink:href="#ArialMT-20" x="238.916016"/>
      <use xlink:href="#ArialMT-28" x="266.699219"/>
      <use xlink:href="#ArialMT-4d" x="300"/>
      <use xlink:href="#ArialMT-65" x="383.300781"/>
      <use xlink:href="#ArialMT-61" x="438.916016"/>
      <use xlink:href="#ArialMT-6e" x="494.53125"/>
      <use xlink:href="#ArialMT-29" x="550.146484"/>
     </g>
    </g>
   </g>
   <g id="PolyCollection_1"/>
   <g id="PolyCollection_2"/>
   <g id="PolyCollection_3"/>
   <g id="PolyCollection_4"/>
   <g id="PolyCollection_5"/>
   <g id="PolyCollection_6"/>
   <g id="PolyCollection_7"/>
   <g id="PolyCollection_8"/>
   <g id="PolyCollection_9"/>
   <g id="PolyCollection_10"/>
   <g id="PolyCollection_11"/>
   <g id="PolyCollection_12"/>
   <g id="PolyCollection_13"/>
   <g id="PolyCollection_14"/>
   <g id="PolyCollection_15"/>
   <g id="line2d_16">
    <path d="M 76.025696 274.187039 
L 77.707844 275.805375 
L 79.389992 274.477532 
L 81.07214 259.553483 
L 82.754288 249.216088 
L 84.436436 255.698857 
L 86.118583 260.761152 
L 87.800731 261.731083 
L 89.482879 257.445423 
L 91.165027 239.527379 
L 92.847175 252.589303 
L 94.529323 252.318004 
L 96.211471 243.874142 
L 97.893619 240.68466 
L 99.575767 245.526005 
L 101.257915 244.20273 
L 102.940062 259.674676 
L 104.62221 250.396339 
L 106.304358 243.603011 
L 107.986506 236.187243 
L 109.668654 247.566534 
L 111.350802 241.75209 
L 113.03295 225.35133 
L 114.715098 219.211001 
L 116.397246 224.382103 
L 118.079394 233.389486 
L 119.761542 233.778841 
L 121.443689 82.11499 
L 123.125837 72.324709 
L 124.807985 73.856689 
L 126.490133 78.080368 
L 128.172281 66.465662 
L 129.854429 77.437291 
L 131.536577 78.76709 
L 133.218725 81.482349 
L 134.900873 79.995989 
L 136.583021 68.69795 
L 138.265168 67.427937 
L 139.947316 60.996794 
L 141.629464 58.152681 
L 143.311612 65.118886 
L 144.99376 66.509221 
L 146.675908 70.322248 
L 148.358056 56.731338 
L 150.040204 67.256603 
L 151.722352 72.79807 
L 153.4045 73.322285 
L 155.086648 78.994969 
L 156.768795 70.887438 
L 158.450943 68.231521 
L 160.133091 70.272219 
L 161.815239 59.58227 
L 163.497387 55.339099 
L 165.179535 57.874272 
L 166.861683 69.17587 
L 168.543831 71.07385 
L 170.225979 64.711123 
L 171.908127 56.661229 
L 173.590274 43.07882 
L 175.272422 58.020699 
L 176.95457 71.062569 
L 178.636718 69.907918 
L 180.318866 82.116728 
L 182.001014 79.019105 
L 183.683162 81.398464 
L 185.36531 83.13613 
L 187.047458 77.521283 
L 188.729606 75.821603 
L 190.411753 81.079566 
L 192.093901 89.672839 
L 193.776049 94.079497 
L 195.458197 87.308688 
L 197.140345 85.177301 
L 198.822493 89.731653 
L 200.504641 104.441567 
L 203.868937 84.334188 
L 205.551085 87.792284 
L 207.233233 89.462327 
L 208.91538 88.036053 
L 210.597528 87.170126 
L 212.279676 83.011156 
L 213.961824 79.682052 
L 215.643972 75.119797 
L 217.32612 71.008047 
L 219.008268 62.212065 
L 220.690416 61.895749 
L 222.372564 66.283213 
L 224.054712 64.165337 
L 225.736859 64.124176 
L 227.419007 55.285174 
L 229.101155 51.167644 
L 230.783303 59.254493 
L 232.465451 61.847689 
L 234.147599 63.417923 
L 235.829747 63.431187 
L 237.511895 60.867938 
L 239.194043 63.621382 
L 240.876191 76.01936 
L 242.558339 82.057186 
L 244.240486 73.297648 
L 245.922634 74.568386 
L 247.604782 75.339408 
L 249.28693 74.958573 
L 250.969078 79.470646 
L 252.651226 73.356008 
L 254.333374 71.329545 
L 256.015522 70.764074 
L 257.69767 76.765992 
L 259.379818 84.867407 
L 261.061965 82.244432 
L 262.744113 83.889803 
L 264.426261 83.167191 
L 266.108409 87.716198 
L 267.790557 89.474291 
L 269.472705 81.247488 
L 271.154853 77.41088 
L 272.837001 75.931545 
L 274.519149 78.837754 
L 276.201297 83.938772 
L 277.883444 85.263625 
L 279.565592 82.201085 
L 281.24774 84.169705 
L 282.929888 76.74536 
L 284.612036 63.28461 
L 286.294184 51.776857 
L 287.976332 48.8355 
L 289.65848 53.728843 
L 291.340628 56.97475 
L 293.022776 59.976912 
L 294.704924 55.652301 
L 296.387071 51.803625 
L 298.069219 58.955273 
L 299.751367 64.907693 
L 301.433515 73.663437 
L 303.115663 72.433308 
L 304.797811 69.008335 
L 306.479959 72.401306 
L 308.162107 76.568024 
L 309.844255 83.389374 
L 311.526403 87.127519 
L 313.20855 77.819906 
L 314.890698 66.596893 
L 316.572846 62.931534 
L 318.254994 65.020023 
L 319.937142 72.277452 
L 321.61929 75.793159 
L 323.301438 78.618581 
L 324.983586 76.569147 
L 326.665734 79.606167 
L 328.347882 95.379545 
L 330.03003 100.7994 
L 331.712177 102.098978 
L 333.394325 92.948277 
L 335.076473 96.86716 
L 336.758621 104.14031 
L 338.440769 91.695665 
L 340.122917 92.360725 
L 341.805065 95.862064 
L 343.487213 97.618943 
L 345.169361 94.588962 
L 346.851509 85.580773 
L 350.215804 90.764364 
L 351.897952 104.066421 
L 353.5801 110.345808 
L 355.262248 101.021317 
L 356.944396 112.999842 
L 358.626544 122.736817 
L 360.308692 131.059324 
L 361.99084 137.670906 
L 363.672988 130.229705 
L 365.355135 129.235681 
L 367.037283 127.374953 
L 368.719431 122.349123 
L 370.401579 125.85251 
L 372.083727 125.031057 
L 373.765875 126.917067 
L 375.448023 116.923207 
L 377.130171 130.952758 
L 378.812319 143.541156 
L 380.494467 139.237042 
L 382.176615 137.590933 
L 385.54091 110.894731 
L 387.223058 116.411708 
L 388.905206 105.268147 
L 390.587354 101.270819 
L 392.269502 90.70393 
L 393.95165 74.668384 
L 395.633798 55.445259 
L 397.315946 51.448177 
L 398.998094 56.83061 
L 400.680241 66.122445 
L 400.680241 66.122445 
" clip-path="url(#p5599280555)" style="fill: none; stroke: #f77189; stroke-width: 1.5; stroke-linecap: round"/>
   </g>
   <g id="line2d_17">
    <path d="M 76.025696 91.262049 
L 77.707844 93.450607 
L 79.389992 84.167415 
L 81.07214 104.833211 
L 82.754288 98.976825 
L 84.436436 89.556542 
L 86.118583 113.765678 
L 87.800731 92.617173 
L 89.482879 83.171209 
L 91.165027 75.115346 
L 92.847175 72.388241 
L 94.529323 78.084802 
L 96.211471 79.836096 
L 97.893619 81.478954 
L 99.575767 86.082906 
L 101.257915 102.151247 
L 102.940062 109.381652 
L 104.62221 102.580387 
L 106.304358 111.753707 
L 107.986506 82.90542 
L 109.668654 63.171672 
L 111.350802 79.176038 
L 113.03295 88.524187 
L 114.715098 94.212851 
L 116.397246 103.284951 
L 118.079394 93.498288 
L 119.761542 103.990285 
L 121.443689 101.915927 
L 123.125837 98.795405 
L 124.807985 92.578113 
L 126.490133 82.057759 
L 128.172281 97.10106 
L 129.854429 105.173419 
L 131.536577 102.874143 
L 133.218725 83.612049 
L 134.900873 64.296911 
L 136.583021 93.130873 
L 138.265168 94.752664 
L 139.947316 92.163681 
L 141.629464 92.46007 
L 143.311612 74.892766 
L 144.99376 81.37106 
L 146.675908 95.384572 
L 148.358056 99.052928 
L 150.040204 107.423822 
L 151.722352 101.906682 
L 153.4045 118.777413 
L 155.086648 108.378702 
L 156.768795 95.768201 
L 158.450943 98.192928 
L 160.133091 92.694701 
L 161.815239 105.812561 
L 163.497387 109.85751 
L 165.179535 108.156753 
L 166.861683 96.789248 
L 168.543831 81.138628 
L 170.225979 101.125187 
L 171.908127 107.574905 
L 173.590274 98.597268 
L 175.272422 97.072773 
L 176.95457 80.193839 
L 178.636718 95.49797 
L 180.318866 106.666779 
L 182.001014 103.741088 
L 183.683162 111.719298 
L 185.36531 113.382925 
L 187.047458 128.546069 
L 188.729606 127.62487 
L 190.411753 125.379456 
L 192.093901 125.861243 
L 193.776049 112.588555 
L 195.458197 122.724297 
L 197.140345 127.755505 
L 198.822493 132.61024 
L 200.504641 143.173031 
L 202.186789 128.97737 
L 203.868937 127.95678 
L 205.551085 124.876237 
L 207.233233 127.320463 
L 208.91538 125.251106 
L 210.597528 121.96414 
L 212.279676 136.168138 
L 213.961824 135.364927 
L 215.643972 130.64091 
L 217.32612 124.11642 
L 219.008268 119.99478 
L 220.690416 129.850956 
L 222.372564 135.326116 
L 224.054712 131.15661 
L 225.736859 132.633293 
L 227.419007 130.481897 
L 229.101155 130.070969 
L 230.783303 147.394845 
" clip-path="url(#p5599280555)" style="fill: none; stroke: #f37a32; stroke-width: 1.5; stroke-linecap: round"/>
   </g>
   <g id="line2d_18">
    <path d="M 76.025696 181.745976 
L 77.707844 172.505342 
L 79.389992 174.057238 
L 81.07214 173.493123 
L 82.754288 166.308945 
L 84.436436 163.60735 
L 86.118583 164.418885 
L 87.800731 173.335708 
L 89.482879 171.188204 
L 91.165027 166.445781 
L 92.847175 157.174625 
L 94.529323 133.6516 
L 96.211471 136.419313 
L 97.893619 134.330524 
L 99.575767 138.468983 
L 101.257915 144.497838 
L 102.940062 138.440783 
L 104.62221 138.989474 
L 106.304358 132.652647 
L 107.986506 117.12833 
L 109.668654 116.606814 
L 111.350802 106.561777 
L 113.03295 107.081476 
L 114.715098 93.979014 
L 116.397246 88.226716 
L 118.079394 88.612872 
L 119.761542 80.386148 
L 121.443689 82.447398 
L 123.125837 83.681073 
L 124.807985 70.434193 
L 126.490133 60.046932 
L 128.172281 53.208869 
L 129.854429 57.490736 
L 131.536577 56.885602 
L 133.218725 60.051177 
L 134.900873 59.992351 
L 136.583021 55.302888 
L 138.265168 64.511219 
L 139.947316 72.190722 
L 141.629464 74.407746 
L 143.311612 68.653405 
L 144.99376 69.214276 
L 146.675908 78.099133 
L 148.358056 80.199016 
L 150.040204 81.298575 
L 151.722352 79.553557 
L 153.4045 75.401491 
L 155.086648 81.622625 
L 156.768795 87.498289 
L 158.450943 91.272577 
L 160.133091 85.638787 
L 161.815239 71.419073 
L 163.497387 74.789923 
L 165.179535 81.047552 
L 166.861683 77.853046 
L 168.543831 75.378281 
L 170.225979 72.103427 
L 171.908127 72.745945 
L 173.590274 74.248453 
L 175.272422 72.575798 
L 176.95457 69.080684 
L 178.636718 58.195085 
L 180.318866 65.990408 
L 182.001014 72.37201 
L 183.683162 71.338276 
L 185.36531 77.538999 
L 187.047458 85.583929 
L 188.729606 98.160121 
L 190.411753 101.886181 
L 192.093901 98.240854 
L 193.776049 104.611183 
L 195.458197 108.262986 
L 197.140345 115.617286 
L 198.822493 118.0154 
L 200.504641 110.053008 
L 202.186789 109.056615 
L 203.868937 102.331296 
L 205.551085 113.476472 
L 207.233233 117.593434 
L 208.91538 116.180111 
L 210.597528 114.843944 
L 212.279676 110.076446 
L 213.961824 119.598213 
L 215.643972 123.898082 
L 217.32612 124.18679 
L 219.008268 127.433604 
L 220.690416 124.21694 
L 222.372564 128.343888 
L 224.054712 126.064092 
L 225.736859 130.970982 
L 227.419007 139.865634 
L 229.101155 142.928611 
L 230.783303 149.718362 
" clip-path="url(#p5599280555)" style="fill: none; stroke: #ca9232; stroke-width: 1.5; stroke-linecap: round"/>
   </g>
   <g id="line2d_19">
    <path d="M 76.025696 124.926409 
L 77.707844 113.711878 
L 79.389992 124.991888 
L 81.07214 104.841121 
L 82.754288 106.089826 
L 84.436436 105.90642 
L 86.118583 106.233548 
L 87.800731 118.704639 
L 89.482879 116.527897 
L 91.165027 112.00936 
L 92.847175 105.14669 
L 94.529323 108.704889 
L 96.211471 117.572526 
L 97.893619 106.6281 
L 99.575767 107.439825 
L 101.257915 102.088796 
L 102.940062 98.845024 
L 104.62221 101.58003 
L 106.304358 92.43416 
L 107.986506 94.639292 
L 109.668654 101.851993 
L 111.350802 100.446061 
L 113.03295 99.831582 
L 114.715098 84.2658 
L 116.397246 80.307967 
L 118.079394 91.37604 
L 119.761542 102.55054 
L 121.443689 102.010788 
" clip-path="url(#p5599280555)" style="fill: none; stroke: #ae9d31; stroke-width: 1.5; stroke-linecap: round"/>
   </g>
   <g id="line2d_20">
    <path d="M 76.025696 87.403974 
L 77.707844 81.810924 
L 79.389992 77.177256 
L 81.07214 81.648452 
L 82.754288 89.003076 
L 84.436436 84.754407 
L 86.118583 90.896428 
L 87.800731 94.678842 
L 89.482879 93.777241 
L 91.165027 106.092445 
L 92.847175 101.029423 
L 94.529323 93.03151 
L 96.211471 89.558117 
L 97.893619 89.681859 
L 99.575767 89.949365 
L 101.257915 93.646021 
L 102.940062 94.715064 
L 104.62221 96.352524 
L 106.304358 110.365873 
L 107.986506 117.692692 
L 109.668654 103.849075 
L 111.350802 107.168963 
L 113.03295 109.205606 
L 114.715098 113.716307 
L 116.397246 139.85106 
L 118.079394 155.039405 
L 119.761542 167.163465 
L 121.443689 172.403713 
" clip-path="url(#p5599280555)" style="fill: none; stroke: #8ea631; stroke-width: 1.5; stroke-linecap: round"/>
   </g>
   <g id="line2d_21">
    <path d="M 76.025696 166.308741 
L 77.707844 164.076996 
L 79.389992 147.315561 
L 81.07214 146.766017 
L 82.754288 145.407359 
L 84.436436 150.441901 
L 86.118583 155.313289 
L 87.800731 143.29902 
L 89.482879 145.072768 
L 91.165027 137.607272 
L 92.847175 139.064605 
L 94.529323 141.795599 
L 96.211471 136.692773 
L 97.893619 133.048356 
L 99.575767 127.640796 
L 101.257915 121.578545 
L 102.940062 125.443684 
L 104.62221 122.512763 
L 106.304358 132.517948 
L 107.986506 128.693063 
L 109.668654 133.285991 
L 111.350802 132.619865 
L 113.03295 118.601061 
L 114.715098 117.421068 
L 116.397246 111.199191 
L 118.079394 112.727385 
L 119.761542 118.354446 
L 121.443689 114.395306 
L 123.125837 113.895491 
L 124.807985 107.933485 
L 126.490133 116.458861 
L 128.172281 113.145738 
L 129.854429 104.215975 
L 131.536577 111.186592 
L 133.218725 105.93524 
L 134.900873 113.805885 
L 136.583021 126.051235 
L 138.265168 113.391636 
L 139.947316 125.397753 
L 141.629464 127.47657 
L 143.311612 131.574932 
L 144.99376 137.098259 
L 146.675908 132.550649 
L 148.358056 123.215891 
L 150.040204 109.923534 
L 151.722352 112.353307 
L 153.4045 107.457538 
L 155.086648 102.108038 
L 156.768795 110.094157 
L 158.450943 102.791642 
L 160.133091 96.301261 
L 161.815239 90.20446 
L 163.497387 76.963905 
L 165.179535 64.733359 
L 166.861683 64.372982 
L 168.543831 63.117132 
L 170.225979 67.482477 
L 171.908127 67.383399 
L 173.590274 71.338373 
L 175.272422 59.94129 
L 176.95457 58.41188 
L 178.636718 59.866108 
L 180.318866 66.035117 
L 182.001014 79.723902 
L 183.683162 82.30098 
L 185.36531 83.102916 
L 187.047458 94.866247 
L 188.729606 86.699384 
L 190.411753 86.645056 
L 192.093901 93.837845 
L 193.776049 101.053263 
L 195.458197 97.474675 
L 197.140345 92.754737 
L 198.822493 89.195927 
L 200.504641 86.376324 
L 202.186789 81.131469 
L 203.868937 81.395731 
L 205.551085 81.086532 
L 207.233233 90.549366 
L 208.91538 86.583847 
L 210.597528 83.427789 
L 212.279676 79.728969 
L 213.961824 84.450743 
L 215.643972 75.096809 
L 217.32612 72.950514 
L 219.008268 71.983376 
L 220.690416 74.344808 
L 222.372564 73.706139 
L 224.054712 72.970435 
L 225.736859 70.921608 
L 227.419007 80.289593 
L 229.101155 88.197202 
L 230.783303 91.047839 
" clip-path="url(#p5599280555)" style="fill: none; stroke: #50b131; stroke-width: 1.5; stroke-linecap: round"/>
   </g>
   <g id="line2d_22">
    <path d="M 76.025696 118.803365 
L 77.707844 116.983591 
L 79.389992 116.48191 
L 81.07214 98.055509 
L 82.754288 101.52858 
L 84.436436 92.139883 
L 86.118583 83.457833 
L 87.800731 95.486167 
L 89.482879 69.945367 
L 91.165027 74.042722 
L 92.847175 76.880429 
L 94.529323 76.399753 
L 96.211471 89.835579 
L 97.893619 103.093688 
L 99.575767 113.161136 
L 101.257915 103.723365 
L 102.940062 103.08841 
L 104.62221 136.992761 
L 106.304358 120.737736 
L 107.986506 134.093612 
L 109.668654 136.947709 
L 111.350802 122.551868 
L 113.03295 116.581771 
L 114.715098 111.841331 
" clip-path="url(#p5599280555)" style="fill: none; stroke: #33b07a; stroke-width: 1.5; stroke-linecap: round"/>
   </g>
   <g id="line2d_23">
    <path d="M 76.025696 68.725713 
L 77.707844 76.192889 
L 79.389992 70.365152 
L 81.07214 70.572876 
L 82.754288 78.101111 
L 84.436436 82.364399 
L 86.118583 87.491201 
L 87.800731 83.16145 
L 89.482879 96.046251 
L 91.165027 88.209435 
L 92.847175 91.057326 
L 94.529323 113.149105 
L 96.211471 115.175072 
L 97.893619 113.410631 
L 99.575767 108.426174 
L 101.257915 98.823884 
L 102.940062 99.129781 
L 104.62221 95.762155 
L 106.304358 110.70757 
L 107.986506 116.895842 
L 109.668654 113.221401 
L 111.350802 119.175604 
L 113.03295 121.14831 
L 114.715098 123.532886 
L 116.397246 132.128094 
L 118.079394 132.563205 
L 119.761542 144.044874 
L 121.443689 132.733259 
L 123.125837 120.820689 
L 124.807985 113.562408 
L 126.490133 118.404657 
L 128.172281 130.403981 
L 129.854429 140.991118 
L 131.536577 153.229358 
L 133.218725 149.401116 
L 134.900873 138.474155 
L 136.583021 152.557111 
L 138.265168 159.624986 
L 139.947316 165.337394 
L 141.629464 158.391538 
L 143.311612 154.010184 
L 144.99376 159.186071 
L 146.675908 156.607645 
L 148.358056 158.356475 
L 150.040204 163.782534 
L 151.722352 150.625577 
L 153.4045 147.850647 
L 155.086648 145.78863 
L 156.768795 145.881659 
L 158.450943 130.377552 
L 160.133091 122.284995 
L 161.815239 122.619432 
L 163.497387 110.539611 
L 165.179535 116.801591 
L 166.861683 119.868468 
L 168.543831 105.138726 
L 170.225979 96.710371 
L 171.908127 92.055304 
L 173.590274 85.173773 
L 175.272422 81.16068 
L 176.95457 76.595939 
L 178.636718 79.299801 
L 180.318866 85.038246 
L 182.001014 83.180592 
L 183.683162 77.514491 
L 185.36531 73.982958 
L 187.047458 76.735622 
L 188.729606 87.678923 
L 190.411753 94.268409 
L 192.093901 87.522634 
L 193.776049 70.930687 
L 195.458197 73.347322 
L 197.140345 83.223572 
L 198.822493 81.563882 
L 200.504641 73.771131 
L 202.186789 65.670904 
L 203.868937 73.938239 
L 205.551085 83.793039 
L 207.233233 88.046662 
L 208.91538 87.748758 
L 210.597528 81.454975 
L 212.279676 77.370112 
L 213.961824 78.210739 
L 215.643972 79.630527 
L 217.32612 73.002152 
L 219.008268 74.562782 
L 220.690416 83.366188 
L 222.372564 83.051247 
L 224.054712 77.247465 
L 225.736859 80.170418 
L 227.419007 67.56845 
L 229.101155 64.122624 
L 230.783303 65.365965 
" clip-path="url(#p5599280555)" style="fill: none; stroke: #35ae99; stroke-width: 1.5; stroke-linecap: round"/>
   </g>
   <g id="line2d_24">
    <path d="M 76.025696 155.876832 
L 77.707844 145.426135 
L 79.389992 145.887106 
L 81.07214 140.347115 
L 82.754288 140.096009 
L 84.436436 146.778778 
L 86.118583 138.070603 
L 87.800731 134.90674 
L 89.482879 135.645183 
L 91.165027 144.188551 
L 92.847175 142.917305 
L 94.529323 134.942302 
L 96.211471 139.816439 
L 97.893619 132.204397 
L 99.575767 137.397111 
L 101.257915 138.7456 
L 102.940062 140.212199 
L 104.62221 138.343055 
L 106.304358 139.168482 
L 107.986506 144.44678 
L 109.668654 144.752247 
L 111.350802 145.330411 
L 113.03295 144.708022 
L 114.715098 140.233967 
L 116.397246 122.52671 
L 118.079394 111.231116 
L 119.761542 122.557337 
L 121.443689 127.658323 
L 123.125837 131.419702 
L 124.807985 133.098091 
L 126.490133 134.078714 
L 128.172281 118.014811 
L 129.854429 113.52829 
L 131.536577 109.603637 
L 133.218725 113.900875 
L 134.900873 117.080088 
L 136.583021 113.222947 
L 138.265168 116.573779 
L 139.947316 125.007741 
L 141.629464 125.295018 
L 143.311612 124.132554 
L 144.99376 123.783725 
L 146.675908 120.160013 
L 148.358056 104.810252 
L 150.040204 108.461162 
L 151.722352 100.783553 
L 153.4045 95.082916 
L 155.086648 93.956589 
L 156.768795 98.147332 
L 158.450943 94.287075 
L 160.133091 91.426924 
L 161.815239 88.844068 
L 163.497387 85.088486 
L 165.179535 78.131908 
L 166.861683 81.337591 
L 168.543831 78.918994 
L 170.225979 80.85249 
L 171.908127 76.958323 
L 173.590274 86.517751 
L 175.272422 91.252411 
L 176.95457 95.53843 
L 178.636718 95.637727 
L 180.318866 102.247332 
L 182.001014 100.644658 
L 183.683162 99.18411 
L 185.36531 95.345808 
L 187.047458 93.848954 
L 188.729606 92.022529 
L 190.411753 89.500871 
L 192.093901 87.143315 
L 193.776049 86.26844 
L 195.458197 80.344673 
L 197.140345 80.52845 
L 198.822493 76.846243 
L 200.504641 66.598421 
L 202.186789 63.964346 
L 203.868937 62.294997 
L 205.551085 60.768769 
L 207.233233 60.897901 
L 208.91538 64.057291 
L 210.597528 69.247294 
L 212.279676 58.533398 
L 213.961824 51.496888 
L 215.643972 46.950109 
L 217.32612 45.52633 
L 219.008268 50.875774 
L 220.690416 50.569407 
L 222.372564 60.335668 
L 224.054712 65.358146 
L 225.736859 69.948788 
L 227.419007 86.19597 
L 229.101155 100.240811 
L 230.783303 100.17503 
" clip-path="url(#p5599280555)" style="fill: none; stroke: #36acae; stroke-width: 1.5; stroke-linecap: round"/>
   </g>
   <g id="line2d_25">
    <path d="M 76.025696 61.802212 
L 77.707844 56.303273 
L 79.389992 66.968579 
L 81.07214 62.037912 
L 82.754288 52.849529 
L 84.436436 50.393605 
L 86.118583 33.885375 
L 87.800731 41.005167 
L 89.482879 52.28103 
L 91.165027 57.802828 
L 92.847175 66.162597 
L 94.529323 59.76322 
L 96.211471 60.131316 
L 97.893619 57.035325 
L 99.575767 59.058879 
L 101.257915 70.297161 
L 102.940062 71.731209 
L 104.62221 77.990374 
L 106.304358 76.014844 
L 107.986506 75.711795 
L 109.668654 77.401438 
L 111.350802 74.374253 
L 113.03295 82.838123 
L 114.715098 86.932991 
L 116.397246 86.997568 
L 118.079394 80.529949 
L 119.761542 78.522015 
L 121.443689 75.882401 
L 123.125837 71.534935 
L 124.807985 79.182647 
L 126.490133 77.763906 
L 128.172281 74.382872 
L 129.854429 73.743942 
L 131.536577 74.477122 
L 133.218725 75.804418 
L 134.900873 78.835454 
L 136.583021 92.192317 
L 138.265168 97.418168 
L 139.947316 92.539857 
L 141.629464 93.477148 
L 143.311612 95.18471 
L 144.99376 100.832281 
L 146.675908 107.074028 
L 148.358056 112.849692 
L 150.040204 120.946519 
L 151.722352 115.682158 
L 153.4045 106.762863 
L 155.086648 104.381904 
L 156.768795 104.91882 
L 158.450943 117.045665 
L 160.133091 126.854317 
L 161.815239 133.755156 
L 163.497387 134.499275 
L 165.179535 123.961196 
L 166.861683 125.15233 
L 168.543831 118.673238 
L 170.225979 116.655984 
L 171.908127 111.711062 
L 173.590274 100.759142 
L 175.272422 114.255974 
L 176.95457 119.222034 
L 178.636718 123.396694 
L 180.318866 118.656575 
L 182.001014 117.280586 
L 183.683162 136.623305 
L 185.36531 147.669498 
L 187.047458 153.427611 
L 188.729606 150.055948 
L 190.411753 150.315532 
L 192.093901 159.586427 
L 193.776049 154.897659 
L 195.458197 150.063077 
L 197.140345 165.916849 
L 198.822493 158.52363 
L 200.504641 155.159358 
L 202.186789 143.914365 
L 203.868937 138.093639 
L 205.551085 139.690084 
L 207.233233 136.038178 
L 208.91538 139.043488 
L 210.597528 139.840129 
L 212.279676 135.195923 
L 213.961824 137.043166 
L 215.643972 138.713316 
L 217.32612 149.927318 
L 219.008268 137.696827 
L 220.690416 129.23109 
L 222.372564 133.115796 
L 224.054712 131.223612 
L 225.736859 128.693256 
L 227.419007 140.666029 
L 229.101155 121.962975 
L 230.783303 130.411502 
" clip-path="url(#p5599280555)" style="fill: none; stroke: #38a9c5; stroke-width: 1.5; stroke-linecap: round"/>
   </g>
   <g id="line2d_26">
    <path d="M 76.025696 113.39139 
L 77.707844 102.906648 
L 79.389992 103.95268 
L 81.07214 112.121566 
L 82.754288 108.185033 
L 84.436436 111.811738 
L 86.118583 119.047369 
L 87.800731 109.93571 
L 89.482879 111.578895 
L 91.165027 101.611197 
L 92.847175 101.232434 
L 94.529323 103.206301 
L 96.211471 100.532734 
L 97.893619 96.321299 
L 99.575767 86.5065 
L 101.257915 94.168619 
L 102.940062 102.223298 
L 104.62221 102.625997 
L 106.304358 107.9834 
" clip-path="url(#p5599280555)" style="fill: none; stroke: #3ba3ec; stroke-width: 1.5; stroke-linecap: round"/>
   </g>
   <g id="line2d_27">
    <path d="M 76.025696 163.830317 
L 77.707844 159.030783 
L 79.389992 149.325024 
L 81.07214 136.560399 
L 82.754288 142.38056 
L 84.436436 163.024632 
L 86.118583 160.948647 
L 87.800731 153.672405 
L 89.482879 142.305338 
L 91.165027 138.536881 
L 92.847175 144.49753 
L 94.529323 146.273 
L 96.211471 134.209615 
L 97.893619 123.708026 
L 99.575767 125.732653 
L 101.257915 127.661456 
L 102.940062 126.456895 
L 104.62221 124.420205 
L 106.304358 121.700337 
L 107.986506 124.636466 
L 109.668654 129.038957 
L 111.350802 127.08195 
L 113.03295 127.757428 
L 114.715098 140.001549 
L 116.397246 147.210863 
L 118.079394 147.841175 
L 119.761542 138.856601 
L 121.443689 127.209768 
L 123.125837 131.033681 
L 124.807985 144.537569 
L 126.490133 147.565322 
L 128.172281 147.202549 
L 129.854429 151.170061 
L 131.536577 155.02377 
L 133.218725 150.980437 
L 134.900873 142.087305 
L 136.583021 134.432679 
L 138.265168 134.665101 
L 139.947316 142.948601 
L 141.629464 146.64259 
L 143.311612 146.21445 
L 144.99376 140.596018 
L 146.675908 125.357248 
L 148.358056 111.941398 
L 150.040204 106.235648 
L 151.722352 95.189639 
L 153.4045 82.897739 
L 155.086648 82.633511 
L 156.768795 89.686991 
L 158.450943 77.650597 
L 160.133091 75.799872 
L 161.815239 69.922052 
L 163.497387 62.452234 
L 165.179535 58.682792 
L 166.861683 63.280552 
L 168.543831 71.881182 
L 170.225979 72.694117 
L 171.908127 71.415757 
L 173.590274 86.815857 
L 175.272422 81.352794 
L 176.95457 78.145665 
L 178.636718 70.367425 
L 180.318866 72.608705 
L 182.001014 76.356523 
L 183.683162 67.105991 
L 185.36531 55.832989 
L 187.047458 59.187072 
L 188.729606 58.773228 
L 190.411753 70.128911 
L 192.093901 74.43048 
L 193.776049 76.868794 
L 195.458197 69.335397 
L 197.140345 73.483238 
L 198.822493 81.429339 
L 200.504641 70.32665 
L 202.186789 63.34405 
L 203.868937 57.257943 
L 205.551085 41.305168 
L 207.233233 49.265156 
L 208.91538 49.996738 
L 210.597528 56.521595 
L 212.279676 58.147155 
L 213.961824 60.457674 
L 215.643972 61.470672 
L 217.32612 54.46255 
L 219.008268 57.12634 
L 220.690416 60.073225 
L 222.372564 77.806515 
L 224.054712 106.54547 
L 225.736859 103.202606 
L 227.419007 114.978578 
L 229.101155 113.011724 
L 230.783303 103.056398 
" clip-path="url(#p5599280555)" style="fill: none; stroke: #9591f4; stroke-width: 1.5; stroke-linecap: round"/>
   </g>
   <g id="line2d_28">
    <path d="M 76.025696 119.418427 
L 77.707844 120.708847 
L 79.389992 99.810441 
L 81.07214 101.622057 
L 82.754288 107.693019 
L 84.436436 108.808781 
L 86.118583 104.468617 
L 87.800731 107.679898 
L 89.482879 105.609742 
L 91.165027 102.324344 
L 92.847175 107.421846 
L 94.529323 119.191719 
L 96.211471 110.257539 
L 97.893619 114.805902 
L 99.575767 118.106423 
L 101.257915 117.307433 
L 102.940062 121.699411 
L 104.62221 111.02935 
L 106.304358 101.38525 
L 107.986506 104.148595 
L 109.668654 82.23579 
L 111.350802 87.474228 
L 113.03295 90.258713 
L 114.715098 80.561776 
L 116.397246 80.123969 
L 118.079394 98.106466 
" clip-path="url(#p5599280555)" style="fill: none; stroke: #cc7af4; stroke-width: 1.5; stroke-linecap: round"/>
   </g>
   <g id="line2d_29">
    <path d="M 76.025696 174.490851 
L 77.707844 178.802057 
L 79.389992 186.644369 
L 81.07214 174.713052 
L 82.754288 154.353742 
L 84.436436 146.363095 
L 86.118583 138.060651 
L 87.800731 126.178042 
L 89.482879 111.757867 
L 91.165027 109.115265 
L 92.847175 106.09942 
L 94.529323 106.690885 
L 96.211471 107.71238 
L 97.893619 100.551952 
L 99.575767 101.297945 
L 101.257915 98.642152 
L 102.940062 99.32222 
L 104.62221 105.172633 
L 106.304358 96.246931 
L 107.986506 97.300365 
L 109.668654 99.601123 
L 111.350802 95.802627 
L 113.03295 90.638682 
L 114.715098 78.424266 
L 116.397246 86.146873 
L 118.079394 89.19392 
L 119.761542 80.646786 
L 121.443689 80.974008 
L 123.125837 67.789066 
L 124.807985 67.388497 
L 126.490133 73.541689 
L 128.172281 79.614019 
L 129.854429 74.620547 
L 131.536577 67.902641 
L 133.218725 72.159492 
L 134.900873 68.026367 
L 136.583021 66.090121 
L 138.265168 72.06245 
L 139.947316 69.166712 
L 141.629464 68.775747 
L 143.311612 71.714062 
L 144.99376 70.193602 
L 146.675908 65.952448 
L 148.358056 59.94081 
L 150.040204 63.166999 
L 151.722352 67.072725 
L 153.4045 71.831246 
L 155.086648 74.151089 
L 156.768795 81.622799 
L 158.450943 98.520782 
L 160.133091 95.618004 
L 161.815239 95.036394 
L 163.497387 107.622861 
L 165.179535 109.084111 
L 166.861683 119.295113 
L 168.543831 134.401882 
L 170.225979 135.306074 
L 171.908127 132.870875 
L 173.590274 132.700293 
L 175.272422 131.278241 
L 176.95457 124.31257 
L 178.636718 124.375604 
L 180.318866 128.991716 
L 182.001014 125.719587 
L 183.683162 130.349059 
L 185.36531 135.552138 
L 187.047458 134.638082 
L 188.729606 136.530876 
L 190.411753 130.094247 
L 192.093901 135.126005 
L 193.776049 146.313395 
L 195.458197 131.298621 
L 197.140345 112.868747 
L 198.822493 105.466142 
L 200.504641 98.463849 
L 202.186789 86.282348 
L 203.868937 92.215721 
L 205.551085 89.142836 
L 207.233233 79.572796 
L 208.91538 88.631429 
L 210.597528 95.539375 
L 212.279676 92.432387 
L 213.961824 105.713155 
L 215.643972 111.81545 
L 217.32612 117.45794 
L 219.008268 122.564516 
L 220.690416 122.229949 
L 222.372564 111.654397 
L 224.054712 115.44385 
L 225.736859 112.158858 
L 227.419007 108.453583 
L 229.101155 102.018357 
L 230.783303 98.420034 
" clip-path="url(#p5599280555)" style="fill: none; stroke: #f560e4; stroke-width: 1.5; stroke-linecap: round"/>
   </g>
   <g id="line2d_30">
    <path d="M 76.025696 143.538441 
L 77.707844 151.784569 
L 79.389992 151.698013 
L 81.07214 143.78202 
L 82.754288 132.491719 
L 84.436436 141.795841 
L 86.118583 148.243346 
L 87.800731 147.470963 
L 89.482879 136.75837 
L 91.165027 128.100921 
L 92.847175 139.178364 
L 94.529323 149.159187 
L 96.211471 152.149864 
L 97.893619 148.303381 
L 99.575767 132.30098 
L 101.257915 135.98363 
L 102.940062 136.802101 
L 104.62221 138.938185 
L 106.304358 138.94345 
L 107.986506 129.158973 
L 109.668654 133.439497 
L 111.350802 127.965377 
L 113.03295 124.741939 
L 114.715098 121.341438 
L 116.397246 115.601052 
L 118.079394 123.004111 
L 119.761542 121.899178 
L 121.443689 125.902026 
L 123.125837 131.528478 
L 124.807985 129.193831 
L 126.490133 134.717484 
L 128.172281 125.427903 
L 129.854429 116.334714 
L 131.536577 115.629076 
L 133.218725 106.35634 
L 134.900873 109.190762 
L 136.583021 108.503099 
L 138.265168 106.809779 
L 139.947316 111.462882 
L 141.629464 105.686627 
L 143.311612 109.093364 
L 144.99376 96.514454 
L 146.675908 89.518916 
L 148.358056 81.289698 
L 150.040204 66.546877 
L 151.722352 69.962892 
L 153.4045 67.674356 
L 155.086648 72.483889 
L 156.768795 78.488075 
L 158.450943 76.536608 
L 160.133091 84.098579 
L 161.815239 71.835221 
L 163.497387 75.026854 
L 165.179535 77.863058 
L 166.861683 80.314666 
L 168.543831 84.614579 
L 170.225979 73.324323 
L 171.908127 75.543941 
L 173.590274 79.618829 
L 175.272422 74.006904 
L 176.95457 74.681497 
L 178.636718 60.582729 
L 180.318866 66.003544 
L 182.001014 64.43252 
L 183.683162 63.799123 
L 185.36531 66.155573 
L 187.047458 55.254554 
L 188.729606 58.952617 
L 190.411753 73.527388 
L 192.093901 83.32871 
L 193.776049 92.12408 
L 195.458197 82.790044 
L 197.140345 84.266047 
L 198.822493 87.621503 
L 200.504641 92.31849 
L 202.186789 97.15078 
L 203.868937 83.921897 
L 205.551085 85.811481 
L 207.233233 88.997578 
L 208.91538 96.374767 
L 210.597528 108.178675 
L 212.279676 97.628161 
L 213.961824 100.790305 
L 215.643972 98.348654 
L 217.32612 94.315237 
L 219.008268 94.003234 
L 220.690416 87.632021 
L 222.372564 98.848318 
L 224.054712 110.06981 
L 225.736859 124.929124 
L 227.419007 127.176977 
L 229.101155 113.971613 
L 230.783303 117.648492 
" clip-path="url(#p5599280555)" style="fill: none; stroke: #f66ab7; stroke-width: 1.5; stroke-linecap: round"/>
   </g>
   <g id="line2d_31"/>
   <g id="line2d_32"/>
   <g id="line2d_33"/>
   <g id="line2d_34"/>
   <g id="line2d_35"/>
   <g id="line2d_36"/>
   <g id="line2d_37"/>
   <g id="line2d_38"/>
   <g id="line2d_39"/>
   <g id="line2d_40"/>
   <g id="line2d_41"/>
   <g id="line2d_42"/>
   <g id="line2d_43"/>
   <g id="line2d_44"/>
   <g id="line2d_45"/>
   <g id="patch_3">
    <path d="M 59.792969 287.901375 
L 59.792969 21.789375 
" style="fill: none; stroke: #cccccc; stroke-width: 1.25; stroke-linejoin: miter; stroke-linecap: square"/>
   </g>
   <g id="patch_4">
    <path d="M 416.912969 287.901375 
L 416.912969 21.789375 
" style="fill: none; stroke: #cccccc; stroke-width: 1.25; stroke-linejoin: miter; stroke-linecap: square"/>
   </g>
   <g id="patch_5">
    <path d="M 59.792969 287.901375 
L 416.912969 287.901375 
" style="fill: none; stroke: #cccccc; stroke-width: 1.25; stroke-linejoin: miter; stroke-linecap: square"/>
   </g>
   <g id="patch_6">
    <path d="M 59.792969 21.789375 
L 416.912969 21.789375 
" style="fill: none; stroke: #cccccc; stroke-width: 1.25; stroke-linejoin: miter; stroke-linecap: square"/>
   </g>
   <g id="text_18">
    <!-- movie -->
    <g style="fill: #262626" transform="translate(222.348906 15.789375) scale(0.12 -0.12)">
     <defs>
      <path id="ArialMT-6d" d="M 422 0 
L 422 3319 
L 925 3319 
L 925 2853 
Q 1081 3097 1340 3245 
Q 1600 3394 1931 3394 
Q 2300 3394 2536 3241 
Q 2772 3088 2869 2813 
Q 3263 3394 3894 3394 
Q 4388 3394 4653 3120 
Q 4919 2847 4919 2278 
L 4919 0 
L 4359 0 
L 4359 2091 
Q 4359 2428 4304 2576 
Q 4250 2725 4106 2815 
Q 3963 2906 3769 2906 
Q 3419 2906 3187 2673 
Q 2956 2441 2956 1928 
L 2956 0 
L 2394 0 
L 2394 2156 
Q 2394 2531 2256 2718 
Q 2119 2906 1806 2906 
Q 1569 2906 1367 2781 
Q 1166 2656 1075 2415 
Q 984 2175 984 1722 
L 984 0 
L 422 0 
z
" transform="scale(0.015625)"/>
      <path id="ArialMT-76" d="M 1344 0 
L 81 3319 
L 675 3319 
L 1388 1331 
Q 1503 1009 1600 663 
Q 1675 925 1809 1294 
L 2547 3319 
L 3125 3319 
L 1869 0 
L 1344 0 
z
" transform="scale(0.015625)"/>
     </defs>
     <use xlink:href="#ArialMT-6d"/>
     <use xlink:href="#ArialMT-6f" x="83.300781"/>
     <use xlink:href="#ArialMT-76" x="138.916016"/>
     <use xlink:href="#ArialMT-69" x="188.916016"/>
     <use xlink:href="#ArialMT-65" x="211.132812"/>
    </g>
   </g>
   <g id="legend_1">
    <g id="patch_7">
     <path d="M 418.302569 171.994279 
L 550.620715 171.994279 
Q 552.010315 171.994279 552.010315 170.604679 
L 552.010315 23.178975 
Q 552.010315 21.789375 550.620715 21.789375 
L 418.302569 21.789375 
Q 416.912969 21.789375 416.912969 23.178975 
L 416.912969 170.604679 
Q 416.912969 171.994279 418.302569 171.994279 
z
" style="fill: #ffffff; opacity: 0.8; stroke: #cccccc; stroke-linejoin: miter"/>
    </g>
    <g id="line2d_46">
     <path d="M 419.692169 27.194702 
L 426.640169 27.194702 
L 433.588169 27.194702 
" style="fill: none; stroke: #f77189; stroke-width: 1.5; stroke-linecap: round"/>
    </g>
    <g id="text_19">
     <!-- 02CB_01_movie_04_LPI_000.netts -->
     <g style="fill: #262626" transform="translate(439.146569 29.626502) scale(0.06948 -0.06948)">
      <defs>
       <path id="ArialMT-43" d="M 3763 1606 
L 4369 1453 
Q 4178 706 3683 314 
Q 3188 -78 2472 -78 
Q 1731 -78 1267 223 
Q 803 525 561 1097 
Q 319 1669 319 2325 
Q 319 3041 592 3573 
Q 866 4106 1370 4382 
Q 1875 4659 2481 4659 
Q 3169 4659 3637 4309 
Q 4106 3959 4291 3325 
L 3694 3184 
Q 3534 3684 3231 3912 
Q 2928 4141 2469 4141 
Q 1941 4141 1586 3887 
Q 1231 3634 1087 3207 
Q 944 2781 944 2328 
Q 944 1744 1114 1308 
Q 1284 872 1643 656 
Q 2003 441 2422 441 
Q 2931 441 3284 734 
Q 3638 1028 3763 1606 
z
" transform="scale(0.015625)"/>
       <path id="ArialMT-42" d="M 469 0 
L 469 4581 
L 2188 4581 
Q 2713 4581 3030 4442 
Q 3347 4303 3526 4014 
Q 3706 3725 3706 3409 
Q 3706 3116 3547 2856 
Q 3388 2597 3066 2438 
Q 3481 2316 3704 2022 
Q 3928 1728 3928 1328 
Q 3928 1006 3792 729 
Q 3656 453 3456 303 
Q 3256 153 2954 76 
Q 2653 0 2216 0 
L 469 0 
z
M 1075 2656 
L 2066 2656 
Q 2469 2656 2644 2709 
Q 2875 2778 2992 2937 
Q 3109 3097 3109 3338 
Q 3109 3566 3000 3739 
Q 2891 3913 2687 3977 
Q 2484 4041 1991 4041 
L 1075 4041 
L 1075 2656 
z
M 1075 541 
L 2216 541 
Q 2509 541 2628 563 
Q 2838 600 2978 687 
Q 3119 775 3209 942 
Q 3300 1109 3300 1328 
Q 3300 1584 3169 1773 
Q 3038 1963 2805 2039 
Q 2572 2116 2134 2116 
L 1075 2116 
L 1075 541 
z
" transform="scale(0.015625)"/>
       <path id="ArialMT-5f" d="M -97 -1272 
L -97 -866 
L 3631 -866 
L 3631 -1272 
L -97 -1272 
z
" transform="scale(0.015625)"/>
       <path id="ArialMT-34" d="M 2069 0 
L 2069 1097 
L 81 1097 
L 81 1613 
L 2172 4581 
L 2631 4581 
L 2631 1613 
L 3250 1613 
L 3250 1097 
L 2631 1097 
L 2631 0 
L 2069 0 
z
M 2069 1613 
L 2069 3678 
L 634 1613 
L 2069 1613 
z
" transform="scale(0.015625)"/>
       <path id="ArialMT-4c" d="M 469 0 
L 469 4581 
L 1075 4581 
L 1075 541 
L 3331 541 
L 3331 0 
L 469 0 
z
" transform="scale(0.015625)"/>
       <path id="ArialMT-50" d="M 494 0 
L 494 4581 
L 2222 4581 
Q 2678 4581 2919 4538 
Q 3256 4481 3484 4323 
Q 3713 4166 3852 3881 
Q 3991 3597 3991 3256 
Q 3991 2672 3619 2267 
Q 3247 1863 2275 1863 
L 1100 1863 
L 1100 0 
L 494 0 
z
M 1100 2403 
L 2284 2403 
Q 2872 2403 3119 2622 
Q 3366 2841 3366 3238 
Q 3366 3525 3220 3729 
Q 3075 3934 2838 4000 
Q 2684 4041 2272 4041 
L 1100 4041 
L 1100 2403 
z
" transform="scale(0.015625)"/>
       <path id="ArialMT-49" d="M 597 0 
L 597 4581 
L 1203 4581 
L 1203 0 
L 597 0 
z
" transform="scale(0.015625)"/>
      </defs>
      <use xlink:href="#ArialMT-30"/>
      <use xlink:href="#ArialMT-32" x="55.615234"/>
      <use xlink:href="#ArialMT-43" x="111.230469"/>
      <use xlink:href="#ArialMT-42" x="183.447266"/>
      <use xlink:href="#ArialMT-5f" x="250.146484"/>
      <use xlink:href="#ArialMT-30" x="305.761719"/>
      <use xlink:href="#ArialMT-31" x="361.376953"/>
      <use xlink:href="#ArialMT-5f" x="416.992188"/>
      <use xlink:href="#ArialMT-6d" x="472.607422"/>
      <use xlink:href="#ArialMT-6f" x="555.908203"/>
      <use xlink:href="#ArialMT-76" x="611.523438"/>
      <use xlink:href="#ArialMT-69" x="661.523438"/>
      <use xlink:href="#ArialMT-65" x="683.740234"/>
      <use xlink:href="#ArialMT-5f" x="739.355469"/>
      <use xlink:href="#ArialMT-30" x="794.970703"/>
      <use xlink:href="#ArialMT-34" x="850.585938"/>
      <use xlink:href="#ArialMT-5f" x="906.201172"/>
      <use xlink:href="#ArialMT-4c" x="961.816406"/>
      <use xlink:href="#ArialMT-50" x="1017.431641"/>
      <use xlink:href="#ArialMT-49" x="1084.130859"/>
      <use xlink:href="#ArialMT-5f" x="1111.914062"/>
      <use xlink:href="#ArialMT-30" x="1167.529297"/>
      <use xlink:href="#ArialMT-30" x="1223.144531"/>
      <use xlink:href="#ArialMT-30" x="1278.759766"/>
      <use xlink:href="#ArialMT-2e" x="1334.375"/>
      <use xlink:href="#ArialMT-6e" x="1362.158203"/>
      <use xlink:href="#ArialMT-65" x="1417.773438"/>
      <use xlink:href="#ArialMT-74" x="1473.388672"/>
      <use xlink:href="#ArialMT-74" x="1501.171875"/>
      <use xlink:href="#ArialMT-73" x="1528.955078"/>
     </g>
    </g>
    <g id="line2d_47">
     <path d="M 419.692169 37.043492 
L 426.640169 37.043492 
L 433.588169 37.043492 
" style="fill: none; stroke: #f37a32; stroke-width: 1.5; stroke-linecap: round"/>
    </g>
    <g id="text_20">
     <!-- 04HD_01_movie_04_LPI_000.netts -->
     <g style="fill: #262626" transform="translate(439.146569 39.475292) scale(0.06948 -0.06948)">
      <defs>
       <path id="ArialMT-44" d="M 494 0 
L 494 4581 
L 2072 4581 
Q 2606 4581 2888 4516 
Q 3281 4425 3559 4188 
Q 3922 3881 4101 3404 
Q 4281 2928 4281 2316 
Q 4281 1794 4159 1391 
Q 4038 988 3847 723 
Q 3656 459 3429 307 
Q 3203 156 2883 78 
Q 2563 0 2147 0 
L 494 0 
z
M 1100 541 
L 2078 541 
Q 2531 541 2789 625 
Q 3047 709 3200 863 
Q 3416 1078 3536 1442 
Q 3656 1806 3656 2325 
Q 3656 3044 3420 3430 
Q 3184 3816 2847 3947 
Q 2603 4041 2063 4041 
L 1100 4041 
L 1100 541 
z
" transform="scale(0.015625)"/>
      </defs>
      <use xlink:href="#ArialMT-30"/>
      <use xlink:href="#ArialMT-34" x="55.615234"/>
      <use xlink:href="#ArialMT-48" x="111.230469"/>
      <use xlink:href="#ArialMT-44" x="183.447266"/>
      <use xlink:href="#ArialMT-5f" x="255.664062"/>
      <use xlink:href="#ArialMT-30" x="311.279297"/>
      <use xlink:href="#ArialMT-31" x="366.894531"/>
      <use xlink:href="#ArialMT-5f" x="422.509766"/>
      <use xlink:href="#ArialMT-6d" x="478.125"/>
      <use xlink:href="#ArialMT-6f" x="561.425781"/>
      <use xlink:href="#ArialMT-76" x="617.041016"/>
      <use xlink:href="#ArialMT-69" x="667.041016"/>
      <use xlink:href="#ArialMT-65" x="689.257812"/>
      <use xlink:href="#ArialMT-5f" x="744.873047"/>
      <use xlink:href="#ArialMT-30" x="800.488281"/>
      <use xlink:href="#ArialMT-34" x="856.103516"/>
      <use xlink:href="#ArialMT-5f" x="911.71875"/>
      <use xlink:href="#ArialMT-4c" x="967.333984"/>
      <use xlink:href="#ArialMT-50" x="1022.949219"/>
      <use xlink:href="#ArialMT-49" x="1089.648438"/>
      <use xlink:href="#ArialMT-5f" x="1117.431641"/>
      <use xlink:href="#ArialMT-30" x="1173.046875"/>
      <use xlink:href="#ArialMT-30" x="1228.662109"/>
      <use xlink:href="#ArialMT-30" x="1284.277344"/>
      <use xlink:href="#ArialMT-2e" x="1339.892578"/>
      <use xlink:href="#ArialMT-6e" x="1367.675781"/>
      <use xlink:href="#ArialMT-65" x="1423.291016"/>
      <use xlink:href="#ArialMT-74" x="1478.90625"/>
      <use xlink:href="#ArialMT-74" x="1506.689453"/>
      <use xlink:href="#ArialMT-73" x="1534.472656"/>
     </g>
    </g>
    <g id="line2d_48">
     <path d="M 419.692169 46.956334 
L 426.640169 46.956334 
L 433.588169 46.956334 
" style="fill: none; stroke: #ca9232; stroke-width: 1.5; stroke-linecap: round"/>
    </g>
    <g id="text_21">
     <!-- 04SG_01_movie_04_LPI_000.netts -->
     <g style="fill: #262626" transform="translate(439.146569 49.388134) scale(0.06948 -0.06948)">
      <defs>
       <path id="ArialMT-53" d="M 288 1472 
L 859 1522 
Q 900 1178 1048 958 
Q 1197 738 1509 602 
Q 1822 466 2213 466 
Q 2559 466 2825 569 
Q 3091 672 3220 851 
Q 3350 1031 3350 1244 
Q 3350 1459 3225 1620 
Q 3100 1781 2813 1891 
Q 2628 1963 1997 2114 
Q 1366 2266 1113 2400 
Q 784 2572 623 2826 
Q 463 3081 463 3397 
Q 463 3744 659 4045 
Q 856 4347 1234 4503 
Q 1613 4659 2075 4659 
Q 2584 4659 2973 4495 
Q 3363 4331 3572 4012 
Q 3781 3694 3797 3291 
L 3216 3247 
Q 3169 3681 2898 3903 
Q 2628 4125 2100 4125 
Q 1550 4125 1298 3923 
Q 1047 3722 1047 3438 
Q 1047 3191 1225 3031 
Q 1400 2872 2139 2705 
Q 2878 2538 3153 2413 
Q 3553 2228 3743 1945 
Q 3934 1663 3934 1294 
Q 3934 928 3725 604 
Q 3516 281 3123 101 
Q 2731 -78 2241 -78 
Q 1619 -78 1198 103 
Q 778 284 539 648 
Q 300 1013 288 1472 
z
" transform="scale(0.015625)"/>
       <path id="ArialMT-47" d="M 2638 1797 
L 2638 2334 
L 4578 2338 
L 4578 638 
Q 4131 281 3656 101 
Q 3181 -78 2681 -78 
Q 2006 -78 1454 211 
Q 903 500 622 1047 
Q 341 1594 341 2269 
Q 341 2938 620 3517 
Q 900 4097 1425 4378 
Q 1950 4659 2634 4659 
Q 3131 4659 3532 4498 
Q 3934 4338 4162 4050 
Q 4391 3763 4509 3300 
L 3963 3150 
Q 3859 3500 3706 3700 
Q 3553 3900 3268 4020 
Q 2984 4141 2638 4141 
Q 2222 4141 1919 4014 
Q 1616 3888 1430 3681 
Q 1244 3475 1141 3228 
Q 966 2803 966 2306 
Q 966 1694 1177 1281 
Q 1388 869 1791 669 
Q 2194 469 2647 469 
Q 3041 469 3416 620 
Q 3791 772 3984 944 
L 3984 1797 
L 2638 1797 
z
" transform="scale(0.015625)"/>
      </defs>
      <use xlink:href="#ArialMT-30"/>
      <use xlink:href="#ArialMT-34" x="55.615234"/>
      <use xlink:href="#ArialMT-53" x="111.230469"/>
      <use xlink:href="#ArialMT-47" x="177.929688"/>
      <use xlink:href="#ArialMT-5f" x="255.712891"/>
      <use xlink:href="#ArialMT-30" x="311.328125"/>
      <use xlink:href="#ArialMT-31" x="366.943359"/>
      <use xlink:href="#ArialMT-5f" x="422.558594"/>
      <use xlink:href="#ArialMT-6d" x="478.173828"/>
      <use xlink:href="#ArialMT-6f" x="561.474609"/>
      <use xlink:href="#ArialMT-76" x="617.089844"/>
      <use xlink:href="#ArialMT-69" x="667.089844"/>
      <use xlink:href="#ArialMT-65" x="689.306641"/>
      <use xlink:href="#ArialMT-5f" x="744.921875"/>
      <use xlink:href="#ArialMT-30" x="800.537109"/>
      <use xlink:href="#ArialMT-34" x="856.152344"/>
      <use xlink:href="#ArialMT-5f" x="911.767578"/>
      <use xlink:href="#ArialMT-4c" x="967.382812"/>
      <use xlink:href="#ArialMT-50" x="1022.998047"/>
      <use xlink:href="#ArialMT-49" x="1089.697266"/>
      <use xlink:href="#ArialMT-5f" x="1117.480469"/>
      <use xlink:href="#ArialMT-30" x="1173.095703"/>
      <use xlink:href="#ArialMT-30" x="1228.710938"/>
      <use xlink:href="#ArialMT-30" x="1284.326172"/>
      <use xlink:href="#ArialMT-2e" x="1339.941406"/>
      <use xlink:href="#ArialMT-6e" x="1367.724609"/>
      <use xlink:href="#ArialMT-65" x="1423.339844"/>
      <use xlink:href="#ArialMT-74" x="1478.955078"/>
      <use xlink:href="#ArialMT-74" x="1506.738281"/>
      <use xlink:href="#ArialMT-73" x="1534.521484"/>
     </g>
    </g>
    <g id="line2d_49">
     <path d="M 419.692169 56.869176 
L 426.640169 56.869176 
L 433.588169 56.869176 
" style="fill: none; stroke: #ae9d31; stroke-width: 1.5; stroke-linecap: round"/>
    </g>
    <g id="text_22">
     <!-- 08BC_01_movie_04_LPI_000.netts -->
     <g style="fill: #262626" transform="translate(439.146569 59.300976) scale(0.06948 -0.06948)">
      <defs>
       <path id="ArialMT-38" d="M 1131 2484 
Q 781 2613 612 2850 
Q 444 3088 444 3419 
Q 444 3919 803 4259 
Q 1163 4600 1759 4600 
Q 2359 4600 2725 4251 
Q 3091 3903 3091 3403 
Q 3091 3084 2923 2848 
Q 2756 2613 2416 2484 
Q 2838 2347 3058 2040 
Q 3278 1734 3278 1309 
Q 3278 722 2862 322 
Q 2447 -78 1769 -78 
Q 1091 -78 675 323 
Q 259 725 259 1325 
Q 259 1772 486 2073 
Q 713 2375 1131 2484 
z
M 1019 3438 
Q 1019 3113 1228 2906 
Q 1438 2700 1772 2700 
Q 2097 2700 2305 2904 
Q 2513 3109 2513 3406 
Q 2513 3716 2298 3927 
Q 2084 4138 1766 4138 
Q 1444 4138 1231 3931 
Q 1019 3725 1019 3438 
z
M 838 1322 
Q 838 1081 952 856 
Q 1066 631 1291 507 
Q 1516 384 1775 384 
Q 2178 384 2440 643 
Q 2703 903 2703 1303 
Q 2703 1709 2433 1975 
Q 2163 2241 1756 2241 
Q 1359 2241 1098 1978 
Q 838 1716 838 1322 
z
" transform="scale(0.015625)"/>
      </defs>
      <use xlink:href="#ArialMT-30"/>
      <use xlink:href="#ArialMT-38" x="55.615234"/>
      <use xlink:href="#ArialMT-42" x="111.230469"/>
      <use xlink:href="#ArialMT-43" x="177.929688"/>
      <use xlink:href="#ArialMT-5f" x="250.146484"/>
      <use xlink:href="#ArialMT-30" x="305.761719"/>
      <use xlink:href="#ArialMT-31" x="361.376953"/>
      <use xlink:href="#ArialMT-5f" x="416.992188"/>
      <use xlink:href="#ArialMT-6d" x="472.607422"/>
      <use xlink:href="#ArialMT-6f" x="555.908203"/>
      <use xlink:href="#ArialMT-76" x="611.523438"/>
      <use xlink:href="#ArialMT-69" x="661.523438"/>
      <use xlink:href="#ArialMT-65" x="683.740234"/>
      <use xlink:href="#ArialMT-5f" x="739.355469"/>
      <use xlink:href="#ArialMT-30" x="794.970703"/>
      <use xlink:href="#ArialMT-34" x="850.585938"/>
      <use xlink:href="#ArialMT-5f" x="906.201172"/>
      <use xlink:href="#ArialMT-4c" x="961.816406"/>
      <use xlink:href="#ArialMT-50" x="1017.431641"/>
      <use xlink:href="#ArialMT-49" x="1084.130859"/>
      <use xlink:href="#ArialMT-5f" x="1111.914062"/>
      <use xlink:href="#ArialMT-30" x="1167.529297"/>
      <use xlink:href="#ArialMT-30" x="1223.144531"/>
      <use xlink:href="#ArialMT-30" x="1278.759766"/>
      <use xlink:href="#ArialMT-2e" x="1334.375"/>
      <use xlink:href="#ArialMT-6e" x="1362.158203"/>
      <use xlink:href="#ArialMT-65" x="1417.773438"/>
      <use xlink:href="#ArialMT-74" x="1473.388672"/>
      <use xlink:href="#ArialMT-74" x="1501.171875"/>
      <use xlink:href="#ArialMT-73" x="1528.955078"/>
     </g>
    </g>
    <g id="line2d_50">
     <path d="M 419.692169 66.717966 
L 426.640169 66.717966 
L 433.588169 66.717966 
" style="fill: none; stroke: #8ea631; stroke-width: 1.5; stroke-linecap: round"/>
    </g>
    <g id="text_23">
     <!-- 08VR_01_movie_04_LPI_000.netts -->
     <g style="fill: #262626" transform="translate(439.146569 69.149766) scale(0.06948 -0.06948)">
      <defs>
       <path id="ArialMT-56" d="M 1803 0 
L 28 4581 
L 684 4581 
L 1875 1253 
Q 2019 853 2116 503 
Q 2222 878 2363 1253 
L 3600 4581 
L 4219 4581 
L 2425 0 
L 1803 0 
z
" transform="scale(0.015625)"/>
       <path id="ArialMT-52" d="M 503 0 
L 503 4581 
L 2534 4581 
Q 3147 4581 3465 4457 
Q 3784 4334 3975 4021 
Q 4166 3709 4166 3331 
Q 4166 2844 3850 2509 
Q 3534 2175 2875 2084 
Q 3116 1969 3241 1856 
Q 3506 1613 3744 1247 
L 4541 0 
L 3778 0 
L 3172 953 
Q 2906 1366 2734 1584 
Q 2563 1803 2427 1890 
Q 2291 1978 2150 2013 
Q 2047 2034 1813 2034 
L 1109 2034 
L 1109 0 
L 503 0 
z
M 1109 2559 
L 2413 2559 
Q 2828 2559 3062 2645 
Q 3297 2731 3419 2920 
Q 3541 3109 3541 3331 
Q 3541 3656 3305 3865 
Q 3069 4075 2559 4075 
L 1109 4075 
L 1109 2559 
z
" transform="scale(0.015625)"/>
      </defs>
      <use xlink:href="#ArialMT-30"/>
      <use xlink:href="#ArialMT-38" x="55.615234"/>
      <use xlink:href="#ArialMT-56" x="111.230469"/>
      <use xlink:href="#ArialMT-52" x="177.929688"/>
      <use xlink:href="#ArialMT-5f" x="250.146484"/>
      <use xlink:href="#ArialMT-30" x="305.761719"/>
      <use xlink:href="#ArialMT-31" x="361.376953"/>
      <use xlink:href="#ArialMT-5f" x="416.992188"/>
      <use xlink:href="#ArialMT-6d" x="472.607422"/>
      <use xlink:href="#ArialMT-6f" x="555.908203"/>
      <use xlink:href="#ArialMT-76" x="611.523438"/>
      <use xlink:href="#ArialMT-69" x="661.523438"/>
      <use xlink:href="#ArialMT-65" x="683.740234"/>
      <use xlink:href="#ArialMT-5f" x="739.355469"/>
      <use xlink:href="#ArialMT-30" x="794.970703"/>
      <use xlink:href="#ArialMT-34" x="850.585938"/>
      <use xlink:href="#ArialMT-5f" x="906.201172"/>
      <use xlink:href="#ArialMT-4c" x="961.816406"/>
      <use xlink:href="#ArialMT-50" x="1017.431641"/>
      <use xlink:href="#ArialMT-49" x="1084.130859"/>
      <use xlink:href="#ArialMT-5f" x="1111.914062"/>
      <use xlink:href="#ArialMT-30" x="1167.529297"/>
      <use xlink:href="#ArialMT-30" x="1223.144531"/>
      <use xlink:href="#ArialMT-30" x="1278.759766"/>
      <use xlink:href="#ArialMT-2e" x="1334.375"/>
      <use xlink:href="#ArialMT-6e" x="1362.158203"/>
      <use xlink:href="#ArialMT-65" x="1417.773438"/>
      <use xlink:href="#ArialMT-74" x="1473.388672"/>
      <use xlink:href="#ArialMT-74" x="1501.171875"/>
      <use xlink:href="#ArialMT-73" x="1528.955078"/>
     </g>
    </g>
    <g id="line2d_51">
     <path d="M 419.692169 76.566756 
L 426.640169 76.566756 
L 433.588169 76.566756 
" style="fill: none; stroke: #50b131; stroke-width: 1.5; stroke-linecap: round"/>
    </g>
    <g id="text_24">
     <!-- 10JR_01_movie_04_LPI_000.netts -->
     <g style="fill: #262626" transform="translate(439.146569 78.998556) scale(0.06948 -0.06948)">
      <defs>
       <path id="ArialMT-4a" d="M 184 1300 
L 731 1375 
Q 753 850 928 656 
Q 1103 463 1413 463 
Q 1641 463 1806 567 
Q 1972 672 2034 851 
Q 2097 1031 2097 1425 
L 2097 4581 
L 2703 4581 
L 2703 1459 
Q 2703 884 2564 568 
Q 2425 253 2123 87 
Q 1822 -78 1416 -78 
Q 813 -78 492 269 
Q 172 616 184 1300 
z
" transform="scale(0.015625)"/>
      </defs>
      <use xlink:href="#ArialMT-31"/>
      <use xlink:href="#ArialMT-30" x="55.615234"/>
      <use xlink:href="#ArialMT-4a" x="111.230469"/>
      <use xlink:href="#ArialMT-52" x="161.230469"/>
      <use xlink:href="#ArialMT-5f" x="233.447266"/>
      <use xlink:href="#ArialMT-30" x="289.0625"/>
      <use xlink:href="#ArialMT-31" x="344.677734"/>
      <use xlink:href="#ArialMT-5f" x="400.292969"/>
      <use xlink:href="#ArialMT-6d" x="455.908203"/>
      <use xlink:href="#ArialMT-6f" x="539.208984"/>
      <use xlink:href="#ArialMT-76" x="594.824219"/>
      <use xlink:href="#ArialMT-69" x="644.824219"/>
      <use xlink:href="#ArialMT-65" x="667.041016"/>
      <use xlink:href="#ArialMT-5f" x="722.65625"/>
      <use xlink:href="#ArialMT-30" x="778.271484"/>
      <use xlink:href="#ArialMT-34" x="833.886719"/>
      <use xlink:href="#ArialMT-5f" x="889.501953"/>
      <use xlink:href="#ArialMT-4c" x="945.117188"/>
      <use xlink:href="#ArialMT-50" x="1000.732422"/>
      <use xlink:href="#ArialMT-49" x="1067.431641"/>
      <use xlink:href="#ArialMT-5f" x="1095.214844"/>
      <use xlink:href="#ArialMT-30" x="1150.830078"/>
      <use xlink:href="#ArialMT-30" x="1206.445312"/>
      <use xlink:href="#ArialMT-30" x="1262.060547"/>
      <use xlink:href="#ArialMT-2e" x="1317.675781"/>
      <use xlink:href="#ArialMT-6e" x="1345.458984"/>
      <use xlink:href="#ArialMT-65" x="1401.074219"/>
      <use xlink:href="#ArialMT-74" x="1456.689453"/>
      <use xlink:href="#ArialMT-74" x="1484.472656"/>
      <use xlink:href="#ArialMT-73" x="1512.255859"/>
     </g>
    </g>
    <g id="line2d_52">
     <path d="M 419.692169 86.479597 
L 426.640169 86.479597 
L 433.588169 86.479597 
" style="fill: none; stroke: #33b07a; stroke-width: 1.5; stroke-linecap: round"/>
    </g>
    <g id="text_25">
     <!-- 13CA_01_movie_04_LPI_000.netts -->
     <g style="fill: #262626" transform="translate(439.146569 88.911397) scale(0.06948 -0.06948)">
      <defs>
       <path id="ArialMT-33" d="M 269 1209 
L 831 1284 
Q 928 806 1161 595 
Q 1394 384 1728 384 
Q 2125 384 2398 659 
Q 2672 934 2672 1341 
Q 2672 1728 2419 1979 
Q 2166 2231 1775 2231 
Q 1616 2231 1378 2169 
L 1441 2663 
Q 1497 2656 1531 2656 
Q 1891 2656 2178 2843 
Q 2466 3031 2466 3422 
Q 2466 3731 2256 3934 
Q 2047 4138 1716 4138 
Q 1388 4138 1169 3931 
Q 950 3725 888 3313 
L 325 3413 
Q 428 3978 793 4289 
Q 1159 4600 1703 4600 
Q 2078 4600 2393 4439 
Q 2709 4278 2876 4000 
Q 3044 3722 3044 3409 
Q 3044 3113 2884 2869 
Q 2725 2625 2413 2481 
Q 2819 2388 3044 2092 
Q 3269 1797 3269 1353 
Q 3269 753 2831 336 
Q 2394 -81 1725 -81 
Q 1122 -81 723 278 
Q 325 638 269 1209 
z
" transform="scale(0.015625)"/>
       <path id="ArialMT-41" d="M -9 0 
L 1750 4581 
L 2403 4581 
L 4278 0 
L 3588 0 
L 3053 1388 
L 1138 1388 
L 634 0 
L -9 0 
z
M 1313 1881 
L 2866 1881 
L 2388 3150 
Q 2169 3728 2063 4100 
Q 1975 3659 1816 3225 
L 1313 1881 
z
" transform="scale(0.015625)"/>
      </defs>
      <use xlink:href="#ArialMT-31"/>
      <use xlink:href="#ArialMT-33" x="55.615234"/>
      <use xlink:href="#ArialMT-43" x="111.230469"/>
      <use xlink:href="#ArialMT-41" x="183.447266"/>
      <use xlink:href="#ArialMT-5f" x="250.146484"/>
      <use xlink:href="#ArialMT-30" x="305.761719"/>
      <use xlink:href="#ArialMT-31" x="361.376953"/>
      <use xlink:href="#ArialMT-5f" x="416.992188"/>
      <use xlink:href="#ArialMT-6d" x="472.607422"/>
      <use xlink:href="#ArialMT-6f" x="555.908203"/>
      <use xlink:href="#ArialMT-76" x="611.523438"/>
      <use xlink:href="#ArialMT-69" x="661.523438"/>
      <use xlink:href="#ArialMT-65" x="683.740234"/>
      <use xlink:href="#ArialMT-5f" x="739.355469"/>
      <use xlink:href="#ArialMT-30" x="794.970703"/>
      <use xlink:href="#ArialMT-34" x="850.585938"/>
      <use xlink:href="#ArialMT-5f" x="906.201172"/>
      <use xlink:href="#ArialMT-4c" x="961.816406"/>
      <use xlink:href="#ArialMT-50" x="1017.431641"/>
      <use xlink:href="#ArialMT-49" x="1084.130859"/>
      <use xlink:href="#ArialMT-5f" x="1111.914062"/>
      <use xlink:href="#ArialMT-30" x="1167.529297"/>
      <use xlink:href="#ArialMT-30" x="1223.144531"/>
      <use xlink:href="#ArialMT-30" x="1278.759766"/>
      <use xlink:href="#ArialMT-2e" x="1334.375"/>
      <use xlink:href="#ArialMT-6e" x="1362.158203"/>
      <use xlink:href="#ArialMT-65" x="1417.773438"/>
      <use xlink:href="#ArialMT-74" x="1473.388672"/>
      <use xlink:href="#ArialMT-74" x="1501.171875"/>
      <use xlink:href="#ArialMT-73" x="1528.955078"/>
     </g>
    </g>
    <g id="line2d_53">
     <path d="M 419.692169 96.328387 
L 426.640169 96.328387 
L 433.588169 96.328387 
" style="fill: none; stroke: #35ae99; stroke-width: 1.5; stroke-linecap: round"/>
    </g>
    <g id="text_26">
     <!-- 16RA_01_movie_04_LPI_000.netts -->
     <g style="fill: #262626" transform="translate(439.146569 98.760187) scale(0.06948 -0.06948)">
      <defs>
       <path id="ArialMT-36" d="M 3184 3459 
L 2625 3416 
Q 2550 3747 2413 3897 
Q 2184 4138 1850 4138 
Q 1581 4138 1378 3988 
Q 1113 3794 959 3422 
Q 806 3050 800 2363 
Q 1003 2672 1297 2822 
Q 1591 2972 1913 2972 
Q 2475 2972 2870 2558 
Q 3266 2144 3266 1488 
Q 3266 1056 3080 686 
Q 2894 316 2569 119 
Q 2244 -78 1831 -78 
Q 1128 -78 684 439 
Q 241 956 241 2144 
Q 241 3472 731 4075 
Q 1159 4600 1884 4600 
Q 2425 4600 2770 4297 
Q 3116 3994 3184 3459 
z
M 888 1484 
Q 888 1194 1011 928 
Q 1134 663 1356 523 
Q 1578 384 1822 384 
Q 2178 384 2434 671 
Q 2691 959 2691 1453 
Q 2691 1928 2437 2201 
Q 2184 2475 1800 2475 
Q 1419 2475 1153 2201 
Q 888 1928 888 1484 
z
" transform="scale(0.015625)"/>
      </defs>
      <use xlink:href="#ArialMT-31"/>
      <use xlink:href="#ArialMT-36" x="55.615234"/>
      <use xlink:href="#ArialMT-52" x="111.230469"/>
      <use xlink:href="#ArialMT-41" x="183.447266"/>
      <use xlink:href="#ArialMT-5f" x="250.146484"/>
      <use xlink:href="#ArialMT-30" x="305.761719"/>
      <use xlink:href="#ArialMT-31" x="361.376953"/>
      <use xlink:href="#ArialMT-5f" x="416.992188"/>
      <use xlink:href="#ArialMT-6d" x="472.607422"/>
      <use xlink:href="#ArialMT-6f" x="555.908203"/>
      <use xlink:href="#ArialMT-76" x="611.523438"/>
      <use xlink:href="#ArialMT-69" x="661.523438"/>
      <use xlink:href="#ArialMT-65" x="683.740234"/>
      <use xlink:href="#ArialMT-5f" x="739.355469"/>
      <use xlink:href="#ArialMT-30" x="794.970703"/>
      <use xlink:href="#ArialMT-34" x="850.585938"/>
      <use xlink:href="#ArialMT-5f" x="906.201172"/>
      <use xlink:href="#ArialMT-4c" x="961.816406"/>
      <use xlink:href="#ArialMT-50" x="1017.431641"/>
      <use xlink:href="#ArialMT-49" x="1084.130859"/>
      <use xlink:href="#ArialMT-5f" x="1111.914062"/>
      <use xlink:href="#ArialMT-30" x="1167.529297"/>
      <use xlink:href="#ArialMT-30" x="1223.144531"/>
      <use xlink:href="#ArialMT-30" x="1278.759766"/>
      <use xlink:href="#ArialMT-2e" x="1334.375"/>
      <use xlink:href="#ArialMT-6e" x="1362.158203"/>
      <use xlink:href="#ArialMT-65" x="1417.773438"/>
      <use xlink:href="#ArialMT-74" x="1473.388672"/>
      <use xlink:href="#ArialMT-74" x="1501.171875"/>
      <use xlink:href="#ArialMT-73" x="1528.955078"/>
     </g>
    </g>
    <g id="line2d_54">
     <path d="M 419.692169 106.177177 
L 426.640169 106.177177 
L 433.588169 106.177177 
" style="fill: none; stroke: #36acae; stroke-width: 1.5; stroke-linecap: round"/>
    </g>
    <g id="text_27">
     <!-- 17EK_01_movie_04_LPI_000.netts -->
     <g style="fill: #262626" transform="translate(439.146569 108.608977) scale(0.06948 -0.06948)">
      <defs>
       <path id="ArialMT-45" d="M 506 0 
L 506 4581 
L 3819 4581 
L 3819 4041 
L 1113 4041 
L 1113 2638 
L 3647 2638 
L 3647 2100 
L 1113 2100 
L 1113 541 
L 3925 541 
L 3925 0 
L 506 0 
z
" transform="scale(0.015625)"/>
       <path id="ArialMT-4b" d="M 469 0 
L 469 4581 
L 1075 4581 
L 1075 2309 
L 3350 4581 
L 4172 4581 
L 2250 2725 
L 4256 0 
L 3456 0 
L 1825 2319 
L 1075 1588 
L 1075 0 
L 469 0 
z
" transform="scale(0.015625)"/>
      </defs>
      <use xlink:href="#ArialMT-31"/>
      <use xlink:href="#ArialMT-37" x="55.615234"/>
      <use xlink:href="#ArialMT-45" x="111.230469"/>
      <use xlink:href="#ArialMT-4b" x="177.929688"/>
      <use xlink:href="#ArialMT-5f" x="244.628906"/>
      <use xlink:href="#ArialMT-30" x="300.244141"/>
      <use xlink:href="#ArialMT-31" x="355.859375"/>
      <use xlink:href="#ArialMT-5f" x="411.474609"/>
      <use xlink:href="#ArialMT-6d" x="467.089844"/>
      <use xlink:href="#ArialMT-6f" x="550.390625"/>
      <use xlink:href="#ArialMT-76" x="606.005859"/>
      <use xlink:href="#ArialMT-69" x="656.005859"/>
      <use xlink:href="#ArialMT-65" x="678.222656"/>
      <use xlink:href="#ArialMT-5f" x="733.837891"/>
      <use xlink:href="#ArialMT-30" x="789.453125"/>
      <use xlink:href="#ArialMT-34" x="845.068359"/>
      <use xlink:href="#ArialMT-5f" x="900.683594"/>
      <use xlink:href="#ArialMT-4c" x="956.298828"/>
      <use xlink:href="#ArialMT-50" x="1011.914062"/>
      <use xlink:href="#ArialMT-49" x="1078.613281"/>
      <use xlink:href="#ArialMT-5f" x="1106.396484"/>
      <use xlink:href="#ArialMT-30" x="1162.011719"/>
      <use xlink:href="#ArialMT-30" x="1217.626953"/>
      <use xlink:href="#ArialMT-30" x="1273.242188"/>
      <use xlink:href="#ArialMT-2e" x="1328.857422"/>
      <use xlink:href="#ArialMT-6e" x="1356.640625"/>
      <use xlink:href="#ArialMT-65" x="1412.255859"/>
      <use xlink:href="#ArialMT-74" x="1467.871094"/>
      <use xlink:href="#ArialMT-74" x="1495.654297"/>
      <use xlink:href="#ArialMT-73" x="1523.4375"/>
     </g>
    </g>
    <g id="line2d_55">
     <path d="M 419.692169 116.025967 
L 426.640169 116.025967 
L 433.588169 116.025967 
" style="fill: none; stroke: #38a9c5; stroke-width: 1.5; stroke-linecap: round"/>
    </g>
    <g id="text_28">
     <!-- 19AK_01_movie_04_LPI_000.netts -->
     <g style="fill: #262626" transform="translate(439.146569 118.457767) scale(0.06948 -0.06948)">
      <defs>
       <path id="ArialMT-39" d="M 350 1059 
L 891 1109 
Q 959 728 1153 556 
Q 1347 384 1650 384 
Q 1909 384 2104 503 
Q 2300 622 2425 820 
Q 2550 1019 2634 1356 
Q 2719 1694 2719 2044 
Q 2719 2081 2716 2156 
Q 2547 1888 2255 1720 
Q 1963 1553 1622 1553 
Q 1053 1553 659 1965 
Q 266 2378 266 3053 
Q 266 3750 677 4175 
Q 1088 4600 1706 4600 
Q 2153 4600 2523 4359 
Q 2894 4119 3086 3673 
Q 3278 3228 3278 2384 
Q 3278 1506 3087 986 
Q 2897 466 2520 194 
Q 2144 -78 1638 -78 
Q 1100 -78 759 220 
Q 419 519 350 1059 
z
M 2653 3081 
Q 2653 3566 2395 3850 
Q 2138 4134 1775 4134 
Q 1400 4134 1122 3828 
Q 844 3522 844 3034 
Q 844 2597 1108 2323 
Q 1372 2050 1759 2050 
Q 2150 2050 2401 2323 
Q 2653 2597 2653 3081 
z
" transform="scale(0.015625)"/>
      </defs>
      <use xlink:href="#ArialMT-31"/>
      <use xlink:href="#ArialMT-39" x="55.615234"/>
      <use xlink:href="#ArialMT-41" x="111.230469"/>
      <use xlink:href="#ArialMT-4b" x="177.929688"/>
      <use xlink:href="#ArialMT-5f" x="244.628906"/>
      <use xlink:href="#ArialMT-30" x="300.244141"/>
      <use xlink:href="#ArialMT-31" x="355.859375"/>
      <use xlink:href="#ArialMT-5f" x="411.474609"/>
      <use xlink:href="#ArialMT-6d" x="467.089844"/>
      <use xlink:href="#ArialMT-6f" x="550.390625"/>
      <use xlink:href="#ArialMT-76" x="606.005859"/>
      <use xlink:href="#ArialMT-69" x="656.005859"/>
      <use xlink:href="#ArialMT-65" x="678.222656"/>
      <use xlink:href="#ArialMT-5f" x="733.837891"/>
      <use xlink:href="#ArialMT-30" x="789.453125"/>
      <use xlink:href="#ArialMT-34" x="845.068359"/>
      <use xlink:href="#ArialMT-5f" x="900.683594"/>
      <use xlink:href="#ArialMT-4c" x="956.298828"/>
      <use xlink:href="#ArialMT-50" x="1011.914062"/>
      <use xlink:href="#ArialMT-49" x="1078.613281"/>
      <use xlink:href="#ArialMT-5f" x="1106.396484"/>
      <use xlink:href="#ArialMT-30" x="1162.011719"/>
      <use xlink:href="#ArialMT-30" x="1217.626953"/>
      <use xlink:href="#ArialMT-30" x="1273.242188"/>
      <use xlink:href="#ArialMT-2e" x="1328.857422"/>
      <use xlink:href="#ArialMT-6e" x="1356.640625"/>
      <use xlink:href="#ArialMT-65" x="1412.255859"/>
      <use xlink:href="#ArialMT-74" x="1467.871094"/>
      <use xlink:href="#ArialMT-74" x="1495.654297"/>
      <use xlink:href="#ArialMT-73" x="1523.4375"/>
     </g>
    </g>
    <g id="line2d_56">
     <path d="M 419.692169 125.938809 
L 426.640169 125.938809 
L 433.588169 125.938809 
" style="fill: none; stroke: #3ba3ec; stroke-width: 1.5; stroke-linecap: round"/>
    </g>
    <g id="text_29">
     <!-- 22CY_01_movie_04_LPI_000.netts -->
     <g style="fill: #262626" transform="translate(439.146569 128.370609) scale(0.06948 -0.06948)">
      <defs>
       <path id="ArialMT-59" d="M 1784 0 
L 1784 1941 
L 19 4581 
L 756 4581 
L 1659 3200 
Q 1909 2813 2125 2425 
Q 2331 2784 2625 3234 
L 3513 4581 
L 4219 4581 
L 2391 1941 
L 2391 0 
L 1784 0 
z
" transform="scale(0.015625)"/>
      </defs>
      <use xlink:href="#ArialMT-32"/>
      <use xlink:href="#ArialMT-32" x="55.615234"/>
      <use xlink:href="#ArialMT-43" x="111.230469"/>
      <use xlink:href="#ArialMT-59" x="183.447266"/>
      <use xlink:href="#ArialMT-5f" x="250.146484"/>
      <use xlink:href="#ArialMT-30" x="305.761719"/>
      <use xlink:href="#ArialMT-31" x="361.376953"/>
      <use xlink:href="#ArialMT-5f" x="416.992188"/>
      <use xlink:href="#ArialMT-6d" x="472.607422"/>
      <use xlink:href="#ArialMT-6f" x="555.908203"/>
      <use xlink:href="#ArialMT-76" x="611.523438"/>
      <use xlink:href="#ArialMT-69" x="661.523438"/>
      <use xlink:href="#ArialMT-65" x="683.740234"/>
      <use xlink:href="#ArialMT-5f" x="739.355469"/>
      <use xlink:href="#ArialMT-30" x="794.970703"/>
      <use xlink:href="#ArialMT-34" x="850.585938"/>
      <use xlink:href="#ArialMT-5f" x="906.201172"/>
      <use xlink:href="#ArialMT-4c" x="961.816406"/>
      <use xlink:href="#ArialMT-50" x="1017.431641"/>
      <use xlink:href="#ArialMT-49" x="1084.130859"/>
      <use xlink:href="#ArialMT-5f" x="1111.914062"/>
      <use xlink:href="#ArialMT-30" x="1167.529297"/>
      <use xlink:href="#ArialMT-30" x="1223.144531"/>
      <use xlink:href="#ArialMT-30" x="1278.759766"/>
      <use xlink:href="#ArialMT-2e" x="1334.375"/>
      <use xlink:href="#ArialMT-6e" x="1362.158203"/>
      <use xlink:href="#ArialMT-65" x="1417.773438"/>
      <use xlink:href="#ArialMT-74" x="1473.388672"/>
      <use xlink:href="#ArialMT-74" x="1501.171875"/>
      <use xlink:href="#ArialMT-73" x="1528.955078"/>
     </g>
    </g>
    <g id="line2d_57">
     <path d="M 419.692169 135.787599 
L 426.640169 135.787599 
L 433.588169 135.787599 
" style="fill: none; stroke: #9591f4; stroke-width: 1.5; stroke-linecap: round"/>
    </g>
    <g id="text_30">
     <!-- 22TK_01_movie_04_LPI_000.netts -->
     <g style="fill: #262626" transform="translate(439.146569 138.219399) scale(0.06948 -0.06948)">
      <defs>
       <path id="ArialMT-54" d="M 1659 0 
L 1659 4041 
L 150 4041 
L 150 4581 
L 3781 4581 
L 3781 4041 
L 2266 4041 
L 2266 0 
L 1659 0 
z
" transform="scale(0.015625)"/>
      </defs>
      <use xlink:href="#ArialMT-32"/>
      <use xlink:href="#ArialMT-32" x="55.615234"/>
      <use xlink:href="#ArialMT-54" x="111.230469"/>
      <use xlink:href="#ArialMT-4b" x="172.314453"/>
      <use xlink:href="#ArialMT-5f" x="239.013672"/>
      <use xlink:href="#ArialMT-30" x="294.628906"/>
      <use xlink:href="#ArialMT-31" x="350.244141"/>
      <use xlink:href="#ArialMT-5f" x="405.859375"/>
      <use xlink:href="#ArialMT-6d" x="461.474609"/>
      <use xlink:href="#ArialMT-6f" x="544.775391"/>
      <use xlink:href="#ArialMT-76" x="600.390625"/>
      <use xlink:href="#ArialMT-69" x="650.390625"/>
      <use xlink:href="#ArialMT-65" x="672.607422"/>
      <use xlink:href="#ArialMT-5f" x="728.222656"/>
      <use xlink:href="#ArialMT-30" x="783.837891"/>
      <use xlink:href="#ArialMT-34" x="839.453125"/>
      <use xlink:href="#ArialMT-5f" x="895.068359"/>
      <use xlink:href="#ArialMT-4c" x="950.683594"/>
      <use xlink:href="#ArialMT-50" x="1006.298828"/>
      <use xlink:href="#ArialMT-49" x="1072.998047"/>
      <use xlink:href="#ArialMT-5f" x="1100.78125"/>
      <use xlink:href="#ArialMT-30" x="1156.396484"/>
      <use xlink:href="#ArialMT-30" x="1212.011719"/>
      <use xlink:href="#ArialMT-30" x="1267.626953"/>
      <use xlink:href="#ArialMT-2e" x="1323.242188"/>
      <use xlink:href="#ArialMT-6e" x="1351.025391"/>
      <use xlink:href="#ArialMT-65" x="1406.640625"/>
      <use xlink:href="#ArialMT-74" x="1462.255859"/>
      <use xlink:href="#ArialMT-74" x="1490.039062"/>
      <use xlink:href="#ArialMT-73" x="1517.822266"/>
     </g>
    </g>
    <g id="line2d_58">
     <path d="M 419.692169 145.636389 
L 426.640169 145.636389 
L 433.588169 145.636389 
" style="fill: none; stroke: #cc7af4; stroke-width: 1.5; stroke-linecap: round"/>
    </g>
    <g id="text_31">
     <!-- 25JK_01_movie_04_LPI_000.netts -->
     <g style="fill: #262626" transform="translate(439.146569 148.068189) scale(0.06948 -0.06948)">
      <use xlink:href="#ArialMT-32"/>
      <use xlink:href="#ArialMT-35" x="55.615234"/>
      <use xlink:href="#ArialMT-4a" x="111.230469"/>
      <use xlink:href="#ArialMT-4b" x="161.230469"/>
      <use xlink:href="#ArialMT-5f" x="227.929688"/>
      <use xlink:href="#ArialMT-30" x="283.544922"/>
      <use xlink:href="#ArialMT-31" x="339.160156"/>
      <use xlink:href="#ArialMT-5f" x="394.775391"/>
      <use xlink:href="#ArialMT-6d" x="450.390625"/>
      <use xlink:href="#ArialMT-6f" x="533.691406"/>
      <use xlink:href="#ArialMT-76" x="589.306641"/>
      <use xlink:href="#ArialMT-69" x="639.306641"/>
      <use xlink:href="#ArialMT-65" x="661.523438"/>
      <use xlink:href="#ArialMT-5f" x="717.138672"/>
      <use xlink:href="#ArialMT-30" x="772.753906"/>
      <use xlink:href="#ArialMT-34" x="828.369141"/>
      <use xlink:href="#ArialMT-5f" x="883.984375"/>
      <use xlink:href="#ArialMT-4c" x="939.599609"/>
      <use xlink:href="#ArialMT-50" x="995.214844"/>
      <use xlink:href="#ArialMT-49" x="1061.914062"/>
      <use xlink:href="#ArialMT-5f" x="1089.697266"/>
      <use xlink:href="#ArialMT-30" x="1145.3125"/>
      <use xlink:href="#ArialMT-30" x="1200.927734"/>
      <use xlink:href="#ArialMT-30" x="1256.542969"/>
      <use xlink:href="#ArialMT-2e" x="1312.158203"/>
      <use xlink:href="#ArialMT-6e" x="1339.941406"/>
      <use xlink:href="#ArialMT-65" x="1395.556641"/>
      <use xlink:href="#ArialMT-74" x="1451.171875"/>
      <use xlink:href="#ArialMT-74" x="1478.955078"/>
      <use xlink:href="#ArialMT-73" x="1506.738281"/>
     </g>
    </g>
    <g id="line2d_59">
     <path d="M 419.692169 155.485179 
L 426.640169 155.485179 
L 433.588169 155.485179 
" style="fill: none; stroke: #f560e4; stroke-width: 1.5; stroke-linecap: round"/>
    </g>
    <g id="text_32">
     <!-- 27HF_01_movie_04_LPI_000.netts -->
     <g style="fill: #262626" transform="translate(439.146569 157.916979) scale(0.06948 -0.06948)">
      <defs>
       <path id="ArialMT-46" d="M 525 0 
L 525 4581 
L 3616 4581 
L 3616 4041 
L 1131 4041 
L 1131 2622 
L 3281 2622 
L 3281 2081 
L 1131 2081 
L 1131 0 
L 525 0 
z
" transform="scale(0.015625)"/>
      </defs>
      <use xlink:href="#ArialMT-32"/>
      <use xlink:href="#ArialMT-37" x="55.615234"/>
      <use xlink:href="#ArialMT-48" x="111.230469"/>
      <use xlink:href="#ArialMT-46" x="183.447266"/>
      <use xlink:href="#ArialMT-5f" x="244.53125"/>
      <use xlink:href="#ArialMT-30" x="300.146484"/>
      <use xlink:href="#ArialMT-31" x="355.761719"/>
      <use xlink:href="#ArialMT-5f" x="411.376953"/>
      <use xlink:href="#ArialMT-6d" x="466.992188"/>
      <use xlink:href="#ArialMT-6f" x="550.292969"/>
      <use xlink:href="#ArialMT-76" x="605.908203"/>
      <use xlink:href="#ArialMT-69" x="655.908203"/>
      <use xlink:href="#ArialMT-65" x="678.125"/>
      <use xlink:href="#ArialMT-5f" x="733.740234"/>
      <use xlink:href="#ArialMT-30" x="789.355469"/>
      <use xlink:href="#ArialMT-34" x="844.970703"/>
      <use xlink:href="#ArialMT-5f" x="900.585938"/>
      <use xlink:href="#ArialMT-4c" x="956.201172"/>
      <use xlink:href="#ArialMT-50" x="1011.816406"/>
      <use xlink:href="#ArialMT-49" x="1078.515625"/>
      <use xlink:href="#ArialMT-5f" x="1106.298828"/>
      <use xlink:href="#ArialMT-30" x="1161.914062"/>
      <use xlink:href="#ArialMT-30" x="1217.529297"/>
      <use xlink:href="#ArialMT-30" x="1273.144531"/>
      <use xlink:href="#ArialMT-2e" x="1328.759766"/>
      <use xlink:href="#ArialMT-6e" x="1356.542969"/>
      <use xlink:href="#ArialMT-65" x="1412.158203"/>
      <use xlink:href="#ArialMT-74" x="1467.773438"/>
      <use xlink:href="#ArialMT-74" x="1495.556641"/>
      <use xlink:href="#ArialMT-73" x="1523.339844"/>
     </g>
    </g>
    <g id="line2d_60">
     <path d="M 419.692169 165.402364 
L 426.640169 165.402364 
L 433.588169 165.402364 
" style="fill: none; stroke: #f66ab7; stroke-width: 1.5; stroke-linecap: round"/>
    </g>
    <g id="text_33">
     <!-- 30AQ_01_movie_04_LPI_000.netts -->
     <g style="fill: #262626" transform="translate(439.146569 167.834164) scale(0.06948 -0.06948)">
      <defs>
       <path id="ArialMT-51" d="M 3966 491 
Q 4388 200 4744 66 
L 4566 -356 
Q 4072 -178 3581 206 
Q 3072 -78 2456 -78 
Q 1834 -78 1328 222 
Q 822 522 548 1065 
Q 275 1609 275 2291 
Q 275 2969 550 3525 
Q 825 4081 1333 4372 
Q 1841 4663 2469 4663 
Q 3103 4663 3612 4361 
Q 4122 4059 4389 3517 
Q 4656 2975 4656 2294 
Q 4656 1728 4484 1276 
Q 4313 825 3966 491 
z
M 2631 1266 
Q 3156 1119 3497 828 
Q 4031 1316 4031 2294 
Q 4031 2850 3842 3265 
Q 3653 3681 3289 3911 
Q 2925 4141 2472 4141 
Q 1794 4141 1347 3677 
Q 900 3213 900 2291 
Q 900 1397 1342 919 
Q 1784 441 2472 441 
Q 2797 441 3084 563 
Q 2800 747 2484 825 
L 2631 1266 
z
" transform="scale(0.015625)"/>
      </defs>
      <use xlink:href="#ArialMT-33"/>
      <use xlink:href="#ArialMT-30" x="55.615234"/>
      <use xlink:href="#ArialMT-41" x="111.230469"/>
      <use xlink:href="#ArialMT-51" x="177.929688"/>
      <use xlink:href="#ArialMT-5f" x="255.712891"/>
      <use xlink:href="#ArialMT-30" x="311.328125"/>
      <use xlink:href="#ArialMT-31" x="366.943359"/>
      <use xlink:href="#ArialMT-5f" x="422.558594"/>
      <use xlink:href="#ArialMT-6d" x="478.173828"/>
      <use xlink:href="#ArialMT-6f" x="561.474609"/>
      <use xlink:href="#ArialMT-76" x="617.089844"/>
      <use xlink:href="#ArialMT-69" x="667.089844"/>
      <use xlink:href="#ArialMT-65" x="689.306641"/>
      <use xlink:href="#ArialMT-5f" x="744.921875"/>
      <use xlink:href="#ArialMT-30" x="800.537109"/>
      <use xlink:href="#ArialMT-34" x="856.152344"/>
      <use xlink:href="#ArialMT-5f" x="911.767578"/>
      <use xlink:href="#ArialMT-4c" x="967.382812"/>
      <use xlink:href="#ArialMT-50" x="1022.998047"/>
      <use xlink:href="#ArialMT-49" x="1089.697266"/>
      <use xlink:href="#ArialMT-5f" x="1117.480469"/>
      <use xlink:href="#ArialMT-30" x="1173.095703"/>
      <use xlink:href="#ArialMT-30" x="1228.710938"/>
      <use xlink:href="#ArialMT-30" x="1284.326172"/>
      <use xlink:href="#ArialMT-2e" x="1339.941406"/>
      <use xlink:href="#ArialMT-6e" x="1367.724609"/>
      <use xlink:href="#ArialMT-65" x="1423.339844"/>
      <use xlink:href="#ArialMT-74" x="1478.955078"/>
      <use xlink:href="#ArialMT-74" x="1506.738281"/>
      <use xlink:href="#ArialMT-73" x="1534.521484"/>
     </g>
    </g>
   </g>
  </g>
 </g>
 <defs>
  <clipPath id="p5599280555">
   <rect x="59.792969" y="21.789375" width="357.12" height="266.112"/>
  </clipPath>
 </defs>
</svg>
