<?xml version="1.0" encoding="utf-8" standalone="no"?>
<!DOCTYPE svg PUBLIC "-//W3C//DTD SVG 1.1//EN"
  "http://www.w3.org/Graphics/SVG/1.1/DTD/svg11.dtd">
<svg xmlns:xlink="http://www.w3.org/1999/xlink" width="565.327346pt" height="329.635594pt" viewBox="0 0 565.327346 329.635594" xmlns="http://www.w3.org/2000/svg" version="1.1">
 <metadata>
  <rdf:RDF xmlns:dc="http://purl.org/dc/elements/1.1/" xmlns:cc="http://creativecommons.org/ns#" xmlns:rdf="http://www.w3.org/1999/02/22-rdf-syntax-ns#">
   <cc:Work>
    <dc:type rdf:resource="http://purl.org/dc/dcmitype/StillImage"/>
    <dc:date>2023-01-10T02:13:15.880478</dc:date>
    <dc:format>image/svg+xml</dc:format>
    <dc:creator>
     <cc:Agent>
      <dc:title>Matplotlib v3.6.2, https://matplotlib.org/</dc:title>
     </cc:Agent>
    </dc:creator>
   </cc:Work>
  </rdf:RDF>
 </metadata>
 <defs>
  <style type="text/css">*{stroke-linejoin: round; stroke-linecap: butt}</style>
 </defs>
 <g id="figure_1">
  <g id="patch_1">
   <path d="M 0 329.635594 
L 565.327346 329.635594 
L 565.327346 0 
L 0 0 
z
" style="fill: #ffffff"/>
  </g>
  <g id="axes_1">
   <g id="patch_2">
    <path d="M 65.91 287.901375 
L 423.03 287.901375 
L 423.03 21.789375 
L 65.91 21.789375 
z
" style="fill: #ffffff"/>
   </g>
   <g id="matplotlib.axis_1">
    <g id="xtick_1">
     <g id="line2d_1">
      <path d="M 82.142727 287.901375 
L 82.142727 21.789375 
" clip-path="url(#pbad42ce30d)" style="fill: none; stroke: #cccccc; stroke-linecap: round"/>
     </g>
     <g id="text_1">
      <!-- 0 -->
      <g style="fill: #262626" transform="translate(79.084212 305.274969) scale(0.11 -0.11)">
       <defs>
        <path id="ArialMT-30" d="M 266 2259 
Q 266 3072 433 3567 
Q 600 4063 929 4331 
Q 1259 4600 1759 4600 
Q 2128 4600 2406 4451 
Q 2684 4303 2865 4023 
Q 3047 3744 3150 3342 
Q 3253 2941 3253 2259 
Q 3253 1453 3087 958 
Q 2922 463 2592 192 
Q 2263 -78 1759 -78 
Q 1097 -78 719 397 
Q 266 969 266 2259 
z
M 844 2259 
Q 844 1131 1108 757 
Q 1372 384 1759 384 
Q 2147 384 2411 759 
Q 2675 1134 2675 2259 
Q 2675 3391 2411 3762 
Q 2147 4134 1753 4134 
Q 1366 4134 1134 3806 
Q 844 3388 844 2259 
z
" transform="scale(0.015625)"/>
       </defs>
       <use xlink:href="#ArialMT-30"/>
      </g>
     </g>
    </g>
    <g id="xtick_2">
     <g id="line2d_2">
      <path d="M 152.719802 287.901375 
L 152.719802 21.789375 
" clip-path="url(#pbad42ce30d)" style="fill: none; stroke: #cccccc; stroke-linecap: round"/>
     </g>
     <g id="text_2">
      <!-- 20 -->
      <g style="fill: #262626" transform="translate(146.602771 305.274969) scale(0.11 -0.11)">
       <defs>
        <path id="ArialMT-32" d="M 3222 541 
L 3222 0 
L 194 0 
Q 188 203 259 391 
Q 375 700 629 1000 
Q 884 1300 1366 1694 
Q 2113 2306 2375 2664 
Q 2638 3022 2638 3341 
Q 2638 3675 2398 3904 
Q 2159 4134 1775 4134 
Q 1369 4134 1125 3890 
Q 881 3647 878 3216 
L 300 3275 
Q 359 3922 746 4261 
Q 1134 4600 1788 4600 
Q 2447 4600 2831 4234 
Q 3216 3869 3216 3328 
Q 3216 3053 3103 2787 
Q 2991 2522 2730 2228 
Q 2469 1934 1863 1422 
Q 1356 997 1212 845 
Q 1069 694 975 541 
L 3222 541 
z
" transform="scale(0.015625)"/>
       </defs>
       <use xlink:href="#ArialMT-32"/>
       <use xlink:href="#ArialMT-30" x="55.615234"/>
      </g>
     </g>
    </g>
    <g id="xtick_3">
     <g id="line2d_3">
      <path d="M 223.296877 287.901375 
L 223.296877 21.789375 
" clip-path="url(#pbad42ce30d)" style="fill: none; stroke: #cccccc; stroke-linecap: round"/>
     </g>
     <g id="text_3">
      <!-- 40 -->
      <g style="fill: #262626" transform="translate(217.179846 305.274969) scale(0.11 -0.11)">
       <defs>
        <path id="ArialMT-34" d="M 2069 0 
L 2069 1097 
L 81 1097 
L 81 1613 
L 2172 4581 
L 2631 4581 
L 2631 1613 
L 3250 1613 
L 3250 1097 
L 2631 1097 
L 2631 0 
L 2069 0 
z
M 2069 1613 
L 2069 3678 
L 634 1613 
L 2069 1613 
z
" transform="scale(0.015625)"/>
       </defs>
       <use xlink:href="#ArialMT-34"/>
       <use xlink:href="#ArialMT-30" x="55.615234"/>
      </g>
     </g>
    </g>
    <g id="xtick_4">
     <g id="line2d_4">
      <path d="M 293.873953 287.901375 
L 293.873953 21.789375 
" clip-path="url(#pbad42ce30d)" style="fill: none; stroke: #cccccc; stroke-linecap: round"/>
     </g>
     <g id="text_4">
      <!-- 60 -->
      <g style="fill: #262626" transform="translate(287.756921 305.274969) scale(0.11 -0.11)">
       <defs>
        <path id="ArialMT-36" d="M 3184 3459 
L 2625 3416 
Q 2550 3747 2413 3897 
Q 2184 4138 1850 4138 
Q 1581 4138 1378 3988 
Q 1113 3794 959 3422 
Q 806 3050 800 2363 
Q 1003 2672 1297 2822 
Q 1591 2972 1913 2972 
Q 2475 2972 2870 2558 
Q 3266 2144 3266 1488 
Q 3266 1056 3080 686 
Q 2894 316 2569 119 
Q 2244 -78 1831 -78 
Q 1128 -78 684 439 
Q 241 956 241 2144 
Q 241 3472 731 4075 
Q 1159 4600 1884 4600 
Q 2425 4600 2770 4297 
Q 3116 3994 3184 3459 
z
M 888 1484 
Q 888 1194 1011 928 
Q 1134 663 1356 523 
Q 1578 384 1822 384 
Q 2178 384 2434 671 
Q 2691 959 2691 1453 
Q 2691 1928 2437 2201 
Q 2184 2475 1800 2475 
Q 1419 2475 1153 2201 
Q 888 1928 888 1484 
z
" transform="scale(0.015625)"/>
       </defs>
       <use xlink:href="#ArialMT-36"/>
       <use xlink:href="#ArialMT-30" x="55.615234"/>
      </g>
     </g>
    </g>
    <g id="xtick_5">
     <g id="line2d_5">
      <path d="M 364.451028 287.901375 
L 364.451028 21.789375 
" clip-path="url(#pbad42ce30d)" style="fill: none; stroke: #cccccc; stroke-linecap: round"/>
     </g>
     <g id="text_5">
      <!-- 80 -->
      <g style="fill: #262626" transform="translate(358.333996 305.274969) scale(0.11 -0.11)">
       <defs>
        <path id="ArialMT-38" d="M 1131 2484 
Q 781 2613 612 2850 
Q 444 3088 444 3419 
Q 444 3919 803 4259 
Q 1163 4600 1759 4600 
Q 2359 4600 2725 4251 
Q 3091 3903 3091 3403 
Q 3091 3084 2923 2848 
Q 2756 2613 2416 2484 
Q 2838 2347 3058 2040 
Q 3278 1734 3278 1309 
Q 3278 722 2862 322 
Q 2447 -78 1769 -78 
Q 1091 -78 675 323 
Q 259 725 259 1325 
Q 259 1772 486 2073 
Q 713 2375 1131 2484 
z
M 1019 3438 
Q 1019 3113 1228 2906 
Q 1438 2700 1772 2700 
Q 2097 2700 2305 2904 
Q 2513 3109 2513 3406 
Q 2513 3716 2298 3927 
Q 2084 4138 1766 4138 
Q 1444 4138 1231 3931 
Q 1019 3725 1019 3438 
z
M 838 1322 
Q 838 1081 952 856 
Q 1066 631 1291 507 
Q 1516 384 1775 384 
Q 2178 384 2440 643 
Q 2703 903 2703 1303 
Q 2703 1709 2433 1975 
Q 2163 2241 1756 2241 
Q 1359 2241 1098 1978 
Q 838 1716 838 1322 
z
" transform="scale(0.015625)"/>
       </defs>
       <use xlink:href="#ArialMT-38"/>
       <use xlink:href="#ArialMT-30" x="55.615234"/>
      </g>
     </g>
    </g>
    <g id="text_6">
     <!-- Window No. -->
     <g style="fill: #262626" transform="translate(212.127187 320.050594) scale(0.12 -0.12)">
      <defs>
       <path id="ArialMT-57" d="M 1294 0 
L 78 4581 
L 700 4581 
L 1397 1578 
Q 1509 1106 1591 641 
Q 1766 1375 1797 1488 
L 2669 4581 
L 3400 4581 
L 4056 2263 
Q 4303 1400 4413 641 
Q 4500 1075 4641 1638 
L 5359 4581 
L 5969 4581 
L 4713 0 
L 4128 0 
L 3163 3491 
Q 3041 3928 3019 4028 
Q 2947 3713 2884 3491 
L 1913 0 
L 1294 0 
z
" transform="scale(0.015625)"/>
       <path id="ArialMT-69" d="M 425 3934 
L 425 4581 
L 988 4581 
L 988 3934 
L 425 3934 
z
M 425 0 
L 425 3319 
L 988 3319 
L 988 0 
L 425 0 
z
" transform="scale(0.015625)"/>
       <path id="ArialMT-6e" d="M 422 0 
L 422 3319 
L 928 3319 
L 928 2847 
Q 1294 3394 1984 3394 
Q 2284 3394 2536 3286 
Q 2788 3178 2913 3003 
Q 3038 2828 3088 2588 
Q 3119 2431 3119 2041 
L 3119 0 
L 2556 0 
L 2556 2019 
Q 2556 2363 2490 2533 
Q 2425 2703 2258 2804 
Q 2091 2906 1866 2906 
Q 1506 2906 1245 2678 
Q 984 2450 984 1813 
L 984 0 
L 422 0 
z
" transform="scale(0.015625)"/>
       <path id="ArialMT-64" d="M 2575 0 
L 2575 419 
Q 2259 -75 1647 -75 
Q 1250 -75 917 144 
Q 584 363 401 755 
Q 219 1147 219 1656 
Q 219 2153 384 2558 
Q 550 2963 881 3178 
Q 1213 3394 1622 3394 
Q 1922 3394 2156 3267 
Q 2391 3141 2538 2938 
L 2538 4581 
L 3097 4581 
L 3097 0 
L 2575 0 
z
M 797 1656 
Q 797 1019 1065 703 
Q 1334 388 1700 388 
Q 2069 388 2326 689 
Q 2584 991 2584 1609 
Q 2584 2291 2321 2609 
Q 2059 2928 1675 2928 
Q 1300 2928 1048 2622 
Q 797 2316 797 1656 
z
" transform="scale(0.015625)"/>
       <path id="ArialMT-6f" d="M 213 1659 
Q 213 2581 725 3025 
Q 1153 3394 1769 3394 
Q 2453 3394 2887 2945 
Q 3322 2497 3322 1706 
Q 3322 1066 3130 698 
Q 2938 331 2570 128 
Q 2203 -75 1769 -75 
Q 1072 -75 642 372 
Q 213 819 213 1659 
z
M 791 1659 
Q 791 1022 1069 705 
Q 1347 388 1769 388 
Q 2188 388 2466 706 
Q 2744 1025 2744 1678 
Q 2744 2294 2464 2611 
Q 2184 2928 1769 2928 
Q 1347 2928 1069 2612 
Q 791 2297 791 1659 
z
" transform="scale(0.015625)"/>
       <path id="ArialMT-77" d="M 1034 0 
L 19 3319 
L 600 3319 
L 1128 1403 
L 1325 691 
Q 1338 744 1497 1375 
L 2025 3319 
L 2603 3319 
L 3100 1394 
L 3266 759 
L 3456 1400 
L 4025 3319 
L 4572 3319 
L 3534 0 
L 2950 0 
L 2422 1988 
L 2294 2553 
L 1622 0 
L 1034 0 
z
" transform="scale(0.015625)"/>
       <path id="ArialMT-20" transform="scale(0.015625)"/>
       <path id="ArialMT-4e" d="M 488 0 
L 488 4581 
L 1109 4581 
L 3516 984 
L 3516 4581 
L 4097 4581 
L 4097 0 
L 3475 0 
L 1069 3600 
L 1069 0 
L 488 0 
z
" transform="scale(0.015625)"/>
       <path id="ArialMT-2e" d="M 581 0 
L 581 641 
L 1222 641 
L 1222 0 
L 581 0 
z
" transform="scale(0.015625)"/>
      </defs>
      <use xlink:href="#ArialMT-57"/>
      <use xlink:href="#ArialMT-69" x="94.384766"/>
      <use xlink:href="#ArialMT-6e" x="116.601562"/>
      <use xlink:href="#ArialMT-64" x="172.216797"/>
      <use xlink:href="#ArialMT-6f" x="227.832031"/>
      <use xlink:href="#ArialMT-77" x="283.447266"/>
      <use xlink:href="#ArialMT-20" x="355.664062"/>
      <use xlink:href="#ArialMT-4e" x="383.447266"/>
      <use xlink:href="#ArialMT-6f" x="455.664062"/>
      <use xlink:href="#ArialMT-2e" x="511.279297"/>
     </g>
    </g>
   </g>
   <g id="matplotlib.axis_2">
    <g id="ytick_1">
     <g id="line2d_6">
      <path d="M 65.91 285.242736 
L 423.03 285.242736 
" clip-path="url(#pbad42ce30d)" style="fill: none; stroke: #cccccc; stroke-linecap: round"/>
     </g>
     <g id="text_7">
      <!-- −0.100 -->
      <g style="fill: #262626" transform="translate(22.46125 289.179533) scale(0.11 -0.11)">
       <defs>
        <path id="ArialMT-2212" d="M 3381 1997 
L 356 1997 
L 356 2522 
L 3381 2522 
L 3381 1997 
z
" transform="scale(0.015625)"/>
        <path id="ArialMT-31" d="M 2384 0 
L 1822 0 
L 1822 3584 
Q 1619 3391 1289 3197 
Q 959 3003 697 2906 
L 697 3450 
Q 1169 3672 1522 3987 
Q 1875 4303 2022 4600 
L 2384 4600 
L 2384 0 
z
" transform="scale(0.015625)"/>
       </defs>
       <use xlink:href="#ArialMT-2212"/>
       <use xlink:href="#ArialMT-30" x="58.398438"/>
       <use xlink:href="#ArialMT-2e" x="114.013672"/>
       <use xlink:href="#ArialMT-31" x="141.796875"/>
       <use xlink:href="#ArialMT-30" x="197.412109"/>
       <use xlink:href="#ArialMT-30" x="253.027344"/>
      </g>
     </g>
    </g>
    <g id="ytick_2">
     <g id="line2d_7">
      <path d="M 65.91 250.441056 
L 423.03 250.441056 
" clip-path="url(#pbad42ce30d)" style="fill: none; stroke: #cccccc; stroke-linecap: round"/>
     </g>
     <g id="text_8">
      <!-- −0.075 -->
      <g style="fill: #262626" transform="translate(22.46125 254.377853) scale(0.11 -0.11)">
       <defs>
        <path id="ArialMT-37" d="M 303 3981 
L 303 4522 
L 3269 4522 
L 3269 4084 
Q 2831 3619 2401 2847 
Q 1972 2075 1738 1259 
Q 1569 684 1522 0 
L 944 0 
Q 953 541 1156 1306 
Q 1359 2072 1739 2783 
Q 2119 3494 2547 3981 
L 303 3981 
z
" transform="scale(0.015625)"/>
        <path id="ArialMT-35" d="M 266 1200 
L 856 1250 
Q 922 819 1161 601 
Q 1400 384 1738 384 
Q 2144 384 2425 690 
Q 2706 997 2706 1503 
Q 2706 1984 2436 2262 
Q 2166 2541 1728 2541 
Q 1456 2541 1237 2417 
Q 1019 2294 894 2097 
L 366 2166 
L 809 4519 
L 3088 4519 
L 3088 3981 
L 1259 3981 
L 1013 2750 
Q 1425 3038 1878 3038 
Q 2478 3038 2890 2622 
Q 3303 2206 3303 1553 
Q 3303 931 2941 478 
Q 2500 -78 1738 -78 
Q 1113 -78 717 272 
Q 322 622 266 1200 
z
" transform="scale(0.015625)"/>
       </defs>
       <use xlink:href="#ArialMT-2212"/>
       <use xlink:href="#ArialMT-30" x="58.398438"/>
       <use xlink:href="#ArialMT-2e" x="114.013672"/>
       <use xlink:href="#ArialMT-30" x="141.796875"/>
       <use xlink:href="#ArialMT-37" x="197.412109"/>
       <use xlink:href="#ArialMT-35" x="253.027344"/>
      </g>
     </g>
    </g>
    <g id="ytick_3">
     <g id="line2d_8">
      <path d="M 65.91 215.639376 
L 423.03 215.639376 
" clip-path="url(#pbad42ce30d)" style="fill: none; stroke: #cccccc; stroke-linecap: round"/>
     </g>
     <g id="text_9">
      <!-- −0.050 -->
      <g style="fill: #262626" transform="translate(22.46125 219.576173) scale(0.11 -0.11)">
       <use xlink:href="#ArialMT-2212"/>
       <use xlink:href="#ArialMT-30" x="58.398438"/>
       <use xlink:href="#ArialMT-2e" x="114.013672"/>
       <use xlink:href="#ArialMT-30" x="141.796875"/>
       <use xlink:href="#ArialMT-35" x="197.412109"/>
       <use xlink:href="#ArialMT-30" x="253.027344"/>
      </g>
     </g>
    </g>
    <g id="ytick_4">
     <g id="line2d_9">
      <path d="M 65.91 180.837696 
L 423.03 180.837696 
" clip-path="url(#pbad42ce30d)" style="fill: none; stroke: #cccccc; stroke-linecap: round"/>
     </g>
     <g id="text_10">
      <!-- −0.025 -->
      <g style="fill: #262626" transform="translate(22.46125 184.774493) scale(0.11 -0.11)">
       <use xlink:href="#ArialMT-2212"/>
       <use xlink:href="#ArialMT-30" x="58.398438"/>
       <use xlink:href="#ArialMT-2e" x="114.013672"/>
       <use xlink:href="#ArialMT-30" x="141.796875"/>
       <use xlink:href="#ArialMT-32" x="197.412109"/>
       <use xlink:href="#ArialMT-35" x="253.027344"/>
      </g>
     </g>
    </g>
    <g id="ytick_5">
     <g id="line2d_10">
      <path d="M 65.91 146.036016 
L 423.03 146.036016 
" clip-path="url(#pbad42ce30d)" style="fill: none; stroke: #cccccc; stroke-linecap: round"/>
     </g>
     <g id="text_11">
      <!-- 0.000 -->
      <g style="fill: #262626" transform="translate(28.885937 149.972813) scale(0.11 -0.11)">
       <use xlink:href="#ArialMT-30"/>
       <use xlink:href="#ArialMT-2e" x="55.615234"/>
       <use xlink:href="#ArialMT-30" x="83.398438"/>
       <use xlink:href="#ArialMT-30" x="139.013672"/>
       <use xlink:href="#ArialMT-30" x="194.628906"/>
      </g>
     </g>
    </g>
    <g id="ytick_6">
     <g id="line2d_11">
      <path d="M 65.91 111.234337 
L 423.03 111.234337 
" clip-path="url(#pbad42ce30d)" style="fill: none; stroke: #cccccc; stroke-linecap: round"/>
     </g>
     <g id="text_12">
      <!-- 0.025 -->
      <g style="fill: #262626" transform="translate(28.885937 115.171134) scale(0.11 -0.11)">
       <use xlink:href="#ArialMT-30"/>
       <use xlink:href="#ArialMT-2e" x="55.615234"/>
       <use xlink:href="#ArialMT-30" x="83.398438"/>
       <use xlink:href="#ArialMT-32" x="139.013672"/>
       <use xlink:href="#ArialMT-35" x="194.628906"/>
      </g>
     </g>
    </g>
    <g id="ytick_7">
     <g id="line2d_12">
      <path d="M 65.91 76.432657 
L 423.03 76.432657 
" clip-path="url(#pbad42ce30d)" style="fill: none; stroke: #cccccc; stroke-linecap: round"/>
     </g>
     <g id="text_13">
      <!-- 0.050 -->
      <g style="fill: #262626" transform="translate(28.885937 80.369454) scale(0.11 -0.11)">
       <use xlink:href="#ArialMT-30"/>
       <use xlink:href="#ArialMT-2e" x="55.615234"/>
       <use xlink:href="#ArialMT-30" x="83.398438"/>
       <use xlink:href="#ArialMT-35" x="139.013672"/>
       <use xlink:href="#ArialMT-30" x="194.628906"/>
      </g>
     </g>
    </g>
    <g id="ytick_8">
     <g id="line2d_13">
      <path d="M 65.91 41.630977 
L 423.03 41.630977 
" clip-path="url(#pbad42ce30d)" style="fill: none; stroke: #cccccc; stroke-linecap: round"/>
     </g>
     <g id="text_14">
      <!-- 0.075 -->
      <g style="fill: #262626" transform="translate(28.885937 45.567774) scale(0.11 -0.11)">
       <use xlink:href="#ArialMT-30"/>
       <use xlink:href="#ArialMT-2e" x="55.615234"/>
       <use xlink:href="#ArialMT-30" x="83.398438"/>
       <use xlink:href="#ArialMT-37" x="139.013672"/>
       <use xlink:href="#ArialMT-35" x="194.628906"/>
      </g>
     </g>
    </g>
    <g id="text_15">
     <!-- Hurst (Mean) -->
     <g style="fill: #262626" transform="translate(15.935625 189.84975) rotate(-90) scale(0.12 -0.12)">
      <defs>
       <path id="ArialMT-48" d="M 513 0 
L 513 4581 
L 1119 4581 
L 1119 2700 
L 3500 2700 
L 3500 4581 
L 4106 4581 
L 4106 0 
L 3500 0 
L 3500 2159 
L 1119 2159 
L 1119 0 
L 513 0 
z
" transform="scale(0.015625)"/>
       <path id="ArialMT-75" d="M 2597 0 
L 2597 488 
Q 2209 -75 1544 -75 
Q 1250 -75 995 37 
Q 741 150 617 320 
Q 494 491 444 738 
Q 409 903 409 1263 
L 409 3319 
L 972 3319 
L 972 1478 
Q 972 1038 1006 884 
Q 1059 663 1231 536 
Q 1403 409 1656 409 
Q 1909 409 2131 539 
Q 2353 669 2445 892 
Q 2538 1116 2538 1541 
L 2538 3319 
L 3100 3319 
L 3100 0 
L 2597 0 
z
" transform="scale(0.015625)"/>
       <path id="ArialMT-72" d="M 416 0 
L 416 3319 
L 922 3319 
L 922 2816 
Q 1116 3169 1280 3281 
Q 1444 3394 1641 3394 
Q 1925 3394 2219 3213 
L 2025 2691 
Q 1819 2813 1613 2813 
Q 1428 2813 1281 2702 
Q 1134 2591 1072 2394 
Q 978 2094 978 1738 
L 978 0 
L 416 0 
z
" transform="scale(0.015625)"/>
       <path id="ArialMT-73" d="M 197 991 
L 753 1078 
Q 800 744 1014 566 
Q 1228 388 1613 388 
Q 2000 388 2187 545 
Q 2375 703 2375 916 
Q 2375 1106 2209 1216 
Q 2094 1291 1634 1406 
Q 1016 1563 777 1677 
Q 538 1791 414 1992 
Q 291 2194 291 2438 
Q 291 2659 392 2848 
Q 494 3038 669 3163 
Q 800 3259 1026 3326 
Q 1253 3394 1513 3394 
Q 1903 3394 2198 3281 
Q 2494 3169 2634 2976 
Q 2775 2784 2828 2463 
L 2278 2388 
Q 2241 2644 2061 2787 
Q 1881 2931 1553 2931 
Q 1166 2931 1000 2803 
Q 834 2675 834 2503 
Q 834 2394 903 2306 
Q 972 2216 1119 2156 
Q 1203 2125 1616 2013 
Q 2213 1853 2448 1751 
Q 2684 1650 2818 1456 
Q 2953 1263 2953 975 
Q 2953 694 2789 445 
Q 2625 197 2315 61 
Q 2006 -75 1616 -75 
Q 969 -75 630 194 
Q 291 463 197 991 
z
" transform="scale(0.015625)"/>
       <path id="ArialMT-74" d="M 1650 503 
L 1731 6 
Q 1494 -44 1306 -44 
Q 1000 -44 831 53 
Q 663 150 594 308 
Q 525 466 525 972 
L 525 2881 
L 113 2881 
L 113 3319 
L 525 3319 
L 525 4141 
L 1084 4478 
L 1084 3319 
L 1650 3319 
L 1650 2881 
L 1084 2881 
L 1084 941 
Q 1084 700 1114 631 
Q 1144 563 1211 522 
Q 1278 481 1403 481 
Q 1497 481 1650 503 
z
" transform="scale(0.015625)"/>
       <path id="ArialMT-28" d="M 1497 -1347 
Q 1031 -759 709 28 
Q 388 816 388 1659 
Q 388 2403 628 3084 
Q 909 3875 1497 4659 
L 1900 4659 
Q 1522 4009 1400 3731 
Q 1209 3300 1100 2831 
Q 966 2247 966 1656 
Q 966 153 1900 -1347 
L 1497 -1347 
z
" transform="scale(0.015625)"/>
       <path id="ArialMT-4d" d="M 475 0 
L 475 4581 
L 1388 4581 
L 2472 1338 
Q 2622 884 2691 659 
Q 2769 909 2934 1394 
L 4031 4581 
L 4847 4581 
L 4847 0 
L 4263 0 
L 4263 3834 
L 2931 0 
L 2384 0 
L 1059 3900 
L 1059 0 
L 475 0 
z
" transform="scale(0.015625)"/>
       <path id="ArialMT-65" d="M 2694 1069 
L 3275 997 
Q 3138 488 2766 206 
Q 2394 -75 1816 -75 
Q 1088 -75 661 373 
Q 234 822 234 1631 
Q 234 2469 665 2931 
Q 1097 3394 1784 3394 
Q 2450 3394 2872 2941 
Q 3294 2488 3294 1666 
Q 3294 1616 3291 1516 
L 816 1516 
Q 847 969 1125 678 
Q 1403 388 1819 388 
Q 2128 388 2347 550 
Q 2566 713 2694 1069 
z
M 847 1978 
L 2700 1978 
Q 2663 2397 2488 2606 
Q 2219 2931 1791 2931 
Q 1403 2931 1139 2672 
Q 875 2413 847 1978 
z
" transform="scale(0.015625)"/>
       <path id="ArialMT-61" d="M 2588 409 
Q 2275 144 1986 34 
Q 1697 -75 1366 -75 
Q 819 -75 525 192 
Q 231 459 231 875 
Q 231 1119 342 1320 
Q 453 1522 633 1644 
Q 813 1766 1038 1828 
Q 1203 1872 1538 1913 
Q 2219 1994 2541 2106 
Q 2544 2222 2544 2253 
Q 2544 2597 2384 2738 
Q 2169 2928 1744 2928 
Q 1347 2928 1158 2789 
Q 969 2650 878 2297 
L 328 2372 
Q 403 2725 575 2942 
Q 747 3159 1072 3276 
Q 1397 3394 1825 3394 
Q 2250 3394 2515 3294 
Q 2781 3194 2906 3042 
Q 3031 2891 3081 2659 
Q 3109 2516 3109 2141 
L 3109 1391 
Q 3109 606 3145 398 
Q 3181 191 3288 0 
L 2700 0 
Q 2613 175 2588 409 
z
M 2541 1666 
Q 2234 1541 1622 1453 
Q 1275 1403 1131 1340 
Q 988 1278 909 1158 
Q 831 1038 831 891 
Q 831 666 1001 516 
Q 1172 366 1500 366 
Q 1825 366 2078 508 
Q 2331 650 2450 897 
Q 2541 1088 2541 1459 
L 2541 1666 
z
" transform="scale(0.015625)"/>
       <path id="ArialMT-29" d="M 791 -1347 
L 388 -1347 
Q 1322 153 1322 1656 
Q 1322 2244 1188 2822 
Q 1081 3291 891 3722 
Q 769 4003 388 4659 
L 791 4659 
Q 1378 3875 1659 3084 
Q 1900 2403 1900 1659 
Q 1900 816 1576 28 
Q 1253 -759 791 -1347 
z
" transform="scale(0.015625)"/>
      </defs>
      <use xlink:href="#ArialMT-48"/>
      <use xlink:href="#ArialMT-75" x="72.216797"/>
      <use xlink:href="#ArialMT-72" x="127.832031"/>
      <use xlink:href="#ArialMT-73" x="161.132812"/>
      <use xlink:href="#ArialMT-74" x="211.132812"/>
      <use xlink:href="#ArialMT-20" x="238.916016"/>
      <use xlink:href="#ArialMT-28" x="266.699219"/>
      <use xlink:href="#ArialMT-4d" x="300"/>
      <use xlink:href="#ArialMT-65" x="383.300781"/>
      <use xlink:href="#ArialMT-61" x="438.916016"/>
      <use xlink:href="#ArialMT-6e" x="494.53125"/>
      <use xlink:href="#ArialMT-29" x="550.146484"/>
     </g>
    </g>
   </g>
   <g id="PolyCollection_1"/>
   <g id="PolyCollection_2"/>
   <g id="PolyCollection_3"/>
   <g id="PolyCollection_4"/>
   <g id="PolyCollection_5"/>
   <g id="PolyCollection_6"/>
   <g id="PolyCollection_7"/>
   <g id="PolyCollection_8"/>
   <g id="PolyCollection_9"/>
   <g id="PolyCollection_10"/>
   <g id="PolyCollection_11"/>
   <g id="PolyCollection_12"/>
   <g id="line2d_14">
    <path d="M 82.142727 124.751154 
L 85.671581 128.21711 
L 89.200435 113.515587 
L 92.729289 146.243411 
L 96.258142 136.968821 
L 99.786996 122.050191 
L 103.31585 160.3895 
L 106.844704 126.897225 
L 110.373557 111.937924 
L 113.902411 99.180088 
L 117.431265 94.86125 
L 120.960119 103.882729 
L 124.488972 106.656202 
L 128.017826 109.25795 
L 131.54668 116.549095 
L 135.075534 141.996062 
L 138.604387 153.446645 
L 142.133241 142.675678 
L 145.662095 157.203199 
L 149.190949 111.517002 
L 152.719802 80.265236 
L 156.248656 105.610887 
L 159.77751 120.415281 
L 163.306364 129.424254 
L 166.835217 143.791477 
L 170.364071 128.292621 
L 173.892925 144.908493 
L 177.421779 141.623392 
L 180.950632 136.681512 
L 184.479486 126.835367 
L 188.00834 110.174587 
L 191.537194 133.998226 
L 195.066047 146.782189 
L 198.594901 143.140891 
L 202.123755 112.63607 
L 205.652609 82.047246 
L 209.181462 127.710757 
L 212.710316 130.27914 
L 216.23917 126.179042 
L 219.768024 126.648426 
L 223.296877 98.827594 
L 226.825731 109.087081 
L 230.354585 131.279874 
L 233.883439 137.089343 
L 237.412292 150.346087 
L 240.941146 141.608752 
L 244.47 168.32644 
L 247.998854 151.858303 
L 251.527708 131.887417 
L 255.056561 135.727386 
L 258.585415 127.020003 
L 262.114269 147.794378 
L 265.643123 154.200248 
L 269.171976 151.506809 
L 272.70083 133.504419 
L 276.229684 108.718985 
L 279.758538 140.37112 
L 283.287391 150.585353 
L 286.816245 136.367728 
L 290.345099 133.953429 
L 293.873953 107.222749 
L 297.402806 131.45946 
L 300.93166 149.147178 
L 304.460514 144.513847 
L 307.989368 157.148707 
L 311.518221 159.783345 
L 315.047075 183.796778 
L 318.575929 182.337901 
L 322.104783 178.781904 
L 325.633636 179.544897 
L 329.16249 158.525325 
L 332.691344 174.577006 
L 336.220198 182.544785 
L 339.749051 190.233089 
L 343.277905 206.961074 
L 346.806759 184.479817 
L 350.335613 182.863538 
L 353.864466 177.984971 
L 357.39332 181.85582 
L 360.922174 178.57864 
L 364.451028 173.373167 
L 367.979881 195.867628 
L 371.508735 194.595606 
L 375.037589 187.114317 
L 378.566443 176.78167 
L 382.095296 170.254349 
L 385.62415 185.863289 
L 389.153004 194.534142 
L 392.681858 187.931017 
L 396.210711 190.269597 
L 399.739565 186.862493 
L 403.268419 186.211718 
L 406.797273 213.64704 
" clip-path="url(#pbad42ce30d)" style="fill: none; stroke: #f77189; stroke-width: 1.5; stroke-linecap: round"/>
   </g>
   <g id="line2d_15">
    <path d="M 82.142727 268.047931 
L 85.671581 253.413807 
L 89.200435 255.8715 
L 92.729289 254.978128 
L 96.258142 243.600752 
L 99.786996 239.322315 
L 103.31585 240.607519 
L 106.844704 254.728834 
L 110.373557 251.327893 
L 113.902411 243.817455 
L 117.431265 229.134994 
L 120.960119 191.882259 
L 124.488972 196.265407 
L 128.017826 192.957452 
L 131.54668 199.511409 
L 135.075534 209.059134 
L 138.604387 199.466751 
L 142.133241 200.335696 
L 145.662095 190.300247 
L 149.190949 165.714836 
L 152.719802 164.888925 
L 156.248656 148.98089 
L 159.77751 149.803922 
L 163.306364 129.053933 
L 166.835217 119.944185 
L 170.364071 120.555728 
L 173.892925 107.527304 
L 177.421779 110.791646 
L 180.950632 112.745381 
L 184.479486 91.766681 
L 188.00834 75.316676 
L 191.537194 64.487433 
L 195.066047 71.268503 
L 198.594901 70.310169 
L 202.123755 75.323399 
L 205.652609 75.230237 
L 209.181462 67.803671 
L 212.710316 82.386638 
L 216.23917 94.548446 
L 219.768024 98.059482 
L 223.296877 88.946499 
L 226.825731 89.834733 
L 230.354585 103.905424 
L 233.883439 107.230949 
L 237.412292 108.972288 
L 240.941146 106.208754 
L 244.47 99.633247 
L 247.998854 109.485477 
L 251.527708 118.790596 
L 255.056561 124.767826 
L 258.585415 115.845756 
L 262.114269 93.326407 
L 265.643123 98.664725 
L 269.171976 108.57475 
L 272.70083 103.515703 
L 276.229684 99.59649 
L 279.758538 94.410199 
L 283.287391 95.427736 
L 286.816245 97.807214 
L 290.345099 95.158278 
L 293.873953 89.623167 
L 297.402806 72.38396 
L 300.93166 84.729186 
L 304.460514 94.835545 
L 307.989368 93.198451 
L 311.518221 103.018357 
L 315.047075 115.758879 
L 318.575929 135.675431 
L 322.104783 141.576284 
L 325.633636 135.803286 
L 329.16249 145.891791 
L 332.691344 151.675046 
L 336.220198 163.321838 
L 339.749051 167.119663 
L 343.277905 154.509852 
L 346.806759 152.931893 
L 350.335613 142.2812 
L 353.864466 159.931493 
L 357.39332 166.451406 
L 360.922174 164.213168 
L 364.451028 162.097118 
L 367.979881 154.54697 
L 371.508735 169.626317 
L 375.037589 176.435896 
L 378.566443 176.893114 
L 382.095296 182.035 
L 385.62415 176.940862 
L 389.153004 183.476589 
L 392.681858 179.866142 
L 396.210711 187.637043 
L 399.739565 201.723245 
L 403.268419 206.573993 
L 406.797273 217.326727 
" clip-path="url(#pbad42ce30d)" style="fill: none; stroke: #e68332; stroke-width: 1.5; stroke-linecap: round"/>
   </g>
   <g id="line2d_16">
    <path d="M 82.142727 118.641233 
L 85.671581 109.783681 
L 89.200435 102.445475 
L 92.729289 109.526378 
L 96.258142 121.173683 
L 99.786996 114.44519 
L 103.31585 124.17213 
L 106.844704 130.162229 
L 110.373557 128.734391 
L 113.902411 148.237624 
L 117.431265 140.219462 
L 120.960119 127.553398 
L 124.488972 122.052686 
L 128.017826 122.248652 
L 131.54668 122.672294 
L 135.075534 128.526582 
L 138.604387 130.219595 
L 142.133241 132.812792 
L 145.662095 155.005327 
L 149.190949 166.608598 
L 152.719802 144.684864 
L 156.248656 149.942473 
L 159.77751 153.167847 
L 163.306364 160.311313 
L 166.835217 201.700166 
L 170.364071 225.753508 
L 173.892925 244.954031 
L 177.421779 253.25286 
" clip-path="url(#pbad42ce30d)" style="fill: none; stroke: #bb9832; stroke-width: 1.5; stroke-linecap: round"/>
   </g>
   <g id="line2d_17">
    <path d="M 82.142727 243.600429 
L 85.671581 240.066079 
L 89.200435 213.521479 
L 92.729289 212.651183 
L 96.258142 210.499516 
L 99.786996 218.472574 
L 103.31585 226.18725 
L 106.844704 207.160599 
L 110.373557 209.969632 
L 113.902411 198.146743 
L 117.431265 200.454679 
L 120.960119 204.779675 
L 124.488972 196.698478 
L 128.017826 190.926919 
L 131.54668 182.363123 
L 135.075534 172.762511 
L 138.604387 178.88362 
L 142.133241 174.242006 
L 145.662095 190.086927 
L 149.190949 184.029568 
L 152.719802 191.303255 
L 156.248656 190.248331 
L 159.77751 168.047156 
L 163.306364 166.178435 
L 166.835217 156.325029 
L 170.364071 158.745186 
L 173.892925 167.6566 
L 177.421779 161.386624 
L 180.950632 160.595082 
L 184.479486 151.153225 
L 188.00834 164.654616 
L 191.537194 159.40772 
L 195.066047 145.265911 
L 198.594901 156.305076 
L 202.123755 147.988662 
L 205.652609 160.453175 
L 209.181462 179.845782 
L 212.710316 159.79714 
L 216.23917 178.810881 
L 219.768024 182.103043 
L 223.296877 188.5935 
L 226.825731 197.340634 
L 230.354585 190.138715 
L 233.883439 175.355529 
L 237.412292 154.304808 
L 240.941146 158.15277 
L 244.47 150.399481 
L 247.998854 141.927633 
L 251.527708 154.575019 
L 255.056561 143.010236 
L 258.585415 132.731608 
L 262.114269 123.076281 
L 265.643123 102.107597 
L 269.171976 82.738435 
L 272.70083 82.167716 
L 276.229684 80.178863 
L 279.758538 87.092134 
L 283.287391 86.935226 
L 286.816245 93.198604 
L 290.345099 75.149374 
L 293.873953 72.727292 
L 297.402806 75.030311 
L 300.93166 84.799991 
L 304.460514 106.478525 
L 307.989368 110.559768 
L 311.518221 111.829771 
L 315.047075 130.459019 
L 318.575929 117.525393 
L 322.104783 117.439356 
L 325.633636 128.830368 
L 329.16249 140.257216 
L 332.691344 134.58991 
L 336.220198 127.115081 
L 339.749051 121.479097 
L 343.277905 117.013773 
L 346.806759 108.707648 
L 350.335613 109.126152 
L 353.864466 108.636483 
L 357.39332 123.622498 
L 360.922174 117.342421 
L 364.451028 112.344263 
L 367.979881 106.486549 
L 371.508735 113.964286 
L 375.037589 99.15073 
L 378.566443 95.751705 
L 382.095296 94.220077 
L 385.62415 97.959809 
L 389.153004 96.948367 
L 392.681858 95.783254 
L 396.210711 92.538586 
L 399.739565 107.374393 
L 403.268419 119.897444 
L 406.797273 124.411916 
" clip-path="url(#pbad42ce30d)" style="fill: none; stroke: #97a431; stroke-width: 1.5; stroke-linecap: round"/>
   </g>
   <g id="line2d_18">
    <path d="M 82.142727 168.367539 
L 85.671581 165.485616 
L 89.200435 164.691118 
L 92.729289 135.50976 
L 96.258142 141.009962 
L 99.786996 126.141355 
L 103.31585 112.391844 
L 106.844704 131.440767 
L 110.373557 90.992541 
L 113.902411 97.481405 
L 117.431265 101.975398 
L 120.960119 101.214166 
L 124.488972 122.492095 
L 128.017826 143.488578 
L 131.54668 159.432104 
L 135.075534 144.485779 
L 138.604387 143.480219 
L 142.133241 197.173559 
L 145.662095 171.430947 
L 149.190949 192.582262 
L 152.719802 197.102212 
L 156.248656 174.303936 
L 159.77751 164.849265 
L 163.306364 157.341967 
" clip-path="url(#pbad42ce30d)" style="fill: none; stroke: #50b131; stroke-width: 1.5; stroke-linecap: round"/>
   </g>
   <g id="line2d_19">
    <path d="M 82.142727 89.06101 
L 85.671581 100.886561 
L 89.200435 91.657342 
L 92.729289 91.986309 
L 96.258142 103.908558 
L 99.786996 110.660204 
L 103.31585 118.779371 
L 106.844704 111.922469 
L 110.373557 132.327757 
L 113.902411 119.916818 
L 117.431265 124.42694 
L 120.960119 159.413051 
L 124.488972 162.621517 
L 128.017826 159.827223 
L 131.54668 151.933482 
L 135.075534 136.726613 
L 138.604387 137.211053 
L 142.133241 131.877841 
L 145.662095 155.546464 
L 149.190949 165.346651 
L 152.719802 159.527545 
L 156.248656 168.957043 
L 159.77751 172.081161 
L 163.306364 175.857546 
L 166.835217 189.469528 
L 170.364071 190.1586 
L 173.892925 208.341787 
L 177.421779 190.427909 
L 180.950632 171.562317 
L 184.479486 160.067588 
L 188.00834 167.736117 
L 191.537194 186.7391 
L 195.066047 203.505643 
L 198.594901 222.886988 
L 202.123755 216.824313 
L 205.652609 199.5196 
L 209.181462 221.822371 
L 212.710316 233.01556 
L 216.23917 242.062134 
L 219.768024 231.062184 
L 223.296877 224.12356 
L 226.825731 232.320463 
L 230.354585 228.237084 
L 233.883439 231.006655 
L 237.412292 239.599749 
L 240.941146 218.763455 
L 244.47 214.36888 
L 247.998854 211.103323 
L 251.527708 211.25065 
L 255.056561 186.697245 
L 258.585415 173.881297 
L 262.114269 174.410934 
L 265.643123 155.280472 
L 269.171976 165.197388 
L 272.70083 170.054312 
L 276.229684 146.727246 
L 279.758538 133.379504 
L 283.287391 126.007409 
L 286.816245 115.109327 
L 290.345099 108.753908 
L 293.873953 101.524859 
L 297.402806 105.806888 
L 300.93166 114.894697 
L 304.460514 111.952784 
L 307.989368 102.979545 
L 311.518221 97.386757 
L 315.047075 101.746071 
L 318.575929 119.076661 
L 322.104783 129.512239 
L 325.633636 118.82915 
L 329.16249 92.552965 
L 332.691344 96.38012 
L 336.220198 112.02085 
L 339.749051 109.392448 
L 343.277905 97.051294 
L 346.806759 84.223198 
L 350.335613 97.315937 
L 353.864466 112.922698 
L 357.39332 119.659039 
L 360.922174 119.187256 
L 364.451028 109.219975 
L 367.979881 102.750896 
L 371.508735 104.082173 
L 375.037589 106.330649 
L 378.566443 95.833482 
L 382.095296 98.305007 
L 385.62415 112.246706 
L 389.153004 111.747944 
L 392.681858 102.556663 
L 396.210711 107.185659 
L 399.739565 87.228286 
L 403.268419 81.771231 
L 406.797273 83.740275 
" clip-path="url(#pbad42ce30d)" style="fill: none; stroke: #34af84; stroke-width: 1.5; stroke-linecap: round"/>
   </g>
   <g id="line2d_20">
    <path d="M 82.142727 227.079717 
L 85.671581 210.529251 
L 89.200435 211.259276 
L 92.729289 202.485754 
L 96.258142 202.088083 
L 99.786996 212.671391 
L 103.31585 198.880506 
L 106.844704 193.869988 
L 110.373557 195.039439 
L 113.902411 208.569324 
L 117.431265 206.556088 
L 120.960119 193.926307 
L 124.488972 201.645336 
L 128.017826 189.590367 
L 131.54668 197.813917 
L 135.075534 199.94948 
L 138.604387 202.27209 
L 142.133241 199.311982 
L 145.662095 200.619187 
L 149.190949 208.978275 
L 152.719802 209.462033 
L 156.248656 210.377654 
L 159.77751 209.391995 
L 163.306364 202.306563 
L 166.835217 174.264094 
L 170.364071 156.375587 
L 173.892925 174.312596 
L 177.421779 182.390881 
L 180.950632 188.347668 
L 184.479486 191.005683 
L 188.00834 192.558667 
L 191.537194 167.118729 
L 195.066047 160.013555 
L 198.594901 153.798197 
L 202.123755 160.603608 
L 205.652609 165.638435 
L 209.181462 159.529993 
L 212.710316 164.836609 
L 216.23917 178.19323 
L 219.768024 178.648183 
L 223.296877 176.807222 
L 226.825731 176.254791 
L 230.354585 170.516023 
L 233.883439 146.207051 
L 237.412292 151.988892 
L 240.941146 139.830084 
L 244.47 130.80215 
L 247.998854 129.018419 
L 251.527708 135.655178 
L 255.056561 129.541801 
L 258.585415 125.012262 
L 262.114269 120.921867 
L 265.643123 114.97426 
L 269.171976 103.95733 
L 272.70083 109.034076 
L 276.229684 105.203815 
L 279.758538 108.265836 
L 283.287391 102.098757 
L 286.816245 117.237747 
L 290.345099 124.735891 
L 293.873953 131.523534 
L 297.402806 131.680789 
L 300.93166 142.148229 
L 304.460514 139.610121 
L 307.989368 137.297093 
L 311.518221 131.218485 
L 315.047075 128.847961 
L 318.575929 125.955504 
L 322.104783 121.962027 
L 325.633636 118.228434 
L 329.16249 116.84292 
L 332.691344 107.461621 
L 336.220198 107.752664 
L 339.749051 101.921259 
L 343.277905 85.69208 
L 346.806759 81.520572 
L 350.335613 78.876872 
L 353.864466 76.459829 
L 357.39332 76.664331 
L 360.922174 81.667765 
L 364.451028 89.887023 
L 367.979881 72.919737 
L 371.508735 61.776219 
L 375.037589 54.575616 
L 378.566443 52.320818 
L 382.095296 60.792578 
L 385.62415 60.307393 
L 389.153004 75.773939 
L 392.681858 83.727893 
L 396.210711 90.997959 
L 399.739565 116.72815 
L 403.268419 138.97056 
L 406.797273 138.866385 
" clip-path="url(#pbad42ce30d)" style="fill: none; stroke: #36ada4; stroke-width: 1.5; stroke-linecap: round"/>
   </g>
   <g id="line2d_21">
    <path d="M 82.142727 78.096462 
L 85.671581 69.387952 
L 89.200435 86.278289 
L 92.729289 78.469733 
L 96.258142 63.918357 
L 99.786996 60.028982 
L 103.31585 33.885375 
L 106.844704 45.160783 
L 110.373557 63.018042 
L 113.902411 71.762754 
L 117.431265 85.001878 
L 120.960119 74.86737 
L 124.488972 75.450312 
L 128.017826 70.547281 
L 131.54668 73.751924 
L 135.075534 91.549668 
L 138.604387 93.820727 
L 142.133241 103.733186 
L 145.662095 100.604596 
L 149.190949 100.124667 
L 152.719802 102.800505 
L 156.248656 98.00644 
L 159.77751 111.410426 
L 163.306364 117.895349 
L 166.835217 117.997618 
L 170.364071 107.755038 
L 173.892925 104.57513 
L 177.421779 100.39485 
L 180.950632 93.509894 
L 184.479486 105.621354 
L 188.00834 103.374536 
L 191.537194 98.02009 
L 195.066047 97.008235 
L 198.594901 98.169351 
L 202.123755 100.271351 
L 205.652609 105.071515 
L 209.181462 126.224393 
L 212.710316 134.500421 
L 216.23917 126.774781 
L 219.768024 128.259142 
L 223.296877 130.963359 
L 226.825731 139.907253 
L 230.354585 149.792127 
L 233.883439 158.93888 
L 237.412292 171.76159 
L 240.941146 163.424574 
L 244.47 149.299344 
L 247.998854 145.528689 
L 251.527708 146.378987 
L 255.056561 165.58392 
L 258.585415 181.117599 
L 262.114269 192.046259 
L 265.643123 193.224698 
L 269.171976 176.535847 
L 272.70083 178.422211 
L 276.229684 168.161461 
L 279.758538 164.966794 
L 283.287391 157.135665 
L 286.816245 139.791426 
L 290.345099 161.165968 
L 293.873953 169.030574 
L 297.402806 175.641862 
L 300.93166 168.135073 
L 304.460514 165.955958 
L 307.989368 196.588463 
L 311.518221 214.081999 
L 315.047075 223.200956 
L 318.575929 217.861351 
L 322.104783 218.272447 
L 325.633636 232.954495 
L 329.16249 225.529028 
L 332.691344 217.872642 
L 336.220198 242.979801 
L 339.749051 231.271374 
L 343.277905 225.943473 
L 346.806759 208.135104 
L 350.335613 198.916989 
L 353.864466 201.445232 
L 357.39332 195.661815 
L 360.922174 200.421237 
L 364.451028 201.682854 
L 367.979881 194.327959 
L 371.508735 197.253385 
L 375.037589 199.898352 
L 378.566443 217.657644 
L 382.095296 198.288568 
L 385.62415 184.881626 
L 389.153004 191.033722 
L 392.681858 188.037125 
L 396.210711 184.029874 
L 399.739565 202.990809 
L 403.268419 173.371322 
L 406.797273 186.751009 
" clip-path="url(#pbad42ce30d)" style="fill: none; stroke: #38aabf; stroke-width: 1.5; stroke-linecap: round"/>
   </g>
   <g id="line2d_22">
    <path d="M 82.142727 239.675421 
L 85.671581 232.074538 
L 89.200435 216.703807 
L 92.729289 196.48884 
L 96.258142 205.706061 
L 99.786996 238.399482 
L 103.31585 235.111803 
L 106.844704 223.588629 
L 110.373557 205.586935 
L 113.902411 199.618938 
L 117.431265 209.058645 
L 120.960119 211.870407 
L 124.488972 192.765973 
L 128.017826 176.134909 
L 131.54668 179.341252 
L 135.075534 182.395842 
L 138.604387 180.488213 
L 142.133241 177.262767 
L 145.662095 172.955391 
L 149.190949 177.605252 
L 152.719802 184.57735 
L 156.248656 181.478095 
L 159.77751 182.547829 
L 163.306364 201.938491 
L 166.835217 213.355673 
L 170.364071 214.353879 
L 173.892925 200.12527 
L 177.421779 181.680517 
L 180.950632 187.736337 
L 184.479486 209.122054 
L 188.00834 213.917019 
L 191.537194 213.342506 
L 195.066047 219.62574 
L 198.594901 225.728746 
L 202.123755 219.325437 
L 205.652609 205.241641 
L 209.181462 193.119233 
L 212.710316 193.487311 
L 216.23917 206.605652 
L 219.768024 212.455715 
L 223.296877 211.777682 
L 226.825731 202.879933 
L 230.354585 178.746735 
L 233.883439 157.50044 
L 237.412292 148.464409 
L 240.941146 130.971165 
L 244.47 111.504837 
L 247.998854 111.086388 
L 251.527708 122.25678 
L 255.056561 103.195091 
L 258.585415 100.264152 
L 262.114269 90.955618 
L 265.643123 79.125884 
L 269.171976 73.156327 
L 272.70083 80.437666 
L 276.229684 94.058236 
L 279.758538 95.345658 
L 283.287391 93.321156 
L 286.816245 117.709849 
L 290.345099 109.058154 
L 293.873953 103.979116 
L 297.402806 91.660942 
L 300.93166 95.210392 
L 304.460514 101.145704 
L 307.989368 86.495904 
L 311.518221 68.643177 
L 315.047075 73.954941 
L 318.575929 73.299548 
L 322.104783 91.283214 
L 325.633636 98.095484 
L 329.16249 101.956973 
L 332.691344 90.02655 
L 336.220198 96.595365 
L 339.749051 109.179376 
L 343.277905 91.596368 
L 346.806759 80.538226 
L 350.335613 70.899834 
L 353.864466 45.635887 
L 357.39332 58.241889 
L 360.922174 59.400475 
L 364.451028 69.733702 
L 367.979881 72.308055 
L 371.508735 75.967156 
L 375.037589 77.571413 
L 378.566443 66.472851 
L 382.095296 70.691419 
L 385.62415 75.358316 
L 389.153004 103.442014 
L 392.681858 148.955066 
L 396.210711 143.661068 
L 399.739565 162.310335 
L 403.268419 159.195485 
L 406.797273 143.429523 
" clip-path="url(#pbad42ce30d)" style="fill: none; stroke: #3ba3ec; stroke-width: 1.5; stroke-linecap: round"/>
   </g>
   <g id="line2d_23">
    <path d="M 82.142727 169.341595 
L 85.671581 171.385196 
L 89.200435 138.288995 
L 92.729289 141.158 
L 96.258142 150.772406 
L 99.786996 152.539405 
L 103.31585 145.666014 
L 106.844704 150.751627 
L 110.373557 147.47318 
L 113.902411 142.27019 
L 117.431265 150.342957 
L 120.960119 168.982564 
L 124.488972 154.833761 
L 128.017826 162.036873 
L 131.54668 167.263813 
L 135.075534 165.998475 
L 138.604387 172.953923 
L 142.133241 156.056056 
L 145.662095 140.782975 
L 149.190949 145.159204 
L 152.719802 110.456529 
L 156.248656 118.752492 
L 159.77751 123.1622 
L 163.306364 107.805441 
L 166.835217 107.112099 
L 170.364071 135.59046 
" clip-path="url(#pbad42ce30d)" style="fill: none; stroke: #a48cf4; stroke-width: 1.5; stroke-linecap: round"/>
   </g>
   <g id="line2d_24">
    <path d="M 82.142727 256.5582 
L 85.671581 263.385733 
L 89.200435 275.805375 
L 92.729289 256.910094 
L 96.258142 224.667644 
L 99.786996 212.013087 
L 103.31585 198.864746 
L 106.844704 180.046602 
L 110.373557 157.209788 
L 113.902411 153.024775 
L 117.431265 148.24867 
L 120.960119 149.185355 
L 124.488972 150.803067 
L 128.017826 139.463305 
L 131.54668 140.644712 
L 135.075534 136.43881 
L 138.604387 137.515813 
L 142.133241 146.780943 
L 145.662095 132.645567 
L 149.190949 134.31386 
L 152.719802 137.957504 
L 156.248656 131.941937 
L 159.77751 123.763946 
L 163.306364 104.420328 
L 166.835217 116.650398 
L 170.364071 121.475918 
L 173.892925 107.94007 
L 177.421779 108.458281 
L 180.950632 87.57767 
L 184.479486 86.9433 
L 188.00834 96.687933 
L 191.537194 106.304505 
L 195.066047 98.396488 
L 198.594901 87.757534 
L 202.123755 94.498988 
L 205.652609 87.953476 
L 209.181462 84.887099 
L 212.710316 94.345305 
L 216.23917 89.759408 
L 219.768024 89.140248 
L 223.296877 93.793572 
L 226.825731 91.385665 
L 230.354585 84.669071 
L 233.883439 75.148614 
L 237.412292 80.257836 
L 240.941146 86.443222 
L 244.47 93.979154 
L 247.998854 97.653022 
L 251.527708 109.485753 
L 255.056561 136.246599 
L 258.585415 131.649554 
L 262.114269 130.728474 
L 265.643123 150.661298 
L 269.171976 152.975438 
L 272.70083 169.146306 
L 276.229684 193.07046 
L 279.758538 194.502402 
L 283.287391 190.645848 
L 286.816245 190.375702 
L 290.345099 188.12364 
L 293.873953 177.092308 
L 297.402806 177.192132 
L 300.93166 184.502537 
L 304.460514 179.320561 
L 307.989368 186.652121 
L 311.518221 194.892087 
L 315.047075 193.444523 
L 318.575929 196.442086 
L 322.104783 186.248583 
L 325.633636 194.217232 
L 329.16249 211.934379 
L 332.691344 188.155915 
L 336.220198 158.969057 
L 339.749051 147.245765 
L 343.277905 136.156436 
L 346.806759 116.864945 
L 350.335613 126.261457 
L 353.864466 121.395018 
L 357.39332 106.239223 
L 360.922174 120.585117 
L 364.451028 131.525032 
L 367.979881 126.604584 
L 371.508735 147.636953 
L 375.037589 157.300981 
L 378.566443 166.236829 
L 382.095296 174.323965 
L 385.62415 173.794121 
L 389.153004 157.045925 
L 392.681858 163.047172 
L 396.210711 157.844826 
L 399.739565 151.976889 
L 403.268419 141.785607 
L 406.797273 136.087048 
" clip-path="url(#pbad42ce30d)" style="fill: none; stroke: #e866f4; stroke-width: 1.5; stroke-linecap: round"/>
   </g>
   <g id="line2d_25">
    <path d="M 82.142727 207.539763 
L 85.671581 220.598918 
L 89.200435 220.461842 
L 92.729289 207.925512 
L 96.258142 190.04539 
L 99.786996 204.780058 
L 103.31585 214.990786 
L 106.844704 213.767585 
L 110.373557 196.802361 
L 113.902411 183.091811 
L 117.431265 200.634836 
L 120.960119 216.441177 
L 124.488972 221.177425 
L 128.017826 215.085862 
L 131.54668 189.743322 
L 135.075534 195.575427 
L 138.604387 196.871617 
L 142.133241 200.254472 
L 145.662095 200.262809 
L 149.190949 184.767416 
L 152.719802 191.546358 
L 156.248656 182.877154 
L 159.77751 177.772287 
L 163.306364 172.387013 
L 166.835217 163.296129 
L 170.364071 175.020139 
L 173.892925 173.270289 
L 177.421779 179.609484 
L 180.950632 188.519933 
L 184.479486 184.822621 
L 188.00834 193.570269 
L 191.537194 178.858629 
L 195.066047 164.458009 
L 198.594901 163.340509 
L 202.123755 148.655546 
L 205.652609 153.144338 
L 209.181462 152.055306 
L 212.710316 149.373645 
L 216.23917 156.74263 
L 219.768024 147.594941 
L 223.296877 152.990092 
L 226.825731 133.069236 
L 230.354585 121.990604 
L 233.883439 108.95823 
L 237.412292 85.61045 
L 240.941146 91.020295 
L 244.47 87.396007 
L 247.998854 95.012725 
L 251.527708 104.521381 
L 255.056561 101.430899 
L 258.585415 113.406573 
L 262.114269 93.985449 
L 265.643123 99.039946 
L 269.171976 103.53156 
L 272.70083 107.414101 
L 276.229684 114.223748 
L 279.758538 96.343697 
L 283.287391 99.858841 
L 286.816245 106.312123 
L 290.345099 97.42468 
L 293.873953 98.493013 
L 297.402806 76.165202 
L 300.93166 84.74999 
L 304.460514 82.262006 
L 307.989368 81.258912 
L 311.518221 84.990755 
L 315.047075 67.727126 
L 318.575929 73.583641 
L 322.104783 96.665285 
L 325.633636 112.187354 
L 329.16249 126.116327 
L 332.691344 111.334285 
L 336.220198 113.671788 
L 339.749051 118.985727 
L 343.277905 126.424209 
L 346.806759 134.076967 
L 350.335613 113.126768 
L 353.864466 116.119246 
L 357.39332 121.164977 
L 360.922174 132.848017 
L 364.451028 151.541525 
L 367.979881 134.832982 
L 371.508735 139.840778 
L 375.037589 135.974006 
L 378.566443 129.586399 
L 382.095296 129.09229 
L 385.62415 119.002384 
L 389.153004 136.765309 
L 392.681858 154.536461 
L 396.210711 178.068726 
L 399.739565 181.628587 
L 403.268419 160.715634 
L 406.797273 166.5386 
" clip-path="url(#pbad42ce30d)" style="fill: none; stroke: #f668c2; stroke-width: 1.5; stroke-linecap: round"/>
   </g>
   <g id="line2d_26"/>
   <g id="line2d_27"/>
   <g id="line2d_28"/>
   <g id="line2d_29"/>
   <g id="line2d_30"/>
   <g id="line2d_31"/>
   <g id="line2d_32"/>
   <g id="line2d_33"/>
   <g id="line2d_34"/>
   <g id="line2d_35"/>
   <g id="line2d_36"/>
   <g id="line2d_37"/>
   <g id="patch_3">
    <path d="M 65.91 287.901375 
L 65.91 21.789375 
" style="fill: none; stroke: #cccccc; stroke-width: 1.25; stroke-linejoin: miter; stroke-linecap: square"/>
   </g>
   <g id="patch_4">
    <path d="M 423.03 287.901375 
L 423.03 21.789375 
" style="fill: none; stroke: #cccccc; stroke-width: 1.25; stroke-linejoin: miter; stroke-linecap: square"/>
   </g>
   <g id="patch_5">
    <path d="M 65.91 287.901375 
L 423.03 287.901375 
" style="fill: none; stroke: #cccccc; stroke-width: 1.25; stroke-linejoin: miter; stroke-linecap: square"/>
   </g>
   <g id="patch_6">
    <path d="M 65.91 21.789375 
L 423.03 21.789375 
" style="fill: none; stroke: #cccccc; stroke-width: 1.25; stroke-linejoin: miter; stroke-linecap: square"/>
   </g>
   <g id="text_16">
    <!-- movie -->
    <g style="fill: #262626" transform="translate(228.465937 15.789375) scale(0.12 -0.12)">
     <defs>
      <path id="ArialMT-6d" d="M 422 0 
L 422 3319 
L 925 3319 
L 925 2853 
Q 1081 3097 1340 3245 
Q 1600 3394 1931 3394 
Q 2300 3394 2536 3241 
Q 2772 3088 2869 2813 
Q 3263 3394 3894 3394 
Q 4388 3394 4653 3120 
Q 4919 2847 4919 2278 
L 4919 0 
L 4359 0 
L 4359 2091 
Q 4359 2428 4304 2576 
Q 4250 2725 4106 2815 
Q 3963 2906 3769 2906 
Q 3419 2906 3187 2673 
Q 2956 2441 2956 1928 
L 2956 0 
L 2394 0 
L 2394 2156 
Q 2394 2531 2256 2718 
Q 2119 2906 1806 2906 
Q 1569 2906 1367 2781 
Q 1166 2656 1075 2415 
Q 984 2175 984 1722 
L 984 0 
L 422 0 
z
" transform="scale(0.015625)"/>
      <path id="ArialMT-76" d="M 1344 0 
L 81 3319 
L 675 3319 
L 1388 1331 
Q 1503 1009 1600 663 
Q 1675 925 1809 1294 
L 2547 3319 
L 3125 3319 
L 1869 0 
L 1344 0 
z
" transform="scale(0.015625)"/>
     </defs>
     <use xlink:href="#ArialMT-6d"/>
     <use xlink:href="#ArialMT-6f" x="83.300781"/>
     <use xlink:href="#ArialMT-76" x="138.916016"/>
     <use xlink:href="#ArialMT-69" x="188.916016"/>
     <use xlink:href="#ArialMT-65" x="211.132812"/>
    </g>
   </g>
   <g id="legend_1">
    <g id="patch_7">
     <path d="M 424.4196 142.255753 
L 556.737746 142.255753 
Q 558.127346 142.255753 558.127346 140.866153 
L 558.127346 23.178975 
Q 558.127346 21.789375 556.737746 21.789375 
L 424.4196 21.789375 
Q 423.03 21.789375 423.03 23.178975 
L 423.03 140.866153 
Q 423.03 142.255753 424.4196 142.255753 
z
" style="fill: #ffffff; opacity: 0.8; stroke: #cccccc; stroke-linejoin: miter"/>
    </g>
    <g id="line2d_38">
     <path d="M 425.8092 27.13065 
L 432.7572 27.13065 
L 439.7052 27.13065 
" style="fill: none; stroke: #f77189; stroke-width: 1.5; stroke-linecap: round"/>
    </g>
    <g id="text_17">
     <!-- 04HD_01_movie_04_LPI_000.netts -->
     <g style="fill: #262626" transform="translate(445.2636 29.56245) scale(0.06948 -0.06948)">
      <defs>
       <path id="ArialMT-44" d="M 494 0 
L 494 4581 
L 2072 4581 
Q 2606 4581 2888 4516 
Q 3281 4425 3559 4188 
Q 3922 3881 4101 3404 
Q 4281 2928 4281 2316 
Q 4281 1794 4159 1391 
Q 4038 988 3847 723 
Q 3656 459 3429 307 
Q 3203 156 2883 78 
Q 2563 0 2147 0 
L 494 0 
z
M 1100 541 
L 2078 541 
Q 2531 541 2789 625 
Q 3047 709 3200 863 
Q 3416 1078 3536 1442 
Q 3656 1806 3656 2325 
Q 3656 3044 3420 3430 
Q 3184 3816 2847 3947 
Q 2603 4041 2063 4041 
L 1100 4041 
L 1100 541 
z
" transform="scale(0.015625)"/>
       <path id="ArialMT-5f" d="M -97 -1272 
L -97 -866 
L 3631 -866 
L 3631 -1272 
L -97 -1272 
z
" transform="scale(0.015625)"/>
       <path id="ArialMT-4c" d="M 469 0 
L 469 4581 
L 1075 4581 
L 1075 541 
L 3331 541 
L 3331 0 
L 469 0 
z
" transform="scale(0.015625)"/>
       <path id="ArialMT-50" d="M 494 0 
L 494 4581 
L 2222 4581 
Q 2678 4581 2919 4538 
Q 3256 4481 3484 4323 
Q 3713 4166 3852 3881 
Q 3991 3597 3991 3256 
Q 3991 2672 3619 2267 
Q 3247 1863 2275 1863 
L 1100 1863 
L 1100 0 
L 494 0 
z
M 1100 2403 
L 2284 2403 
Q 2872 2403 3119 2622 
Q 3366 2841 3366 3238 
Q 3366 3525 3220 3729 
Q 3075 3934 2838 4000 
Q 2684 4041 2272 4041 
L 1100 4041 
L 1100 2403 
z
" transform="scale(0.015625)"/>
       <path id="ArialMT-49" d="M 597 0 
L 597 4581 
L 1203 4581 
L 1203 0 
L 597 0 
z
" transform="scale(0.015625)"/>
      </defs>
      <use xlink:href="#ArialMT-30"/>
      <use xlink:href="#ArialMT-34" x="55.615234"/>
      <use xlink:href="#ArialMT-48" x="111.230469"/>
      <use xlink:href="#ArialMT-44" x="183.447266"/>
      <use xlink:href="#ArialMT-5f" x="255.664062"/>
      <use xlink:href="#ArialMT-30" x="311.279297"/>
      <use xlink:href="#ArialMT-31" x="366.894531"/>
      <use xlink:href="#ArialMT-5f" x="422.509766"/>
      <use xlink:href="#ArialMT-6d" x="478.125"/>
      <use xlink:href="#ArialMT-6f" x="561.425781"/>
      <use xlink:href="#ArialMT-76" x="617.041016"/>
      <use xlink:href="#ArialMT-69" x="667.041016"/>
      <use xlink:href="#ArialMT-65" x="689.257812"/>
      <use xlink:href="#ArialMT-5f" x="744.873047"/>
      <use xlink:href="#ArialMT-30" x="800.488281"/>
      <use xlink:href="#ArialMT-34" x="856.103516"/>
      <use xlink:href="#ArialMT-5f" x="911.71875"/>
      <use xlink:href="#ArialMT-4c" x="967.333984"/>
      <use xlink:href="#ArialMT-50" x="1022.949219"/>
      <use xlink:href="#ArialMT-49" x="1089.648438"/>
      <use xlink:href="#ArialMT-5f" x="1117.431641"/>
      <use xlink:href="#ArialMT-30" x="1173.046875"/>
      <use xlink:href="#ArialMT-30" x="1228.662109"/>
      <use xlink:href="#ArialMT-30" x="1284.277344"/>
      <use xlink:href="#ArialMT-2e" x="1339.892578"/>
      <use xlink:href="#ArialMT-6e" x="1367.675781"/>
      <use xlink:href="#ArialMT-65" x="1423.291016"/>
      <use xlink:href="#ArialMT-74" x="1478.90625"/>
      <use xlink:href="#ArialMT-74" x="1506.689453"/>
      <use xlink:href="#ArialMT-73" x="1534.472656"/>
     </g>
    </g>
    <g id="line2d_39">
     <path d="M 425.8092 37.043492 
L 432.7572 37.043492 
L 439.7052 37.043492 
" style="fill: none; stroke: #e68332; stroke-width: 1.5; stroke-linecap: round"/>
    </g>
    <g id="text_18">
     <!-- 04SG_01_movie_04_LPI_000.netts -->
     <g style="fill: #262626" transform="translate(445.2636 39.475292) scale(0.06948 -0.06948)">
      <defs>
       <path id="ArialMT-53" d="M 288 1472 
L 859 1522 
Q 900 1178 1048 958 
Q 1197 738 1509 602 
Q 1822 466 2213 466 
Q 2559 466 2825 569 
Q 3091 672 3220 851 
Q 3350 1031 3350 1244 
Q 3350 1459 3225 1620 
Q 3100 1781 2813 1891 
Q 2628 1963 1997 2114 
Q 1366 2266 1113 2400 
Q 784 2572 623 2826 
Q 463 3081 463 3397 
Q 463 3744 659 4045 
Q 856 4347 1234 4503 
Q 1613 4659 2075 4659 
Q 2584 4659 2973 4495 
Q 3363 4331 3572 4012 
Q 3781 3694 3797 3291 
L 3216 3247 
Q 3169 3681 2898 3903 
Q 2628 4125 2100 4125 
Q 1550 4125 1298 3923 
Q 1047 3722 1047 3438 
Q 1047 3191 1225 3031 
Q 1400 2872 2139 2705 
Q 2878 2538 3153 2413 
Q 3553 2228 3743 1945 
Q 3934 1663 3934 1294 
Q 3934 928 3725 604 
Q 3516 281 3123 101 
Q 2731 -78 2241 -78 
Q 1619 -78 1198 103 
Q 778 284 539 648 
Q 300 1013 288 1472 
z
" transform="scale(0.015625)"/>
       <path id="ArialMT-47" d="M 2638 1797 
L 2638 2334 
L 4578 2338 
L 4578 638 
Q 4131 281 3656 101 
Q 3181 -78 2681 -78 
Q 2006 -78 1454 211 
Q 903 500 622 1047 
Q 341 1594 341 2269 
Q 341 2938 620 3517 
Q 900 4097 1425 4378 
Q 1950 4659 2634 4659 
Q 3131 4659 3532 4498 
Q 3934 4338 4162 4050 
Q 4391 3763 4509 3300 
L 3963 3150 
Q 3859 3500 3706 3700 
Q 3553 3900 3268 4020 
Q 2984 4141 2638 4141 
Q 2222 4141 1919 4014 
Q 1616 3888 1430 3681 
Q 1244 3475 1141 3228 
Q 966 2803 966 2306 
Q 966 1694 1177 1281 
Q 1388 869 1791 669 
Q 2194 469 2647 469 
Q 3041 469 3416 620 
Q 3791 772 3984 944 
L 3984 1797 
L 2638 1797 
z
" transform="scale(0.015625)"/>
      </defs>
      <use xlink:href="#ArialMT-30"/>
      <use xlink:href="#ArialMT-34" x="55.615234"/>
      <use xlink:href="#ArialMT-53" x="111.230469"/>
      <use xlink:href="#ArialMT-47" x="177.929688"/>
      <use xlink:href="#ArialMT-5f" x="255.712891"/>
      <use xlink:href="#ArialMT-30" x="311.328125"/>
      <use xlink:href="#ArialMT-31" x="366.943359"/>
      <use xlink:href="#ArialMT-5f" x="422.558594"/>
      <use xlink:href="#ArialMT-6d" x="478.173828"/>
      <use xlink:href="#ArialMT-6f" x="561.474609"/>
      <use xlink:href="#ArialMT-76" x="617.089844"/>
      <use xlink:href="#ArialMT-69" x="667.089844"/>
      <use xlink:href="#ArialMT-65" x="689.306641"/>
      <use xlink:href="#ArialMT-5f" x="744.921875"/>
      <use xlink:href="#ArialMT-30" x="800.537109"/>
      <use xlink:href="#ArialMT-34" x="856.152344"/>
      <use xlink:href="#ArialMT-5f" x="911.767578"/>
      <use xlink:href="#ArialMT-4c" x="967.382812"/>
      <use xlink:href="#ArialMT-50" x="1022.998047"/>
      <use xlink:href="#ArialMT-49" x="1089.697266"/>
      <use xlink:href="#ArialMT-5f" x="1117.480469"/>
      <use xlink:href="#ArialMT-30" x="1173.095703"/>
      <use xlink:href="#ArialMT-30" x="1228.710938"/>
      <use xlink:href="#ArialMT-30" x="1284.326172"/>
      <use xlink:href="#ArialMT-2e" x="1339.941406"/>
      <use xlink:href="#ArialMT-6e" x="1367.724609"/>
      <use xlink:href="#ArialMT-65" x="1423.339844"/>
      <use xlink:href="#ArialMT-74" x="1478.955078"/>
      <use xlink:href="#ArialMT-74" x="1506.738281"/>
      <use xlink:href="#ArialMT-73" x="1534.521484"/>
     </g>
    </g>
    <g id="line2d_40">
     <path d="M 425.8092 46.892282 
L 432.7572 46.892282 
L 439.7052 46.892282 
" style="fill: none; stroke: #bb9832; stroke-width: 1.5; stroke-linecap: round"/>
    </g>
    <g id="text_19">
     <!-- 08VR_01_movie_04_LPI_000.netts -->
     <g style="fill: #262626" transform="translate(445.2636 49.324082) scale(0.06948 -0.06948)">
      <defs>
       <path id="ArialMT-56" d="M 1803 0 
L 28 4581 
L 684 4581 
L 1875 1253 
Q 2019 853 2116 503 
Q 2222 878 2363 1253 
L 3600 4581 
L 4219 4581 
L 2425 0 
L 1803 0 
z
" transform="scale(0.015625)"/>
       <path id="ArialMT-52" d="M 503 0 
L 503 4581 
L 2534 4581 
Q 3147 4581 3465 4457 
Q 3784 4334 3975 4021 
Q 4166 3709 4166 3331 
Q 4166 2844 3850 2509 
Q 3534 2175 2875 2084 
Q 3116 1969 3241 1856 
Q 3506 1613 3744 1247 
L 4541 0 
L 3778 0 
L 3172 953 
Q 2906 1366 2734 1584 
Q 2563 1803 2427 1890 
Q 2291 1978 2150 2013 
Q 2047 2034 1813 2034 
L 1109 2034 
L 1109 0 
L 503 0 
z
M 1109 2559 
L 2413 2559 
Q 2828 2559 3062 2645 
Q 3297 2731 3419 2920 
Q 3541 3109 3541 3331 
Q 3541 3656 3305 3865 
Q 3069 4075 2559 4075 
L 1109 4075 
L 1109 2559 
z
" transform="scale(0.015625)"/>
      </defs>
      <use xlink:href="#ArialMT-30"/>
      <use xlink:href="#ArialMT-38" x="55.615234"/>
      <use xlink:href="#ArialMT-56" x="111.230469"/>
      <use xlink:href="#ArialMT-52" x="177.929688"/>
      <use xlink:href="#ArialMT-5f" x="250.146484"/>
      <use xlink:href="#ArialMT-30" x="305.761719"/>
      <use xlink:href="#ArialMT-31" x="361.376953"/>
      <use xlink:href="#ArialMT-5f" x="416.992188"/>
      <use xlink:href="#ArialMT-6d" x="472.607422"/>
      <use xlink:href="#ArialMT-6f" x="555.908203"/>
      <use xlink:href="#ArialMT-76" x="611.523438"/>
      <use xlink:href="#ArialMT-69" x="661.523438"/>
      <use xlink:href="#ArialMT-65" x="683.740234"/>
      <use xlink:href="#ArialMT-5f" x="739.355469"/>
      <use xlink:href="#ArialMT-30" x="794.970703"/>
      <use xlink:href="#ArialMT-34" x="850.585938"/>
      <use xlink:href="#ArialMT-5f" x="906.201172"/>
      <use xlink:href="#ArialMT-4c" x="961.816406"/>
      <use xlink:href="#ArialMT-50" x="1017.431641"/>
      <use xlink:href="#ArialMT-49" x="1084.130859"/>
      <use xlink:href="#ArialMT-5f" x="1111.914062"/>
      <use xlink:href="#ArialMT-30" x="1167.529297"/>
      <use xlink:href="#ArialMT-30" x="1223.144531"/>
      <use xlink:href="#ArialMT-30" x="1278.759766"/>
      <use xlink:href="#ArialMT-2e" x="1334.375"/>
      <use xlink:href="#ArialMT-6e" x="1362.158203"/>
      <use xlink:href="#ArialMT-65" x="1417.773438"/>
      <use xlink:href="#ArialMT-74" x="1473.388672"/>
      <use xlink:href="#ArialMT-74" x="1501.171875"/>
      <use xlink:href="#ArialMT-73" x="1528.955078"/>
     </g>
    </g>
    <g id="line2d_41">
     <path d="M 425.8092 56.741072 
L 432.7572 56.741072 
L 439.7052 56.741072 
" style="fill: none; stroke: #97a431; stroke-width: 1.5; stroke-linecap: round"/>
    </g>
    <g id="text_20">
     <!-- 10JR_01_movie_04_LPI_000.netts -->
     <g style="fill: #262626" transform="translate(445.2636 59.172872) scale(0.06948 -0.06948)">
      <defs>
       <path id="ArialMT-4a" d="M 184 1300 
L 731 1375 
Q 753 850 928 656 
Q 1103 463 1413 463 
Q 1641 463 1806 567 
Q 1972 672 2034 851 
Q 2097 1031 2097 1425 
L 2097 4581 
L 2703 4581 
L 2703 1459 
Q 2703 884 2564 568 
Q 2425 253 2123 87 
Q 1822 -78 1416 -78 
Q 813 -78 492 269 
Q 172 616 184 1300 
z
" transform="scale(0.015625)"/>
      </defs>
      <use xlink:href="#ArialMT-31"/>
      <use xlink:href="#ArialMT-30" x="55.615234"/>
      <use xlink:href="#ArialMT-4a" x="111.230469"/>
      <use xlink:href="#ArialMT-52" x="161.230469"/>
      <use xlink:href="#ArialMT-5f" x="233.447266"/>
      <use xlink:href="#ArialMT-30" x="289.0625"/>
      <use xlink:href="#ArialMT-31" x="344.677734"/>
      <use xlink:href="#ArialMT-5f" x="400.292969"/>
      <use xlink:href="#ArialMT-6d" x="455.908203"/>
      <use xlink:href="#ArialMT-6f" x="539.208984"/>
      <use xlink:href="#ArialMT-76" x="594.824219"/>
      <use xlink:href="#ArialMT-69" x="644.824219"/>
      <use xlink:href="#ArialMT-65" x="667.041016"/>
      <use xlink:href="#ArialMT-5f" x="722.65625"/>
      <use xlink:href="#ArialMT-30" x="778.271484"/>
      <use xlink:href="#ArialMT-34" x="833.886719"/>
      <use xlink:href="#ArialMT-5f" x="889.501953"/>
      <use xlink:href="#ArialMT-4c" x="945.117188"/>
      <use xlink:href="#ArialMT-50" x="1000.732422"/>
      <use xlink:href="#ArialMT-49" x="1067.431641"/>
      <use xlink:href="#ArialMT-5f" x="1095.214844"/>
      <use xlink:href="#ArialMT-30" x="1150.830078"/>
      <use xlink:href="#ArialMT-30" x="1206.445312"/>
      <use xlink:href="#ArialMT-30" x="1262.060547"/>
      <use xlink:href="#ArialMT-2e" x="1317.675781"/>
      <use xlink:href="#ArialMT-6e" x="1345.458984"/>
      <use xlink:href="#ArialMT-65" x="1401.074219"/>
      <use xlink:href="#ArialMT-74" x="1456.689453"/>
      <use xlink:href="#ArialMT-74" x="1484.472656"/>
      <use xlink:href="#ArialMT-73" x="1512.255859"/>
     </g>
    </g>
    <g id="line2d_42">
     <path d="M 425.8092 66.653914 
L 432.7572 66.653914 
L 439.7052 66.653914 
" style="fill: none; stroke: #50b131; stroke-width: 1.5; stroke-linecap: round"/>
    </g>
    <g id="text_21">
     <!-- 13CA_01_movie_04_LPI_000.netts -->
     <g style="fill: #262626" transform="translate(445.2636 69.085714) scale(0.06948 -0.06948)">
      <defs>
       <path id="ArialMT-33" d="M 269 1209 
L 831 1284 
Q 928 806 1161 595 
Q 1394 384 1728 384 
Q 2125 384 2398 659 
Q 2672 934 2672 1341 
Q 2672 1728 2419 1979 
Q 2166 2231 1775 2231 
Q 1616 2231 1378 2169 
L 1441 2663 
Q 1497 2656 1531 2656 
Q 1891 2656 2178 2843 
Q 2466 3031 2466 3422 
Q 2466 3731 2256 3934 
Q 2047 4138 1716 4138 
Q 1388 4138 1169 3931 
Q 950 3725 888 3313 
L 325 3413 
Q 428 3978 793 4289 
Q 1159 4600 1703 4600 
Q 2078 4600 2393 4439 
Q 2709 4278 2876 4000 
Q 3044 3722 3044 3409 
Q 3044 3113 2884 2869 
Q 2725 2625 2413 2481 
Q 2819 2388 3044 2092 
Q 3269 1797 3269 1353 
Q 3269 753 2831 336 
Q 2394 -81 1725 -81 
Q 1122 -81 723 278 
Q 325 638 269 1209 
z
" transform="scale(0.015625)"/>
       <path id="ArialMT-43" d="M 3763 1606 
L 4369 1453 
Q 4178 706 3683 314 
Q 3188 -78 2472 -78 
Q 1731 -78 1267 223 
Q 803 525 561 1097 
Q 319 1669 319 2325 
Q 319 3041 592 3573 
Q 866 4106 1370 4382 
Q 1875 4659 2481 4659 
Q 3169 4659 3637 4309 
Q 4106 3959 4291 3325 
L 3694 3184 
Q 3534 3684 3231 3912 
Q 2928 4141 2469 4141 
Q 1941 4141 1586 3887 
Q 1231 3634 1087 3207 
Q 944 2781 944 2328 
Q 944 1744 1114 1308 
Q 1284 872 1643 656 
Q 2003 441 2422 441 
Q 2931 441 3284 734 
Q 3638 1028 3763 1606 
z
" transform="scale(0.015625)"/>
       <path id="ArialMT-41" d="M -9 0 
L 1750 4581 
L 2403 4581 
L 4278 0 
L 3588 0 
L 3053 1388 
L 1138 1388 
L 634 0 
L -9 0 
z
M 1313 1881 
L 2866 1881 
L 2388 3150 
Q 2169 3728 2063 4100 
Q 1975 3659 1816 3225 
L 1313 1881 
z
" transform="scale(0.015625)"/>
      </defs>
      <use xlink:href="#ArialMT-31"/>
      <use xlink:href="#ArialMT-33" x="55.615234"/>
      <use xlink:href="#ArialMT-43" x="111.230469"/>
      <use xlink:href="#ArialMT-41" x="183.447266"/>
      <use xlink:href="#ArialMT-5f" x="250.146484"/>
      <use xlink:href="#ArialMT-30" x="305.761719"/>
      <use xlink:href="#ArialMT-31" x="361.376953"/>
      <use xlink:href="#ArialMT-5f" x="416.992188"/>
      <use xlink:href="#ArialMT-6d" x="472.607422"/>
      <use xlink:href="#ArialMT-6f" x="555.908203"/>
      <use xlink:href="#ArialMT-76" x="611.523438"/>
      <use xlink:href="#ArialMT-69" x="661.523438"/>
      <use xlink:href="#ArialMT-65" x="683.740234"/>
      <use xlink:href="#ArialMT-5f" x="739.355469"/>
      <use xlink:href="#ArialMT-30" x="794.970703"/>
      <use xlink:href="#ArialMT-34" x="850.585938"/>
      <use xlink:href="#ArialMT-5f" x="906.201172"/>
      <use xlink:href="#ArialMT-4c" x="961.816406"/>
      <use xlink:href="#ArialMT-50" x="1017.431641"/>
      <use xlink:href="#ArialMT-49" x="1084.130859"/>
      <use xlink:href="#ArialMT-5f" x="1111.914062"/>
      <use xlink:href="#ArialMT-30" x="1167.529297"/>
      <use xlink:href="#ArialMT-30" x="1223.144531"/>
      <use xlink:href="#ArialMT-30" x="1278.759766"/>
      <use xlink:href="#ArialMT-2e" x="1334.375"/>
      <use xlink:href="#ArialMT-6e" x="1362.158203"/>
      <use xlink:href="#ArialMT-65" x="1417.773438"/>
      <use xlink:href="#ArialMT-74" x="1473.388672"/>
      <use xlink:href="#ArialMT-74" x="1501.171875"/>
      <use xlink:href="#ArialMT-73" x="1528.955078"/>
     </g>
    </g>
    <g id="line2d_43">
     <path d="M 425.8092 76.502704 
L 432.7572 76.502704 
L 439.7052 76.502704 
" style="fill: none; stroke: #34af84; stroke-width: 1.5; stroke-linecap: round"/>
    </g>
    <g id="text_22">
     <!-- 16RA_01_movie_04_LPI_000.netts -->
     <g style="fill: #262626" transform="translate(445.2636 78.934504) scale(0.06948 -0.06948)">
      <use xlink:href="#ArialMT-31"/>
      <use xlink:href="#ArialMT-36" x="55.615234"/>
      <use xlink:href="#ArialMT-52" x="111.230469"/>
      <use xlink:href="#ArialMT-41" x="183.447266"/>
      <use xlink:href="#ArialMT-5f" x="250.146484"/>
      <use xlink:href="#ArialMT-30" x="305.761719"/>
      <use xlink:href="#ArialMT-31" x="361.376953"/>
      <use xlink:href="#ArialMT-5f" x="416.992188"/>
      <use xlink:href="#ArialMT-6d" x="472.607422"/>
      <use xlink:href="#ArialMT-6f" x="555.908203"/>
      <use xlink:href="#ArialMT-76" x="611.523438"/>
      <use xlink:href="#ArialMT-69" x="661.523438"/>
      <use xlink:href="#ArialMT-65" x="683.740234"/>
      <use xlink:href="#ArialMT-5f" x="739.355469"/>
      <use xlink:href="#ArialMT-30" x="794.970703"/>
      <use xlink:href="#ArialMT-34" x="850.585938"/>
      <use xlink:href="#ArialMT-5f" x="906.201172"/>
      <use xlink:href="#ArialMT-4c" x="961.816406"/>
      <use xlink:href="#ArialMT-50" x="1017.431641"/>
      <use xlink:href="#ArialMT-49" x="1084.130859"/>
      <use xlink:href="#ArialMT-5f" x="1111.914062"/>
      <use xlink:href="#ArialMT-30" x="1167.529297"/>
      <use xlink:href="#ArialMT-30" x="1223.144531"/>
      <use xlink:href="#ArialMT-30" x="1278.759766"/>
      <use xlink:href="#ArialMT-2e" x="1334.375"/>
      <use xlink:href="#ArialMT-6e" x="1362.158203"/>
      <use xlink:href="#ArialMT-65" x="1417.773438"/>
      <use xlink:href="#ArialMT-74" x="1473.388672"/>
      <use xlink:href="#ArialMT-74" x="1501.171875"/>
      <use xlink:href="#ArialMT-73" x="1528.955078"/>
     </g>
    </g>
    <g id="line2d_44">
     <path d="M 425.8092 86.351494 
L 432.7572 86.351494 
L 439.7052 86.351494 
" style="fill: none; stroke: #36ada4; stroke-width: 1.5; stroke-linecap: round"/>
    </g>
    <g id="text_23">
     <!-- 17EK_01_movie_04_LPI_000.netts -->
     <g style="fill: #262626" transform="translate(445.2636 88.783294) scale(0.06948 -0.06948)">
      <defs>
       <path id="ArialMT-45" d="M 506 0 
L 506 4581 
L 3819 4581 
L 3819 4041 
L 1113 4041 
L 1113 2638 
L 3647 2638 
L 3647 2100 
L 1113 2100 
L 1113 541 
L 3925 541 
L 3925 0 
L 506 0 
z
" transform="scale(0.015625)"/>
       <path id="ArialMT-4b" d="M 469 0 
L 469 4581 
L 1075 4581 
L 1075 2309 
L 3350 4581 
L 4172 4581 
L 2250 2725 
L 4256 0 
L 3456 0 
L 1825 2319 
L 1075 1588 
L 1075 0 
L 469 0 
z
" transform="scale(0.015625)"/>
      </defs>
      <use xlink:href="#ArialMT-31"/>
      <use xlink:href="#ArialMT-37" x="55.615234"/>
      <use xlink:href="#ArialMT-45" x="111.230469"/>
      <use xlink:href="#ArialMT-4b" x="177.929688"/>
      <use xlink:href="#ArialMT-5f" x="244.628906"/>
      <use xlink:href="#ArialMT-30" x="300.244141"/>
      <use xlink:href="#ArialMT-31" x="355.859375"/>
      <use xlink:href="#ArialMT-5f" x="411.474609"/>
      <use xlink:href="#ArialMT-6d" x="467.089844"/>
      <use xlink:href="#ArialMT-6f" x="550.390625"/>
      <use xlink:href="#ArialMT-76" x="606.005859"/>
      <use xlink:href="#ArialMT-69" x="656.005859"/>
      <use xlink:href="#ArialMT-65" x="678.222656"/>
      <use xlink:href="#ArialMT-5f" x="733.837891"/>
      <use xlink:href="#ArialMT-30" x="789.453125"/>
      <use xlink:href="#ArialMT-34" x="845.068359"/>
      <use xlink:href="#ArialMT-5f" x="900.683594"/>
      <use xlink:href="#ArialMT-4c" x="956.298828"/>
      <use xlink:href="#ArialMT-50" x="1011.914062"/>
      <use xlink:href="#ArialMT-49" x="1078.613281"/>
      <use xlink:href="#ArialMT-5f" x="1106.396484"/>
      <use xlink:href="#ArialMT-30" x="1162.011719"/>
      <use xlink:href="#ArialMT-30" x="1217.626953"/>
      <use xlink:href="#ArialMT-30" x="1273.242188"/>
      <use xlink:href="#ArialMT-2e" x="1328.857422"/>
      <use xlink:href="#ArialMT-6e" x="1356.640625"/>
      <use xlink:href="#ArialMT-65" x="1412.255859"/>
      <use xlink:href="#ArialMT-74" x="1467.871094"/>
      <use xlink:href="#ArialMT-74" x="1495.654297"/>
      <use xlink:href="#ArialMT-73" x="1523.4375"/>
     </g>
    </g>
    <g id="line2d_45">
     <path d="M 425.8092 96.200284 
L 432.7572 96.200284 
L 439.7052 96.200284 
" style="fill: none; stroke: #38aabf; stroke-width: 1.5; stroke-linecap: round"/>
    </g>
    <g id="text_24">
     <!-- 19AK_01_movie_04_LPI_000.netts -->
     <g style="fill: #262626" transform="translate(445.2636 98.632084) scale(0.06948 -0.06948)">
      <defs>
       <path id="ArialMT-39" d="M 350 1059 
L 891 1109 
Q 959 728 1153 556 
Q 1347 384 1650 384 
Q 1909 384 2104 503 
Q 2300 622 2425 820 
Q 2550 1019 2634 1356 
Q 2719 1694 2719 2044 
Q 2719 2081 2716 2156 
Q 2547 1888 2255 1720 
Q 1963 1553 1622 1553 
Q 1053 1553 659 1965 
Q 266 2378 266 3053 
Q 266 3750 677 4175 
Q 1088 4600 1706 4600 
Q 2153 4600 2523 4359 
Q 2894 4119 3086 3673 
Q 3278 3228 3278 2384 
Q 3278 1506 3087 986 
Q 2897 466 2520 194 
Q 2144 -78 1638 -78 
Q 1100 -78 759 220 
Q 419 519 350 1059 
z
M 2653 3081 
Q 2653 3566 2395 3850 
Q 2138 4134 1775 4134 
Q 1400 4134 1122 3828 
Q 844 3522 844 3034 
Q 844 2597 1108 2323 
Q 1372 2050 1759 2050 
Q 2150 2050 2401 2323 
Q 2653 2597 2653 3081 
z
" transform="scale(0.015625)"/>
      </defs>
      <use xlink:href="#ArialMT-31"/>
      <use xlink:href="#ArialMT-39" x="55.615234"/>
      <use xlink:href="#ArialMT-41" x="111.230469"/>
      <use xlink:href="#ArialMT-4b" x="177.929688"/>
      <use xlink:href="#ArialMT-5f" x="244.628906"/>
      <use xlink:href="#ArialMT-30" x="300.244141"/>
      <use xlink:href="#ArialMT-31" x="355.859375"/>
      <use xlink:href="#ArialMT-5f" x="411.474609"/>
      <use xlink:href="#ArialMT-6d" x="467.089844"/>
      <use xlink:href="#ArialMT-6f" x="550.390625"/>
      <use xlink:href="#ArialMT-76" x="606.005859"/>
      <use xlink:href="#ArialMT-69" x="656.005859"/>
      <use xlink:href="#ArialMT-65" x="678.222656"/>
      <use xlink:href="#ArialMT-5f" x="733.837891"/>
      <use xlink:href="#ArialMT-30" x="789.453125"/>
      <use xlink:href="#ArialMT-34" x="845.068359"/>
      <use xlink:href="#ArialMT-5f" x="900.683594"/>
      <use xlink:href="#ArialMT-4c" x="956.298828"/>
      <use xlink:href="#ArialMT-50" x="1011.914062"/>
      <use xlink:href="#ArialMT-49" x="1078.613281"/>
      <use xlink:href="#ArialMT-5f" x="1106.396484"/>
      <use xlink:href="#ArialMT-30" x="1162.011719"/>
      <use xlink:href="#ArialMT-30" x="1217.626953"/>
      <use xlink:href="#ArialMT-30" x="1273.242188"/>
      <use xlink:href="#ArialMT-2e" x="1328.857422"/>
      <use xlink:href="#ArialMT-6e" x="1356.640625"/>
      <use xlink:href="#ArialMT-65" x="1412.255859"/>
      <use xlink:href="#ArialMT-74" x="1467.871094"/>
      <use xlink:href="#ArialMT-74" x="1495.654297"/>
      <use xlink:href="#ArialMT-73" x="1523.4375"/>
     </g>
    </g>
    <g id="line2d_46">
     <path d="M 425.8092 106.049074 
L 432.7572 106.049074 
L 439.7052 106.049074 
" style="fill: none; stroke: #3ba3ec; stroke-width: 1.5; stroke-linecap: round"/>
    </g>
    <g id="text_25">
     <!-- 22TK_01_movie_04_LPI_000.netts -->
     <g style="fill: #262626" transform="translate(445.2636 108.480874) scale(0.06948 -0.06948)">
      <defs>
       <path id="ArialMT-54" d="M 1659 0 
L 1659 4041 
L 150 4041 
L 150 4581 
L 3781 4581 
L 3781 4041 
L 2266 4041 
L 2266 0 
L 1659 0 
z
" transform="scale(0.015625)"/>
      </defs>
      <use xlink:href="#ArialMT-32"/>
      <use xlink:href="#ArialMT-32" x="55.615234"/>
      <use xlink:href="#ArialMT-54" x="111.230469"/>
      <use xlink:href="#ArialMT-4b" x="172.314453"/>
      <use xlink:href="#ArialMT-5f" x="239.013672"/>
      <use xlink:href="#ArialMT-30" x="294.628906"/>
      <use xlink:href="#ArialMT-31" x="350.244141"/>
      <use xlink:href="#ArialMT-5f" x="405.859375"/>
      <use xlink:href="#ArialMT-6d" x="461.474609"/>
      <use xlink:href="#ArialMT-6f" x="544.775391"/>
      <use xlink:href="#ArialMT-76" x="600.390625"/>
      <use xlink:href="#ArialMT-69" x="650.390625"/>
      <use xlink:href="#ArialMT-65" x="672.607422"/>
      <use xlink:href="#ArialMT-5f" x="728.222656"/>
      <use xlink:href="#ArialMT-30" x="783.837891"/>
      <use xlink:href="#ArialMT-34" x="839.453125"/>
      <use xlink:href="#ArialMT-5f" x="895.068359"/>
      <use xlink:href="#ArialMT-4c" x="950.683594"/>
      <use xlink:href="#ArialMT-50" x="1006.298828"/>
      <use xlink:href="#ArialMT-49" x="1072.998047"/>
      <use xlink:href="#ArialMT-5f" x="1100.78125"/>
      <use xlink:href="#ArialMT-30" x="1156.396484"/>
      <use xlink:href="#ArialMT-30" x="1212.011719"/>
      <use xlink:href="#ArialMT-30" x="1267.626953"/>
      <use xlink:href="#ArialMT-2e" x="1323.242188"/>
      <use xlink:href="#ArialMT-6e" x="1351.025391"/>
      <use xlink:href="#ArialMT-65" x="1406.640625"/>
      <use xlink:href="#ArialMT-74" x="1462.255859"/>
      <use xlink:href="#ArialMT-74" x="1490.039062"/>
      <use xlink:href="#ArialMT-73" x="1517.822266"/>
     </g>
    </g>
    <g id="line2d_47">
     <path d="M 425.8092 115.897864 
L 432.7572 115.897864 
L 439.7052 115.897864 
" style="fill: none; stroke: #a48cf4; stroke-width: 1.5; stroke-linecap: round"/>
    </g>
    <g id="text_26">
     <!-- 25JK_01_movie_04_LPI_000.netts -->
     <g style="fill: #262626" transform="translate(445.2636 118.329664) scale(0.06948 -0.06948)">
      <use xlink:href="#ArialMT-32"/>
      <use xlink:href="#ArialMT-35" x="55.615234"/>
      <use xlink:href="#ArialMT-4a" x="111.230469"/>
      <use xlink:href="#ArialMT-4b" x="161.230469"/>
      <use xlink:href="#ArialMT-5f" x="227.929688"/>
      <use xlink:href="#ArialMT-30" x="283.544922"/>
      <use xlink:href="#ArialMT-31" x="339.160156"/>
      <use xlink:href="#ArialMT-5f" x="394.775391"/>
      <use xlink:href="#ArialMT-6d" x="450.390625"/>
      <use xlink:href="#ArialMT-6f" x="533.691406"/>
      <use xlink:href="#ArialMT-76" x="589.306641"/>
      <use xlink:href="#ArialMT-69" x="639.306641"/>
      <use xlink:href="#ArialMT-65" x="661.523438"/>
      <use xlink:href="#ArialMT-5f" x="717.138672"/>
      <use xlink:href="#ArialMT-30" x="772.753906"/>
      <use xlink:href="#ArialMT-34" x="828.369141"/>
      <use xlink:href="#ArialMT-5f" x="883.984375"/>
      <use xlink:href="#ArialMT-4c" x="939.599609"/>
      <use xlink:href="#ArialMT-50" x="995.214844"/>
      <use xlink:href="#ArialMT-49" x="1061.914062"/>
      <use xlink:href="#ArialMT-5f" x="1089.697266"/>
      <use xlink:href="#ArialMT-30" x="1145.3125"/>
      <use xlink:href="#ArialMT-30" x="1200.927734"/>
      <use xlink:href="#ArialMT-30" x="1256.542969"/>
      <use xlink:href="#ArialMT-2e" x="1312.158203"/>
      <use xlink:href="#ArialMT-6e" x="1339.941406"/>
      <use xlink:href="#ArialMT-65" x="1395.556641"/>
      <use xlink:href="#ArialMT-74" x="1451.171875"/>
      <use xlink:href="#ArialMT-74" x="1478.955078"/>
      <use xlink:href="#ArialMT-73" x="1506.738281"/>
     </g>
    </g>
    <g id="line2d_48">
     <path d="M 425.8092 125.746654 
L 432.7572 125.746654 
L 439.7052 125.746654 
" style="fill: none; stroke: #e866f4; stroke-width: 1.5; stroke-linecap: round"/>
    </g>
    <g id="text_27">
     <!-- 27HF_01_movie_04_LPI_000.netts -->
     <g style="fill: #262626" transform="translate(445.2636 128.178454) scale(0.06948 -0.06948)">
      <defs>
       <path id="ArialMT-46" d="M 525 0 
L 525 4581 
L 3616 4581 
L 3616 4041 
L 1131 4041 
L 1131 2622 
L 3281 2622 
L 3281 2081 
L 1131 2081 
L 1131 0 
L 525 0 
z
" transform="scale(0.015625)"/>
      </defs>
      <use xlink:href="#ArialMT-32"/>
      <use xlink:href="#ArialMT-37" x="55.615234"/>
      <use xlink:href="#ArialMT-48" x="111.230469"/>
      <use xlink:href="#ArialMT-46" x="183.447266"/>
      <use xlink:href="#ArialMT-5f" x="244.53125"/>
      <use xlink:href="#ArialMT-30" x="300.146484"/>
      <use xlink:href="#ArialMT-31" x="355.761719"/>
      <use xlink:href="#ArialMT-5f" x="411.376953"/>
      <use xlink:href="#ArialMT-6d" x="466.992188"/>
      <use xlink:href="#ArialMT-6f" x="550.292969"/>
      <use xlink:href="#ArialMT-76" x="605.908203"/>
      <use xlink:href="#ArialMT-69" x="655.908203"/>
      <use xlink:href="#ArialMT-65" x="678.125"/>
      <use xlink:href="#ArialMT-5f" x="733.740234"/>
      <use xlink:href="#ArialMT-30" x="789.355469"/>
      <use xlink:href="#ArialMT-34" x="844.970703"/>
      <use xlink:href="#ArialMT-5f" x="900.585938"/>
      <use xlink:href="#ArialMT-4c" x="956.201172"/>
      <use xlink:href="#ArialMT-50" x="1011.816406"/>
      <use xlink:href="#ArialMT-49" x="1078.515625"/>
      <use xlink:href="#ArialMT-5f" x="1106.298828"/>
      <use xlink:href="#ArialMT-30" x="1161.914062"/>
      <use xlink:href="#ArialMT-30" x="1217.529297"/>
      <use xlink:href="#ArialMT-30" x="1273.144531"/>
      <use xlink:href="#ArialMT-2e" x="1328.759766"/>
      <use xlink:href="#ArialMT-6e" x="1356.542969"/>
      <use xlink:href="#ArialMT-65" x="1412.158203"/>
      <use xlink:href="#ArialMT-74" x="1467.773438"/>
      <use xlink:href="#ArialMT-74" x="1495.556641"/>
      <use xlink:href="#ArialMT-73" x="1523.339844"/>
     </g>
    </g>
    <g id="line2d_49">
     <path d="M 425.8092 135.663838 
L 432.7572 135.663838 
L 439.7052 135.663838 
" style="fill: none; stroke: #f668c2; stroke-width: 1.5; stroke-linecap: round"/>
    </g>
    <g id="text_28">
     <!-- 30AQ_01_movie_04_LPI_000.netts -->
     <g style="fill: #262626" transform="translate(445.2636 138.095638) scale(0.06948 -0.06948)">
      <defs>
       <path id="ArialMT-51" d="M 3966 491 
Q 4388 200 4744 66 
L 4566 -356 
Q 4072 -178 3581 206 
Q 3072 -78 2456 -78 
Q 1834 -78 1328 222 
Q 822 522 548 1065 
Q 275 1609 275 2291 
Q 275 2969 550 3525 
Q 825 4081 1333 4372 
Q 1841 4663 2469 4663 
Q 3103 4663 3612 4361 
Q 4122 4059 4389 3517 
Q 4656 2975 4656 2294 
Q 4656 1728 4484 1276 
Q 4313 825 3966 491 
z
M 2631 1266 
Q 3156 1119 3497 828 
Q 4031 1316 4031 2294 
Q 4031 2850 3842 3265 
Q 3653 3681 3289 3911 
Q 2925 4141 2472 4141 
Q 1794 4141 1347 3677 
Q 900 3213 900 2291 
Q 900 1397 1342 919 
Q 1784 441 2472 441 
Q 2797 441 3084 563 
Q 2800 747 2484 825 
L 2631 1266 
z
" transform="scale(0.015625)"/>
      </defs>
      <use xlink:href="#ArialMT-33"/>
      <use xlink:href="#ArialMT-30" x="55.615234"/>
      <use xlink:href="#ArialMT-41" x="111.230469"/>
      <use xlink:href="#ArialMT-51" x="177.929688"/>
      <use xlink:href="#ArialMT-5f" x="255.712891"/>
      <use xlink:href="#ArialMT-30" x="311.328125"/>
      <use xlink:href="#ArialMT-31" x="366.943359"/>
      <use xlink:href="#ArialMT-5f" x="422.558594"/>
      <use xlink:href="#ArialMT-6d" x="478.173828"/>
      <use xlink:href="#ArialMT-6f" x="561.474609"/>
      <use xlink:href="#ArialMT-76" x="617.089844"/>
      <use xlink:href="#ArialMT-69" x="667.089844"/>
      <use xlink:href="#ArialMT-65" x="689.306641"/>
      <use xlink:href="#ArialMT-5f" x="744.921875"/>
      <use xlink:href="#ArialMT-30" x="800.537109"/>
      <use xlink:href="#ArialMT-34" x="856.152344"/>
      <use xlink:href="#ArialMT-5f" x="911.767578"/>
      <use xlink:href="#ArialMT-4c" x="967.382812"/>
      <use xlink:href="#ArialMT-50" x="1022.998047"/>
      <use xlink:href="#ArialMT-49" x="1089.697266"/>
      <use xlink:href="#ArialMT-5f" x="1117.480469"/>
      <use xlink:href="#ArialMT-30" x="1173.095703"/>
      <use xlink:href="#ArialMT-30" x="1228.710938"/>
      <use xlink:href="#ArialMT-30" x="1284.326172"/>
      <use xlink:href="#ArialMT-2e" x="1339.941406"/>
      <use xlink:href="#ArialMT-6e" x="1367.724609"/>
      <use xlink:href="#ArialMT-65" x="1423.339844"/>
      <use xlink:href="#ArialMT-74" x="1478.955078"/>
      <use xlink:href="#ArialMT-74" x="1506.738281"/>
      <use xlink:href="#ArialMT-73" x="1534.521484"/>
     </g>
    </g>
   </g>
  </g>
 </g>
 <defs>
  <clipPath id="pbad42ce30d">
   <rect x="65.91" y="21.789375" width="357.12" height="266.112"/>
  </clipPath>
 </defs>
</svg>
